<svg width="22" height="21" viewBox="0 0 22 21" fill="none" xmlns="http://www.w3.org/2000/svg">
<path fill-rule="evenodd" clip-rule="evenodd" d="M4.77475 2.30352C4.77475 3.55932 3.82672 4.57561 2.34416 4.57561C0.919356 4.57561 -0.0286773 3.55932 0.000662255 2.30352C-0.0286773 0.986694 0.919333 0 2.37256 0C3.8267 0 4.74633 0.986694 4.77475 2.30352ZM0.119859 20.9981V6.37052H4.62713V20.9971L0.119859 20.9981Z" fill="#F2F2F2"/>
<path fill-rule="evenodd" clip-rule="evenodd" d="M8.23978 11.0387C8.23978 9.2142 8.18018 7.65878 8.12058 6.37247H12.0356L12.2437 8.37638H12.3326C12.9258 7.44887 14.4084 6.04419 16.8106 6.04419C19.7757 6.04419 22 8.01851 22 12.3241V21H17.4927V12.8937C17.4927 11.0082 16.8408 9.7228 15.2097 9.7228C13.9637 9.7228 13.2229 10.5902 12.9268 11.4271C12.8076 11.7267 12.7489 12.1447 12.7489 12.5645V21H8.24159V11.0387H8.23978Z" fill="#F2F2F2"/>
</svg>
