<svg width="26" height="13" viewBox="0 0 26 13" fill="none" xmlns="http://www.w3.org/2000/svg">
<path fill-rule="evenodd" clip-rule="evenodd" d="M12.7218 12.9451H14.2758C14.2758 12.9451 14.7454 12.8999 14.9856 12.6739C15.2068 12.4658 15.1987 12.0756 15.1987 12.0756C15.1987 12.0756 15.1688 10.2486 16.1365 9.97864C17.0906 9.71339 18.3162 11.745 19.6137 12.5264C20.5963 13.1176 21.3414 12.9879 21.3414 12.9879L24.8131 12.9451C24.8131 12.9451 26.629 12.8464 25.7686 11.5951C25.698 11.4928 25.2664 10.6697 23.1872 8.97712C21.0102 7.20603 21.302 7.49269 23.9241 4.42985C25.5216 2.56479 26.1594 1.4253 25.9599 0.937627C25.7699 0.472552 24.5946 0.595065 24.5946 0.595065L20.6858 0.616475C20.6858 0.616475 20.3954 0.581981 20.181 0.694979C19.9706 0.805598 19.8362 1.06252 19.8362 1.06252C19.8362 1.06252 19.2174 2.50651 18.3922 3.73402C16.6509 6.32465 15.9546 6.46143 15.671 6.30086C15.0087 5.92618 15.1743 4.79501 15.1743 3.99095C15.1743 1.48002 15.6086 0.4333 14.3287 0.162105C13.9039 0.0717068 13.5904 0.0134237 12.5033 0.00271867C11.1081 -0.00917583 9.92731 0.0062871 9.25957 0.294134C8.81441 0.484446 8.47104 0.910269 8.6814 0.935248C8.93927 0.964984 9.52422 1.07322 9.83502 1.44314C10.2354 1.9213 10.2218 2.993 10.2218 2.993C10.2218 2.993 10.4525 5.94878 9.68437 6.31513C9.15778 6.5673 8.43439 6.05345 6.88311 3.70191C6.08779 2.49819 5.48791 1.16719 5.48791 1.16719C5.48791 1.16719 5.37254 0.918596 5.16625 0.785377C4.91517 0.623612 4.56637 0.572465 4.56637 0.572465L0.847637 0.596255C0.847637 0.596255 0.289827 0.609338 0.0848896 0.82225C-0.0969753 1.01137 0.0699604 1.4027 0.0699604 1.4027C0.0699604 1.4027 2.97844 7.36661 6.27101 10.3712C9.29214 13.1259 12.7218 12.9451 12.7218 12.9451Z" fill="#F2F2F2"/>
</svg>
