<svg width="116" height="119" viewBox="0 0 116 119" fill="none" xmlns="http://www.w3.org/2000/svg">
<path d="M58 0C26.0168 0 0 26.6897 0 59.5C0 92.3103 26.0168 119 58 119C89.9832 119 116 92.3057 116 59.5C116 26.6943 89.9832 0 58 0ZM58 109.782C30.9768 109.782 8.98524 87.2268 8.98524 59.5C8.98524 31.7732 30.9768 9.21762 58 9.21762C85.0278 9.21762 107.015 31.7732 107.015 59.5C107.015 87.2268 85.0232 109.782 58 109.782Z" fill="#C70101"/>
<path d="M83.653 65.8602L61.1898 42.816C59.4375 41.0278 56.6073 41.0278 54.8551 42.816L32.3919 65.8602C30.9498 67.5838 30.9498 70.1326 32.3919 71.8562C34.0048 73.7874 36.844 74.0131 38.7265 72.3585L58 52.5868L77.3183 72.3587C79.0705 74.147 81.9008 74.147 83.653 72.3587C85.3962 70.5612 85.3962 67.6575 83.653 65.8602Z" fill="#C70101"/>
</svg>
