<?xml version="1.0" encoding="UTF-8"?> <svg xmlns="http://www.w3.org/2000/svg" width="448" height="449" viewBox="0 0 448 449" fill="none"> <circle cx="224.067" cy="224.813" r="223.872" fill="#E82525"></circle> <path d="M321.748 141.521C321.324 133.742 315.138 127.557 307.359 127.132C291.664 126.275 260.95 127.109 231.582 142.299C216.61 150.043 200.776 163.173 188.14 178.321C187.984 178.508 187.833 178.696 187.678 178.883L159.001 181.098C154.281 181.463 150.076 183.937 147.466 187.886L127.901 217.478C125.921 220.472 125.606 224.22 127.059 227.503C128.511 230.786 131.496 233.074 135.043 233.623L159.204 237.365C159.119 237.835 159.033 238.304 158.955 238.774C158.15 243.585 159.744 248.532 163.219 252.007L196.873 285.661C199.754 288.542 203.647 290.13 207.636 290.13C208.458 290.13 209.284 290.063 210.106 289.925C210.576 289.847 211.045 289.761 211.515 289.676L215.257 313.837C215.807 317.384 218.095 320.369 221.377 321.822C222.743 322.426 224.188 322.724 225.627 322.724C227.647 322.724 229.654 322.136 231.402 320.979L260.994 301.415C264.943 298.803 267.417 294.599 267.781 289.879L269.996 261.202C270.183 261.048 270.372 260.896 270.558 260.741C285.707 248.105 298.837 232.271 306.581 217.299C321.772 187.929 322.605 157.215 321.748 141.521ZM254.666 291.843L226.36 310.558L222.713 287.012C234.676 283.494 246.511 277.861 257.785 270.313L256.342 288.995C256.252 290.16 255.641 291.199 254.666 291.843ZM204.986 277.548L171.332 243.894C170.474 243.035 170.077 241.828 170.271 240.666C171.272 234.683 172.827 228.987 174.751 223.622L225.247 274.118C218.803 276.426 213.031 277.803 208.214 278.609C207.05 278.802 205.845 278.406 204.986 277.548ZM159.885 192.538L178.566 191.095C171.019 202.37 165.385 214.204 161.867 226.168L138.321 222.521L157.037 194.214C157.682 193.239 158.72 192.628 159.885 192.538ZM263.209 251.929C253.941 259.66 244.945 265.252 236.652 269.298L179.58 212.226C184.881 201.401 191.349 192.387 196.951 185.671C208.645 171.652 223.189 159.558 236.854 152.49C263.807 138.548 292.206 137.798 306.735 138.588C308.658 138.693 310.187 140.223 310.292 142.146C311.084 156.675 310.332 185.073 296.39 212.027C289.322 225.692 277.228 240.235 263.209 251.929Z" fill="white"></path> <path d="M260.294 217.257C267.638 217.256 274.986 214.46 280.577 208.869C285.995 203.451 288.978 196.248 288.978 188.586C288.978 180.925 285.994 173.722 280.577 168.304C269.393 157.12 251.195 157.12 240.012 168.304C234.594 173.722 231.61 180.925 231.61 188.586C231.61 196.248 234.594 203.451 240.012 208.869C245.604 214.461 252.948 217.257 260.294 217.257ZM248.124 176.417C251.479 173.061 255.886 171.384 260.294 171.384C264.701 171.384 269.108 173.061 272.463 176.417C275.714 179.667 277.504 183.989 277.504 188.586C277.504 193.183 275.714 197.505 272.463 200.756C265.753 207.466 254.834 207.466 248.124 200.756C244.873 197.505 243.083 193.183 243.083 188.586C243.083 183.99 244.874 179.667 248.124 176.417Z" fill="white"></path> <path d="M132.009 288.278C133.477 288.278 134.945 287.718 136.065 286.598L154.795 267.867C157.036 265.627 157.036 261.994 154.795 259.754C152.555 257.514 148.923 257.514 146.682 259.754L127.952 278.484C125.712 280.725 125.712 284.357 127.952 286.598C129.072 287.718 130.54 288.278 132.009 288.278Z" fill="white"></path> <path d="M171.961 276.919C169.721 274.679 166.088 274.679 163.847 276.919L127.837 312.93C125.597 315.171 125.597 318.803 127.837 321.043C128.957 322.164 130.425 322.723 131.893 322.723C133.362 322.723 134.83 322.164 135.95 321.043L171.96 285.033C174.201 282.792 174.201 279.16 171.961 276.919Z" fill="white"></path> <path d="M181.013 294.085L162.282 312.815C160.042 315.055 160.042 318.688 162.282 320.928C163.403 322.048 164.871 322.609 166.339 322.609C167.807 322.609 169.275 322.049 170.395 320.928L189.126 302.198C191.366 299.957 191.366 296.325 189.126 294.085C186.886 291.844 183.253 291.844 181.013 294.085Z" fill="white"></path> </svg> 