<?xml version="1.0" encoding="UTF-8"?> <svg xmlns="http://www.w3.org/2000/svg" width="448" height="449" viewBox="0 0 448 449" fill="none"> <circle cx="223.902" cy="224.813" r="223.872" fill="#E82525"></circle> <path d="M230.344 327.464H217.459C207.038 327.464 198.56 318.986 198.56 308.565V304.206C194.129 302.791 189.825 301.004 185.69 298.864L182.6 301.953C175.119 309.444 163.134 309.224 155.869 301.95L146.763 292.844C139.485 285.575 139.276 273.594 146.765 266.113L149.852 263.026C147.712 258.891 145.925 254.587 144.51 250.156H140.151C129.73 250.156 121.252 241.678 121.252 231.257V218.372C121.252 207.951 129.73 199.472 140.151 199.472H144.51C145.926 195.042 147.712 190.738 149.852 186.602L146.763 183.514C139.278 176.037 139.485 164.055 146.765 156.782L155.873 147.675C163.154 140.384 175.136 140.202 182.604 147.678L185.69 150.764C189.825 148.625 194.13 146.838 198.56 145.422V141.063C198.56 130.642 207.038 122.164 217.46 122.164H230.344C240.765 122.164 249.244 130.642 249.244 141.063V145.422C253.674 146.838 257.979 148.625 262.114 150.765L265.203 147.675C272.685 140.184 284.67 140.404 291.934 147.678L301.041 156.784C308.318 164.054 308.527 176.035 301.038 183.516L297.952 186.602C300.092 190.738 301.878 195.041 303.294 199.472H307.652C318.073 199.472 326.552 207.951 326.552 218.372V231.257C326.552 241.678 318.073 250.156 307.652 250.156H303.294C301.878 254.587 300.092 258.891 297.952 263.026L301.041 266.115C308.525 273.592 308.319 285.574 301.038 292.846L291.931 301.953C284.65 309.245 272.668 309.427 265.2 301.951L262.114 298.865C257.979 301.004 253.674 302.791 249.244 304.207V308.566C249.244 318.986 240.765 327.464 230.344 327.464ZM187.7 286.232C193.445 289.629 199.628 292.196 206.078 293.86C208.734 294.546 210.589 296.941 210.589 299.684V308.565C210.589 312.353 213.672 315.435 217.46 315.435H230.344C234.132 315.435 237.215 312.353 237.215 308.565V299.684C237.215 296.941 239.07 294.546 241.727 293.86C248.176 292.196 254.359 289.629 260.104 286.232C262.467 284.834 265.477 285.214 267.419 287.156L273.709 293.447C276.421 296.163 280.777 296.1 283.423 293.45L292.536 284.337C295.175 281.701 295.263 277.345 292.538 274.624L286.245 268.33C284.303 266.389 283.923 263.379 285.32 261.016C288.718 255.271 291.284 249.088 292.949 242.638C293.634 239.982 296.03 238.127 298.772 238.127H307.653C311.441 238.127 314.523 235.045 314.523 231.257V218.372C314.523 214.584 311.441 211.502 307.653 211.502H298.772C296.029 211.502 293.634 209.646 292.949 206.991C291.284 200.541 288.717 194.358 285.32 188.614C283.923 186.25 284.303 183.241 286.245 181.299L292.536 175.008C295.255 172.292 295.184 167.937 292.538 165.294L283.426 156.182C280.784 153.537 276.428 153.46 273.712 156.18L267.419 162.473C265.478 164.415 262.467 164.795 260.104 163.397C254.359 160 248.176 157.433 241.727 155.769C239.071 155.083 237.215 152.688 237.215 149.945V141.063C237.215 137.275 234.133 134.193 230.345 134.193H217.46C213.672 134.193 210.59 137.275 210.59 141.063V149.944C210.59 152.687 208.734 155.083 206.078 155.768C199.629 157.432 193.446 159.999 187.701 163.397C185.337 164.794 182.327 164.414 180.386 162.472L174.095 156.181C171.383 153.466 167.027 153.529 164.382 156.179L155.269 165.291C152.63 167.927 152.542 172.283 155.267 175.005L161.56 181.298C163.501 183.24 163.882 186.249 162.484 188.613C159.087 194.357 156.52 200.54 154.856 206.99C154.17 209.646 151.775 211.501 149.032 211.501H140.151C136.363 211.502 133.281 214.584 133.281 218.372V231.257C133.281 235.045 136.363 238.127 140.151 238.127H149.032C151.775 238.127 154.17 239.982 154.856 242.638C156.52 249.088 159.087 255.271 162.484 261.015C163.881 263.379 163.501 266.388 161.56 268.33L155.269 274.621C152.549 277.337 152.62 281.692 155.266 284.334L164.378 293.447C167.02 296.092 171.376 296.169 174.092 293.449L180.385 287.156C181.816 285.725 184.792 284.512 187.7 286.232Z" fill="white"></path> <path d="M223.902 269.483C199.271 269.483 179.233 249.445 179.233 224.814C179.233 200.184 199.271 180.145 223.902 180.145C248.533 180.145 268.571 200.184 268.571 224.814C268.571 249.445 248.533 269.483 223.902 269.483ZM223.902 192.175C205.904 192.175 191.262 206.817 191.262 224.814C191.262 242.812 205.904 257.454 223.902 257.454C241.899 257.454 256.541 242.812 256.541 224.814C256.541 206.817 241.9 192.175 223.902 192.175Z" fill="white"></path> </svg> 