<?xml version="1.0" encoding="UTF-8"?> <svg xmlns="http://www.w3.org/2000/svg" width="449" height="449" viewBox="0 0 449 449" fill="none"> <circle cx="224.37" cy="224.813" r="223.872" fill="#E82525"></circle> <path d="M327.02 261.102C327.02 231.178 306.857 205.033 278.424 197.154C276.637 155.501 242.197 122.164 200.111 122.164C156.886 122.164 121.72 157.329 121.72 200.555C121.72 214.642 125.47 228.359 132.591 240.4L122.009 278.656L160.266 268.076C171.335 274.621 183.822 278.308 196.709 278.864C204.586 307.299 230.733 327.464 260.659 327.464C272.603 327.464 284.219 324.283 294.425 318.238L326.73 327.174L317.795 294.869C323.839 284.663 327.02 273.047 327.02 261.102ZM162.164 255.069L139.262 261.405L145.597 238.502L144.153 236.243C137.348 225.596 133.75 213.255 133.75 200.555C133.75 163.963 163.519 134.193 200.111 134.193C236.703 134.193 266.473 163.963 266.473 200.555C266.473 237.147 236.703 266.916 200.111 266.916C187.412 266.916 175.072 263.319 164.423 256.513L162.164 255.069ZM309.479 309.923L292.485 305.221L290.215 306.698C281.417 312.413 271.195 315.435 260.659 315.435C237.139 315.435 216.471 300.227 209.149 278.421C245.165 274.269 273.825 245.608 277.979 209.591C299.784 216.915 314.991 237.583 314.991 261.102C314.991 271.639 311.97 281.861 306.254 290.659L304.777 292.928L309.479 309.923Z" fill="white"></path> <path d="M194.097 230.829H206.126V242.858H194.097V230.829Z" fill="white"></path> <path d="M212.141 182.31C212.141 185.727 210.75 188.88 208.225 191.19L194.097 204.121V218.799H206.126V209.419L216.346 200.065C221.318 195.514 224.17 189.044 224.17 182.31C224.17 169.044 213.378 158.252 200.111 158.252C186.845 158.252 176.053 169.044 176.053 182.31H188.082C188.082 175.677 193.478 170.281 200.111 170.281C206.745 170.281 212.141 175.677 212.141 182.31Z" fill="white"></path> </svg> 