<svg width="53" height="54" viewBox="0 0 53 54" fill="none" xmlns="http://www.w3.org/2000/svg">
<path d="M26.1204 0.915964C26.5201 0.438502 27.2542 0.438501 27.6539 0.915963L28.6082 2.05593C28.9579 2.47357 29.5774 2.5346 30.0018 2.19322L31.1554 1.26527C31.6403 0.875176 32.36 1.01808 32.6591 1.56388L33.3779 2.8755C33.6394 3.35263 34.2344 3.53316 34.7169 3.28177L36.0277 2.59889C36.5789 2.31173 37.2558 2.59162 37.4432 3.18421L37.8973 4.62019C38.0611 5.13793 38.6081 5.43038 39.1296 5.279L40.5505 4.86651C41.1462 4.69361 41.7539 5.09902 41.8231 5.71538L41.9921 7.22224C42.0525 7.76048 42.5305 8.15282 43.0702 8.10719L44.55 7.98207C45.1665 7.92995 45.6819 8.44452 45.6308 9.06111L45.5049 10.5807C45.4603 11.119 45.8511 11.5954 46.3878 11.6568L47.8717 11.8267C48.4848 11.8968 48.8887 12.5002 48.7198 13.0939L48.3009 14.5657C48.1535 15.0839 48.443 15.6257 48.9557 15.7911L50.3869 16.2528C50.973 16.4419 51.2505 17.1108 50.9704 17.6593L50.2737 19.0236C50.0292 19.5024 50.207 20.0889 50.6763 20.3513L51.998 21.0901C52.5348 21.3902 52.6761 22.0992 52.2952 22.5822L51.3483 23.7831C51.0157 24.2048 51.0757 24.8139 51.4841 25.1627L52.6424 26.1519C53.1098 26.5511 53.1098 27.2735 52.6424 27.6727L51.4841 28.6619C51.0757 29.0107 51.0157 29.6198 51.3483 30.0415L52.2952 31.2424C52.6761 31.7254 52.5348 32.4344 51.998 32.7345L50.6763 33.4733C50.207 33.7357 50.0292 34.3222 50.2737 34.801L50.9704 36.1653C51.2505 36.7138 50.973 37.3827 50.3869 37.5718L48.9557 38.0335C48.443 38.1989 48.1535 38.7407 48.3009 39.2589L48.7198 40.7307C48.8887 41.3244 48.4848 41.9278 47.8717 41.9979L46.3878 42.1678C45.8511 42.2292 45.4603 42.7056 45.5049 43.2439L45.6308 44.7635C45.6819 45.3801 45.1665 45.8947 44.55 45.8425L43.0702 45.7174C42.5305 45.6718 42.0525 46.0641 41.9921 46.6024L41.8231 48.1092C41.7539 48.7256 41.1462 49.131 40.5505 48.9581L39.1296 48.5456C38.6081 48.3942 38.0611 48.6867 37.8973 49.2044L37.4432 50.6404C37.2558 51.233 36.5789 51.5129 36.0277 51.2257L34.7169 50.5428C34.2344 50.2914 33.6394 50.472 33.3779 50.9491L32.6591 52.2607C32.36 52.8065 31.6404 52.9494 31.1554 52.5593L30.0018 51.6314C29.5774 51.29 28.9579 51.351 28.6082 51.7687L27.6539 52.9086C27.2542 53.3861 26.5201 53.3861 26.1204 52.9086L25.1661 51.7687C24.8164 51.351 24.1969 51.29 23.7725 51.6314L22.6189 52.5593C22.134 52.9494 21.4143 52.8065 21.1152 52.2607L20.3964 50.9491C20.1349 50.472 19.5399 50.2914 19.0574 50.5428L17.7466 51.2257C17.1954 51.5129 16.5185 51.233 16.3311 50.6404L15.877 49.2044C15.7132 48.6867 15.1662 48.3942 14.6448 48.5456L13.2238 48.9581C12.6281 49.131 12.0204 48.7256 11.9512 48.1092L11.7822 46.6024C11.7218 46.0641 11.2439 45.6718 10.7042 45.7174L9.22432 45.8425C8.60782 45.8947 8.09239 45.3801 8.14349 44.7635L8.26944 43.2439C8.31405 42.7056 7.92317 42.2292 7.38656 42.1678L5.90265 41.9979C5.28947 41.9278 4.88562 41.3244 5.05454 40.7307L5.47337 39.2589C5.62081 38.7407 5.33129 38.1989 4.81859 38.0335L3.38743 37.5718C2.80129 37.3827 2.52377 36.7138 2.80389 36.1653L3.50061 34.801C3.74515 34.3222 3.5673 33.7357 3.098 33.4733L1.77634 32.7345C1.2395 32.4344 1.09825 31.7254 1.47907 31.2424L2.42604 30.0415C2.7586 29.6198 2.69863 29.0107 2.2902 28.6619L1.13194 27.6727C0.664471 27.2735 0.664471 26.5511 1.13194 26.1519L2.29021 25.1627C2.69863 24.8139 2.7586 24.2048 2.42604 23.7831L1.47907 22.5822C1.09825 22.0992 1.23951 21.3902 1.77634 21.0901L3.098 20.3513C3.5673 20.0889 3.74515 19.5024 3.50061 19.0236L2.80389 17.6593C2.52377 17.1108 2.80129 16.4419 3.38743 16.2528L4.81859 15.7911C5.33129 15.6257 5.62081 15.0839 5.47337 14.5657L5.05454 13.0939C4.88562 12.5002 5.28947 11.8968 5.90265 11.8267L7.38656 11.6568C7.92317 11.5954 8.31405 11.119 8.26944 10.5807L8.14349 9.06111C8.09239 8.44452 8.60782 7.92995 9.22432 7.98207L10.7042 8.10719C11.2439 8.15282 11.7218 7.76048 11.7822 7.22224L11.9512 5.71538C12.0204 5.09902 12.6281 4.69361 13.2238 4.86651L14.6448 5.279C15.1662 5.43038 15.7132 5.13793 15.877 4.62019L16.3311 3.18421C16.5185 2.59162 17.1954 2.31173 17.7466 2.59889L19.0574 3.28177C19.5399 3.53316 20.1349 3.35263 20.3964 2.8755L21.1152 1.56387C21.4143 1.01808 22.134 0.875175 22.6189 1.26527L23.7725 2.19322C24.1969 2.5346 24.8164 2.47357 25.1661 2.05593L26.1204 0.915964Z" fill="#41AC58"/>
</svg>
