<svg width="31" height="31" viewBox="0 0 31 31" fill="none" xmlns="http://www.w3.org/2000/svg">
<path d="M10.9607 7.78163C10.9243 7.78638 10.888 7.78638 10.8421 7.75C10.4878 7.83225 10.1319 7.90658 9.77922 7.9999C9.33952 8.11853 8.99946 8.38425 8.72741 8.74645C8.38103 9.21303 8.15169 9.73498 7.96822 10.2807C7.76418 10.8848 7.69617 11.4985 7.79423 12.1359C7.87964 12.699 8.06944 13.2257 8.26241 13.7571C8.58032 14.6381 8.93145 15.5017 9.42334 16.3036C10.1778 17.5389 11.111 18.6239 12.1565 19.6188C12.9821 20.4017 13.8741 21.1024 14.8548 21.6828C15.935 22.3202 17.1086 22.741 18.2996 23.1079C18.9165 23.3009 19.5586 23.3531 20.2024 23.2091C20.9109 23.051 21.5768 22.7932 22.1731 22.3756C22.3882 22.2222 22.6017 22.0324 22.752 21.8157C23.111 21.2937 23.2138 20.6864 23.2486 20.068C23.2613 19.8481 23.1869 19.6884 23.0019 19.5792C22.6587 19.3736 22.3186 19.1585 21.9691 18.9576C21.3174 18.5828 20.6278 18.2712 20.011 17.8299C19.954 17.7888 19.8844 17.7603 19.8196 17.7287C19.5871 17.6116 19.3657 17.6306 19.1632 17.8014C19.0636 17.8837 18.9607 17.9691 18.8753 18.0656C18.5195 18.4657 18.1747 18.8691 17.8172 19.2661C17.4329 19.6947 17.2399 19.7421 16.7448 19.4622C16.2197 19.1648 15.6994 18.8532 15.1996 18.5132C13.9026 17.6354 12.8761 16.4966 12.0726 15.1569C11.8559 14.7947 11.6598 14.4246 11.4621 14.0545C11.334 13.8125 11.383 13.5832 11.5728 13.3997C11.8164 13.1656 12.0758 12.9458 12.3257 12.7164C12.6246 12.4428 12.9346 12.1755 13.2162 11.8876C13.4139 11.6868 13.4202 11.4337 13.2873 11.1822C13.2225 11.0715 13.1561 10.9576 13.0865 10.8469C13.0105 10.7298 12.9204 10.6191 12.8555 10.4973C12.6025 10.0434 12.3652 9.58156 12.1074 9.13237C11.8844 8.74328 11.6487 8.36368 11.4147 7.98409C11.3103 7.81168 11.1489 7.76582 10.9607 7.78163Z" fill="white"/>
<path d="M9.21072 10.0316C9.17434 10.0364 9.13796 10.0364 9.09209 10C8.7378 10.0822 8.38193 10.1566 8.02922 10.2499C7.58952 10.3685 7.24946 10.6342 6.97741 10.9964C6.63103 11.463 6.40169 11.985 6.21822 12.5307C6.01418 13.1348 5.94617 13.7485 6.04423 14.3859C6.12964 14.949 6.31944 15.4757 6.51241 16.0071C6.83032 16.8881 7.18145 17.7517 7.67334 18.5536C8.42779 19.7889 9.36097 20.8739 10.4065 21.8688C11.2321 22.6517 12.1241 23.3524 13.1048 23.9328C14.185 24.5702 15.3586 24.991 16.5496 25.3579C17.1665 25.5509 17.8086 25.6031 18.4524 25.4591C19.1609 25.301 19.8268 25.0432 20.4231 24.6256C20.6382 24.4722 20.8517 24.2824 21.002 24.0657C21.361 23.5437 21.4638 22.9364 21.4986 22.318C21.5113 22.0981 21.4369 21.9384 21.2519 21.8292C20.9087 21.6236 20.5686 21.4085 20.2191 21.2076C19.5674 20.8328 18.8778 20.5212 18.261 20.0799C18.204 20.0388 18.1344 20.0103 18.0696 19.9787C17.8371 19.8616 17.6157 19.8806 17.4132 20.0514C17.3136 20.1337 17.2107 20.2191 17.1253 20.3156C16.7695 20.7157 16.4247 21.1191 16.0672 21.5161C15.6829 21.9447 15.4899 21.9921 14.9948 21.7122C14.4697 21.4148 13.9494 21.1032 13.4496 20.7632C12.1526 19.8854 11.1261 18.7466 10.3226 17.4069C10.1059 17.0447 9.90981 16.6746 9.7121 16.3045C9.58399 16.0625 9.63302 15.8332 9.82282 15.6497C10.0664 15.4156 10.3258 15.1958 10.5757 14.9664C10.8746 14.6928 11.1846 14.4255 11.4662 14.1376C11.6639 13.9368 11.6702 13.6837 11.5373 13.4322C11.4725 13.3215 11.4061 13.2076 11.3365 13.0969C11.2605 12.9798 11.1704 12.8691 11.1055 12.7473C10.8525 12.2934 10.6152 11.8316 10.3574 11.3824C10.1344 10.9933 9.89874 10.6137 9.66465 10.2341C9.56026 10.0617 9.39893 10.0158 9.21072 10.0316Z" fill="white" fill-opacity="0.2"/>
</svg>
