<svg width="50" height="50" viewBox="0 0 50 50" fill="none" xmlns="http://www.w3.org/2000/svg">
<path d="M21.2266 27.8302V32.5472L27.8303 39.151V7.0755L21.2266 13.6793V19.3397M29.7171 14.6227C30.6887 13.4082 33.4907 12.7359 35.0314 14.1826C36.3209 15.5661 38.9364 14.8233 39.6228 13.6793M39.6228 33.4906C38.9364 34.6346 36.3209 35.3774 35.0314 33.9939C33.4907 32.5472 30.6887 33.2196 29.7171 34.434M39.6228 27.3269C38.9364 28.4709 36.3209 29.2137 35.0314 27.8302C33.4907 26.3835 30.6887 27.0558 29.7171 28.2703M39.6228 20.7231C38.9364 21.8672 36.3209 22.6099 35.0314 21.2264C33.4907 19.7797 30.6887 20.4521 29.7171 21.6665" stroke="white"/>
<circle cx="25" cy="25" r="24" stroke="white" stroke-width="2"/>
<circle cx="16.5094" cy="13.6792" r="1.85849" stroke="white"/>
<circle cx="10.8492" cy="21.2264" r="1.85849" stroke="white"/>
<circle cx="15.566" cy="32.5471" r="1.85849" stroke="white"/>
<circle cx="14.6226" cy="25.9434" r="0.915094" fill="white" stroke="white"/>
<circle cx="10.8492" cy="36.3207" r="0.915094" fill="white" stroke="white"/>
<circle cx="18.3961" cy="20.283" r="0.915094" fill="white" stroke="white"/>
</svg>
