<svg width="50" height="50" viewBox="0 0 50 50" fill="none" xmlns="http://www.w3.org/2000/svg">
<circle cx="25" cy="25" r="24" stroke="white" stroke-width="2"/>
<line x1="29.5" y1="12" x2="29.5" y2="39" stroke="white"/>
<path d="M41 32.824H32.6V30.952L37.7 28.492L32.6 26.044V24.172H41V25.528H34.424L40.4 28.504L34.388 31.492H41V32.824Z" fill="white"/>
<path d="M39 22.1074H38.289L35.589 19.5244C35.427 19.3684 35.28 19.2484 35.148 19.1644C35.016 19.0744 34.89 19.0114 34.77 18.9754C34.644 18.9334 34.515 18.9124 34.383 18.9124C34.119 18.9124 33.9 19.0204 33.726 19.2364C33.552 19.4524 33.465 19.7254 33.465 20.0554C33.465 20.3434 33.522 20.6134 33.636 20.8654C33.75 21.1174 33.948 21.3934 34.23 21.6934L33.555 22.2514C33.237 21.9034 33 21.5464 32.844 21.1804C32.682 20.8144 32.601 20.4334 32.601 20.0374C32.601 19.6234 32.676 19.2604 32.826 18.9484C32.97 18.6364 33.171 18.3934 33.429 18.2194C33.687 18.0454 33.987 17.9584 34.329 17.9584C34.533 17.9584 34.725 17.9854 34.905 18.0394C35.085 18.0934 35.268 18.1864 35.454 18.3184C35.64 18.4444 35.853 18.6214 36.093 18.8494L38.163 20.8474L38.154 17.8414H39V22.1074Z" fill="white"/>
<circle cx="18" cy="18" r="6" fill="white"/>
<path d="M18.0455 26.0476L24.0435 25L26 36H10L12 25L18.0455 26.0476Z" fill="white"/>
</svg>
