<svg width="50" height="50" viewBox="0 0 50 50" fill="none" xmlns="http://www.w3.org/2000/svg">
<circle cx="25" cy="25" r="24" stroke="white" stroke-width="2"/>
<path d="M10.9297 40.0307C10.9466 40.3063 11.1838 40.516 11.4594 40.4991L15.9509 40.2225C16.2266 40.2055 16.4362 39.9683 16.4193 39.6927C16.4023 39.4171 16.1651 39.2074 15.8895 39.2244L11.897 39.4702L11.6512 35.4778C11.6342 35.2022 11.397 34.9925 11.1214 35.0095C10.8458 35.0264 10.6361 35.2636 10.6531 35.5392L10.9297 40.0307ZM37.7542 10.7536C37.7372 10.478 37.5 10.2683 37.2244 10.2853L32.7329 10.5618C32.4573 10.5788 32.2476 10.816 32.2646 11.0916C32.2816 11.3672 32.5188 11.5769 32.7944 11.5599L36.7868 11.3141L37.0327 15.3065C37.0496 15.5822 37.2868 15.7918 37.5624 15.7749C37.8381 15.7579 38.0477 15.5207 38.0308 15.2451L37.7542 10.7536ZM11.8033 40.3312L37.6298 11.1155L36.8805 10.4532L11.0541 39.6688L11.8033 40.3312Z" fill="white"/>
</svg>
