<svg width="50" height="50" viewBox="0 0 50 50" fill="none" xmlns="http://www.w3.org/2000/svg">
<circle cx="25" cy="25" r="24" stroke="white" stroke-width="2"/>
<path d="M19.48 22H17.416L14.308 17.656V22H12.496V13.432H14.308V17.584L17.38 13.432H19.312L16.192 17.548L19.48 22ZM20.5585 22V13.432H27.3385V22H25.5265V14.944H22.3705V22H20.5585ZM36.2079 13.432V20.488H37.3479V24.496H35.5959V22H30.2319V24.496H28.4799V20.488H29.1399C29.3639 20.04 29.5799 19.568 29.7879 19.072C29.9959 18.576 30.1879 18.044 30.3639 17.476C30.5479 16.908 30.7119 16.292 30.8559 15.628C30.9999 14.956 31.1199 14.224 31.2159 13.432H36.2079ZM32.6559 14.944C32.5999 15.36 32.5199 15.804 32.4159 16.276C32.3119 16.74 32.1879 17.216 32.0439 17.704C31.9079 18.192 31.7559 18.672 31.5879 19.144C31.4199 19.616 31.2399 20.064 31.0479 20.488H34.3959V14.944H32.6559ZM15.91 29.468C16.598 29.468 17.202 29.644 17.722 29.996C18.242 30.34 18.65 30.82 18.946 31.436C19.242 32.052 19.39 32.764 19.39 33.572C19.39 34.484 19.226 35.284 18.898 35.972C18.57 36.652 18.114 37.18 17.53 37.556C16.946 37.932 16.262 38.12 15.478 38.12C15.078 38.12 14.674 38.056 14.266 37.928C13.866 37.8 13.526 37.624 13.246 37.4L13.966 36.44C14.206 36.608 14.458 36.736 14.722 36.824C14.994 36.904 15.282 36.944 15.586 36.944C16.106 36.944 16.55 36.812 16.918 36.548C17.286 36.284 17.57 35.9 17.77 35.396C17.97 34.892 18.074 34.292 18.082 33.596C17.794 33.988 17.446 34.292 17.038 34.508C16.63 34.724 16.206 34.832 15.766 34.832C15.214 34.832 14.726 34.72 14.302 34.496C13.878 34.272 13.546 33.968 13.306 33.584C13.066 33.192 12.946 32.744 12.946 32.24C12.946 31.704 13.074 31.228 13.33 30.812C13.586 30.396 13.938 30.068 14.386 29.828C14.842 29.588 15.35 29.468 15.91 29.468ZM15.97 33.788C16.362 33.788 16.734 33.7 17.086 33.524C17.446 33.34 17.758 33.092 18.022 32.78C17.95 32.34 17.818 31.956 17.626 31.628C17.442 31.3 17.21 31.048 16.93 30.872C16.65 30.688 16.326 30.596 15.958 30.596C15.63 30.596 15.334 30.668 15.07 30.812C14.814 30.948 14.61 31.14 14.458 31.388C14.314 31.628 14.242 31.904 14.242 32.216C14.242 32.52 14.314 32.792 14.458 33.032C14.61 33.272 14.814 33.46 15.07 33.596C15.334 33.724 15.634 33.788 15.97 33.788ZM23.5397 38.132C22.9157 38.132 22.3357 38.024 21.7997 37.808C21.2637 37.584 20.8077 37.272 20.4317 36.872L21.3077 36.032C21.6437 36.384 21.9797 36.632 22.3157 36.776C22.6517 36.912 23.0517 36.98 23.5157 36.98C23.8837 36.98 24.2037 36.924 24.4757 36.812C24.7557 36.692 24.9717 36.528 25.1237 36.32C25.2757 36.112 25.3517 35.868 25.3517 35.588C25.3517 35.34 25.2877 35.12 25.1597 34.928C25.0317 34.736 24.8557 34.588 24.6317 34.484C24.4077 34.372 24.1477 34.316 23.8517 34.316H22.8197V33.212H23.7437C24.1517 33.212 24.4757 33.1 24.7157 32.876C24.9637 32.652 25.0877 32.348 25.0877 31.964C25.0877 31.716 25.0157 31.492 24.8717 31.292C24.7357 31.084 24.5477 30.924 24.3077 30.812C24.0677 30.692 23.7957 30.632 23.4917 30.632C23.0677 30.632 22.6957 30.708 22.3757 30.86C22.0637 31.004 21.7397 31.26 21.4037 31.628L20.5157 30.8C20.8997 30.368 21.3517 30.04 21.8717 29.816C22.3997 29.584 22.9517 29.468 23.5277 29.468C24.0877 29.468 24.5837 29.568 25.0157 29.768C25.4477 29.968 25.7837 30.248 26.0237 30.608C26.2717 30.96 26.3957 31.364 26.3957 31.82C26.3957 32.268 26.2477 32.668 25.9517 33.02C25.6637 33.364 25.2837 33.604 24.8117 33.74C25.3717 33.86 25.8197 34.096 26.1557 34.448C26.4997 34.792 26.6717 35.2 26.6717 35.672C26.6717 36.144 26.5357 36.568 26.2637 36.944C25.9917 37.312 25.6197 37.604 25.1477 37.82C24.6837 38.028 24.1477 38.132 23.5397 38.132ZM29.4488 33.86C28.9128 33.86 28.4768 33.664 28.1408 33.272C27.8048 32.872 27.6368 32.348 27.6368 31.7C27.6368 31.044 27.8048 30.52 28.1408 30.128C28.4768 29.736 28.9128 29.54 29.4488 29.54C29.9848 29.54 30.4208 29.736 30.7568 30.128C31.0928 30.52 31.2608 31.044 31.2608 31.7C31.2608 32.348 31.0928 32.872 30.7568 33.272C30.4208 33.664 29.9848 33.86 29.4488 33.86ZM29.4488 33.116C29.7448 33.116 29.9808 32.992 30.1568 32.744C30.3408 32.496 30.4328 32.148 30.4328 31.7C30.4328 31.252 30.3408 30.904 30.1568 30.656C29.9808 30.4 29.7448 30.272 29.4488 30.272C29.1528 30.272 28.9128 30.4 28.7288 30.656C28.5528 30.904 28.4648 31.252 28.4648 31.7C28.4648 32.148 28.5528 32.496 28.7288 32.744C28.9128 32.992 29.1528 33.116 29.4488 33.116ZM29.0288 38L33.7688 29.6H34.7768L30.0248 38H29.0288ZM34.4288 38.06C33.8928 38.06 33.4568 37.864 33.1208 37.472C32.7848 37.072 32.6168 36.548 32.6168 35.9C32.6168 35.244 32.7848 34.72 33.1208 34.328C33.4568 33.936 33.8928 33.74 34.4288 33.74C34.9648 33.74 35.4008 33.936 35.7368 34.328C36.0728 34.72 36.2408 35.244 36.2408 35.9C36.2408 36.548 36.0728 37.072 35.7368 37.472C35.4008 37.864 34.9648 38.06 34.4288 38.06ZM34.4288 37.316C34.7248 37.316 34.9608 37.192 35.1368 36.944C35.3208 36.696 35.4128 36.348 35.4128 35.9C35.4128 35.452 35.3208 35.104 35.1368 34.856C34.9608 34.6 34.7248 34.472 34.4288 34.472C34.1328 34.472 33.8928 34.6 33.7088 34.856C33.5328 35.104 33.4448 35.452 33.4448 35.9C33.4448 36.348 33.5328 36.696 33.7088 36.944C33.8928 37.192 34.1328 37.316 34.4288 37.316Z" fill="white"/>
</svg>
