<svg width="50" height="50" viewBox="0 0 50 50" fill="none" xmlns="http://www.w3.org/2000/svg">
<path d="M25 1.5L2 24.5L26 48.5" stroke="white"/>
<path d="M49 25C49 38.2548 38.2548 49 25 49C11.7452 49 1 38.2548 1 25C1 11.7452 11.7452 1 25 1C38.2548 1 49 11.7452 49 25Z" stroke="white" stroke-width="2"/>
<path d="M24.7246 36.2324L32.5 39.0566V40.2109L23.9688 36.959V36.2148L24.7246 36.2324ZM32.5 33.8652L24.7246 36.6953L23.9688 36.7129V35.9688L32.5 32.7051V33.8652ZM29.3418 34.0117H30.2676V38.8047H29.3418V34.0117ZM23.9688 26.7871V25.6621H29.7402C30.3809 25.6621 30.9141 25.8047 31.3398 26.0898C31.7656 26.375 32.0859 26.7539 32.3008 27.2266C32.5117 27.6953 32.6172 28.2051 32.6172 28.7559C32.6172 29.334 32.5117 29.8574 32.3008 30.3262C32.0859 30.791 31.7656 31.1602 31.3398 31.4336C30.9141 31.7031 30.3809 31.8379 29.7402 31.8379H23.9688V30.7188H29.7402C30.1855 30.7188 30.5527 30.6367 30.8418 30.4727C31.1309 30.3086 31.3457 30.0801 31.4863 29.7871C31.627 29.4902 31.6973 29.1465 31.6973 28.7559C31.6973 28.3613 31.627 28.0176 31.4863 27.7246C31.3457 27.4277 31.1309 27.1973 30.8418 27.0332C30.5527 26.8691 30.1855 26.7871 29.7402 26.7871H23.9688ZM23.9688 20.7344H32.5V21.8477H23.9688V20.7344ZM23.9688 17.9922H24.8945V24.584H23.9688V17.9922ZM27.9648 10.3223H28.5039C29.1445 10.3223 29.7188 10.4023 30.2266 10.5625C30.7344 10.7227 31.166 10.9531 31.5215 11.2539C31.877 11.5547 32.1484 11.916 32.3359 12.3379C32.5234 12.7559 32.6172 13.2246 32.6172 13.7441C32.6172 14.248 32.5234 14.7109 32.3359 15.1328C32.1484 15.5508 31.877 15.9141 31.5215 16.2227C31.166 16.5273 30.7344 16.7637 30.2266 16.9316C29.7188 17.0996 29.1445 17.1836 28.5039 17.1836H27.9648C27.3242 17.1836 26.752 17.1016 26.248 16.9375C25.7402 16.7695 25.3086 16.5332 24.9531 16.2285C24.5938 15.9238 24.3203 15.5625 24.1328 15.1445C23.9453 14.7227 23.8516 14.2598 23.8516 13.7559C23.8516 13.2363 23.9453 12.7676 24.1328 12.3496C24.3203 11.9277 24.5938 11.5664 24.9531 11.2656C25.3086 10.9609 25.7402 10.7285 26.248 10.5684C26.752 10.4043 27.3242 10.3223 27.9648 10.3223ZM28.5039 11.4414H27.9531C27.4453 11.4414 26.9961 11.4941 26.6055 11.5996C26.2148 11.7012 25.8867 11.8516 25.6211 12.0508C25.3555 12.25 25.1543 12.4941 25.0176 12.7832C24.8809 13.0684 24.8125 13.3926 24.8125 13.7559C24.8125 14.1074 24.8809 14.4258 25.0176 14.7109C25.1543 14.9922 25.3555 15.2344 25.6211 15.4375C25.8867 15.6367 26.2148 15.791 26.6055 15.9004C26.9961 16.0098 27.4453 16.0645 27.9531 16.0645H28.5039C29.0156 16.0645 29.4688 16.0098 29.8633 15.9004C30.2539 15.791 30.584 15.6348 30.8535 15.4316C31.1191 15.2246 31.3203 14.9805 31.457 14.6992C31.5938 14.4141 31.6621 14.0957 31.6621 13.7441C31.6621 13.377 31.5938 13.0508 31.457 12.7656C31.3203 12.4805 31.1191 12.2402 30.8535 12.0449C30.584 11.8457 30.2539 11.6953 29.8633 11.5938C29.4688 11.4922 29.0156 11.4414 28.5039 11.4414Z" fill="white"/>
</svg>
