<svg width="50" height="50" viewBox="0 0 50 50" fill="none" xmlns="http://www.w3.org/2000/svg">
<path d="M28.122 29.7601L27.358 29.7375L27.6434 30.4466C28.6072 32.841 30.3922 36.1372 32.6302 38.172C33.7513 39.1914 35.0332 39.9369 36.4219 40.0383C37.8343 40.1414 39.2573 39.5718 40.6251 38.1644C43.2441 35.4694 44.1599 33.2654 44.0809 31.5927C44.0006 29.892 42.8938 28.8473 41.7709 28.5618L41.7175 28.5482L41.6624 28.5466C41.5055 28.542 41.2841 28.5612 41.0067 28.5852C40.0123 28.6714 38.2973 28.8199 36.2453 28.1583C34.9232 27.7321 34.1169 27.3175 33.6337 27.0107C33.3926 26.8576 33.2289 26.7295 33.1194 26.6369C33.0685 26.594 33.0286 26.5581 32.9931 26.5261C32.9896 26.523 32.9863 26.52 32.9829 26.517C32.9812 26.5154 32.979 26.5135 32.9766 26.5113C32.9511 26.4881 32.8913 26.4339 32.8323 26.3973L32.2463 26.0331L32.0827 26.7034C31.8217 27.773 31.0981 28.5442 30.2772 29.0524C29.444 29.5684 28.5745 29.7734 28.122 29.7601Z" fill="white" stroke="white"/>
<path d="M29.1754 18.0745L29.6519 18.5066L29.9531 17.9382C31.2006 15.5841 32.5708 12.0259 32.5294 9.06432C32.5086 7.57518 32.1292 6.16637 31.1189 5.15941C30.1028 4.14674 28.5386 3.62936 26.3437 3.73393C22.0793 3.9371 19.5763 4.90769 18.2744 6.13091C16.9423 7.3826 16.8893 8.89761 17.5594 9.89881L17.5935 9.94981L17.639 9.99104C17.7602 10.101 17.9514 10.2359 18.1901 10.4043C19.0364 11.0014 20.4794 12.0196 21.5143 13.8386C22.1829 15.0136 22.4596 15.8363 22.5768 16.3655C22.6352 16.6295 22.6549 16.8248 22.6625 16.9596C22.6661 17.0224 22.6671 17.0731 22.6681 17.1197C22.6682 17.1241 22.6682 17.1285 22.6683 17.1329C22.6684 17.1348 22.6684 17.1372 22.6684 17.1401C22.6689 17.1716 22.6701 17.2611 22.6879 17.3373L22.837 17.9766L23.4137 17.6629C24.5527 17.0434 25.8023 16.969 26.8848 17.1501C27.9837 17.334 28.8376 17.7681 29.1754 18.0745Z" fill="white" stroke="white"/>
<path d="M18.6035 24.6684L18.6348 24.0022L17.9866 24.159C15.415 24.7808 11.855 26.1043 9.63324 28.0848C8.51721 29.0796 7.68765 30.2866 7.55557 31.6994C7.42235 33.1242 8.00913 34.6367 9.46845 36.2104C12.296 39.2597 14.6078 40.4926 16.3614 40.6579C18.1551 40.8271 19.3284 39.8651 19.6654 38.7196L19.6823 38.6619L19.6851 38.6019C19.6927 38.4398 19.6756 38.209 19.6541 37.9207C19.5779 36.8962 19.4477 35.1455 20.1831 33.1713C20.6579 31.8967 21.1108 31.146 21.4412 30.7077C21.606 30.489 21.7429 30.3447 21.8412 30.2495C21.887 30.2052 21.9252 30.1708 21.9599 30.1394C21.9633 30.1364 21.9665 30.1334 21.9698 30.1305C21.9713 30.1291 21.9732 30.1274 21.9755 30.1254C21.9995 30.104 22.0648 30.0458 22.11 29.9844L22.5032 29.4507L21.882 29.2193C20.7061 28.7812 19.8718 27.9043 19.3335 26.9809C18.787 26.0436 18.5822 25.1227 18.6035 24.6684Z" fill="white" stroke="white"/>
<circle cx="25" cy="25" r="24" stroke="white" stroke-width="2"/>
<circle cx="25.5" cy="23.5" r="3" fill="white" fill-opacity="0.97" stroke="white"/>
</svg>
