<svg width="50" height="50" viewBox="0 0 50 50" fill="none" xmlns="http://www.w3.org/2000/svg">
<path d="M25 1.5L2 24.5L26 48.5" stroke="white"/>
<path d="M49 25C49 38.2548 38.2548 49 25 49C11.7452 49 1 38.2548 1 25C1 11.7452 11.7452 1 25 1C38.2548 1 49 11.7452 49 25Z" stroke="white" stroke-width="2"/>
<path d="M27.2788 21.5994L27.2785 17.4254M27.2785 17.4254L27.2788 10.3547C25.6398 7.90124 23.8643 9.3324 23.1815 10.3547V26.7109C21.1327 23.6441 17.4896 20.5772 18.0598 25.6884C18.573 30.2884 23.3517 37.4444 25.2298 40H34.9618C37.0108 38.3644 38.3173 35.2379 39 34.0452V27.4006V20.066C37.361 18.0215 35.6447 19.2142 34.9618 20.066M27.2785 17.4254C27.7907 16.4032 29.2249 15.6876 30.8639 16.9143L31 18.5327M31 23V21V18.5327M31 18.5327C30.9998 17.3657 33.7325 16.0792 34.9618 18.5327V24.1551" stroke="white"/>
</svg>
