<svg width="15" height="16" viewBox="0 0 15 16" fill="none" xmlns="http://www.w3.org/2000/svg">
<path fill-rule="evenodd" clip-rule="evenodd" d="M7.5 15.3853C3.35786 15.3853 0 12.071 0 7.98267C0 3.89433 3.35786 0.580078 7.5 0.580078C11.6421 0.580078 15 3.89433 15 7.98267C15 12.071 11.6421 15.3853 7.5 15.3853ZM7.6045 7.5672C8.2186 7.5672 11.2045 5.90994 11.2045 5.90994L11.2093 5.61384C11.2093 5.28694 10.9405 5.02163 10.6084 5.02163H4.6006C4.2688 5.02163 4 5.28694 4 5.61384V5.87767C4 5.87767 7.0186 7.5672 7.6045 7.5672ZM4.0048 6.79825C4.0045 6.79825 7.0186 8.3818 7.6045 8.3818C8.2468 8.3818 11.2045 6.79825 11.2045 6.79825L11.2093 10.3522C11.2093 10.6792 10.9405 10.9445 10.6084 10.9445H4.6006C4.2691 10.9445 4 10.6792 4 10.3522L4.0048 6.79825Z" fill="white"/>
</svg>
