<svg width="15" height="16" viewBox="0 0 15 16" fill="none" xmlns="http://www.w3.org/2000/svg">
<path fill-rule="evenodd" clip-rule="evenodd" d="M7.5 0.916504C3.35786 0.916504 0 4.23097 0 8.31958C0 12.4082 3.35786 15.7227 7.5 15.7227C11.6421 15.7227 15 12.4082 15 8.31958C15 4.23097 11.6421 0.916504 7.5 0.916504ZM5.24617 4.61804C5.26837 4.63542 5.28597 4.63542 5.30357 4.63315C5.39465 4.6256 5.47271 4.64751 5.52322 4.72986C5.53214 4.74414 5.54106 4.75842 5.54999 4.7727C5.65441 4.93977 5.75902 5.10715 5.85843 5.27837C5.9304 5.40216 5.99906 5.52797 6.06778 5.65389C6.11818 5.74624 6.16862 5.83866 6.22042 5.93039C6.24048 5.96758 6.26554 6.0026 6.2906 6.03763C6.30475 6.05741 6.3189 6.07719 6.33216 6.09737C6.36411 6.14755 6.39469 6.19909 6.42454 6.24941L6.42936 6.25754C6.49364 6.37767 6.49058 6.49855 6.39492 6.5945C6.29422 6.69615 6.18599 6.79243 6.07796 6.88853C6.03985 6.92243 6.00176 6.95631 5.96404 6.9904C5.91715 7.03289 5.86956 7.07469 5.822 7.11648C5.74692 7.18243 5.6719 7.24834 5.59975 7.31679C5.50791 7.40443 5.48419 7.51398 5.54618 7.62958C5.55192 7.64019 5.55766 7.6508 5.56339 7.6614C5.65327 7.82758 5.74303 7.99355 5.84159 8.15618C6.23037 8.79611 6.72707 9.34009 7.35463 9.75941C7.59647 9.92185 7.84826 10.0707 8.10234 10.2127C8.34189 10.3465 8.43526 10.3238 8.62123 10.119C8.71946 10.0113 8.81571 9.90268 8.91209 9.79386C8.98542 9.71107 9.05882 9.62819 9.13323 9.5456C9.17456 9.49951 9.2243 9.45871 9.27252 9.41943C9.37048 9.33783 9.47762 9.32876 9.59012 9.38467C9.59718 9.38807 9.60435 9.39139 9.61153 9.39472C9.63633 9.4062 9.66137 9.4178 9.68273 9.43302C9.88229 9.57397 10.0976 9.68721 10.3126 9.80031C10.4192 9.85636 10.5257 9.91238 10.6302 9.97172C10.7379 10.0328 10.8438 10.0967 10.9494 10.1604C11.0095 10.1967 11.0696 10.233 11.1299 10.2686C11.2195 10.3208 11.2555 10.3971 11.2493 10.5021C11.2325 10.7975 11.1828 11.0876 11.009 11.337C10.9363 11.4405 10.833 11.5311 10.7289 11.6044C10.4404 11.8039 10.1182 11.927 9.77533 12.0026C9.46385 12.0713 9.15313 12.0464 8.85465 11.9542C8.27837 11.7789 7.7105 11.578 7.18779 11.2735C6.71329 10.9962 6.28165 10.6615 5.88215 10.2875C5.37628 9.8123 4.92474 9.29401 4.55968 8.70394C4.32167 8.32089 4.15177 7.90837 3.99794 7.48754C3.90457 7.23368 3.81273 6.98209 3.7714 6.71312C3.72395 6.40864 3.75686 6.1155 3.85559 5.82689C3.94437 5.56623 4.05534 5.31691 4.22294 5.09402C4.35458 4.92101 4.51912 4.79408 4.73188 4.73742C4.85209 4.70602 4.97307 4.67912 5.094 4.65223C5.14475 4.64094 5.19549 4.62966 5.24617 4.61804Z" fill="white"/>
</svg>
