<svg width="31" height="31" viewBox="0 0 31 31" fill="none" xmlns="http://www.w3.org/2000/svg">
<path d="M15.1837 2.38419e-05C23.5694 2.38419e-05 30.3673 6.79799 30.3673 15.1837C30.3673 23.5694 23.5694 30.3674 15.1837 30.3674C6.79796 30.3674 0 23.5694 0 15.1837C0 6.79799 6.79796 2.38419e-05 15.1837 2.38419e-05Z" fill="#7F4DA0"/>
<path d="M19.2289 13.2594C19.155 12.6595 18.9706 12.1884 18.6431 11.7711C18.2179 11.2338 17.6745 10.9121 16.87 10.7212C16.3457 10.594 16.1338 10.6086 15.9442 10.7818C15.7676 10.9441 15.7331 11.2694 15.8681 11.4801C15.963 11.633 16.0725 11.6878 16.3771 11.7476C16.7827 11.8222 17.063 11.9191 17.318 12.0649C17.8591 12.3774 18.1112 12.8664 18.1382 13.658C18.1508 14.0297 18.1829 14.144 18.3127 14.2759C18.5533 14.5169 18.9816 14.47 19.1632 14.1816C19.2299 14.0729 19.2401 14.0256 19.2471 13.7732C19.2518 13.6169 19.245 13.3843 19.2289 13.2594V13.2594Z" fill="white"/>
<path d="M21.3488 13.9358C21.2419 12.0977 20.5229 10.6189 19.2362 9.57844C18.5113 8.9938 17.635 8.59178 16.6745 8.39627C16.3226 8.32635 15.6748 8.26967 15.5637 8.30209C15.4588 8.33211 15.3105 8.44567 15.2444 8.54836C15.1744 8.65972 15.1587 8.90835 15.2183 9.05217C15.3146 9.2926 15.4937 9.37754 15.9952 9.42142C16.7684 9.48906 17.5658 9.7607 18.1684 10.1628C18.8563 10.6207 19.4031 11.247 19.7569 11.9829C20.0625 12.6152 20.2505 13.5264 20.2453 14.3424C20.2436 14.6375 20.2891 14.8042 20.4078 14.926C20.587 15.1134 20.8481 15.1543 21.0786 15.0299C21.334 14.8956 21.3937 14.6598 21.3488 13.9358V13.9358Z" fill="white"/>
<path d="M23.6943 21.0144C23.6584 20.9094 23.5745 20.7473 23.5146 20.6543C23.137 20.0841 21.1082 18.4964 20.0953 17.9772C19.517 17.6801 19.0885 17.5811 18.7708 17.674C18.4292 17.7701 18.2494 17.9291 17.677 18.6405C17.4463 18.9256 17.2096 19.1927 17.1466 19.2347C16.9908 19.3427 16.6851 19.4298 16.4694 19.4298C15.9689 19.4268 15.0609 19.1026 14.3627 18.6765C13.8203 18.3464 13.1251 17.7551 12.5917 17.1699C11.9623 16.4826 11.5339 15.8764 11.1952 15.1921C10.7577 14.3127 10.6468 13.7755 10.8296 13.3823C10.8746 13.2833 10.9345 13.1783 10.9614 13.1452C10.9884 13.1152 11.2701 12.8841 11.5818 12.632C12.1931 12.1458 12.292 12.0348 12.4059 11.7017C12.5497 11.2785 12.5108 10.8463 12.289 10.4111C12.1182 10.081 11.6717 9.36069 11.3481 8.89552C10.9195 8.28329 9.8527 6.97476 9.6399 6.79764C9.25634 6.48554 8.76493 6.43149 8.22248 6.64161C7.65016 6.86371 6.57732 7.72805 6.11881 8.3313C5.70527 8.87751 5.5465 9.26465 5.5225 9.77486C5.50154 10.195 5.53748 10.3691 5.75924 10.9063C7.49432 15.12 10.0834 18.4844 13.6405 21.1555C15.4984 22.551 17.4253 23.6135 19.4241 24.3398C20.5898 24.763 21.0962 24.7839 21.6926 24.4358C21.9443 24.2858 22.5676 23.6465 22.9152 23.1813C23.4906 22.407 23.7034 22.0499 23.7633 21.7647C23.8052 21.5697 23.7723 21.2305 23.6943 21.0144V21.0144Z" fill="white"/>
<path d="M23.5066 14.358C23.4682 13.3183 23.2931 12.4654 22.9281 11.5146C22.5677 10.5793 22.203 9.96897 21.5142 9.14348C20.863 8.36947 20.3571 7.92753 19.5549 7.43559C18.4357 6.75018 17.0736 6.2966 15.5471 6.10584C15.0265 6.03918 14.9088 6.04394 14.7491 6.1505C14.4396 6.35237 14.4437 6.85588 14.7542 7.05473C14.8569 7.11798 14.9481 7.14103 15.3645 7.19553C16.0037 7.28159 16.4148 7.36269 16.9025 7.49576C18.815 8.01857 20.2858 9.08722 21.269 10.6736C22.0918 11.9958 22.4334 13.3181 22.3849 15.007C22.3681 15.5779 22.3803 15.6784 22.4676 15.8156C22.6347 16.0713 23.0755 16.1219 23.3016 15.9097C23.4423 15.7804 23.4688 15.6833 23.4965 15.1946C23.5098 14.9397 23.5127 14.5634 23.5066 14.358V14.358Z" fill="white"/>
</svg>
