<svg width="32" height="31" viewBox="0 0 32 31" fill="none" xmlns="http://www.w3.org/2000/svg">
<path d="M15.9185 30.3673C24.3042 30.3673 31.1022 23.5694 31.1022 15.1837C31.1022 6.79796 24.3042 0 15.9185 0C7.53283 0 0.734863 6.79796 0.734863 15.1837C0.734863 23.5694 7.53283 30.3673 15.9185 30.3673Z" fill="#25D366"/>
<path fill-rule="evenodd" clip-rule="evenodd" d="M16.419 23.6312H16.4153C14.9042 23.6306 13.4194 23.2515 12.1007 22.5322L7.31445 23.7877L8.59533 19.1092C7.80522 17.7399 7.38947 16.1867 7.39015 14.5954C7.39213 9.61737 11.4424 5.56732 16.4189 5.56732C18.8342 5.56836 21.1011 6.50862 22.8057 8.21523C24.5103 9.92176 25.4486 12.1901 25.4476 14.6026C25.4456 19.5795 21.397 23.6291 16.419 23.6312ZM12.3225 20.8977L12.5965 21.0603C13.7487 21.7441 15.0694 22.1058 16.416 22.1064H16.419C20.5551 22.1064 23.9215 18.7399 23.9232 14.602C23.924 12.5969 23.1442 10.7115 21.7273 9.29301C20.3105 7.87454 18.4264 7.09299 16.422 7.09229C12.2826 7.09229 8.91619 10.4584 8.91455 14.596C8.91396 16.0139 9.31071 17.3948 10.0619 18.5896L10.2403 18.8735L9.48223 21.6427L12.3225 20.8977ZM20.6586 16.5464C20.816 16.6225 20.9222 16.6738 20.9676 16.7495C21.024 16.8436 21.024 17.2953 20.8361 17.8223C20.648 18.3493 19.7468 18.8303 19.3133 18.895C18.9246 18.9531 18.4328 18.9773 17.8924 18.8056C17.5647 18.7016 17.1445 18.5628 16.6063 18.3304C14.4914 17.4172 13.0621 15.3674 12.792 14.98C12.7731 14.9528 12.7598 14.9338 12.7525 14.924L12.7506 14.9215C12.6312 14.7623 11.8313 13.6949 11.8313 12.5903C11.8313 11.5511 12.3417 11.0064 12.5767 10.7557C12.5928 10.7385 12.6076 10.7227 12.6209 10.7083C12.8276 10.4824 13.0721 10.4259 13.2224 10.4259C13.3728 10.4259 13.5234 10.4273 13.6548 10.4339C13.671 10.4347 13.6879 10.4346 13.7054 10.4345C13.8368 10.4338 14.0007 10.4328 14.1624 10.8212C14.2246 10.9707 14.3156 11.1922 14.4116 11.4259C14.6057 11.8985 14.8202 12.4207 14.858 12.4963C14.9144 12.6092 14.952 12.7409 14.8768 12.8915C14.8655 12.9141 14.855 12.9354 14.8451 12.9558C14.7886 13.0711 14.747 13.1559 14.6512 13.2678C14.6135 13.3118 14.5745 13.3593 14.5356 13.4067C14.458 13.5013 14.3803 13.5958 14.3128 13.6631C14.1998 13.7756 14.0823 13.8976 14.2139 14.1235C14.3455 14.3493 14.7982 15.0881 15.4689 15.6863C16.1898 16.3293 16.8164 16.6011 17.134 16.7389C17.196 16.7658 17.2462 16.7876 17.2831 16.806C17.5086 16.919 17.6402 16.9001 17.7718 16.7495C17.9034 16.599 18.3358 16.0908 18.4861 15.865C18.6365 15.6392 18.7869 15.6768 18.9937 15.7521C19.2005 15.8274 20.3097 16.3731 20.5353 16.486C20.5793 16.5081 20.6205 16.528 20.6586 16.5464Z" fill="#FDFDFD"/>
</svg>
