<svg width="20" height="19" viewBox="0 0 20 19" fill="none" xmlns="http://www.w3.org/2000/svg">
<path fill-rule="evenodd" clip-rule="evenodd" d="M10.001 13.5411C9.587 13.5411 9.251 13.2051 9.251 12.7911V0.750122C9.251 0.336122 9.587 0.00012207 10.001 0.00012207C10.415 0.00012207 10.751 0.336122 10.751 0.750122V12.7911C10.751 13.2051 10.415 13.5411 10.001 13.5411Z" fill="#FF5F01"/>
<path fill-rule="evenodd" clip-rule="evenodd" d="M10.001 13.5412C9.802 13.5412 9.61 13.4622 9.47 13.3202L6.554 10.3932C6.262 10.0992 6.263 9.62415 6.556 9.33215C6.85 9.04015 7.324 9.04015 7.616 9.33415L10.001 11.7292L12.386 9.33415C12.678 9.04015 13.152 9.04015 13.446 9.33215C13.739 9.62415 13.74 10.0992 13.448 10.3932L10.532 13.3202C10.392 13.4622 10.2 13.5412 10.001 13.5412Z" fill="#FF5F01"/>
<mask id="mask0" mask-type="alpha" maskUnits="userSpaceOnUse" x="0" y="4" width="20" height="15">
<path fill-rule="evenodd" clip-rule="evenodd" d="M0.000200272 4.73267H20V18.4767H0.000200272V4.73267Z" fill="white"/>
</mask>
<g mask="url(#mask0)">
<path fill-rule="evenodd" clip-rule="evenodd" d="M15.5752 18.4767H4.4352C1.9902 18.4767 0.000200272 16.4877 0.000200272 14.0417V9.15667C0.000200272 6.71667 1.9852 4.73267 4.4262 4.73267H5.3672C5.7812 4.73267 6.1172 5.06867 6.1172 5.48267C6.1172 5.89667 5.7812 6.23267 5.3672 6.23267H4.4262C2.8122 6.23267 1.5002 7.54367 1.5002 9.15667V14.0417C1.5002 15.6607 2.8162 16.9767 4.4352 16.9767H15.5752C17.1872 16.9767 18.5002 15.6637 18.5002 14.0517V9.16767C18.5002 7.54867 17.1832 6.23267 15.5662 6.23267H14.6342C14.2202 6.23267 13.8842 5.89667 13.8842 5.48267C13.8842 5.06867 14.2202 4.73267 14.6342 4.73267H15.5662C18.0112 4.73267 20.0002 6.72267 20.0002 9.16767V14.0517C20.0002 16.4917 18.0142 18.4767 15.5752 18.4767Z" fill="#FF5F01"/>
</g>
</svg>
