<svg width="14" height="14" viewBox="0 0 14 14" fill="none" xmlns="http://www.w3.org/2000/svg">
<path d="M12.9333 9.50375C12.0222 9.50375 11.1407 9.3556 10.3185 9.08893C10.0592 9.00004 9.77035 9.06671 9.57035 9.26671L8.40739 10.726C6.31109 9.72597 4.34813 7.83708 3.30368 5.66671L4.74813 4.43708C4.94813 4.22967 5.00739 3.94078 4.92591 3.68152C4.65183 2.8593 4.51109 1.97782 4.51109 1.06671C4.51109 0.666707 4.17776 0.333374 3.77776 0.333374H1.21479C0.814795 0.333374 0.333313 0.511152 0.333313 1.06671C0.333313 7.94819 6.05924 13.6667 12.9333 13.6667C13.4592 13.6667 13.6666 13.2 13.6666 12.7926V10.2371C13.6666 9.83708 13.3333 9.50375 12.9333 9.50375Z" fill="#DBDBDB"/>
</svg>
