<svg width="50" height="50" viewBox="0 0 50 50" fill="none" xmlns="http://www.w3.org/2000/svg">
<path d="M48.6569 21.7476C48.6558 21.7464 48.6546 21.7453 48.6535 21.7442L28.2553 1.34888C27.3859 0.479126 26.2299 0 25.0003 0C23.7707 0 22.6147 0.478745 21.7449 1.3485L1.35746 21.7335C1.35059 21.7403 1.34372 21.7476 1.33686 21.7545C-0.448603 23.55 -0.445551 26.4633 1.34563 28.2543C2.16397 29.073 3.24478 29.5471 4.40037 29.5967C4.4473 29.6013 4.4946 29.6036 4.54229 29.6036H5.35529V44.6133C5.35529 47.5834 7.77215 50 10.7433 50H18.7237C19.5325 50 20.1887 49.3443 20.1887 48.5352V36.7676C20.1887 35.4122 21.2913 34.3098 22.6468 34.3098H27.3538C28.7093 34.3098 29.8119 35.4122 29.8119 36.7676V48.5352C29.8119 49.3443 30.4677 50 31.2769 50H39.2573C42.2285 50 44.6453 47.5834 44.6453 44.6133V29.6036H45.3992C46.6284 29.6036 47.7844 29.1248 48.6546 28.2551C50.4477 26.461 50.4485 23.5428 48.6569 21.7476Z" fill="#4B5320"/>
</svg>
