<svg width="51" height="30" viewBox="0 0 51 30" fill="none" xmlns="http://www.w3.org/2000/svg">
<path d="M50.5507 2.14355L35.0835 15.0001L50.5507 27.8567C50.8303 27.3678 51 26.8273 51 26.2501V3.75014C51 3.17289 50.8303 2.63247 50.5507 2.14355Z" fill="#4B5320"/>
<path d="M46.5175 0H4.48238C3.79239 0 3.14642 0.141917 2.56201 0.375834L22.3308 16.8311C24.0787 18.2934 26.9212 18.2934 28.6691 16.8311L48.4379 0.375834C47.8535 0.141917 47.2075 0 46.5175 0Z" fill="#4B5320"/>
<path d="M0.449238 2.14355C0.169635 2.63247 0 3.17289 0 3.75014V26.2501C0 26.8274 0.169635 27.3679 0.449238 27.8567L15.9165 15.0001L0.449238 2.14355Z" fill="#4B5320"/>
<path d="M32.9707 16.7676L30.7819 18.5987C27.8695 21.0352 23.1304 21.0352 20.2179 18.5987L18.0293 16.7676L2.56201 29.6242C3.14642 29.8581 3.79239 30 4.48238 30H46.5175C47.2075 30 47.8535 29.8581 48.4379 29.6242L32.9707 16.7676Z" fill="#4B5320"/>
</svg>
