<svg width="45" height="45" viewBox="0 0 45 45" fill="none" xmlns="http://www.w3.org/2000/svg">
<path d="M43.82 33.0254L37.5269 26.7455C35.2793 24.5027 31.4585 25.4 30.5595 28.3155C29.8853 30.3341 27.6377 31.4555 25.6149 31.0069C21.1199 29.8855 15.0515 24.0542 13.9278 19.3443C13.2535 17.3256 14.602 15.0828 16.6248 14.4101C19.5466 13.5129 20.4456 9.70017 18.1981 7.45735L11.905 1.17748C10.107 -0.392492 7.40991 -0.392492 5.83664 1.17748L1.56632 5.43882C-2.70399 9.92445 2.01583 21.8114 12.5792 32.3526C23.1427 42.8938 35.0546 47.8281 39.5497 43.3424L43.82 39.081C45.3933 37.2868 45.3933 34.5954 43.82 33.0254Z" fill="#4B5320"/>
</svg>
