<svg width="148" height="105" viewBox="0 0 148 105" fill="none" xmlns="http://www.w3.org/2000/svg">
<path d="M2.89062 33.2227H145.109V102.949H2.89062V33.2227Z" fill="white"/>
<path d="M19.0781 44.707H46.5758V60.293H19.0781V44.707Z" fill="white"/>
<path d="M19.0781 75.8789H46.5758V91.4648H19.0781V75.8789Z" fill="white"/>
<path d="M74.0366 75.8789H101.534V91.4648H74.0366V75.8789Z" fill="white"/>
<path d="M19.0781 60.293H46.5758V75.8789H19.0781V60.293Z" fill="white"/>
<path d="M46.5758 60.293H74.0735V75.8789H46.5758V60.293Z" fill="white"/>
<path d="M101.498 60.293H128.995V75.8789H101.498V60.293Z" fill="white"/>
<path d="M74.0366 44.707H101.534V60.293H74.0366V44.707Z" fill="white"/>
<path d="M2.89062 10.2539H145.109V33.2227H2.89062V10.2539Z" fill="#4B5320"/>
<path d="M114.469 15.5859V6.5625C114.469 4.0708 117.316 2.05078 120.828 2.05078C124.34 2.05078 127.187 4.0708 127.187 6.5625V15.5859C127.187 18.0776 124.34 20.0977 120.828 20.0977C117.316 20.0977 114.469 18.0776 114.469 15.5859Z" fill="white"/>
<path d="M83.25 15.5859V6.5625C83.25 4.0708 86.0973 2.05078 89.6094 2.05078C93.1215 2.05078 95.9687 4.0708 95.9687 6.5625V15.5859C95.9687 18.0776 93.1215 20.0977 89.6094 20.0977C86.0973 20.0977 83.25 18.0776 83.25 15.5859Z" fill="white"/>
<path d="M52.0312 15.5859V6.5625C52.0312 4.0708 54.8785 2.05078 58.3906 2.05078C61.9027 2.05078 64.75 4.0708 64.75 6.5625V15.5859C64.75 18.0776 61.9027 20.0977 58.3906 20.0977C54.8785 20.0977 52.0312 18.0776 52.0312 15.5859Z" fill="white"/>
<path d="M20.8125 15.5859V6.5625C20.8125 4.0708 23.6598 2.05078 27.1719 2.05078C30.684 2.05078 33.5312 4.0708 33.5312 6.5625V15.5859C33.5312 18.0776 30.684 20.0977 27.1719 20.0977C23.6598 20.0977 20.8125 18.0776 20.8125 15.5859Z" fill="white"/>
<path d="M145.109 8.20312H130.078V6.5625C130.078 2.9439 125.929 0 120.828 0C115.728 0 111.578 2.9439 111.578 6.5625V8.20312H98.8594V6.5625C98.8594 2.9439 94.7099 0 89.6094 0C84.5089 0 80.3594 2.9439 80.3594 6.5625V8.20312H67.6406V6.5625C67.6406 2.9439 63.4911 0 58.3906 0C53.2901 0 49.1406 2.9439 49.1406 6.5625V8.20312H36.4219V6.5625C36.4219 2.9439 32.2724 0 27.1719 0C22.0714 0 17.9219 2.9439 17.9219 6.5625V8.20312H2.89062C1.29413 8.20312 0 9.12126 0 10.2539V102.949C0 104.082 1.29413 105 2.89062 105H145.109C146.706 105 148 104.082 148 102.949V10.2539C148 9.12126 146.706 8.20312 145.109 8.20312ZM117.359 6.5625C117.359 5.2055 118.915 4.10156 120.828 4.10156C122.741 4.10156 124.297 5.2055 124.297 6.5625V15.5859C124.297 16.9429 122.741 18.0469 120.828 18.0469C118.915 18.0469 117.359 16.9429 117.359 15.5859V6.5625ZM86.1406 6.5625C86.1406 5.2055 87.6966 4.10156 89.6094 4.10156C91.5221 4.10156 93.0781 5.2055 93.0781 6.5625V15.5859C93.0781 16.9429 91.5221 18.0469 89.6094 18.0469C87.6966 18.0469 86.1406 16.9429 86.1406 15.5859V6.5625ZM54.9219 6.5625C54.9219 5.2055 56.4779 4.10156 58.3906 4.10156C60.3034 4.10156 61.8594 5.2055 61.8594 6.5625V15.5859C61.8594 16.9429 60.3034 18.0469 58.3906 18.0469C56.4779 18.0469 54.9219 16.9429 54.9219 15.5859V6.5625ZM23.7031 6.5625C23.7031 5.2055 25.2591 4.10156 27.1719 4.10156C29.0846 4.10156 30.6406 5.2055 30.6406 6.5625V15.5859C30.6406 16.9429 29.0846 18.0469 27.1719 18.0469C25.2591 18.0469 23.7031 16.9429 23.7031 15.5859V6.5625ZM5.78125 100.898V35.2734H60.9922C62.5887 35.2734 63.8828 34.3553 63.8828 33.2227C63.8828 32.09 62.5887 31.1719 60.9922 31.1719H5.78125V12.3047H17.9219V15.5859C17.9219 19.2045 22.0714 22.1484 27.1719 22.1484C32.2724 22.1484 36.4219 19.2045 36.4219 15.5859V12.3047H49.1406V15.5859C49.1406 19.2045 53.2901 22.1484 58.3906 22.1484C63.4911 22.1484 67.6406 19.2045 67.6406 15.5859V12.3047H80.3594V15.5859C80.3594 19.2045 84.5089 22.1484 89.6094 22.1484C94.7099 22.1484 98.8594 19.2045 98.8594 15.5859V12.3047H111.578V15.5859C111.578 19.2045 115.728 22.1484 120.828 22.1484C125.929 22.1484 130.078 19.2045 130.078 15.5859V12.3047H142.219V31.1719H87.0078C85.4113 31.1719 84.1172 32.09 84.1172 33.2227C84.1172 34.3553 85.4113 35.2734 87.0078 35.2734H142.219V100.898H5.78125Z" fill="black"/>
<path d="M128.922 42.6562H19.0781C17.4816 42.6562 16.1875 43.5744 16.1875 44.707V91.4648C16.1875 92.5975 17.4816 93.5156 19.0781 93.5156H128.922C130.518 93.5156 131.812 92.5975 131.812 91.4648V44.707C131.812 43.5744 130.518 42.6562 128.922 42.6562ZM21.9687 62.3438H43.6851V73.8281H21.9687V62.3438ZM49.4664 62.3438H71.1461V73.8281H49.4664V62.3438ZM71.1461 58.2422H49.4664V46.7578H71.1461V58.2422ZM76.9273 46.7578H98.607V58.2422H76.9273V46.7578ZM71.1461 77.9297V89.4141H49.4664V77.9297H71.1461ZM76.9273 77.9297H98.607V89.4141H76.9273V77.9297ZM76.9273 73.8281V62.3438H98.607V73.8281H76.9273ZM104.388 62.3438H126.031V73.8281H104.388V62.3438ZM126.031 58.2422H104.388V46.7578H126.031V58.2422ZM43.6851 46.7578V58.2422H21.9687V46.7578H43.6851ZM21.9687 77.9297H43.6851V89.4141H21.9687V77.9297ZM104.388 89.4141V77.9297H126.031V89.4141H104.388Z" fill="black"/>
<path d="M74 35.2734C74.7602 35.2734 75.506 35.054 76.0437 34.6726C76.5813 34.2911 76.8906 33.762 76.8906 33.2227C76.8906 32.6833 76.5813 32.1542 76.0437 31.7728C75.506 31.3913 74.7602 31.1719 74 31.1719C73.2398 31.1719 72.494 31.3913 71.9563 31.7728C71.4187 32.1542 71.1094 32.6833 71.1094 33.2227C71.1094 33.762 71.4187 34.2911 71.9563 34.6726C72.494 35.054 73.2398 35.2734 74 35.2734Z" fill="black"/>
</svg>
