<svg width="74" height="74" viewBox="0 0 74 74" fill="none" xmlns="http://www.w3.org/2000/svg">
<path d="M37 0C16.5986 0 0 16.5986 0 37C0 57.4014 16.5986 74 37 74C57.4014 74 74 57.4014 74 37C74 16.5986 57.4014 0 37 0ZM37 69.375C19.1481 69.375 4.62502 54.8519 4.62502 37C4.62502 19.1481 19.1481 4.62502 37 4.62502C54.8519 4.62502 69.375 19.1481 69.375 37C69.375 54.8519 54.8519 69.375 37 69.375Z" fill="white"/>
<path d="M39.3124 13.875H34.6874V37.9575L49.2398 52.5099L52.5099 49.2399L39.3124 36.0424V13.875Z" fill="#4B5320"/>
</svg>
