<svg width="50" height="102" viewBox="0 0 50 102" fill="none" xmlns="http://www.w3.org/2000/svg">
<path d="M21.8699 1.122C19.6268 2.652 17.4347 6.987 16.721 11.475C16.1603 14.79 16.4661 18.819 17.6896 24.582C17.9445 25.959 17.8935 26.01 15.9564 26.01C14.6309 26.01 13.6623 26.316 13.1525 26.877C12.6937 27.387 9.58401 32.64 6.16843 38.556L0 49.317V75.123C0 100.113 0.0509788 100.98 0.968596 101.49C1.63132 101.796 10.0938 102 24.9796 102C39.8654 102 48.3279 101.796 48.9906 101.49C49.9082 100.98 49.9592 100.113 49.9592 75.123V49.317L43.7398 38.556C40.3752 32.64 37.2145 27.387 36.8067 26.877C36.2969 26.316 35.3283 26.01 34.0028 26.01C32.3715 26.01 32.0656 25.857 32.3205 25.194C33.2891 22.695 33.7989 14.841 33.2382 11.475C32.1676 4.896 28.6501 0 24.9796 0C24.2149 0 22.8385 0.510002 21.8699 1.122ZM27.7324 4.59C28.4461 5.457 29.3638 7.344 29.8226 8.772C30.7402 11.883 30.7912 19.431 29.8736 23.205L29.3128 25.755L25.1325 25.908L21.0032 26.061L20.1876 22.491C19.7288 20.502 19.3719 17.085 19.3719 14.841C19.3719 5.814 24.011 0.153 27.7324 4.59ZM20.4935 32.895C21.3601 35.139 21.3091 35.292 20.3915 36.873C19.117 38.913 19.117 40.596 20.3405 42.636C21.666 44.778 24.3169 45.696 26.8148 44.88C28.803 44.217 30.5873 41.82 30.5873 39.882C30.5873 37.077 27.7324 34.17 24.9796 34.17C24.011 34.17 22.9404 32.538 22.9404 31.059C22.9404 30.753 25.1325 30.6 28.3952 30.702L33.8499 30.855L39.6105 40.8L45.3711 50.745V74.052V97.41H24.9796H4.58809V74.103V50.847L10.0428 41.361C12.9996 36.159 15.7015 31.569 15.9564 31.212C16.2112 30.906 17.1798 30.6 18.0465 30.6C19.4739 30.6 19.7288 30.855 20.4935 32.895ZM26.9168 37.842C27.6815 38.607 27.6815 40.953 26.9168 41.718C26.5599 42.075 25.6933 42.33 24.9796 42.33C23.2973 42.33 22.4307 41.463 22.4307 39.78C22.4307 38.913 22.5836 38.709 22.8895 39.168C23.5522 40.29 25.2345 39.678 25.1835 38.352C25.1325 37.128 25.9482 36.873 26.9168 37.842Z" fill="#53661E"/>
<path d="M27.1891 67.721V59.2291C29.0056 59.5356 30.7185 60.281 32.1829 61.4003C32.4749 61.6005 32.8174 61.7092 33.172 61.7139C34.3083 61.7139 35.2347 60.7996 35.2467 59.6633C35.2491 59.1761 35.0586 58.708 34.716 58.3606C32.6003 56.5488 29.9466 55.4802 27.165 55.3209V52.4742C27.165 51.6611 26.5064 51.0026 25.6933 51.0026C25.6765 51.0002 25.6595 51.0002 25.6427 51.0002C24.8176 50.9881 24.1373 51.6467 24.1252 52.4742V55.2244C18.6971 55.6104 15.0061 58.9638 15.0061 63.4268C15.0061 68.9031 19.6621 70.423 24.1252 71.6292V81.2791C21.7706 80.9631 19.5511 79.9861 17.7321 78.4566C17.3896 78.184 16.9649 78.032 16.5259 78.0224C15.4137 78.0995 14.5573 79.0307 14.5717 80.1453C14.5693 80.6326 14.7599 81.1007 15.1024 81.4481C17.5945 83.6917 20.7983 84.9824 24.1492 85.0909V87.7446C24.1492 87.7615 24.1516 87.7784 24.1516 87.7953C24.1902 88.6203 24.8922 89.2572 25.7173 89.2162C26.5303 89.2162 27.1889 88.5576 27.1889 87.7446V85.0427C33.775 84.6085 36.4287 80.6037 36.4287 76.3578C36.4288 70.6643 31.6522 68.9273 27.1891 67.721ZM24.1494 66.949C21.5198 66.177 19.4692 65.381 19.4692 63.1373C19.4692 60.8937 21.3268 59.2774 24.1494 59.0603V66.949ZM27.1891 81.3274V72.546C29.9152 73.318 32.0381 74.3553 32.014 76.8884C32.014 78.7219 30.7595 80.8931 27.1891 81.3274Z" fill="#85BB65"/>
</svg>
