<svg width="30" height="30" viewBox="0 0 30 30" fill="none" xmlns="http://www.w3.org/2000/svg">
<path d="M1.95689 2.08281C-0.393836 4.52404 0.0872779 7.11731 0.0872779 14.9956C0.0872779 21.5379 -1.05443 28.0965 4.92085 29.6405C6.78672 30.1203 23.3191 30.1203 25.1825 29.638C27.6703 28.9962 29.6945 26.9787 29.9712 23.4608C30.0098 22.9698 30.0098 7.03008 29.9699 6.52912C29.6758 2.78191 27.3687 0.622305 24.3287 0.184901C23.6319 0.0839621 23.4923 0.0540542 19.9176 0.0478234C7.23792 0.0540542 4.45843 -0.510458 1.95689 2.08281Z" fill="url(#paint0_linear)"/>
<path d="M15.0417 3.95953C10.516 3.95953 6.2184 3.55701 4.57688 7.76905C3.89883 9.50869 3.9973 11.768 3.9973 15.003C3.9973 17.8418 3.90631 20.5098 4.57688 22.2358C6.21466 26.4503 10.5472 26.0465 15.0392 26.0465C19.373 26.0465 23.8414 26.4977 25.5028 22.2358C26.1821 20.4787 26.0824 18.253 26.0824 15.003C26.0824 10.6888 26.3205 7.90363 24.2278 5.81257C22.1089 3.69409 19.2434 3.95953 15.0367 3.95953H15.0417ZM14.0521 5.94965C23.4924 5.9347 24.6939 4.88543 24.0308 19.4618C23.7953 24.6172 19.8691 24.0514 15.043 24.0514C6.24332 24.0514 5.9903 23.7997 5.9903 14.998C5.9903 6.0942 6.68829 5.95463 14.0521 5.94716V5.94965ZM20.9372 7.78276C20.2056 7.78276 19.6123 8.37593 19.6123 9.10743C19.6123 9.83893 20.2056 10.4321 20.9372 10.4321C21.6689 10.4321 22.2622 9.83893 22.2622 9.10743C22.2622 8.37593 21.6689 7.78276 20.9372 7.78276ZM15.0417 9.33174C11.9095 9.33174 9.37056 11.8714 9.37056 15.003C9.37056 18.1346 11.9095 20.6731 15.0417 20.6731C18.1739 20.6731 20.7116 18.1346 20.7116 15.003C20.7116 11.8714 18.1739 9.33174 15.0417 9.33174ZM15.0417 11.3219C19.9089 11.3219 19.9152 18.6842 15.0417 18.6842C10.1757 18.6842 10.1683 11.3219 15.0417 11.3219Z" fill="white"/>
<defs>
<linearGradient id="paint0_linear" x1="2.01425" y1="28.0455" x2="29.8113" y2="3.98276" gradientUnits="userSpaceOnUse">
<stop stop-color="#FFDD55"/>
<stop offset="0.5" stop-color="#FF543E"/>
<stop offset="1" stop-color="#C837AB"/>
</linearGradient>
</defs>
</svg>
