<svg width="30" height="30" viewBox="0 0 30 30" fill="none" xmlns="http://www.w3.org/2000/svg">
<path d="M15 30C23.2843 30 30 23.2843 30 15C30 6.71573 23.2843 0 15 0C6.71573 0 0 6.71573 0 15C0 23.2843 6.71573 30 15 30Z" fill="#6F3FAA"/>
<path d="M21.5076 8.22908C17.8565 7.34724 14.1989 6.31576 10.4546 7.62626C8.03038 8.53535 8.03038 11.1616 8.1314 13.3839C8.1314 13.9899 7.42435 14.798 7.72733 15.5051C8.33337 17.5253 8.83845 19.5455 10.9597 20.5556C11.2627 20.7576 10.9597 21.1616 11.1617 21.4646C11.0607 21.4646 10.8586 21.5657 10.8586 21.6667C10.8586 22.1508 11.0759 22.8914 10.9316 23.3688L17.3773 29.8118C24.0036 28.7565 29.1826 23.3625 29.9113 16.6328L21.5076 8.22908Z" fill="#512D84"/>
<path d="M22.9351 10.5424L22.9302 10.5226C22.5294 8.90232 20.7225 7.16373 19.0631 6.80203L19.0445 6.79816C16.3605 6.28617 13.6391 6.28617 10.9558 6.79816L10.9365 6.80203C9.2777 7.16373 7.47072 8.90244 7.06941 10.5226L7.06496 10.5424C6.56949 12.8051 6.56949 15.0999 7.06496 17.3626L7.06941 17.3824C7.45367 18.9335 9.126 20.5923 10.7234 21.0485V22.8571C10.7234 23.5118 11.5212 23.8333 11.9748 23.3609L13.8073 21.456C14.2048 21.4782 14.6025 21.4907 15.0001 21.4907C16.3511 21.4907 17.7027 21.3629 19.0444 21.1069L19.0631 21.1031C20.7225 20.7414 22.5294 19.0027 22.9302 17.3825L22.9351 17.3627C23.4305 15.0999 23.4305 12.8053 22.9351 10.5424ZM21.4849 17.0345C21.2173 18.0916 19.8454 19.4058 18.7553 19.6486C17.3282 19.92 15.8898 20.036 14.4529 19.9962C14.4243 19.9954 14.3968 20.0065 14.3769 20.027C14.173 20.2363 13.0389 21.4005 13.0389 21.4005L11.6158 22.8612C11.5118 22.9697 11.3289 22.8958 11.3289 22.7461V19.7498C11.3289 19.7003 11.2936 19.6583 11.245 19.6487C11.2447 19.6486 11.2445 19.6486 11.2442 19.6485C10.1541 19.4057 8.78264 18.0916 8.51457 17.0345C8.06861 14.9892 8.06861 12.9158 8.51457 10.8705C8.78264 9.81346 10.1541 8.49932 11.2442 8.2565C13.7365 7.78248 16.2635 7.78248 18.7554 8.2565C19.846 8.49932 21.2173 9.81346 21.4849 10.8705C21.9314 12.9159 21.9314 14.9893 21.4849 17.0345Z" fill="white"/>
<path d="M17.3714 18.4176C17.2038 18.3667 17.0441 18.3325 16.8957 18.271C15.3587 17.6334 13.9443 16.8107 12.8239 15.5497C12.1868 14.8326 11.6881 14.0231 11.2666 13.1663C11.0666 12.76 10.8982 12.3378 10.7264 11.9183C10.5699 11.5358 10.8005 11.1407 11.0433 10.8524C11.2712 10.5818 11.5645 10.3749 11.882 10.2223C12.1299 10.1032 12.3743 10.1719 12.5554 10.3819C12.9467 10.8361 13.3062 11.3136 13.5972 11.8401C13.7762 12.1639 13.7271 12.5598 13.4027 12.7802C13.3238 12.8337 13.252 12.8966 13.1785 12.9571C13.1141 13.0101 13.0535 13.0637 13.0093 13.1355C12.9286 13.2668 12.9248 13.4218 12.9767 13.5646C13.3767 14.6638 14.0509 15.5187 15.1575 15.9792C15.3345 16.0529 15.5123 16.1386 15.7163 16.1149C16.0579 16.0749 16.1686 15.7002 16.408 15.5044C16.642 15.3131 16.941 15.3106 17.193 15.4701C17.4452 15.6297 17.6895 15.8009 17.9324 15.974C18.1709 16.144 18.4083 16.3101 18.6282 16.5039C18.8397 16.6901 18.9125 16.9345 18.7934 17.1872C18.5754 17.6501 18.2581 18.0351 17.8006 18.281C17.6714 18.3503 17.517 18.3727 17.3714 18.4176C17.2038 18.3667 17.517 18.3727 17.3714 18.4176Z" fill="white"/>
<path d="M15.0041 9.69292C17.0144 9.74929 18.6657 11.0834 19.0195 13.0709C19.0798 13.4096 19.1012 13.7558 19.1281 14.0995C19.1394 14.2441 19.0575 14.3814 18.9015 14.3833C18.7404 14.3853 18.6679 14.2504 18.6573 14.106C18.6367 13.8199 18.6223 13.5325 18.5829 13.2489C18.3748 11.7513 17.1807 10.5124 15.69 10.2465C15.4657 10.2065 15.2362 10.196 15.0089 10.1722C14.8653 10.1571 14.6772 10.1484 14.6454 9.96983C14.6188 9.82012 14.7451 9.70095 14.8877 9.69327C14.9263 9.69099 14.9652 9.6928 15.0041 9.69292C17.0145 9.74929 14.9652 9.6928 15.0041 9.69292Z" fill="white"/>
<path d="M18.0593 13.6534C18.0559 13.6786 18.0542 13.7376 18.0395 13.7931C17.9861 13.9949 17.6801 14.0202 17.6097 13.8166C17.5888 13.7561 17.5857 13.6874 17.5855 13.6223C17.5848 13.1966 17.4923 12.7712 17.2776 12.4007C17.0568 12.0199 16.7196 11.6999 16.3241 11.5061C16.085 11.3891 15.8264 11.3162 15.5642 11.2729C15.4497 11.254 15.3339 11.2425 15.2188 11.2265C15.0793 11.2071 15.0047 11.1182 15.0114 10.9807C15.0176 10.8519 15.1117 10.7592 15.2521 10.7672C15.7134 10.7934 16.1591 10.8932 16.5693 11.1103C17.4033 11.5521 17.8798 12.2492 18.0189 13.1802C18.0252 13.2225 18.0352 13.2642 18.0385 13.3065C18.0463 13.4109 18.0513 13.5155 18.0593 13.6534C18.0513 13.5155 18.0559 13.6785 18.0593 13.6534Z" fill="white"/>
<path d="M16.8089 13.6048C16.6407 13.6078 16.5507 13.5146 16.5333 13.3605C16.5213 13.2531 16.5117 13.1441 16.486 13.0394C16.4355 12.8334 16.326 12.6425 16.1527 12.5162C16.0709 12.4566 15.9781 12.4132 15.881 12.3851C15.7577 12.3494 15.6295 12.3592 15.5065 12.3291C15.3729 12.2964 15.2989 12.1881 15.3199 12.0627C15.3391 11.9486 15.45 11.8595 15.5748 11.8686C16.3542 11.9249 16.9112 12.3278 16.9908 13.2454C16.9964 13.3101 17.003 13.3785 16.9886 13.4406C16.9639 13.5465 16.8854 13.5996 16.8089 13.6048C16.6407 13.6077 16.8854 13.5996 16.8089 13.6048Z" fill="white"/>
<path d="M22.9352 10.5424L22.9303 10.5226C22.7057 9.61436 22.039 8.669 21.2042 7.94971L20.0758 8.94978C20.7468 9.48445 21.3217 10.2251 21.4851 10.8705C21.9316 12.9158 21.9316 14.9892 21.4851 17.0345C21.2175 18.0916 19.8455 19.4058 18.7555 19.6486C17.3284 19.92 15.89 20.036 14.4531 19.9962C14.4245 19.9954 14.397 20.0065 14.3771 20.027C14.1732 20.2363 13.0392 21.4005 13.0392 21.4005L11.616 22.8612C11.512 22.9697 11.3292 22.8959 11.3292 22.7461V19.7498C11.3292 19.7003 11.2938 19.6583 11.2452 19.6487C11.2449 19.6487 11.2447 19.6486 11.2444 19.6486C10.6249 19.5106 9.91476 19.0264 9.36772 18.4403L8.25269 19.4284C8.94907 20.186 9.84726 20.7984 10.7235 21.0486V22.8572C10.7235 23.5119 11.5212 23.8334 11.9749 23.361L13.8074 21.4562C14.2049 21.4784 14.6024 21.4908 15.0001 21.4908C16.3511 21.4908 17.7027 21.363 19.0444 21.107L19.0631 21.1032C20.7225 20.7415 22.5294 19.0029 22.9302 17.3827L22.9351 17.3629C23.4306 15.0999 23.4306 12.8053 22.9352 10.5424Z" fill="#D1D1D1"/>
<path d="M17.3714 18.4176C17.517 18.3727 17.2038 18.3667 17.3714 18.4176V18.4176Z" fill="white"/>
<path d="M18.6281 16.5037C18.4082 16.3101 18.1708 16.1439 17.9324 15.9739C17.6895 15.8008 17.4451 15.6296 17.193 15.47C16.941 15.3105 16.642 15.313 16.408 15.5043C16.1685 15.7001 16.058 16.0748 15.7163 16.1147C15.5124 16.1385 15.3345 16.0527 15.1575 15.9791C14.4767 15.6958 13.9601 15.2627 13.5697 14.7159L12.74 15.4512C12.7682 15.4839 12.7951 15.5174 12.8237 15.5496C13.9442 16.8106 15.3587 17.6332 16.8955 18.2709C17.0438 18.3324 17.2036 18.3667 17.3712 18.4175C17.2036 18.3666 17.517 18.3726 17.3712 18.4175C17.517 18.3726 17.6712 18.3501 17.8005 18.2808C18.2582 18.035 18.5753 17.6499 18.7933 17.187C18.9125 16.9343 18.8397 16.69 18.6281 16.5037Z" fill="#D1D1D1"/>
<path d="M15.0093 9.69329C15.0076 9.69329 15.0059 9.69312 15.0042 9.69312C15.0026 9.693 15.0047 9.69312 15.0093 9.69329Z" fill="white"/>
<path d="M15.0042 9.69293C15.0058 9.69293 15.0075 9.69311 15.0092 9.69311C15.1208 9.69709 16.9353 9.74707 15.0042 9.69293Z" fill="white"/>
<path d="M17.8878 10.8889L17.5341 11.2024C18.0899 11.7432 18.4733 12.46 18.5828 13.2488C18.6222 13.5325 18.6367 13.8198 18.6574 14.1059C18.6678 14.2504 18.7403 14.3852 18.9015 14.3834C19.0576 14.3814 19.1394 14.2441 19.1281 14.0995C19.1012 13.7558 19.0798 13.4095 19.0195 13.0709C18.8647 12.2009 18.4611 11.4561 17.8878 10.8889Z" fill="#D1D1D1"/>
<path d="M18.0188 13.18C17.9175 12.5016 17.6361 11.948 17.1687 11.5262L16.8159 11.8388C16.9983 12.0007 17.1561 12.1909 17.2776 12.4006C17.4924 12.7711 17.5849 13.1964 17.5856 13.6222C17.5857 13.6872 17.5888 13.756 17.6097 13.8165C17.6802 14.0203 17.9862 13.995 18.0395 13.7931C18.0543 13.7374 18.056 13.6784 18.0593 13.6534C18.056 13.6786 18.0513 13.5155 18.0593 13.6534C18.0513 13.5155 18.0463 13.4109 18.0384 13.3064C18.0353 13.2639 18.0252 13.2222 18.0188 13.18Z" fill="#D1D1D1"/>
<path d="M18.0593 13.6535C18.0514 13.5155 18.056 13.6785 18.0593 13.6535V13.6535Z" fill="white"/>
<path d="M16.8089 13.6047C16.8115 13.6045 16.814 13.6032 16.8165 13.6029C16.8094 13.6029 16.7985 13.6031 16.7874 13.6035C16.7946 13.6037 16.8012 13.6048 16.8089 13.6047Z" fill="white"/>
<path d="M16.8089 13.6047C16.8013 13.6048 16.7947 13.6037 16.7874 13.6035C16.751 13.6045 16.7135 13.6064 16.8089 13.6047Z" fill="white"/>
<path d="M16.8165 13.6029C16.8139 13.6032 16.8114 13.6045 16.8088 13.6047C16.8285 13.6034 16.8268 13.6029 16.8165 13.6029Z" fill="white"/>
<path d="M16.454 12.1597L16.095 12.4779C16.1148 12.49 16.1342 12.5025 16.153 12.5162C16.3263 12.6424 16.4358 12.8333 16.4863 13.0394C16.512 13.144 16.5215 13.2529 16.5336 13.3605C16.5502 13.5077 16.6338 13.5983 16.7877 13.6035C16.7989 13.6032 16.8099 13.603 16.8168 13.6029C16.8909 13.5947 16.9651 13.5428 16.9889 13.4404C17.0032 13.3785 16.9967 13.31 16.991 13.2452C16.9463 12.7322 16.7524 12.3803 16.454 12.1597Z" fill="#D1D1D1"/>
</svg>
