<svg width="148" height="105" viewBox="0 0 148 105" fill="none" xmlns="http://www.w3.org/2000/svg">
<path d="M145.109 8.20312H130.078V6.5625C130.078 2.9439 125.929 0 120.828 0C115.728 0 111.578 2.9439 111.578 6.5625V8.20312H98.8594V6.5625C98.8594 2.9439 94.7099 0 89.6094 0C84.5089 0 80.3594 2.9439 80.3594 6.5625V8.20312H67.6406V6.5625C67.6406 2.9439 63.4911 0 58.3906 0C53.2901 0 49.1406 2.9439 49.1406 6.5625V8.20312H36.4219V6.5625C36.4219 2.9439 32.2724 0 27.1719 0C22.0714 0 17.9219 2.9439 17.9219 6.5625V8.20312H2.89062C1.29413 8.20312 0 9.12126 0 10.2539V102.949C0 104.082 1.29413 105 2.89062 105H145.109C146.706 105 148 104.082 148 102.949V10.2539C148 9.12126 146.706 8.20312 145.109 8.20312ZM117.359 6.5625C117.359 5.2055 118.915 4.10156 120.828 4.10156C122.741 4.10156 124.297 5.2055 124.297 6.5625V15.5859C124.297 16.9429 122.741 18.0469 120.828 18.0469C118.915 18.0469 117.359 16.9429 117.359 15.5859V6.5625ZM86.1406 6.5625C86.1406 5.2055 87.6966 4.10156 89.6094 4.10156C91.5221 4.10156 93.0781 5.2055 93.0781 6.5625V15.5859C93.0781 16.9429 91.5221 18.0469 89.6094 18.0469C87.6966 18.0469 86.1406 16.9429 86.1406 15.5859V6.5625ZM54.9219 6.5625C54.9219 5.2055 56.4779 4.10156 58.3906 4.10156C60.3034 4.10156 61.8594 5.2055 61.8594 6.5625V15.5859C61.8594 16.9429 60.3034 18.0469 58.3906 18.0469C56.4779 18.0469 54.9219 16.9429 54.9219 15.5859V6.5625ZM23.7031 6.5625C23.7031 5.2055 25.2591 4.10156 27.1719 4.10156C29.0846 4.10156 30.6406 5.2055 30.6406 6.5625V15.5859C30.6406 16.9429 29.0846 18.0469 27.1719 18.0469C25.2591 18.0469 23.7031 16.9429 23.7031 15.5859V6.5625ZM5.78125 100.898V35.2734H60.9922C62.5887 35.2734 63.8828 34.3553 63.8828 33.2227C63.8828 32.09 62.5887 31.1719 60.9922 31.1719H5.78125V12.3047H17.9219V15.5859C17.9219 19.2045 22.0714 22.1484 27.1719 22.1484C32.2724 22.1484 36.4219 19.2045 36.4219 15.5859V12.3047H49.1406V15.5859C49.1406 19.2045 53.2901 22.1484 58.3906 22.1484C63.4911 22.1484 67.6406 19.2045 67.6406 15.5859V12.3047H80.3594V15.5859C80.3594 19.2045 84.5089 22.1484 89.6094 22.1484C94.7099 22.1484 98.8594 19.2045 98.8594 15.5859V12.3047H111.578V15.5859C111.578 19.2045 115.728 22.1484 120.828 22.1484C125.929 22.1484 130.078 19.2045 130.078 15.5859V12.3047H142.219V31.1719H87.0078C85.4113 31.1719 84.1172 32.09 84.1172 33.2227C84.1172 34.3553 85.4113 35.2734 87.0078 35.2734H142.219V100.898H5.78125Z" fill="black"/>
</svg>
