<svg width="199" height="125" viewBox="0 0 199 125" fill="none" xmlns="http://www.w3.org/2000/svg">
<path d="M71.0474 89.1398L70.1683 88.5062C69.2217 87.8261 68.044 87.5492 66.8936 87.7362C65.7431 87.9233 64.7137 88.5589 64.0313 89.5038L55.7384 101.014C55.4008 101.483 55.1589 102.013 55.0263 102.575C54.8938 103.137 54.8732 103.719 54.9659 104.289C55.0585 104.859 55.2625 105.405 55.5662 105.896C55.8699 106.387 56.2674 106.814 56.7359 107.151L57.6145 107.784C58.561 108.465 59.7387 108.742 60.8893 108.555C62.0398 108.368 63.0692 107.732 63.7516 106.787L72.0445 95.2769C72.7247 94.3304 73.0018 93.1527 72.8148 92.0022C72.6279 90.8517 71.9922 89.8223 71.0474 89.1398Z" fill="white"/>
<path d="M64.3576 79.7812C64.2664 79.2109 64.0631 78.6642 63.7593 78.173C63.4556 77.6817 63.0575 77.2555 62.588 76.919L61.7089 76.2858C60.7625 75.6052 59.5847 75.328 58.4341 75.515C57.2835 75.7019 56.2541 76.3378 55.5719 77.283L44.3738 92.8262C44.0363 93.2946 43.7944 93.8249 43.6618 94.3868C43.5293 94.9487 43.5087 95.5312 43.6013 96.101C43.6939 96.6709 43.8979 97.2169 44.2015 97.7079C44.5051 98.199 44.9025 98.6254 45.371 98.9628L46.25 99.5965C47.1965 100.277 48.3742 100.554 49.5247 100.367C50.6752 100.18 51.7046 99.5442 52.3871 98.5993L63.5851 83.0561C63.924 82.5884 64.1668 82.0582 64.2994 81.4961C64.432 80.9339 64.4518 80.3511 64.3576 79.7812Z" fill="white"/>
<path d="M80.0346 100.626L79.1556 99.9931C78.2089 99.313 77.031 99.0364 75.8805 99.2238C74.73 99.4112 73.7009 100.047 73.0189 100.993L67.1033 109.204C66.4224 110.15 66.1449 111.327 66.3318 112.477C66.5187 113.628 67.1547 114.657 68.1 115.338L68.9791 115.972C69.9255 116.652 71.1033 116.929 72.2538 116.742C73.4044 116.555 74.4338 115.92 75.1161 114.975L81.0318 106.763C81.7121 105.817 81.9892 104.639 81.8022 103.489C81.6153 102.338 80.9796 101.309 80.0346 100.626Z" fill="white"/>
<path d="M66.0268 21.5998L29.6667 0.691162L0 57.4891L36.3345 77.8194C36.4859 77.9057 36.6531 77.9606 36.8261 77.9809C36.9992 78.0012 37.1745 77.9865 37.3417 77.9376C37.509 77.8886 37.6646 77.8066 37.7994 77.6962C37.9343 77.5858 38.0455 77.4495 38.1265 77.2952L66.4849 23.3013C66.636 23.0119 66.6727 22.6763 66.5879 22.3612C66.503 22.046 66.3027 21.7742 66.0268 21.5998ZM32.1848 23.6487L19.1684 48.073C18.9056 48.5466 18.4673 48.8981 17.9479 49.0517C17.4285 49.2052 16.8695 49.1486 16.3914 48.894C15.9134 48.6394 15.5544 48.2072 15.392 47.6905C15.2296 47.1738 15.2766 46.6139 15.523 46.1315L28.5394 21.7072C28.6641 21.463 28.8362 21.2461 29.0457 21.0691C29.2551 20.8921 29.4977 20.7586 29.7593 20.6764C30.0209 20.5942 30.2962 20.5648 30.5693 20.5901C30.8423 20.6154 31.1076 20.6948 31.3496 20.8237C31.5916 20.9526 31.8056 21.1284 31.9789 21.3409C32.1523 21.5533 32.2816 21.7982 32.3594 22.0611C32.4371 22.3241 32.4617 22.5999 32.4317 22.8725C32.4018 23.145 32.3178 23.4089 32.1848 23.6487ZM37.2359 14.1706L35.6815 17.087C35.5567 17.3312 35.3846 17.5481 35.1752 17.7251C34.9657 17.902 34.7232 18.0355 34.4616 18.1178C34.2 18.2 33.9246 18.2293 33.6516 18.204C33.3786 18.1788 33.1133 18.0993 32.8713 17.9704C32.6292 17.8415 32.4153 17.6657 32.2419 17.4533C32.0686 17.2408 31.9392 16.996 31.8615 16.733C31.7838 16.4701 31.7592 16.1943 31.7891 15.9217C31.8191 15.6492 31.9031 15.3853 32.0361 15.1455L33.5905 12.2292C33.7152 11.985 33.8873 11.7681 34.0968 11.5911C34.3062 11.4141 34.5488 11.2806 34.8104 11.1984C35.072 11.1161 35.3473 11.0868 35.6204 11.1121C35.8934 11.1374 36.1587 11.2168 36.4007 11.3457C36.6427 11.4746 36.8566 11.6504 37.03 11.8629C37.2034 12.0753 37.3327 12.3202 37.4104 12.5831C37.4882 12.8461 37.5128 13.1219 37.4828 13.3944C37.4529 13.667 37.3689 13.9309 37.2359 14.1706Z" fill="#4B5320"/>
<path d="M128.693 29.5275C123.548 30.6304 119.873 30.5015 114.652 29.0339L103.683 25.9507C101.344 25.2934 98.8643 25.3336 96.5481 26.0663L85.9618 29.4147C84.2406 29.958 82.658 30.8689 81.3237 32.0845C79.9894 33.3 78.9353 34.7911 78.2344 36.4543L70.2236 58.1896C71.9484 58.7914 73.7878 58.9913 75.6017 58.7742C77.4155 58.5571 79.1557 57.9286 80.6897 56.9367C82.1344 55.9842 83.3478 54.7208 84.2412 53.239C85.1345 51.7571 85.6853 50.0942 85.8532 48.372C85.9175 47.6634 86.0486 46.9625 86.2448 46.2785C86.5506 45.204 86.969 44.1647 87.4931 43.178C89.2222 39.9746 91.7849 38.2744 94.9045 38.2624C95.0964 38.2681 95.2872 38.2942 95.4737 38.34L100.436 39.7399C102.909 40.4373 105.164 41.7509 106.991 43.5576L144.502 79.5542C147.369 78.0774 149.77 75.8341 151.438 73.0739L130.547 28.7778L128.693 29.5275Z" fill="white"/>
<path d="M131.821 18.3026C131.788 18.3174 131.756 18.3311 131.723 18.3439C131.557 18.409 131.407 18.5073 131.281 18.6328C131.156 18.7582 131.057 18.9082 130.992 19.0733C130.926 19.2385 130.895 19.4153 130.901 19.5929C130.906 19.7704 130.948 19.9449 131.024 20.1056L157.21 75.63C157.351 75.9323 157.603 76.1684 157.914 76.2888C158.225 76.4093 158.571 76.4047 158.879 76.2761L199 57.496L172.043 0L131.821 18.3026Z" fill="#4B5320"/>
<path d="M89.0223 112.114L88.1432 111.48C87.1967 110.8 86.019 110.523 84.8685 110.71C83.718 110.897 82.6886 111.533 82.0062 112.478L78.4678 117.389C77.7873 118.335 77.5102 119.513 77.6971 120.664C77.8841 121.814 78.5198 122.844 79.4649 123.526L80.3439 124.159C81.2904 124.84 82.468 125.117 83.6185 124.93C84.7689 124.743 85.7983 124.107 86.4806 123.162L90.0194 118.251C90.6995 117.304 90.9765 116.126 90.7895 114.976C90.6026 113.826 89.9671 112.796 89.0223 112.114Z" fill="white"/>
<path d="M148.237 88.2337L104.086 46.4941C102.755 45.1786 101.113 44.2221 99.3124 43.7141L94.6607 42.4026C91.8878 42.6091 90.6275 45.9492 90.1867 47.5173C90.0751 47.9253 90.0003 48.3425 89.9632 48.7639V48.7689C89.738 51.1019 88.9939 53.3551 87.7854 55.3635C86.577 57.3718 84.9348 59.0846 82.979 60.3763C80.7139 61.8682 78.1068 62.7598 75.4026 62.9673C72.6983 63.1749 69.9857 62.6915 67.5196 61.5627L66.8244 61.2533C66.3573 61.0453 65.984 60.6714 65.7767 60.204C65.5694 59.7367 65.5428 59.209 65.7021 58.7232L74.4204 34.8681C74.8125 33.9435 75.2869 33.056 75.8381 32.2165C72.6578 31.612 69.3811 31.7471 66.2614 32.6114L44.4097 74.2168L49.2096 79.0498L52.2201 74.8711C53.5421 73.0363 55.5388 71.8018 57.771 71.4391C60.0031 71.0764 62.288 71.6152 64.1229 72.9371L64.8536 73.4638C66.4238 74.5681 67.5888 76.1566 68.1702 77.9861C68.7321 79.8151 68.6594 81.7803 67.9637 83.5627C69.6261 83.6288 71.2323 84.1831 72.5818 85.1563L73.4609 85.7896C74.8809 86.8165 75.9503 88.2556 76.5239 89.9115C77.0976 91.5673 77.1476 93.3597 76.6672 95.0449C78.4276 95.0555 80.141 95.6142 81.5691 96.6435L82.4494 97.2751C83.8694 98.3021 84.9388 99.7412 85.5123 101.397C86.0859 103.053 86.1358 104.845 85.6553 106.531C87.4158 106.541 89.1294 107.099 90.5577 108.129L91.4367 108.762C92.8564 109.789 93.9258 111.228 94.4996 112.883C95.0733 114.538 95.1237 116.33 94.6438 118.015L99.6598 122.022C99.6804 122.039 99.7007 122.056 99.7205 122.073C100.847 123.047 102.315 123.533 103.8 123.424C105.286 123.316 106.667 122.622 107.641 121.495C108.615 120.368 109.101 118.9 108.992 117.415C108.884 115.929 108.19 114.548 107.063 113.574L102.937 110.011C102.656 109.764 102.446 109.447 102.329 109.091C102.212 108.736 102.192 108.356 102.272 107.991C102.352 107.625 102.528 107.288 102.782 107.013C103.036 106.739 103.359 106.538 103.717 106.431C104.048 106.317 104.403 106.299 104.743 106.379C105.083 106.46 105.393 106.635 105.637 106.885L113.014 113.257C114.109 114.224 115.533 114.735 116.993 114.686C118.453 114.638 119.839 114.033 120.867 112.995C121.392 112.444 121.8 111.793 122.066 111.08C122.332 110.367 122.451 109.607 122.414 108.847C122.378 108.087 122.188 107.342 121.855 106.658C121.523 105.973 121.055 105.364 120.48 104.865L113.046 98.4441C112.644 98.1079 112.38 97.6348 112.305 97.1158C112.23 96.5968 112.35 96.0685 112.641 95.6323C112.807 95.3968 113.021 95.1986 113.268 95.0506C113.516 94.9026 113.792 94.808 114.078 94.773C114.364 94.738 114.654 94.7633 114.93 94.8473C115.206 94.9312 115.461 95.072 115.679 95.2606L126.554 104.655C127.68 105.622 129.144 106.104 130.624 105.995C132.104 105.886 133.481 105.196 134.454 104.075C135.427 102.954 135.916 101.493 135.815 100.012C135.713 98.531 135.03 97.1505 133.913 96.1722L123.088 86.8194C122.685 86.4832 122.421 86.0102 122.347 85.4912C122.272 84.9723 122.392 84.444 122.683 84.008C122.849 83.7724 123.063 83.5742 123.31 83.4262C123.558 83.2782 123.833 83.1837 124.12 83.1487C124.406 83.1136 124.696 83.1389 124.972 83.2229C125.248 83.3069 125.503 83.4477 125.721 83.6362L140.719 96.5927C141.275 97.0772 141.923 97.446 142.623 97.6776C143.324 97.9091 144.064 97.9988 144.799 97.9414C145.541 97.8865 146.265 97.6854 146.929 97.3496C147.592 97.0137 148.183 96.5499 148.667 95.9847L148.685 95.964C149.637 94.8933 150.142 93.499 150.099 92.0671C150.067 91.3348 149.885 90.6167 149.565 89.9574C149.245 89.2981 148.793 88.7114 148.237 88.2337Z" fill="white"/>
</svg>
