<svg width="155" height="97" viewBox="0 0 155 97" fill="none" xmlns="http://www.w3.org/2000/svg">
<path d="M1.24 1.59048C0.155 3.03638 0 8.67537 0 48.4375C0 88.1996 0.155 93.8386 1.24 95.2845L2.4025 96.875H77.5H152.598L153.76 95.2845C154.845 93.8386 155 88.1996 155 48.4375C155 8.67537 154.845 3.03638 153.76 1.59048L152.598 -7.62939e-06H77.5H2.4025L1.24 1.59048ZM128.65 8.89225C126.945 10.3382 78.585 35.4244 77.5 35.4244C76.415 35.4244 28.055 10.3382 26.35 8.89225C25.42 8.09701 33.79 7.95242 77.5 7.95242C121.21 7.95242 129.58 8.09701 128.65 8.89225ZM44.95 28.4841C62.0775 37.521 76.725 44.8228 77.5 44.8228C78.275 44.8228 92.9225 37.521 110.05 28.4841C127.255 19.5196 142.29 11.7118 143.53 11.1334L145.7 10.049V49.5219V88.9226H77.5H9.3V49.5219V10.049L11.47 11.1334C12.71 11.7118 27.745 19.5196 44.95 28.4841Z" fill="#4B5320"/>
<path d="M21.0025 52.6306C20.46 53.6427 20.46 54.3657 21.1575 55.2332C22.01 56.3176 24.025 56.3899 39.525 56.2453L56.9625 56.0285V53.8596V51.6908L39.37 51.4739C22.785 51.3293 21.7 51.4016 21.0025 52.6306Z" fill="white"/>
<path d="M21.0025 63.5471C20.46 64.487 20.46 65.2099 21.1575 66.0775C22.01 67.1619 24.025 67.2342 39.525 67.0896L56.9625 66.8727L57.195 65.1376C57.35 64.1978 57.04 63.1134 56.42 62.8242C55.8775 62.4627 47.8175 62.1735 38.595 62.1735C22.94 62.1735 21.7 62.2458 21.0025 63.5471Z" fill="white"/>
<path d="M21.3899 74.1746C20.4599 75.0421 20.3824 75.6205 20.9249 76.7049C21.6999 78.0062 22.6299 78.0785 39.3699 77.9339L56.9624 77.717L57.1949 75.9819C57.3499 75.0421 57.0399 73.9577 56.4199 73.6685C55.8774 73.307 48.0499 73.0179 38.9824 73.0179C25.1099 73.0179 22.3974 73.1624 21.3899 74.1746Z" fill="white"/>
<rect x="105" y="50" width="30" height="30" rx="6" fill="white"/>
</svg>
