<svg width="800" height="800" viewBox="0 0 800 800" fill="none" xmlns="http://www.w3.org/2000/svg">
<path d="M400 0C179.1 0 0 179.075 0 400C0 620.925 179.075 800 400 800C620.925 800 800 620.925 800 400C800 179.075 620.925 0 400 0ZM400 750.8C207 750.8 50 593 50 400C50 207 207 50 400 50C593 50 750 207 750 400C750 593 593 750.8 400 750.8ZM541.425 258.6C531.675 248.85 515.85 248.85 506.075 258.6L400.025 364.65L293.975 258.6C284.225 248.85 268.375 248.85 258.6 258.6C248.825 268.35 248.85 284.2 258.6 293.95L364.65 400L258.6 506.05C248.85 515.8 248.85 531.65 258.6 541.4C268.35 551.15 284.2 551.15 293.975 541.4L400.025 435.35L506.075 541.4C515.825 551.15 531.65 551.15 541.425 541.4C551.2 531.65 551.175 515.8 541.425 506.05L435.375 400L541.425 293.95C551.2 284.175 551.2 268.35 541.425 258.6Z" fill="white"/>
</svg>
