<svg width="312" height="551" viewBox="0 0 312 551" fill="none" xmlns="http://www.w3.org/2000/svg">
<path d="M271.45 7.8572e-06H40.0251C34.7638 -0.0032897 29.5535 1.0314 24.6927 3.0448C19.8319 5.05821 15.4161 8.01077 11.6981 11.7334C7.9801 15.456 5.03306 19.8755 3.02572 24.7389C1.01839 29.6022 -0.00979563 34.8137 7.03334e-05 40.075V510C-0.00321637 515.257 1.02982 520.463 3.0401 525.321C5.05038 530.178 7.99847 534.592 11.7158 538.309C15.4331 542.027 19.8467 544.975 24.7043 546.985C29.5618 548.995 34.768 550.028 40.0251 550.025H271.45C293.525 550.025 311.45 532.075 311.45 510V40.075C311.45 17.95 293.525 7.8572e-06 271.45 7.8572e-06ZM115.275 25.575H197.825V44.775H115.275V25.575ZM155.75 510.45C148.978 510.443 142.484 507.754 137.691 502.97C132.897 498.186 130.195 491.697 130.175 484.925C130.466 478.344 133.285 472.13 138.045 467.576C142.805 463.022 149.138 460.481 155.725 460.481C162.312 460.481 168.645 463.022 173.405 467.576C178.165 472.13 180.984 478.344 181.275 484.925C181.25 497.275 169.775 510.45 155.75 510.45ZM281.45 422.925H30.0001V67.6H281.45V422.925Z" fill="white"/>
</svg>
