<svg width="800" height="800" viewBox="0 0 800 800" fill="none" xmlns="http://www.w3.org/2000/svg">
<path d="M290.85 582.65C314.92 614.993 345.108 642.293 379.7 663V563.2C349.277 565.202 319.327 571.759 290.85 582.65ZM250.55 601.55C233.907 610.899 218.172 621.779 203.55 634.05H202.55C248.112 672.607 303.987 696.946 363.25 704.05C318.647 678.526 280.178 643.539 250.55 601.55ZM231.25 421.85C234.35 466.2 246.95 507.95 266.95 545.05C302.838 530.259 340.947 521.572 379.7 519.35V421.85H231.2H231.25ZM187.4 421.85H94.5C99.246 489.398 126.336 553.447 171.5 603.9C188.85 588.9 207.65 575.6 227.6 564.25C204.144 520.215 190.434 471.65 187.4 421.85ZM535.7 545.9C556 508.55 568.7 466.55 571.9 421.9H422.65V519.45C462.55 521.95 500.6 531.15 535.7 545.95V545.9ZM574.95 565.4C594.05 576.4 612.1 589.2 628.8 603.6C673.784 553.199 700.762 489.29 705.5 421.9H615.75C612.687 472.121 598.767 521.08 574.95 565.4ZM422.65 663.4C457.264 642.812 487.502 615.632 511.65 583.4C483.161 572.27 453.158 565.494 422.65 563.3V663.45V663.4ZM440.7 703.55C498.539 695.858 552.957 671.738 597.5 634.05H597.1C582.992 622.214 567.848 611.672 551.85 602.55C522.503 643.826 484.589 678.278 440.7 703.55ZM267 254.8C246.454 292.891 234.266 334.926 231.25 378.1H379.7V280.45C340.97 278.254 302.878 269.602 267 254.85V254.8ZM227.65 235.6C207.705 224.297 188.915 211.067 171.55 196.1C126.396 246.54 99.3069 310.569 94.55 378.1H187.4C190.435 328.262 204.163 279.661 227.65 235.6ZM379.65 137C345.143 157.684 315.026 184.931 291 217.2C319.435 228.043 349.333 234.565 379.7 236.55V137H379.65ZM363.25 95.95C304.13 103.007 248.369 127.22 202.85 165.6H203.25C218 178 233.85 188.95 250.6 198.35C280.225 156.403 318.675 121.451 363.25 95.95ZM511.5 216.3C487.371 184.173 457.187 157.081 422.65 136.55V236.4C453.107 234.191 483.058 227.415 511.5 216.3ZM551.65 197.1C567.63 187.976 582.758 177.433 596.85 165.6H597.15C552.673 128.123 498.406 104.147 440.75 96.5C484.513 121.7 522.337 156.028 551.65 197.15V197.1ZM571.9 378.1C568.847 334.522 556.449 292.111 535.55 253.75C499.663 268.834 461.5 277.792 422.65 280.25V378.1H571.9ZM615.75 378.1H705.5C700.743 310.569 673.654 246.54 628.5 196.1C611.838 210.489 593.858 223.279 574.8 234.3C598.1 277.6 612.55 326.3 615.75 378.15V378.1ZM400 750C307.174 750 218.15 713.125 152.513 647.487C86.8749 581.85 50 492.826 50 400C50 307.174 86.8749 218.15 152.513 152.513C218.15 86.8749 307.174 50 400 50C492.826 50 581.85 86.8749 647.487 152.513C713.125 218.15 750 307.174 750 400C750 492.826 713.125 581.85 647.487 647.487C581.85 713.125 492.826 750 400 750Z" fill="white"/>
</svg>
