<svg width="512" height="512" viewBox="0 0 512 512" fill="none" xmlns="http://www.w3.org/2000/svg">
<g clip-path="url(#clip0)">
<path d="M504.094 50.8594C497.84 43.2109 488.473 39 477.715 39C471.867 39 465.672 40.2305 459.305 42.6641L25.9063 208.105C2.90632 216.883 -0.191335 230.055 0.00788365 237.125C0.207102 244.195 4.04695 257.172 27.5079 264.637C27.6485 264.68 27.7891 264.723 27.9298 264.762L117.828 290.488L166.445 429.512C173.074 448.465 187.953 460.238 205.281 460.238C216.207 460.238 226.953 455.66 236.359 447.004L291.965 395.805L372.617 460.746C372.625 460.754 372.637 460.758 372.645 460.766L373.41 461.383C373.481 461.438 373.555 461.496 373.625 461.551C382.59 468.504 392.375 472.176 401.934 472.18H401.938C420.613 472.18 435.484 458.355 439.816 436.965L510.828 86.3242C513.68 72.25 511.289 59.6562 504.094 50.8594V50.8594ZM147.902 285.602L321.344 196.996L213.348 311.75C211.578 313.629 210.324 315.93 209.707 318.434L188.883 402.785L147.902 285.602ZM216.035 424.934C215.316 425.594 214.594 426.184 213.871 426.727L233.191 348.477L268.336 376.777L216.035 424.934ZM481.426 80.3672L410.414 431.012C409.731 434.367 407.547 442.176 401.934 442.176C399.16 442.176 395.676 440.664 392.109 437.918L300.719 364.332C300.707 364.32 300.691 364.309 300.676 364.301L246.297 320.512L402.473 154.562C407.473 149.25 407.926 141.113 403.547 135.277C399.164 129.441 391.223 127.605 384.727 130.926L127.859 262.152L36.7384 236.082L470.004 70.6914C473.664 69.293 476.219 69 477.715 69C478.633 69 480.266 69.1094 480.871 69.8555C481.668 70.8281 482.684 74.1445 481.426 80.3672V80.3672Z" fill="white"/>
</g>
<defs>
<clipPath id="clip0">
<rect width="512" height="512" fill="white"/>
</clipPath>
</defs>
</svg>
