<svg width="18" height="13" viewBox="0 0 18 13" fill="none" xmlns="http://www.w3.org/2000/svg">
<path d="M4.83341 8.49999H7.33341C7.55443 8.49999 7.76639 8.41219 7.92267 8.25591C8.07895 8.09963 8.16675 7.88767 8.16675 7.66666C8.16675 7.44564 8.07895 7.23368 7.92267 7.0774C7.76639 6.92112 7.55443 6.83332 7.33341 6.83332H4.83341C4.6124 6.83332 4.40044 6.92112 4.24416 7.0774C4.08788 7.23368 4.00008 7.44564 4.00008 7.66666C4.00008 7.88767 4.08788 8.09963 4.24416 8.25591C4.40044 8.41219 4.6124 8.49999 4.83341 8.49999ZM14.8334 0.166656H3.16675C2.50371 0.166656 1.86782 0.430049 1.39898 0.89889C0.93014 1.36773 0.666748 2.00362 0.666748 2.66666V10.1667C0.666748 10.8297 0.93014 11.4656 1.39898 11.9344C1.86782 12.4033 2.50371 12.6667 3.16675 12.6667H14.8334C15.4965 12.6667 16.1323 12.4033 16.6012 11.9344C17.07 11.4656 17.3334 10.8297 17.3334 10.1667V2.66666C17.3334 2.00362 17.07 1.36773 16.6012 0.89889C16.1323 0.430049 15.4965 0.166656 14.8334 0.166656ZM15.6667 10.1667C15.6667 10.3877 15.579 10.5996 15.4227 10.7559C15.2664 10.9122 15.0544 11 14.8334 11H3.16675C2.94573 11 2.73377 10.9122 2.57749 10.7559C2.42121 10.5996 2.33341 10.3877 2.33341 10.1667V5.16666H15.6667V10.1667ZM15.6667 3.49999H2.33341V2.66666C2.33341 2.44564 2.42121 2.23368 2.57749 2.0774C2.73377 1.92112 2.94573 1.83332 3.16675 1.83332H14.8334C15.0544 1.83332 15.2664 1.92112 15.4227 2.0774C15.579 2.23368 15.6667 2.44564 15.6667 2.66666V3.49999Z" fill="#006BFF"/>
</svg>
