<svg width="20" height="18" viewBox="0 0 20 18" fill="none" xmlns="http://www.w3.org/2000/svg">
<path d="M5.00016 8.16668C4.83534 8.16668 4.67423 8.21555 4.53719 8.30712C4.40015 8.39869 4.29334 8.52884 4.23026 8.68111C4.16719 8.83338 4.15069 9.00094 4.18284 9.16259C4.215 9.32424 4.29436 9.47272 4.41091 9.58927C4.52745 9.70581 4.67594 9.78518 4.83759 9.81733C4.99924 9.84949 5.16679 9.83298 5.31907 9.76991C5.47134 9.70684 5.60149 9.60003 5.69305 9.46299C5.78462 9.32595 5.8335 9.16483 5.8335 9.00001C5.8335 8.779 5.7457 8.56704 5.58942 8.41076C5.43314 8.25448 5.22118 8.16668 5.00016 8.16668ZM9.8835 6.87501L3.92516 0.908345C3.84746 0.830647 3.75522 0.769013 3.6537 0.726962C3.55219 0.684912 3.44338 0.663269 3.3335 0.663269C3.22361 0.663269 3.11481 0.684912 3.01329 0.726962C2.91177 0.769013 2.81953 0.830647 2.74183 0.908345C2.58491 1.06527 2.49675 1.27809 2.49675 1.50001C2.49675 1.72193 2.58491 1.93476 2.74183 2.09168L3.82516 3.16668H3.3335C2.67045 3.16668 2.03457 3.43007 1.56573 3.89891C1.09689 4.36775 0.833496 5.00364 0.833496 5.66668V12.3333C0.833496 12.9964 1.09689 13.6323 1.56573 14.1011C2.03457 14.57 2.67045 14.8333 3.3335 14.8333H15.4918L17.7418 17.0917C17.8193 17.1698 17.9115 17.2318 18.013 17.2741C18.1146 17.3164 18.2235 17.3382 18.3335 17.3382C18.4435 17.3382 18.5524 17.3164 18.654 17.2741C18.7555 17.2318 18.8477 17.1698 18.9252 17.0917C19.0033 17.0142 19.0653 16.922 19.1076 16.8205C19.1499 16.7189 19.1717 16.61 19.1717 16.5C19.1717 16.39 19.1499 16.2811 19.1076 16.1795C19.0653 16.078 19.0033 15.9858 18.9252 15.9083L9.8835 6.87501ZM9.26683 8.61668L10.3835 9.73335C10.2656 9.79701 10.1341 9.83131 10.0002 9.83334C9.77915 9.83334 9.56719 9.74555 9.41091 9.58927C9.25463 9.43299 9.16683 9.22103 9.16683 9.00001C9.16886 8.86605 9.20317 8.73456 9.26683 8.61668ZM3.3335 13.1667C3.11248 13.1667 2.90052 13.0789 2.74424 12.9226C2.58796 12.7663 2.50016 12.5544 2.50016 12.3333V5.66668C2.50016 5.44566 2.58796 5.2337 2.74424 5.07742C2.90052 4.92114 3.11248 4.83335 3.3335 4.83335H5.49183L8.07516 7.41668C7.7061 7.86205 7.50289 8.42161 7.50016 9.00001C7.50016 9.66305 7.76355 10.2989 8.2324 10.7678C8.70124 11.2366 9.33712 11.5 10.0002 11.5C10.5786 11.4973 11.1381 11.2941 11.5835 10.925L13.8252 13.1667H3.3335ZM16.6668 3.16668H10.5502C10.3291 3.16668 10.1172 3.25448 9.96091 3.41076C9.80463 3.56704 9.71683 3.779 9.71683 4.00001C9.71683 4.22103 9.80463 4.43299 9.96091 4.58927C10.1172 4.74555 10.3291 4.83335 10.5502 4.83335H16.6668C16.8878 4.83335 17.0998 4.92114 17.2561 5.07742C17.4124 5.2337 17.5002 5.44566 17.5002 5.66668V11.7833C17.5002 12.0044 17.588 12.2163 17.7442 12.3726C17.9005 12.5289 18.1125 12.6167 18.3335 12.6167C18.5545 12.6167 18.7665 12.5289 18.9228 12.3726C19.079 12.2163 19.1668 12.0044 19.1668 11.7833V5.66668C19.1668 5.00364 18.9034 4.36775 18.4346 3.89891C17.9658 3.43007 17.3299 3.16668 16.6668 3.16668ZM15.8335 9.00001C15.8335 8.83519 15.7846 8.67408 15.6931 8.53704C15.6015 8.4 15.4713 8.29318 15.3191 8.23011C15.1668 8.16704 14.9992 8.15054 14.8376 8.18269C14.6759 8.21484 14.5274 8.29421 14.4109 8.41076C14.2944 8.5273 14.215 8.67579 14.1828 8.83744C14.1507 8.99909 14.1672 9.16664 14.2303 9.31891C14.2933 9.47119 14.4001 9.60133 14.5372 9.6929C14.6742 9.78447 14.8353 9.83334 15.0002 9.83334C15.2212 9.83334 15.4331 9.74555 15.5894 9.58927C15.7457 9.43299 15.8335 9.22103 15.8335 9.00001Z" fill="#006BFF"/>
</svg>
