<svg width="20" height="18" viewBox="0 0 20 18" fill="none" xmlns="http://www.w3.org/2000/svg">
<path d="M7.49992 11.5C7.3351 11.5 7.17398 11.5489 7.03694 11.6404C6.8999 11.732 6.79309 11.8621 6.73002 12.0144C6.66694 12.1667 6.65044 12.3342 6.6826 12.4959C6.71475 12.6576 6.79412 12.806 6.91066 12.9226C7.02721 13.0391 7.17569 13.1185 7.33734 13.1506C7.49899 13.1828 7.66655 13.1663 7.81882 13.1032C7.97109 13.0402 8.10124 12.9333 8.19281 12.7963C8.28438 12.6593 8.33325 12.4981 8.33325 12.3333C8.33325 12.1123 8.24545 11.9003 8.08917 11.7441C7.93289 11.5878 7.72093 11.5 7.49992 11.5ZM1.66659 10.6667C1.44557 10.6667 1.23361 10.7545 1.07733 10.9107C0.921049 11.067 0.833252 11.279 0.833252 11.5V13.1667C0.833252 13.3877 0.921049 13.5996 1.07733 13.7559C1.23361 13.9122 1.44557 14 1.66659 14C1.8876 14 2.09956 13.9122 2.25584 13.7559C2.41212 13.5996 2.49992 13.3877 2.49992 13.1667V11.5C2.49992 11.279 2.41212 11.067 2.25584 10.9107C2.09956 10.7545 1.8876 10.6667 1.66659 10.6667ZM18.3332 10.6667C18.1122 10.6667 17.9003 10.7545 17.744 10.9107C17.5877 11.067 17.4999 11.279 17.4999 11.5V13.1667C17.4999 13.3877 17.5877 13.5996 17.744 13.7559C17.9003 13.9122 18.1122 14 18.3332 14C18.5543 14 18.7662 13.9122 18.9225 13.7559C19.0788 13.5996 19.1666 13.3877 19.1666 13.1667V11.5C19.1666 11.279 19.0788 11.067 18.9225 10.9107C18.7662 10.7545 18.5543 10.6667 18.3332 10.6667ZM14.1666 4.83332H10.8333V3.76666C11.0851 3.62123 11.2946 3.41242 11.4408 3.16096C11.587 2.90951 11.6648 2.62418 11.6666 2.33332C11.6666 1.8913 11.491 1.46737 11.1784 1.15481C10.8659 0.842251 10.4419 0.666656 9.99992 0.666656C9.55789 0.666656 9.13397 0.842251 8.82141 1.15481C8.50885 1.46737 8.33325 1.8913 8.33325 2.33332C8.33501 2.62418 8.41285 2.90951 8.55904 3.16096C8.70523 3.41242 8.91469 3.62123 9.16658 3.76666V4.83332H5.83325C5.17021 4.83332 4.53433 5.09672 4.06548 5.56556C3.59664 6.0344 3.33325 6.67028 3.33325 7.33332V14.8333C3.33325 15.4964 3.59664 16.1322 4.06548 16.6011C4.53433 17.0699 5.17021 17.3333 5.83325 17.3333H14.1666C14.8296 17.3333 15.4655 17.0699 15.9344 16.6011C16.4032 16.1322 16.6666 15.4964 16.6666 14.8333V7.33332C16.6666 6.67028 16.4032 6.0344 15.9344 5.56556C15.4655 5.09672 14.8296 4.83332 14.1666 4.83332ZM11.4333 6.49999L11.0166 8.16666H8.98325L8.56658 6.49999H11.4333ZM14.9999 14.8333C14.9999 15.0543 14.9121 15.2663 14.7558 15.4226C14.5996 15.5789 14.3876 15.6667 14.1666 15.6667H5.83325C5.61224 15.6667 5.40028 15.5789 5.244 15.4226C5.08772 15.2663 4.99992 15.0543 4.99992 14.8333V7.33332C4.99992 7.11231 5.08772 6.90035 5.244 6.74407C5.40028 6.58779 5.61224 6.49999 5.83325 6.49999H6.84992L7.49992 9.19999C7.54554 9.38489 7.65312 9.54858 7.80475 9.66381C7.95637 9.77905 8.14289 9.83887 8.33325 9.83332H11.6666C11.8569 9.83887 12.0435 9.77905 12.1951 9.66381C12.3467 9.54858 12.4543 9.38489 12.4999 9.19999L13.1499 6.49999H14.1666C14.3876 6.49999 14.5996 6.58779 14.7558 6.74407C14.9121 6.90035 14.9999 7.11231 14.9999 7.33332V14.8333ZM12.4999 11.5C12.3351 11.5 12.174 11.5489 12.0369 11.6404C11.8999 11.732 11.7931 11.8621 11.73 12.0144C11.6669 12.1667 11.6504 12.3342 11.6826 12.4959C11.7148 12.6576 11.7941 12.806 11.9107 12.9226C12.0272 13.0391 12.1757 13.1185 12.3373 13.1506C12.499 13.1828 12.6665 13.1663 12.8188 13.1032C12.9711 13.0402 13.1012 12.9333 13.1928 12.7963C13.2844 12.6593 13.3333 12.4981 13.3333 12.3333C13.3333 12.1123 13.2455 11.9003 13.0892 11.7441C12.9329 11.5878 12.7209 11.5 12.4999 11.5Z" fill="#006BFF"/>
</svg>
