<svg width="90" height="90" viewBox="0 0 90 90" fill="none" xmlns="http://www.w3.org/2000/svg">
<path d="M75.9078 75.9078C93.0441 58.7716 93.0441 30.9884 75.9078 13.8522C58.7716 -3.28405 30.9884 -3.28405 13.8522 13.8522C-3.28405 30.9884 -3.28405 58.7716 13.8522 75.9078C30.9884 93.0441 58.7716 93.0441 75.9078 75.9078Z" stroke="#CCE2FF" stroke-miterlimit="10"/>
<path d="M70.8662 70.8662C85.2179 56.5144 85.2179 33.2456 70.8662 18.8938C56.5144 4.54206 33.2456 4.54206 18.8938 18.8938C4.54206 33.2456 4.54206 56.5144 18.8938 70.8662C33.2456 85.2179 56.5144 85.2179 70.8662 70.8662Z" stroke="#CCE2FF" stroke-miterlimit="10"/>
<path d="M68.6307 62.5606C78.3923 49.4405 75.6697 30.8912 62.5496 21.1296C49.4296 11.368 30.8803 14.0906 21.1187 27.2106C11.3571 40.3307 14.0796 58.88 27.1997 68.6416C40.3198 78.4032 58.8691 75.6806 68.6307 62.5606Z" stroke="#CCE2FF" stroke-miterlimit="10"/>
<path d="M65.401 54.031C70.4505 42.6949 65.3543 29.4118 54.0182 24.3623C42.6821 19.3128 29.399 24.409 24.3495 35.7451C19.3 47.0812 24.3962 60.3643 35.7323 65.4138C47.0684 70.4633 60.3515 65.3671 65.401 54.031Z" stroke="#CCE2FF" stroke-miterlimit="10"/>
<path d="M44.8772 60.22C53.3493 60.22 60.2172 53.352 60.2172 44.88C60.2172 36.408 53.3493 29.54 44.8772 29.54C36.4052 29.54 29.5372 36.408 29.5372 44.88C29.5372 53.352 36.4052 60.22 44.8772 60.22Z" stroke="#CCE2FF" stroke-miterlimit="10"/>
</svg>
