<svg width="144" height="50" viewBox="0 0 144 50" fill="none" xmlns="http://www.w3.org/2000/svg">
<path d="M1.22 5.47556e-07C0.978708 5.47556e-07 0.742833 0.0715523 0.542205 0.205608C0.341577 0.339663 0.185207 0.530201 0.0928681 0.753127C0.000529155 0.976053 -0.0236309 1.22135 0.0234431 1.45801C0.070517 1.69467 0.186711 1.91205 0.357331 2.08267C0.527951 2.25329 0.745334 2.36948 0.981991 2.41656C1.21865 2.46363 1.46395 2.43947 1.68687 2.34713C1.9098 2.25479 2.10034 2.09842 2.23439 1.8978C2.36845 1.69717 2.44 1.46129 2.44 1.22C2.44 0.896437 2.31147 0.586125 2.08267 0.35733C1.85388 0.128536 1.54357 5.47556e-07 1.22 5.47556e-07Z" fill="#006BFF"/>
<path d="M18.88 5.47556e-07C18.6387 5.47556e-07 18.4028 0.0715523 18.2022 0.205608C18.0016 0.339663 17.8452 0.530201 17.7529 0.753127C17.6605 0.976053 17.6364 1.22135 17.6834 1.45801C17.7305 1.69467 17.8467 1.91205 18.0173 2.08267C18.188 2.25329 18.4053 2.36948 18.642 2.41656C18.8786 2.46363 19.1239 2.43947 19.3469 2.34713C19.5698 2.25479 19.7603 2.09842 19.8944 1.8978C20.0284 1.69717 20.1 1.46129 20.1 1.22C20.1 1.05979 20.0684 0.901144 20.0071 0.753127C19.9458 0.60511 19.856 0.470618 19.7427 0.35733C19.6294 0.244043 19.4949 0.154178 19.3469 0.0928675C19.1989 0.0315568 19.0402 5.47556e-07 18.88 5.47556e-07Z" fill="#006BFF"/>
<path d="M36.54 5.47556e-07C36.2987 5.47556e-07 36.0628 0.0715523 35.8622 0.205608C35.6616 0.339663 35.5052 0.530201 35.4129 0.753127C35.3205 0.976053 35.2964 1.22135 35.3434 1.45801C35.3905 1.69467 35.5067 1.91205 35.6773 2.08267C35.8479 2.25329 36.0653 2.36948 36.302 2.41656C36.5386 2.46363 36.7839 2.43947 37.0069 2.34713C37.2298 2.25479 37.4203 2.09842 37.5544 1.8978C37.6884 1.69717 37.76 1.46129 37.76 1.22C37.76 0.896437 37.6315 0.586125 37.4027 0.35733C37.1739 0.128536 36.8636 5.47556e-07 36.54 5.47556e-07Z" fill="#006BFF"/>
<path d="M54.2 5.47556e-07C53.9587 5.47556e-07 53.7228 0.0715523 53.5222 0.205608C53.3216 0.339663 53.1652 0.530201 53.0729 0.753127C52.9805 0.976053 52.9564 1.22135 53.0034 1.45801C53.0505 1.69467 53.1667 1.91205 53.3373 2.08267C53.5079 2.25329 53.7253 2.36948 53.962 2.41656C54.1986 2.46363 54.4439 2.43947 54.6669 2.34713C54.8898 2.25479 55.0803 2.09842 55.2144 1.8978C55.3484 1.69717 55.42 1.46129 55.42 1.22C55.42 0.896437 55.2915 0.586125 55.0627 0.35733C54.8339 0.128536 54.5236 5.47556e-07 54.2 5.47556e-07Z" fill="#006BFF"/>
<path d="M71.86 5.47556e-07C71.6187 5.47556e-07 71.3828 0.0715523 71.1822 0.205608C70.9816 0.339663 70.8252 0.530201 70.7329 0.753127C70.6405 0.976053 70.6164 1.22135 70.6634 1.45801C70.7105 1.69467 70.8267 1.91205 70.9973 2.08267C71.168 2.25329 71.3853 2.36948 71.622 2.41656C71.8586 2.46363 72.104 2.43947 72.3269 2.34713C72.5498 2.25479 72.7403 2.09842 72.8744 1.8978C73.0084 1.69717 73.08 1.46129 73.08 1.22C73.08 0.896437 72.9515 0.586125 72.7227 0.35733C72.4939 0.128536 72.1836 5.47556e-07 71.86 5.47556e-07Z" fill="#006BFF"/>
<path d="M89.52 5.47556e-07C89.2787 5.47556e-07 89.0428 0.0715523 88.8422 0.205608C88.6416 0.339663 88.4852 0.530201 88.3929 0.753127C88.3005 0.976053 88.2764 1.22135 88.3234 1.45801C88.3705 1.69467 88.4867 1.91205 88.6573 2.08267C88.828 2.25329 89.0453 2.36948 89.282 2.41656C89.5186 2.46363 89.764 2.43947 89.9869 2.34713C90.2098 2.25479 90.4003 2.09842 90.5344 1.8978C90.6684 1.69717 90.74 1.46129 90.74 1.22C90.74 0.896437 90.6115 0.586125 90.3827 0.35733C90.1539 0.128536 89.8436 5.47556e-07 89.52 5.47556e-07Z" fill="#006BFF"/>
<path d="M107.18 5.47556e-07C106.939 5.47556e-07 106.703 0.0715523 106.502 0.205608C106.302 0.339663 106.145 0.530201 106.053 0.753127C105.961 0.976053 105.936 1.22135 105.983 1.45801C106.031 1.69467 106.147 1.91205 106.317 2.08267C106.488 2.25329 106.705 2.36948 106.942 2.41656C107.179 2.46363 107.424 2.43947 107.647 2.34713C107.87 2.25479 108.06 2.09842 108.194 1.8978C108.328 1.69717 108.4 1.46129 108.4 1.22C108.4 0.896437 108.271 0.586125 108.043 0.35733C107.814 0.128536 107.504 5.47556e-07 107.18 5.47556e-07Z" fill="#006BFF"/>
<path d="M124.84 5.47556e-07C124.599 5.47556e-07 124.363 0.0715523 124.162 0.205608C123.962 0.339663 123.805 0.530201 123.713 0.753127C123.621 0.976053 123.596 1.22135 123.643 1.45801C123.691 1.69467 123.807 1.91205 123.977 2.08267C124.148 2.25329 124.365 2.36948 124.602 2.41656C124.839 2.46363 125.084 2.43947 125.307 2.34713C125.53 2.25479 125.72 2.09842 125.854 1.8978C125.988 1.69717 126.06 1.46129 126.06 1.22C126.06 0.896437 125.931 0.586125 125.703 0.35733C125.474 0.128536 125.164 5.47556e-07 124.84 5.47556e-07Z" fill="#006BFF"/>
<path d="M142.5 2.44C142.741 2.44 142.977 2.36845 143.178 2.23439C143.378 2.10034 143.535 1.9098 143.627 1.68687C143.719 1.46395 143.744 1.21865 143.697 0.98199C143.649 0.745333 143.533 0.52795 143.363 0.35733C143.192 0.18671 142.975 0.0705165 142.738 0.0234425C142.501 -0.0236315 142.256 0.000528611 142.033 0.0928675C141.81 0.185206 141.62 0.341577 141.486 0.542205C141.352 0.742833 141.28 0.978707 141.28 1.22C141.28 1.54356 141.409 1.85388 141.637 2.08267C141.866 2.31147 142.176 2.44 142.5 2.44Z" fill="#006BFF"/>
<path d="M1.22 11.87C0.978707 11.87 0.742833 11.9416 0.542205 12.0756C0.341577 12.2097 0.185206 12.4002 0.0928675 12.6231C0.000528611 12.8461 -0.0236315 13.0914 0.0234425 13.328C0.0705165 13.5647 0.18671 13.7821 0.35733 13.9527C0.52795 14.1233 0.745333 14.2395 0.98199 14.2866C1.21865 14.3336 1.46395 14.3095 1.68687 14.2171C1.9098 14.1248 2.10034 13.9684 2.23439 13.7678C2.36845 13.5672 2.44 13.3313 2.44 13.09C2.44 12.7664 2.31147 12.4561 2.08267 12.2273C1.85388 11.9985 1.54356 11.87 1.22 11.87Z" fill="#006BFF"/>
<path d="M18.88 11.87C18.6387 11.87 18.4028 11.9416 18.2022 12.0756C18.0016 12.2097 17.8452 12.4002 17.7529 12.6231C17.6605 12.8461 17.6364 13.0914 17.6834 13.328C17.7305 13.5647 17.8467 13.7821 18.0173 13.9527C18.188 14.1233 18.4053 14.2395 18.642 14.2866C18.8786 14.3336 19.1239 14.3095 19.3469 14.2171C19.5698 14.1248 19.7603 13.9684 19.8944 13.7678C20.0284 13.5672 20.1 13.3313 20.1 13.09C20.1 12.7664 19.9715 12.4561 19.7427 12.2273C19.5139 11.9985 19.2036 11.87 18.88 11.87Z" fill="#006BFF"/>
<path d="M36.54 11.87C36.2987 11.87 36.0628 11.9416 35.8622 12.0756C35.6616 12.2097 35.5052 12.4002 35.4129 12.6231C35.3205 12.8461 35.2964 13.0914 35.3434 13.328C35.3905 13.5647 35.5067 13.7821 35.6773 13.9527C35.8479 14.1233 36.0653 14.2395 36.302 14.2866C36.5386 14.3336 36.7839 14.3095 37.0069 14.2171C37.2298 14.1248 37.4203 13.9684 37.5544 13.7678C37.6884 13.5672 37.76 13.3313 37.76 13.09C37.76 12.7664 37.6315 12.4561 37.4027 12.2273C37.1739 11.9985 36.8636 11.87 36.54 11.87Z" fill="#006BFF"/>
<path d="M54.2 11.87C53.9587 11.87 53.7228 11.9416 53.5222 12.0756C53.3216 12.2097 53.1652 12.4002 53.0729 12.6231C52.9805 12.8461 52.9564 13.0914 53.0034 13.328C53.0505 13.5647 53.1667 13.7821 53.3373 13.9527C53.5079 14.1233 53.7253 14.2395 53.962 14.2866C54.1986 14.3336 54.4439 14.3095 54.6669 14.2171C54.8898 14.1248 55.0803 13.9684 55.2144 13.7678C55.3484 13.5672 55.42 13.3313 55.42 13.09C55.42 12.7664 55.2915 12.4561 55.0627 12.2273C54.8339 11.9985 54.5236 11.87 54.2 11.87Z" fill="#006BFF"/>
<path d="M71.86 11.87C71.6187 11.87 71.3828 11.9416 71.1822 12.0756C70.9816 12.2097 70.8252 12.4002 70.7329 12.6231C70.6405 12.8461 70.6164 13.0914 70.6634 13.328C70.7105 13.5647 70.8267 13.7821 70.9973 13.9527C71.168 14.1233 71.3853 14.2395 71.622 14.2866C71.8586 14.3336 72.104 14.3095 72.3269 14.2171C72.5498 14.1248 72.7403 13.9684 72.8744 13.7678C73.0084 13.5672 73.08 13.3313 73.08 13.09C73.08 12.7664 72.9515 12.4561 72.7227 12.2273C72.4939 11.9985 72.1836 11.87 71.86 11.87Z" fill="#006BFF"/>
<path d="M89.52 11.87C89.2787 11.87 89.0428 11.9416 88.8422 12.0756C88.6416 12.2097 88.4852 12.4002 88.3929 12.6231C88.3005 12.8461 88.2764 13.0914 88.3234 13.328C88.3705 13.5647 88.4867 13.7821 88.6573 13.9527C88.828 14.1233 89.0453 14.2395 89.282 14.2866C89.5186 14.3336 89.764 14.3095 89.9869 14.2171C90.2098 14.1248 90.4003 13.9684 90.5344 13.7678C90.6684 13.5672 90.74 13.3313 90.74 13.09C90.74 12.7664 90.6115 12.4561 90.3827 12.2273C90.1539 11.9985 89.8436 11.87 89.52 11.87Z" fill="#006BFF"/>
<path d="M107.18 11.87C106.939 11.87 106.703 11.9416 106.502 12.0756C106.302 12.2097 106.145 12.4002 106.053 12.6231C105.961 12.8461 105.936 13.0914 105.983 13.328C106.031 13.5647 106.147 13.7821 106.317 13.9527C106.488 14.1233 106.705 14.2395 106.942 14.2866C107.179 14.3336 107.424 14.3095 107.647 14.2171C107.87 14.1248 108.06 13.9684 108.194 13.7678C108.328 13.5672 108.4 13.3313 108.4 13.09C108.4 12.7664 108.271 12.4561 108.043 12.2273C107.814 11.9985 107.504 11.87 107.18 11.87Z" fill="#006BFF"/>
<path d="M124.84 11.87C124.599 11.87 124.363 11.9416 124.162 12.0756C123.962 12.2097 123.805 12.4002 123.713 12.6231C123.621 12.8461 123.596 13.0914 123.643 13.328C123.691 13.5647 123.807 13.7821 123.977 13.9527C124.148 14.1233 124.365 14.2395 124.602 14.2866C124.839 14.3336 125.084 14.3095 125.307 14.2171C125.53 14.1248 125.72 13.9684 125.854 13.7678C125.988 13.5672 126.06 13.3313 126.06 13.09C126.06 12.7664 125.931 12.4561 125.703 12.2273C125.474 11.9985 125.164 11.87 124.84 11.87Z" fill="#006BFF"/>
<path d="M142.5 11.87C142.259 11.87 142.023 11.9416 141.822 12.0756C141.622 12.2097 141.465 12.4002 141.373 12.6231C141.281 12.8461 141.256 13.0914 141.303 13.328C141.351 13.5647 141.467 13.7821 141.637 13.9527C141.808 14.1233 142.025 14.2395 142.262 14.2866C142.499 14.3336 142.744 14.3095 142.967 14.2171C143.19 14.1248 143.38 13.9684 143.514 13.7678C143.648 13.5672 143.72 13.3313 143.72 13.09C143.72 12.7664 143.591 12.4561 143.363 12.2273C143.134 11.9985 142.824 11.87 142.5 11.87Z" fill="#006BFF"/>
<path d="M1.22 23.74C0.980439 23.7401 0.746216 23.8108 0.546546 23.9432C0.346876 24.0755 0.190596 24.2637 0.0971969 24.4844C0.00379813 24.705 -0.0225853 24.9482 0.0213372 25.1837C0.0652597 25.4192 0.177544 25.6365 0.344186 25.8086C0.510828 25.9808 0.724452 26.1 0.958414 26.1515C1.19238 26.203 1.43632 26.1845 1.65982 26.0982C1.88333 26.012 2.07649 25.8618 2.21523 25.6666C2.35397 25.4713 2.43215 25.2394 2.44 25C2.44537 24.8365 2.41778 24.6735 2.35887 24.5208C2.29997 24.3682 2.21095 24.2289 2.09713 24.1114C1.9833 23.9938 1.84699 23.9003 1.6963 23.8365C1.54562 23.7727 1.38364 23.7399 1.22 23.74Z" fill="#006BFF"/>
<path d="M18.88 23.74C18.6404 23.7401 18.4062 23.8108 18.2065 23.9432C18.0069 24.0755 17.8506 24.2637 17.7572 24.4844C17.6638 24.705 17.6374 24.9482 17.6813 25.1837C17.7253 25.4192 17.8375 25.6365 18.0042 25.8086C18.1708 25.9808 18.3845 26.1 18.6184 26.1515C18.8524 26.203 19.0963 26.1845 19.3198 26.0982C19.5433 26.012 19.7365 25.8618 19.8752 25.6666C20.014 25.4713 20.0921 25.2394 20.1 25C20.1054 24.8365 20.0778 24.6735 20.0189 24.5208C19.96 24.3682 19.871 24.2289 19.7571 24.1114C19.6433 23.9938 19.507 23.9003 19.3563 23.8365C19.2056 23.7727 19.0436 23.7399 18.88 23.74Z" fill="#006BFF"/>
<path d="M36.54 23.74C36.3004 23.7401 36.0662 23.8108 35.8665 23.9432C35.6669 24.0755 35.5106 24.2637 35.4172 24.4844C35.3238 24.705 35.2974 24.9482 35.3413 25.1837C35.3853 25.4192 35.4975 25.6365 35.6642 25.8086C35.8308 25.9808 36.0444 26.1 36.2784 26.1515C36.5124 26.203 36.7563 26.1845 36.9798 26.0982C37.2033 26.012 37.3965 25.8618 37.5352 25.6666C37.674 25.4713 37.7521 25.2394 37.76 25C37.7654 24.8365 37.7378 24.6735 37.6789 24.5208C37.62 24.3682 37.531 24.2289 37.4171 24.1114C37.3033 23.9938 37.167 23.9003 37.0163 23.8365C36.8656 23.7727 36.7036 23.7399 36.54 23.74Z" fill="#006BFF"/>
<path d="M54.2 23.74C53.9604 23.7401 53.7262 23.8108 53.5265 23.9432C53.3269 24.0755 53.1706 24.2637 53.0772 24.4844C52.9838 24.705 52.9574 24.9482 53.0013 25.1837C53.0453 25.4192 53.1575 25.6365 53.3242 25.8086C53.4908 25.9808 53.7044 26.1 53.9384 26.1515C54.1724 26.203 54.4163 26.1845 54.6398 26.0982C54.8633 26.012 55.0565 25.8618 55.1952 25.6666C55.334 25.4713 55.4121 25.2394 55.42 25C55.4254 24.8365 55.3978 24.6735 55.3389 24.5208C55.28 24.3682 55.191 24.2289 55.0771 24.1114C54.9633 23.9938 54.827 23.9003 54.6763 23.8365C54.5256 23.7727 54.3636 23.7399 54.2 23.74Z" fill="#006BFF"/>
<path d="M71.86 23.74C71.5364 23.74 71.2261 23.8685 70.9973 24.0973C70.7685 24.3261 70.64 24.6364 70.64 24.96C70.64 25.2836 70.7685 25.5939 70.9973 25.8227C71.2261 26.0515 71.5364 26.18 71.86 26.18C72.1836 26.18 72.4939 26.0515 72.7227 25.8227C72.9515 25.5939 73.08 25.2836 73.08 24.96C73.08 24.6364 72.9515 24.3261 72.7227 24.0973C72.4939 23.8685 72.1836 23.74 71.86 23.74Z" fill="#006BFF"/>
<path d="M89.52 23.74C89.1964 23.74 88.8861 23.8685 88.6573 24.0973C88.4285 24.3261 88.3 24.6364 88.3 24.96C88.3 25.2836 88.4285 25.5939 88.6573 25.8227C88.8861 26.0515 89.1964 26.18 89.52 26.18C89.8436 26.18 90.1539 26.0515 90.3827 25.8227C90.6115 25.5939 90.74 25.2836 90.74 24.96C90.74 24.6364 90.6115 24.3261 90.3827 24.0973C90.1539 23.8685 89.8436 23.74 89.52 23.74Z" fill="#006BFF"/>
<path d="M107.18 23.74C106.856 23.74 106.546 23.8685 106.317 24.0973C106.089 24.3261 105.96 24.6364 105.96 24.96C105.96 25.2836 106.089 25.5939 106.317 25.8227C106.546 26.0515 106.856 26.18 107.18 26.18C107.504 26.18 107.814 26.0515 108.043 25.8227C108.271 25.5939 108.4 25.2836 108.4 24.96C108.4 24.6364 108.271 24.3261 108.043 24.0973C107.814 23.8685 107.504 23.74 107.18 23.74Z" fill="#006BFF"/>
<path d="M124.84 23.74C124.516 23.74 124.206 23.8685 123.977 24.0973C123.749 24.3261 123.62 24.6364 123.62 24.96C123.62 25.2836 123.749 25.5939 123.977 25.8227C124.206 26.0515 124.516 26.18 124.84 26.18C125.164 26.18 125.474 26.0515 125.703 25.8227C125.931 25.5939 126.06 25.2836 126.06 24.96C126.06 24.6364 125.931 24.3261 125.703 24.0973C125.474 23.8685 125.164 23.74 124.84 23.74Z" fill="#006BFF"/>
<path d="M142.5 23.74C142.176 23.74 141.866 23.8685 141.637 24.0973C141.409 24.3261 141.28 24.6364 141.28 24.96C141.28 25.2836 141.409 25.5939 141.637 25.8227C141.866 26.0515 142.176 26.18 142.5 26.18C142.824 26.18 143.134 26.0515 143.363 25.8227C143.591 25.5939 143.72 25.2836 143.72 24.96C143.72 24.6364 143.591 24.3261 143.363 24.0973C143.134 23.8685 142.824 23.74 142.5 23.74Z" fill="#006BFF"/>
<path d="M1.22 35.61C0.978707 35.61 0.742833 35.6816 0.542205 35.8156C0.341577 35.9497 0.185206 36.1402 0.0928675 36.3631C0.000528611 36.5861 -0.0236315 36.8314 0.0234425 37.068C0.0705165 37.3047 0.18671 37.522 0.35733 37.6927C0.52795 37.8633 0.745333 37.9795 0.98199 38.0266C1.21865 38.0736 1.46395 38.0495 1.68687 37.9571C1.9098 37.8648 2.10034 37.7084 2.23439 37.5078C2.36845 37.3072 2.44 37.0713 2.44 36.83C2.44 36.5064 2.31147 36.1961 2.08267 35.9673C1.85388 35.7385 1.54356 35.61 1.22 35.61Z" fill="#006BFF"/>
<path d="M18.88 35.61C18.6387 35.61 18.4028 35.6816 18.2022 35.8156C18.0016 35.9497 17.8452 36.1402 17.7529 36.3631C17.6605 36.5861 17.6364 36.8314 17.6834 37.068C17.7305 37.3047 17.8467 37.522 18.0173 37.6927C18.188 37.8633 18.4053 37.9795 18.642 38.0266C18.8786 38.0736 19.1239 38.0495 19.3469 37.9571C19.5698 37.8648 19.7603 37.7084 19.8944 37.5078C20.0284 37.3072 20.1 37.0713 20.1 36.83C20.1 36.5064 19.9715 36.1961 19.7427 35.9673C19.5139 35.7385 19.2036 35.61 18.88 35.61Z" fill="#006BFF"/>
<path d="M36.54 35.61C36.2987 35.61 36.0628 35.6816 35.8622 35.8156C35.6616 35.9497 35.5052 36.1402 35.4129 36.3631C35.3205 36.5861 35.2964 36.8314 35.3434 37.068C35.3905 37.3047 35.5067 37.522 35.6773 37.6927C35.8479 37.8633 36.0653 37.9795 36.302 38.0266C36.5386 38.0736 36.7839 38.0495 37.0069 37.9571C37.2298 37.8648 37.4203 37.7084 37.5544 37.5078C37.6884 37.3072 37.76 37.0713 37.76 36.83C37.76 36.5064 37.6315 36.1961 37.4027 35.9673C37.1739 35.7385 36.8636 35.61 36.54 35.61Z" fill="#006BFF"/>
<path d="M54.2 35.61C53.9587 35.61 53.7228 35.6816 53.5222 35.8156C53.3216 35.9497 53.1652 36.1402 53.0729 36.3631C52.9805 36.5861 52.9564 36.8314 53.0034 37.068C53.0505 37.3047 53.1667 37.522 53.3373 37.6927C53.5079 37.8633 53.7253 37.9795 53.962 38.0266C54.1986 38.0736 54.4439 38.0495 54.6669 37.9571C54.8898 37.8648 55.0803 37.7084 55.2144 37.5078C55.3484 37.3072 55.42 37.0713 55.42 36.83C55.42 36.5064 55.2915 36.1961 55.0627 35.9673C54.8339 35.7385 54.5236 35.61 54.2 35.61Z" fill="#006BFF"/>
<path d="M71.86 35.61C71.5364 35.61 71.2261 35.7385 70.9973 35.9673C70.7685 36.1961 70.64 36.5064 70.64 36.83C70.64 37.1536 70.7685 37.4639 70.9973 37.6927C71.2261 37.9215 71.5364 38.05 71.86 38.05C72.1836 38.05 72.4939 37.9215 72.7227 37.6927C72.9515 37.4639 73.08 37.1536 73.08 36.83C73.08 36.5064 72.9515 36.1961 72.7227 35.9673C72.4939 35.7385 72.1836 35.61 71.86 35.61Z" fill="#006BFF"/>
<path d="M89.52 35.61C89.1964 35.61 88.8861 35.7385 88.6573 35.9673C88.4285 36.1961 88.3 36.5064 88.3 36.83C88.3 37.1536 88.4285 37.4639 88.6573 37.6927C88.8861 37.9215 89.1964 38.05 89.52 38.05C89.8436 38.05 90.1539 37.9215 90.3827 37.6927C90.6115 37.4639 90.74 37.1536 90.74 36.83C90.74 36.5064 90.6115 36.1961 90.3827 35.9673C90.1539 35.7385 89.8436 35.61 89.52 35.61Z" fill="#006BFF"/>
<path d="M107.18 35.61C106.856 35.61 106.546 35.7385 106.317 35.9673C106.089 36.1961 105.96 36.5064 105.96 36.83C105.96 37.1536 106.089 37.4639 106.317 37.6927C106.546 37.9215 106.856 38.05 107.18 38.05C107.504 38.05 107.814 37.9215 108.043 37.6927C108.271 37.4639 108.4 37.1536 108.4 36.83C108.4 36.5064 108.271 36.1961 108.043 35.9673C107.814 35.7385 107.504 35.61 107.18 35.61Z" fill="#006BFF"/>
<path d="M124.84 35.61C124.516 35.61 124.206 35.7385 123.977 35.9673C123.749 36.1961 123.62 36.5064 123.62 36.83C123.62 37.1536 123.749 37.4639 123.977 37.6927C124.206 37.9215 124.516 38.05 124.84 38.05C125.164 38.05 125.474 37.9215 125.703 37.6927C125.931 37.4639 126.06 37.1536 126.06 36.83C126.06 36.5064 125.931 36.1961 125.703 35.9673C125.474 35.7385 125.164 35.61 124.84 35.61Z" fill="#006BFF"/>
<path d="M142.5 35.61C142.176 35.61 141.866 35.7385 141.637 35.9673C141.409 36.1961 141.28 36.5064 141.28 36.83C141.28 37.1536 141.409 37.4639 141.637 37.6927C141.866 37.9215 142.176 38.05 142.5 38.05C142.824 38.05 143.134 37.9215 143.363 37.6927C143.591 37.4639 143.72 37.1536 143.72 36.83C143.72 36.5064 143.591 36.1961 143.363 35.9673C143.134 35.7385 142.824 35.61 142.5 35.61Z" fill="#006BFF"/>
<path d="M1.22 47.48C0.978707 47.48 0.742833 47.5516 0.542205 47.6856C0.341577 47.8197 0.185206 48.0102 0.0928675 48.2331C0.000528611 48.4561 -0.0236315 48.7014 0.0234425 48.938C0.0705165 49.1747 0.18671 49.3921 0.35733 49.5627C0.52795 49.7333 0.745333 49.8495 0.98199 49.8966C1.21865 49.9436 1.46395 49.9195 1.68687 49.8271C1.9098 49.7348 2.10034 49.5784 2.23439 49.3778C2.36845 49.1772 2.44 48.9413 2.44 48.7C2.44 48.3764 2.31147 48.0661 2.08267 47.8373C1.85388 47.6085 1.54356 47.48 1.22 47.48Z" fill="#006BFF"/>
<path d="M18.88 47.48C18.6387 47.48 18.4028 47.5516 18.2022 47.6856C18.0016 47.8197 17.8452 48.0102 17.7529 48.2331C17.6605 48.4561 17.6364 48.7014 17.6834 48.938C17.7305 49.1747 17.8467 49.3921 18.0173 49.5627C18.188 49.7333 18.4053 49.8495 18.642 49.8966C18.8786 49.9436 19.1239 49.9195 19.3469 49.8271C19.5698 49.7348 19.7603 49.5784 19.8944 49.3778C20.0284 49.1772 20.1 48.9413 20.1 48.7C20.1 48.5398 20.0684 48.3811 20.0071 48.2331C19.9458 48.0851 19.856 47.9506 19.7427 47.8373C19.6294 47.724 19.4949 47.6342 19.3469 47.5729C19.1989 47.5116 19.0402 47.48 18.88 47.48Z" fill="#006BFF"/>
<path d="M36.54 47.48C36.2987 47.48 36.0628 47.5516 35.8622 47.6856C35.6616 47.8197 35.5052 48.0102 35.4129 48.2331C35.3205 48.4561 35.2964 48.7014 35.3434 48.938C35.3905 49.1747 35.5067 49.3921 35.6773 49.5627C35.8479 49.7333 36.0653 49.8495 36.302 49.8966C36.5386 49.9436 36.7839 49.9195 37.0069 49.8271C37.2298 49.7348 37.4203 49.5784 37.5544 49.3778C37.6884 49.1772 37.76 48.9413 37.76 48.7C37.76 48.3764 37.6315 48.0661 37.4027 47.8373C37.1739 47.6085 36.8636 47.48 36.54 47.48Z" fill="#006BFF"/>
<path d="M54.2 47.48C53.9587 47.48 53.7228 47.5516 53.5222 47.6856C53.3216 47.8197 53.1652 48.0102 53.0729 48.2331C52.9805 48.4561 52.9564 48.7014 53.0034 48.938C53.0505 49.1747 53.1667 49.3921 53.3373 49.5627C53.5079 49.7333 53.7253 49.8495 53.962 49.8966C54.1986 49.9436 54.4439 49.9195 54.6669 49.8271C54.8898 49.7348 55.0803 49.5784 55.2144 49.3778C55.3484 49.1772 55.42 48.9413 55.42 48.7C55.42 48.3764 55.2915 48.0661 55.0627 47.8373C54.8339 47.6085 54.5236 47.48 54.2 47.48Z" fill="#006BFF"/>
<path d="M71.86 47.48C71.5364 47.48 71.2261 47.6085 70.9973 47.8373C70.7685 48.0661 70.64 48.3764 70.64 48.7C70.64 49.0236 70.7685 49.3339 70.9973 49.5627C71.2261 49.7915 71.5364 49.92 71.86 49.92C72.1836 49.92 72.4939 49.7915 72.7227 49.5627C72.9515 49.3339 73.08 49.0236 73.08 48.7C73.08 48.3764 72.9515 48.0661 72.7227 47.8373C72.4939 47.6085 72.1836 47.48 71.86 47.48Z" fill="#006BFF"/>
<path d="M89.52 47.48C89.1964 47.48 88.8861 47.6085 88.6573 47.8373C88.4285 48.0661 88.3 48.3764 88.3 48.7C88.3 49.0236 88.4285 49.3339 88.6573 49.5627C88.8861 49.7915 89.1964 49.92 89.52 49.92C89.8436 49.92 90.1539 49.7915 90.3827 49.5627C90.6115 49.3339 90.74 49.0236 90.74 48.7C90.74 48.3764 90.6115 48.0661 90.3827 47.8373C90.1539 47.6085 89.8436 47.48 89.52 47.48Z" fill="#006BFF"/>
<path d="M107.18 47.48C106.856 47.48 106.546 47.6085 106.317 47.8373C106.089 48.0661 105.96 48.3764 105.96 48.7C105.96 49.0236 106.089 49.3339 106.317 49.5627C106.546 49.7915 106.856 49.92 107.18 49.92C107.504 49.92 107.814 49.7915 108.043 49.5627C108.271 49.3339 108.4 49.0236 108.4 48.7C108.4 48.3764 108.271 48.0661 108.043 47.8373C107.814 47.6085 107.504 47.48 107.18 47.48Z" fill="#006BFF"/>
<path d="M124.84 47.48C124.516 47.48 124.206 47.6085 123.977 47.8373C123.749 48.0661 123.62 48.3764 123.62 48.7C123.62 49.0236 123.749 49.3339 123.977 49.5627C124.206 49.7915 124.516 49.92 124.84 49.92C125.164 49.92 125.474 49.7915 125.703 49.5627C125.931 49.3339 126.06 49.0236 126.06 48.7C126.06 48.3764 125.931 48.0661 125.703 47.8373C125.474 47.6085 125.164 47.48 124.84 47.48Z" fill="#006BFF"/>
<path d="M142.5 47.48C142.176 47.48 141.866 47.6085 141.637 47.8373C141.409 48.0661 141.28 48.3764 141.28 48.7C141.28 49.0236 141.409 49.3339 141.637 49.5627C141.866 49.7915 142.176 49.92 142.5 49.92C142.824 49.92 143.134 49.7915 143.363 49.5627C143.591 49.3339 143.72 49.0236 143.72 48.7C143.72 48.3764 143.591 48.0661 143.363 47.8373C143.134 47.6085 142.824 47.48 142.5 47.48Z" fill="#006BFF"/>
</svg>
