<svg width="131" height="262" viewBox="0 0 131 262" fill="none" xmlns="http://www.w3.org/2000/svg">
<path d="M91.9239 222.924C142.692 172.156 142.692 89.8443 91.9239 39.0761C41.1557 -11.692 -41.1557 -11.692 -91.9239 39.0761C-142.692 89.8443 -142.692 172.156 -91.9239 222.924C-41.1557 273.692 41.1557 273.692 91.9239 222.924Z" stroke="#CCE2FF" stroke-miterlimit="10"/>
<path d="M76.9873 207.987C119.506 165.468 119.506 96.5316 76.9873 54.0127C34.4684 11.4938 -34.4684 11.4938 -76.9873 54.0127C-119.506 96.5316 -119.506 165.468 -76.9873 207.987C-34.4684 250.506 34.4684 250.506 76.9873 207.987Z" stroke="#CCE2FF" stroke-miterlimit="10"/>
<path d="M70.3644 183.381C99.2844 144.511 91.2184 89.5564 52.3485 60.6365C13.4786 31.7165 -41.4759 39.7824 -70.3959 78.6523C-99.3159 117.522 -91.2499 172.477 -52.38 201.397C-13.5102 230.317 41.4444 222.251 70.3644 183.381Z" stroke="#CCE2FF" stroke-miterlimit="10"/>
<path d="M60.7961 158.111C75.7559 124.526 60.6576 85.1735 27.0731 70.2137C-6.51147 55.2539 -45.8644 70.3522 -60.8243 103.937C-75.7841 137.521 -60.6858 176.874 -27.1012 191.834C6.48329 206.794 45.8363 191.696 60.7961 158.111Z" stroke="#CCE2FF" stroke-miterlimit="10"/>
<path d="M-0.00828422 176.447C25.0912 176.447 45.4384 156.1 45.4384 131C45.4384 105.9 25.0912 85.5533 -0.00828422 85.5533C-25.1078 85.5533 -45.455 105.9 -45.455 131C-45.455 156.1 -25.1078 176.447 -0.00828422 176.447Z" stroke="#CCE2FF" stroke-miterlimit="10"/>
</svg>
