<svg width="139" height="278" viewBox="0 0 139 278" fill="none" xmlns="http://www.w3.org/2000/svg">
<path d="M97.5807 236.581C151.473 182.688 151.473 95.3116 97.5807 41.4193C43.6884 -12.4731 -43.6884 -12.4731 -97.5807 41.4193C-151.473 95.3116 -151.473 182.688 -97.5807 236.581C-43.6884 290.473 43.6884 290.473 97.5807 236.581Z" stroke="#CCE2FF" stroke-miterlimit="10"/>
<path d="M81.725 220.725C126.86 175.59 126.86 102.41 81.725 57.275C36.5895 12.1396 -36.5895 12.1396 -81.725 57.275C-126.86 102.41 -126.86 175.59 -81.725 220.725C-36.5895 265.86 36.5895 265.86 81.725 220.725Z" stroke="#CCE2FF" stroke-miterlimit="10"/>
<path d="M74.6945 194.604C105.394 153.342 96.8318 95.0061 55.57 64.3064C14.3081 33.6067 -44.0283 42.1691 -74.728 83.4309C-105.428 124.693 -96.8653 183.029 -55.6034 213.729C-14.3415 244.429 43.9948 235.866 74.6945 194.604Z" stroke="#CCE2FF" stroke-miterlimit="10"/>
<path d="M64.5374 167.779C80.4178 132.128 64.3904 90.3534 28.7391 74.473C-6.91218 58.5926 -48.6869 74.62 -64.5673 110.271C-80.4477 145.923 -64.4203 187.697 -28.769 203.578C6.88225 219.458 48.6569 203.431 64.5374 167.779Z" stroke="#CCE2FF" stroke-miterlimit="10"/>
<path d="M-0.00879627 187.243C26.6353 187.243 48.2346 165.644 48.2346 139C48.2346 112.356 26.6353 90.7566 -0.00879627 90.7566C-26.6529 90.7566 -48.2522 112.356 -48.2522 139C-48.2522 165.644 -26.6529 187.243 -0.00879627 187.243Z" stroke="#CCE2FF" stroke-miterlimit="10"/>
</svg>
