<svg width="149" height="115" viewBox="0 0 149 115" fill="none" xmlns="http://www.w3.org/2000/svg">
<path d="M1.05655 71.25C0.847586 71.3706 0.679089 71.5505 0.572367 71.7669C0.465646 71.9834 0.425494 72.2265 0.456989 72.4658C0.488485 72.705 0.590212 72.9295 0.749308 73.1109C0.908403 73.2924 1.11772 73.4225 1.35079 73.485C1.58386 73.5474 1.83022 73.5394 2.05871 73.4618C2.2872 73.3842 2.48755 73.2407 2.63444 73.0492C2.78133 72.8578 2.86816 72.6271 2.88394 72.3863C2.89972 72.1456 2.84375 71.9055 2.7231 71.6965C2.56132 71.4163 2.29485 71.2119 1.98231 71.1281C1.66977 71.0444 1.33677 71.0882 1.05655 71.25Z" fill="#006BFF"/>
<path d="M16.3506 62.42C16.1416 62.5406 15.9731 62.7205 15.8664 62.9369C15.7597 63.1534 15.7195 63.3966 15.751 63.6358C15.7825 63.875 15.8842 64.0995 16.0433 64.2809C16.2024 64.4624 16.4117 64.5925 16.6448 64.655C16.8779 64.7174 17.1242 64.7094 17.3527 64.6318C17.5812 64.5542 17.7816 64.4107 17.9285 64.2192C18.0753 64.0278 18.1622 63.7971 18.1779 63.5563C18.1937 63.3156 18.1378 63.0755 18.0171 62.8665C17.937 62.7278 17.8304 62.6062 17.7032 62.5086C17.5761 62.4111 17.4311 62.3396 17.2763 62.2981C17.1216 62.2566 16.9602 62.2461 16.8013 62.267C16.6425 62.2879 16.4893 62.3399 16.3506 62.42Z" fill="#006BFF"/>
<path d="M31.6446 53.59C31.4356 53.7106 31.2671 53.8905 31.1604 54.1069C31.0537 54.3234 31.0135 54.5665 31.045 54.8058C31.0765 55.045 31.1782 55.2695 31.3373 55.4509C31.4964 55.6324 31.7057 55.7625 31.9388 55.825C32.1719 55.8874 32.4182 55.8794 32.6467 55.8018C32.8752 55.7242 33.0756 55.5807 33.2225 55.3892C33.3694 55.1978 33.4562 54.9671 33.472 54.7263C33.4877 54.4856 33.4318 54.2455 33.3111 54.0365C33.1493 53.7563 32.8829 53.5519 32.5703 53.4681C32.2578 53.3844 31.9248 53.4282 31.6446 53.59Z" fill="#006BFF"/>
<path d="M46.9386 44.76C46.7296 44.8806 46.5611 45.0605 46.4544 45.2769C46.3477 45.4934 46.3075 45.7365 46.339 45.9758C46.3705 46.215 46.4722 46.4395 46.6313 46.6209C46.7904 46.8024 46.9997 46.9325 47.2328 46.995C47.4659 47.0574 47.7122 47.0494 47.9407 46.9718C48.1692 46.8942 48.3696 46.7507 48.5165 46.5592C48.6634 46.3678 48.7502 46.1371 48.766 45.8963C48.7817 45.6556 48.7258 45.4155 48.6051 45.2065C48.4433 44.9263 48.1769 44.7219 47.8643 44.6381C47.5518 44.5544 47.2188 44.5982 46.9386 44.76Z" fill="#006BFF"/>
<path d="M62.2326 35.93C62.0236 36.0506 61.8551 36.2305 61.7484 36.4469C61.6417 36.6634 61.6015 36.9066 61.633 37.1458C61.6645 37.385 61.7662 37.6095 61.9253 37.7909C62.0844 37.9724 62.2938 38.1025 62.5268 38.165C62.7599 38.2274 63.0063 38.2194 63.2347 38.1418C63.4632 38.0642 63.6636 37.9207 63.8105 37.7292C63.9574 37.5378 64.0442 37.3071 64.06 37.0663C64.0758 36.8256 64.0198 36.5855 63.8991 36.3765C63.7374 36.0963 63.4709 35.8918 63.1583 35.8081C62.8458 35.7244 62.5128 35.7682 62.2326 35.93Z" fill="#006BFF"/>
<path d="M77.5266 27.1C77.3176 27.2206 77.1491 27.4005 77.0424 27.6169C76.9357 27.8334 76.8955 28.0765 76.927 28.3158C76.9585 28.555 77.0603 28.7795 77.2193 28.9609C77.3784 29.1424 77.5878 29.2725 77.8208 29.335C78.0539 29.3974 78.3003 29.3894 78.5287 29.3118C78.7572 29.2342 78.9576 29.0907 79.1045 28.8992C79.2514 28.7078 79.3382 28.4771 79.354 28.2363C79.3698 27.9956 79.3138 27.7555 79.1931 27.5465C79.0314 27.2663 78.7649 27.0619 78.4523 26.9781C78.1398 26.8944 77.8068 26.9382 77.5266 27.1Z" fill="#006BFF"/>
<path d="M92.8206 18.27C92.6116 18.3906 92.4431 18.5705 92.3364 18.7869C92.2297 19.0034 92.1895 19.2466 92.221 19.4858C92.2525 19.725 92.3543 19.9495 92.5134 20.1309C92.6725 20.3124 92.8818 20.4425 93.1148 20.505C93.3479 20.5674 93.5943 20.5594 93.8228 20.4818C94.0512 20.4042 94.2516 20.2607 94.3985 20.0692C94.5454 19.8778 94.6322 19.6471 94.648 19.4063C94.6638 19.1656 94.6078 18.9255 94.4872 18.7165C94.3254 18.4363 94.0589 18.2318 93.7464 18.1481C93.4338 18.0644 93.1008 18.1082 92.8206 18.27Z" fill="#006BFF"/>
<path d="M108.115 9.43999C107.906 9.56064 107.737 9.74054 107.63 9.95695C107.524 10.1734 107.484 10.4165 107.515 10.6558C107.547 10.895 107.648 11.1195 107.807 11.3009C107.966 11.4824 108.176 11.6125 108.409 11.675C108.642 11.7374 108.888 11.7294 109.117 11.6518C109.345 11.5742 109.546 11.4307 109.693 11.2392C109.839 11.0478 109.926 10.8171 109.942 10.5763C109.958 10.3356 109.902 10.0955 109.781 9.88654C109.619 9.60632 109.353 9.40185 109.04 9.31811C108.728 9.23437 108.395 9.27821 108.115 9.43999Z" fill="#006BFF"/>
<path d="M124.629 2.72309C124.838 2.60244 125.006 2.42254 125.113 2.20613C125.22 1.98972 125.26 1.74653 125.228 1.50729C125.197 1.26806 125.095 1.04355 124.936 0.862132C124.777 0.680718 124.567 0.550556 124.334 0.488107C124.101 0.425658 123.855 0.433719 123.626 0.511284C123.398 0.588849 123.198 0.732414 123.051 0.923848C122.904 1.11528 122.817 1.34597 122.801 1.58674C122.785 1.82752 122.841 2.06757 122.962 2.27654C123.124 2.55675 123.39 2.76122 123.703 2.84497C124.015 2.92871 124.348 2.88487 124.629 2.72309Z" fill="#006BFF"/>
<path d="M6.99155 81.5297C6.78259 81.6504 6.61409 81.8303 6.50737 82.0467C6.40065 82.2631 6.36049 82.5063 6.39199 82.7455C6.42348 82.9847 6.52521 83.2092 6.68431 83.3907C6.8434 83.5721 7.05272 83.7022 7.28579 83.7647C7.51886 83.8271 7.76522 83.8191 7.99371 83.7415C8.2222 83.664 8.42255 83.5204 8.56944 83.3289C8.71633 83.1375 8.80316 82.9068 8.81894 82.666C8.83472 82.4253 8.77875 82.1852 8.6581 81.9763C8.49632 81.696 8.22985 81.4916 7.91731 81.4078C7.60477 81.3241 7.27177 81.3679 6.99155 81.5297Z" fill="#006BFF"/>
<path d="M22.2856 72.6997C22.0766 72.8204 21.9081 73.0003 21.8014 73.2167C21.6947 73.4331 21.6545 73.6763 21.686 73.9155C21.7175 74.1547 21.8192 74.3792 21.9783 74.5607C22.1374 74.7421 22.3467 74.8722 22.5798 74.9347C22.8129 74.9971 23.0592 74.9891 23.2877 74.9115C23.5162 74.834 23.7166 74.6904 23.8635 74.4989C24.0103 74.3075 24.0972 74.0768 24.1129 73.8361C24.1287 73.5953 24.0728 73.3552 23.9521 73.1463C23.7903 72.866 23.5239 72.6616 23.2113 72.5778C22.8988 72.4941 22.5658 72.5379 22.2856 72.6997Z" fill="#006BFF"/>
<path d="M37.5796 63.8697C37.3706 63.9904 37.2021 64.1703 37.0954 64.3867C36.9887 64.6031 36.9485 64.8463 36.98 65.0855C37.0115 65.3247 37.1132 65.5492 37.2723 65.7307C37.4314 65.9121 37.6407 66.0422 37.8738 66.1047C38.1069 66.1671 38.3532 66.1591 38.5817 66.0815C38.8102 66.004 39.0106 65.8604 39.1575 65.6689C39.3044 65.4775 39.3912 65.2468 39.407 65.006C39.4227 64.7653 39.3668 64.5252 39.2461 64.3163C39.0843 64.036 38.8179 63.8316 38.5053 63.7478C38.1928 63.6641 37.8598 63.7079 37.5796 63.8697Z" fill="#006BFF"/>
<path d="M52.8736 55.0397C52.6646 55.1604 52.4961 55.3403 52.3894 55.5567C52.2827 55.7731 52.2425 56.0163 52.274 56.2555C52.3055 56.4947 52.4072 56.7192 52.5663 56.9007C52.7254 57.0821 52.9347 57.2122 53.1678 57.2747C53.4009 57.3371 53.6472 57.3291 53.8757 57.2515C54.1042 57.174 54.3046 57.0304 54.4515 56.8389C54.5984 56.6475 54.6852 56.4168 54.701 56.176C54.7167 55.9353 54.6608 55.6952 54.5401 55.4863C54.3783 55.206 54.1119 55.0016 53.7993 54.9178C53.4868 54.8341 53.1538 54.8779 52.8736 55.0397Z" fill="#006BFF"/>
<path d="M68.1676 46.2097C67.9586 46.3304 67.7901 46.5103 67.6834 46.7267C67.5767 46.9431 67.5365 47.1863 67.568 47.4255C67.5995 47.6647 67.7012 47.8892 67.8603 48.0707C68.0194 48.2521 68.2288 48.3822 68.4618 48.4447C68.6949 48.5071 68.9413 48.4991 69.1697 48.4215C69.3982 48.344 69.5986 48.2004 69.7455 48.0089C69.8924 47.8175 69.9792 47.5868 69.995 47.3461C70.0108 47.1053 69.9548 46.8652 69.8341 46.6563C69.6724 46.376 69.4059 46.1716 69.0933 46.0878C68.7808 46.0041 68.4478 46.0479 68.1676 46.2097Z" fill="#006BFF"/>
<path d="M83.4616 37.3797C83.2526 37.5004 83.0841 37.6803 82.9774 37.8967C82.8707 38.1131 82.8305 38.3563 82.862 38.5955C82.8935 38.8347 82.9953 39.0592 83.1543 39.2407C83.3134 39.4221 83.5228 39.5522 83.7558 39.6147C83.9889 39.6771 84.2353 39.6691 84.4637 39.5915C84.6922 39.514 84.8926 39.3704 85.0395 39.1789C85.1864 38.9875 85.2732 38.7568 85.289 38.5161C85.3048 38.2753 85.2488 38.0352 85.1281 37.8263C84.9664 37.546 84.6999 37.3416 84.3873 37.2578C84.0748 37.1741 83.7418 37.2179 83.4616 37.3797Z" fill="#006BFF"/>
<path d="M98.7556 28.5497C98.5466 28.6704 98.3781 28.8503 98.2714 29.0667C98.1647 29.2831 98.1245 29.5263 98.156 29.7655C98.1875 30.0047 98.2893 30.2292 98.4484 30.4107C98.6075 30.5921 98.8168 30.7222 99.0498 30.7847C99.2829 30.8471 99.5293 30.8391 99.7578 30.7615C99.9862 30.684 100.187 30.5404 100.333 30.3489C100.48 30.1575 100.567 29.9268 100.583 29.6861C100.599 29.4453 100.543 29.2052 100.422 28.9963C100.26 28.716 99.9939 28.5116 99.6814 28.4278C99.3688 28.3441 99.0358 28.3879 98.7556 28.5497Z" fill="#006BFF"/>
<path d="M114.05 19.7197C113.841 19.8404 113.672 20.0203 113.565 20.2367C113.459 20.4531 113.419 20.6963 113.45 20.9355C113.482 21.1747 113.583 21.3992 113.742 21.5807C113.901 21.7621 114.111 21.8922 114.344 21.9547C114.577 22.0171 114.823 22.0091 115.052 21.9315C115.28 21.854 115.481 21.7104 115.628 21.5189C115.774 21.3275 115.861 21.0968 115.877 20.8561C115.893 20.6153 115.837 20.3752 115.716 20.1663C115.554 19.886 115.288 19.6816 114.975 19.5978C114.663 19.5141 114.33 19.5579 114.05 19.7197Z" fill="#006BFF"/>
<path d="M129.344 10.8897C129.135 11.0104 128.966 11.1903 128.859 11.4067C128.753 11.6231 128.713 11.8663 128.744 12.1055C128.776 12.3447 128.877 12.5692 129.036 12.7507C129.195 12.9321 129.405 13.0622 129.638 13.1247C129.871 13.1871 130.117 13.1791 130.346 13.1015C130.574 13.0239 130.775 12.8804 130.922 12.6889C131.068 12.4975 131.155 12.2668 131.171 12.0261C131.187 11.7853 131.131 11.5452 131.01 11.3363C130.848 11.056 130.582 10.8516 130.269 10.7678C129.957 10.6841 129.624 10.7279 129.344 10.8897Z" fill="#006BFF"/>
<path d="M12.9266 91.8094C12.7191 91.9293 12.5516 92.1076 12.4449 92.3221C12.3382 92.5366 12.2969 92.7777 12.3264 93.0155C12.3558 93.2532 12.4545 93.477 12.6103 93.659C12.7661 93.841 12.972 93.9731 13.2024 94.0388C13.4328 94.1046 13.6774 94.101 13.9058 94.0286C14.1341 93.9562 14.3361 93.8182 14.4866 93.6318C14.637 93.4454 14.7292 93.2188 14.7517 92.9803C14.7742 92.7418 14.726 92.5019 14.6131 92.2906C14.536 92.1463 14.4306 92.019 14.3033 91.9162C14.1759 91.8135 14.0292 91.7374 13.8718 91.6925C13.7145 91.6476 13.5497 91.6348 13.3873 91.6549C13.2249 91.675 13.0682 91.7275 12.9266 91.8094Z" fill="#006BFF"/>
<path d="M28.2206 82.9794C28.0132 83.0993 27.8456 83.2776 27.7389 83.4921C27.6322 83.7066 27.5909 83.9477 27.6204 84.1855C27.6498 84.4232 27.7485 84.647 27.9043 84.829C28.0601 85.011 28.266 85.1431 28.4964 85.2088C28.7268 85.2746 28.9714 85.271 29.1998 85.1986C29.4281 85.1262 29.6301 84.9882 29.7806 84.8018C29.931 84.6154 30.0232 84.3888 30.0457 84.1503C30.0682 83.9118 30.02 83.6719 29.9071 83.4606C29.83 83.3163 29.7246 83.189 29.5973 83.0862C29.4699 82.9835 29.3232 82.9074 29.1659 82.8625C29.0085 82.8176 28.8437 82.8048 28.6813 82.8249C28.5189 82.845 28.3622 82.8975 28.2206 82.9794Z" fill="#006BFF"/>
<path d="M43.5146 74.1494C43.3072 74.2693 43.1396 74.4476 43.0329 74.6621C42.9262 74.8766 42.885 75.1177 42.9144 75.3555C42.9438 75.5932 43.0425 75.817 43.1983 75.999C43.3541 76.181 43.56 76.3131 43.7904 76.3788C44.0208 76.4446 44.2654 76.441 44.4938 76.3686C44.7221 76.2962 44.9241 76.1582 45.0746 75.9718C45.225 75.7854 45.3172 75.5588 45.3397 75.3203C45.3622 75.0818 45.314 74.8419 45.2011 74.6306C45.124 74.4863 45.0186 74.359 44.8913 74.2562C44.7639 74.1535 44.6172 74.0774 44.4599 74.0325C44.3025 73.9876 44.1377 73.9748 43.9753 73.9949C43.8129 74.015 43.6562 74.0675 43.5146 74.1494Z" fill="#006BFF"/>
<path d="M58.8086 65.3194C58.6012 65.4393 58.4337 65.6176 58.3269 65.8321C58.2202 66.0466 58.179 66.2877 58.2084 66.5255C58.2378 66.7632 58.3366 66.987 58.4923 67.169C58.6481 67.351 58.8541 67.4831 59.0844 67.5488C59.3148 67.6146 59.5594 67.611 59.7878 67.5386C60.0161 67.4662 60.2181 67.3282 60.3686 67.1418C60.519 66.9554 60.6112 66.7288 60.6337 66.4903C60.6563 66.2518 60.608 66.0119 60.4951 65.8006C60.418 65.6563 60.3126 65.529 60.1853 65.4262C60.0579 65.3235 59.9112 65.2474 59.7539 65.2025C59.5965 65.1576 59.4317 65.1448 59.2693 65.1649C59.1069 65.185 58.9502 65.2375 58.8086 65.3194Z" fill="#006BFF"/>
<path d="M74.1026 56.4894C73.8224 56.6512 73.6179 56.9177 73.5342 57.2302C73.4504 57.5428 73.4943 57.8758 73.656 58.156C73.8178 58.4362 74.0843 58.6407 74.3968 58.7244C74.7094 58.8082 75.0424 58.7643 75.3226 58.6025C75.6028 58.4407 75.8073 58.1743 75.891 57.8617C75.9748 57.5492 75.9309 57.2162 75.7691 56.936C75.6074 56.6558 75.3409 56.4513 75.0283 56.3675C74.7158 56.2838 74.3828 56.3276 74.1026 56.4894Z" fill="#006BFF"/>
<path d="M89.3966 47.6594C89.1164 47.8212 88.9119 48.0877 88.8282 48.4002C88.7444 48.7128 88.7883 49.0458 88.95 49.326C89.1118 49.6062 89.3783 49.8107 89.6908 49.8944C90.0034 49.9781 90.3364 49.9343 90.6166 49.7725C90.8968 49.6108 91.1013 49.3443 91.185 49.0317C91.2688 48.7192 91.2249 48.3862 91.0631 48.106C90.9014 47.8258 90.6349 47.6213 90.3223 47.5376C90.0098 47.4538 89.6768 47.4976 89.3966 47.6594Z" fill="#006BFF"/>
<path d="M104.691 38.8294C104.41 38.9912 104.206 39.2577 104.122 39.5702C104.038 39.8828 104.082 40.2158 104.244 40.496C104.406 40.7762 104.672 40.9807 104.985 41.0644C105.297 41.1482 105.63 41.1043 105.911 40.9425C106.191 40.7807 106.395 40.5143 106.479 40.2017C106.563 39.8892 106.519 39.5562 106.357 39.276C106.195 38.9958 105.929 38.7913 105.616 38.7075C105.304 38.6238 104.971 38.6676 104.691 38.8294Z" fill="#006BFF"/>
<path d="M119.985 29.9994C119.704 30.1612 119.5 30.4277 119.416 30.7402C119.332 31.0528 119.376 31.3858 119.538 31.666C119.7 31.9462 119.966 32.1507 120.279 32.2344C120.591 32.3181 120.924 32.2743 121.205 32.1125C121.485 31.9508 121.689 31.6843 121.773 31.3717C121.857 31.0592 121.813 30.7262 121.651 30.446C121.489 30.1658 121.223 29.9613 120.91 29.8776C120.598 29.7938 120.265 29.8376 119.985 29.9994Z" fill="#006BFF"/>
<path d="M135.279 21.1694C134.998 21.3312 134.794 21.5977 134.71 21.9102C134.626 22.2228 134.67 22.5558 134.832 22.836C134.994 23.1162 135.26 23.3207 135.573 23.4044C135.885 23.4882 136.218 23.4443 136.499 23.2825C136.779 23.1207 136.983 22.8543 137.067 22.5417C137.151 22.2292 137.107 21.8962 136.945 21.616C136.783 21.3358 136.517 21.1313 136.204 21.0475C135.892 20.9638 135.559 21.0076 135.279 21.1694Z" fill="#006BFF"/>
<path d="M18.8616 102.089C18.6526 102.21 18.4841 102.39 18.3774 102.606C18.2706 102.823 18.2305 103.066 18.262 103.305C18.2935 103.544 18.3952 103.769 18.5543 103.95C18.7134 104.132 18.9227 104.262 19.1558 104.324C19.3889 104.387 19.6352 104.379 19.8637 104.301C20.0922 104.223 20.2926 104.08 20.4394 103.888C20.5863 103.697 20.6732 103.466 20.6889 103.225C20.7047 102.985 20.6488 102.745 20.5281 102.536C20.3663 102.255 20.0998 102.051 19.7873 101.967C19.4748 101.884 19.1418 101.927 18.8616 102.089Z" fill="#006BFF"/>
<path d="M34.1556 93.2592C33.9466 93.3798 33.7781 93.5597 33.6714 93.7761C33.5647 93.9925 33.5245 94.2357 33.556 94.4749C33.5875 94.7142 33.6892 94.9387 33.8483 95.1201C34.0074 95.3015 34.2167 95.4317 34.4498 95.4941C34.6829 95.5566 34.9292 95.5485 35.1577 95.471C35.3862 95.3934 35.5866 95.2498 35.7335 95.0584C35.8803 94.867 35.9672 94.6363 35.9829 94.3955C35.9987 94.1547 35.9428 93.9147 35.8221 93.7057C35.6603 93.4255 35.3939 93.221 35.0813 93.1373C34.7688 93.0535 34.4358 93.0974 34.1556 93.2592Z" fill="#006BFF"/>
<path d="M49.4496 84.4291C49.2406 84.5498 49.0721 84.7297 48.9654 84.9461C48.8587 85.1625 48.8185 85.4057 48.85 85.6449C48.8815 85.8842 48.9832 86.1087 49.1423 86.2901C49.3014 86.4715 49.5107 86.6017 49.7438 86.6641C49.9769 86.7266 50.2232 86.7185 50.4517 86.641C50.6802 86.5634 50.8806 86.4198 51.0275 86.2284C51.1744 86.037 51.2612 85.8063 51.277 85.5655C51.2927 85.3247 51.2368 85.0847 51.1161 84.8757C50.9543 84.5955 50.6879 84.391 50.3753 84.3073C50.0628 84.2235 49.7298 84.2674 49.4496 84.4291Z" fill="#006BFF"/>
<path d="M64.7436 75.5991C64.5346 75.7198 64.3661 75.8997 64.2594 76.1161C64.1527 76.3325 64.1125 76.5757 64.144 76.8149C64.1755 77.0542 64.2772 77.2787 64.4363 77.4601C64.5954 77.6415 64.8047 77.7717 65.0378 77.8341C65.2709 77.8966 65.5172 77.8885 65.7457 77.811C65.9742 77.7334 66.1746 77.5898 66.3215 77.3984C66.4684 77.207 66.5552 76.9763 66.571 76.7355C66.5867 76.4947 66.5308 76.2547 66.4101 76.0457C66.2483 75.7655 65.9819 75.561 65.6693 75.4773C65.3568 75.3935 65.0238 75.4374 64.7436 75.5991Z" fill="#006BFF"/>
<path d="M80.0376 66.7691C79.7574 66.9309 79.5529 67.1974 79.4692 67.5099C79.3854 67.8225 79.4293 68.1555 79.591 68.4357C79.7528 68.7159 80.0193 68.9204 80.3318 69.0041C80.6444 69.0879 80.9774 69.044 81.2576 68.8823C81.5378 68.7205 81.7423 68.454 81.826 68.1415C81.9098 67.8289 81.8659 67.4959 81.7041 67.2157C81.5424 66.9355 81.2759 66.731 80.9633 66.6473C80.6508 66.5635 80.3178 66.6074 80.0376 66.7691Z" fill="#006BFF"/>
<path d="M95.3316 57.9392C95.0514 58.1009 94.8469 58.3674 94.7632 58.6799C94.6794 58.9925 94.7233 59.3255 94.885 59.6057C95.0468 59.8859 95.3133 60.0904 95.6258 60.1741C95.9384 60.2579 96.2714 60.214 96.5516 60.0523C96.8318 59.8905 97.0363 59.624 97.12 59.3115C97.2038 58.9989 97.1599 58.6659 96.9981 58.3857C96.8364 58.1055 96.5699 57.901 96.2574 57.8173C95.9448 57.7335 95.6118 57.7774 95.3316 57.9392Z" fill="#006BFF"/>
<path d="M110.626 49.1091C110.345 49.2709 110.141 49.5374 110.057 49.8499C109.973 50.1625 110.017 50.4955 110.179 50.7757C110.341 51.0559 110.607 51.2604 110.92 51.3441C111.232 51.4279 111.565 51.384 111.846 51.2223C112.126 51.0605 112.33 50.794 112.414 50.4815C112.498 50.1689 112.454 49.8359 112.292 49.5557C112.13 49.2755 111.864 49.071 111.551 48.9873C111.239 48.9035 110.906 48.9474 110.626 49.1091Z" fill="#006BFF"/>
<path d="M125.92 40.2792C125.639 40.4409 125.435 40.7074 125.351 41.0199C125.267 41.3325 125.311 41.6655 125.473 41.9457C125.635 42.2259 125.901 42.4304 126.214 42.5141C126.526 42.5979 126.859 42.554 127.14 42.3923C127.42 42.2305 127.624 41.964 127.708 41.6515C127.792 41.3389 127.748 41.0059 127.586 40.7257C127.424 40.4455 127.158 40.241 126.845 40.1573C126.533 40.0735 126.2 40.1174 125.92 40.2792Z" fill="#006BFF"/>
<path d="M141.214 31.4491C140.933 31.6109 140.729 31.8774 140.645 32.1899C140.561 32.5025 140.605 32.8355 140.767 33.1157C140.929 33.3959 141.195 33.6004 141.508 33.6841C141.82 33.7679 142.153 33.724 142.434 33.5623C142.714 33.4005 142.918 33.134 143.002 32.8215C143.086 32.5089 143.042 32.1759 142.88 31.8957C142.718 31.6155 142.452 31.411 142.139 31.3273C141.827 31.2435 141.494 31.2874 141.214 31.4491Z" fill="#006BFF"/>
<path d="M24.7966 112.369C24.5876 112.49 24.4191 112.669 24.3124 112.886C24.2056 113.102 24.1655 113.345 24.197 113.585C24.2285 113.824 24.3302 114.048 24.4893 114.23C24.6484 114.411 24.8577 114.541 25.0908 114.604C25.3239 114.666 25.5702 114.658 25.7987 114.581C26.0272 114.503 26.2276 114.36 26.3744 114.168C26.5213 113.977 26.6082 113.746 26.6239 113.505C26.6397 113.264 26.5838 113.024 26.4631 112.815C26.3013 112.535 26.0348 112.331 25.7223 112.247C25.4098 112.163 25.0768 112.207 24.7966 112.369Z" fill="#006BFF"/>
<path d="M40.0906 103.539C39.8816 103.66 39.7131 103.839 39.6064 104.056C39.4997 104.272 39.4595 104.515 39.491 104.755C39.5225 104.994 39.6242 105.218 39.7833 105.4C39.9424 105.581 40.1517 105.711 40.3848 105.774C40.6179 105.836 40.8642 105.828 41.0927 105.751C41.3212 105.673 41.5216 105.53 41.6685 105.338C41.8153 105.147 41.9022 104.916 41.9179 104.675C41.9337 104.434 41.8778 104.194 41.7571 103.985C41.677 103.847 41.5704 103.725 41.4432 103.628C41.3161 103.53 41.1711 103.458 41.0163 103.417C40.8616 103.376 40.7002 103.365 40.5413 103.386C40.3825 103.407 40.2293 103.459 40.0906 103.539Z" fill="#006BFF"/>
<path d="M55.3846 94.7089C55.1756 94.8295 55.0071 95.0094 54.9004 95.2258C54.7937 95.4422 54.7535 95.6854 54.785 95.9247C54.8165 96.1639 54.9182 96.3884 55.0773 96.5698C55.2364 96.7512 55.4457 96.8814 55.6788 96.9439C55.9119 97.0063 56.1582 96.9982 56.3867 96.9207C56.6152 96.8431 56.8156 96.6995 56.9625 96.5081C57.1094 96.3167 57.1962 96.086 57.212 95.8452C57.2277 95.6044 57.1718 95.3644 57.0511 95.1554C56.8893 94.8752 56.6229 94.6707 56.3103 94.587C55.9978 94.5032 55.6648 94.5471 55.3846 94.7089Z" fill="#006BFF"/>
<path d="M70.6786 85.8789C70.4696 85.9995 70.3011 86.1794 70.1944 86.3958C70.0877 86.6122 70.0475 86.8554 70.079 87.0947C70.1105 87.3339 70.2122 87.5584 70.3713 87.7398C70.5304 87.9212 70.7397 88.0514 70.9728 88.1139C71.2059 88.1763 71.4522 88.1682 71.6807 88.0907C71.9092 88.0131 72.1096 87.8695 72.2565 87.6781C72.4034 87.4867 72.4902 87.256 72.506 87.0152C72.5217 86.7744 72.4658 86.5344 72.3451 86.3254C72.1833 86.0452 71.9169 85.8407 71.6043 85.757C71.2918 85.6732 70.9588 85.7171 70.6786 85.8789Z" fill="#006BFF"/>
<path d="M85.9726 77.0489C85.6924 77.2107 85.4879 77.4771 85.4042 77.7897C85.3204 78.1022 85.3643 78.4352 85.526 78.7154C85.6878 78.9956 85.9543 79.2001 86.2668 79.2839C86.5794 79.3676 86.9124 79.3238 87.1926 79.162C87.4728 79.0002 87.6773 78.7337 87.761 78.4212C87.8448 78.1086 87.8009 77.7756 87.6391 77.4954C87.4774 77.2152 87.2109 77.0107 86.8983 76.927C86.5858 76.8432 86.2528 76.8871 85.9726 77.0489Z" fill="#006BFF"/>
<path d="M101.267 68.2189C100.986 68.3807 100.782 68.6471 100.698 68.9597C100.614 69.2722 100.658 69.6052 100.82 69.8854C100.982 70.1656 101.248 70.3701 101.561 70.4539C101.873 70.5376 102.206 70.4938 102.487 70.332C102.767 70.1702 102.971 69.9037 103.055 69.5912C103.139 69.2786 103.095 68.9456 102.933 68.6654C102.771 68.3852 102.505 68.1807 102.192 68.097C101.88 68.0133 101.547 68.0571 101.267 68.2189Z" fill="#006BFF"/>
<path d="M116.561 59.3889C116.28 59.5507 116.076 59.8171 115.992 60.1297C115.908 60.4422 115.952 60.7752 116.114 61.0554C116.276 61.3356 116.542 61.5401 116.855 61.6239C117.167 61.7076 117.5 61.6638 117.781 61.502C118.061 61.3402 118.265 61.0737 118.349 60.7612C118.433 60.4486 118.389 60.1156 118.227 59.8354C118.065 59.5552 117.799 59.3507 117.486 59.267C117.174 59.1832 116.841 59.2271 116.561 59.3889Z" fill="#006BFF"/>
<path d="M131.855 50.5589C131.574 50.7207 131.37 50.9871 131.286 51.2997C131.202 51.6122 131.246 51.9452 131.408 52.2254C131.57 52.5056 131.836 52.7101 132.149 52.7939C132.461 52.8776 132.794 52.8338 133.075 52.672C133.355 52.5102 133.559 52.2437 133.643 51.9312C133.727 51.6186 133.683 51.2856 133.521 51.0054C133.359 50.7252 133.093 50.5207 132.78 50.437C132.468 50.3533 132.135 50.3971 131.855 50.5589Z" fill="#006BFF"/>
<path d="M147.149 41.7289C146.868 41.8907 146.664 42.1571 146.58 42.4697C146.496 42.7822 146.54 43.1152 146.702 43.3954C146.864 43.6756 147.13 43.8801 147.443 43.9639C147.755 44.0476 148.088 44.0038 148.369 43.842C148.649 43.6802 148.853 43.4137 148.937 43.1012C149.021 42.7886 148.977 42.4556 148.815 42.1754C148.653 41.8952 148.387 41.6907 148.074 41.607C147.762 41.5232 147.429 41.5671 147.149 41.7289Z" fill="#006BFF"/>
</svg>
