<svg width="89" height="41" viewBox="0 0 89 41" fill="none" xmlns="http://www.w3.org/2000/svg">
<path d="M88.0869 20.3372C83.5664 21.5485 82.2593 16.6706 77.7388 17.8819C73.2183 19.0931 74.5253 23.9711 70.0048 25.1823C65.4842 26.3936 64.1869 21.5131 59.6663 22.7244C55.1458 23.9356 56.4528 28.8136 51.9323 30.0248C47.4118 31.2361 46.1047 26.3582 41.5842 27.5695C37.0637 28.7807 38.3707 33.6587 33.8502 34.8699C29.3296 36.0812 28.0226 31.2033 23.5021 32.4146C18.9815 33.6258 20.2886 38.5038 15.768 39.715C11.2475 40.9263 9.93081 36.051 5.41028 37.2622M85.8818 12.1076C81.3612 13.3188 80.049 8.42158 75.5285 9.63286C71.008 10.8441 72.315 15.7221 67.7945 16.9333C63.2739 18.1446 61.9765 13.2641 57.456 14.4754C52.9355 15.6866 54.2425 20.5646 49.722 21.7758C45.2015 22.9871 43.8944 18.1092 39.3739 19.3205C34.8534 20.5317 36.1604 25.4097 31.6399 26.6209C27.1193 27.8322 25.8123 22.9543 21.2918 24.1655C16.7712 25.3768 18.0783 30.2547 13.5577 31.466C9.03719 32.6773 7.72049 27.802 3.19996 29.0132M83.6766 3.87787C79.1561 5.08914 77.862 0.25951 73.3415 1.47078C68.8209 2.68206 70.115 7.51169 65.5945 8.72296C61.074 9.93423 59.7895 5.10201 55.269 6.31329C50.7485 7.52456 52.0555 12.4025 47.535 13.6138C43.0144 14.825 41.7203 9.9954 37.1998 11.2067C32.6793 12.4179 33.9863 17.2959 29.4658 18.5071C24.9452 19.7184 23.6511 14.8888 19.1306 16.1001C14.6101 17.3113 15.8783 22.0444 11.3578 23.2556C6.83723 24.4669 5.52053 19.5916 1 20.8029" stroke="#CCE2FF" stroke-miterlimit="10"/>
</svg>
