<svg width="330" height="330" viewBox="0 0 330 330" fill="none" xmlns="http://www.w3.org/2000/svg">
<path d="M16.8151 224.042C49.9285 301.438 137.338 334.681 205.824 329.013C224.524 327.465 262.147 324.351 291.524 296.572C347.941 243.224 339.252 131.708 285.246 66.0556C278.296 57.6 230.16 0.953918 155.137 1.71263C100.211 2.26721 61.6601 33.293 56.972 37.1573C51.0507 42.04 37.9892 53.6425 26.2186 72.0498C-1.43961 115.3 -3.87158 175.678 16.8151 224.042Z" fill="#CCE2FF"/>
<path d="M197.013 305.366C197.013 305.366 237.486 169.958 309.221 98.9587C314.039 94.1858 322.228 96.6059 323.638 103.248C333.069 147.614 348.348 281.445 197.013 305.366Z" fill="#006BFF"/>
<path opacity="0.5" d="M211.202 297.304C211.136 297.368 211.096 297.454 211.089 297.546C211.083 297.637 211.11 297.728 211.165 297.801C211.221 297.874 211.302 297.923 211.392 297.941C211.482 297.958 211.576 297.941 211.654 297.894C226.118 288.385 282.661 240.82 308.297 140.991C308.38 140.67 307.91 140.519 307.8 140.83C299.717 163.853 267.203 248.566 211.202 297.304Z" fill="white"/>
<path d="M317.517 1.8482C318.107 0.800397 316.881 -0.3241 315.896 0.366174C300.179 11.3929 245.096 55.1963 230.437 136.429C217.026 210.753 219.79 265.095 221.636 285.269C222 289.258 226.525 291.381 229.824 289.108C249.378 275.64 302.158 235.066 306.864 186.595C312.492 128.677 289.312 51.8429 317.517 1.8482Z" fill="#CCE2FF"/>
<path d="M16.4882 30.5044H243.063C245.593 30.5044 247.645 32.5557 247.645 35.0862V314.606C247.645 317.136 245.593 319.188 243.063 319.188H16.4882C13.9576 319.188 11.9062 317.136 11.9062 314.606V35.0862C11.9062 32.5557 13.9576 30.5044 16.4882 30.5044Z" fill="#91C8FA"/>
<path opacity="0.86" d="M23.6652 41.2847H235.885C238.415 41.2847 240.467 43.336 240.467 45.8664V307.808C240.467 310.339 238.415 312.39 235.885 312.39H23.6652C21.1347 312.39 19.0832 310.339 19.0832 307.808V45.8664C19.0832 43.336 21.1347 41.2847 23.6652 41.2847Z" fill="white"/>
<path d="M196.012 312.071L184.986 224.441C182.763 209.551 187.163 194.588 196.878 184.086C202.28 178.249 205.694 170.536 206.46 162.218C207.654 149.228 207.511 127.999 199.655 102.158C189.271 67.9774 158.161 47.8804 126.533 53.8439C111.075 56.7572 93.3031 62.5886 74.882 73.5763C64.4059 79.8301 57.2716 91.5494 56.1458 104.826C55.6219 110.999 54.6519 117.835 52.8925 123.909C50.68 131.542 49.7219 136.77 49.3266 140.158C48.9726 143.234 50.0098 146.312 52.0606 148.35C54.1752 150.45 54.7015 153.976 53.3103 156.737L37.0344 184.897L36.7052 186.584C37.6492 189.798 40.0257 193.833 42.676 194.105L51.9545 195.062L51.6004 205.996C51.532 208.107 52.7403 210.035 54.5174 210.649L56.6497 211.387L54.7039 213.11C53.1227 214.509 52.7073 217.059 53.728 219.104L56.4739 224.612C57.7176 227.107 57.5359 230.169 56.0243 232.344C53.5191 235.937 53.8011 243.403 56.6332 246.337C62.5415 252.461 74.6955 252.737 80.7631 252.294C90.0852 251.612 98.4633 247.324 107.089 251.759C109.102 252.806 110.918 254.195 112.456 255.864L111.73 312.077L196.012 312.071Z" fill="#4FABFF"/>
<path d="M129.583 163.883C129.663 163.883 129.743 163.87 129.819 163.845L144.179 159.265C144.303 159.226 144.416 159.157 144.506 159.064L151.174 152.259L162.111 149.882L176.805 151.196C176.973 151.211 177.14 151.173 177.285 151.087L192.77 141.786C192.908 141.703 193.018 141.58 193.084 141.432L198.158 130.301C198.226 130.153 198.247 129.988 198.218 129.829L195.35 113.631L195.782 102.54C195.79 102.356 195.733 102.175 195.622 102.029L187.91 91.8812L181.574 79.7194C181.486 79.5488 181.338 79.4163 181.16 79.3465L166.794 73.7405L155.643 67.5835C155.569 67.5433 155.49 67.5147 155.407 67.4986L134.22 63.4997C134.071 63.4714 133.917 63.4866 133.776 63.5433L121.718 68.3906L104.031 67.285C103.925 67.2779 103.818 67.2924 103.718 67.3277C103.618 67.363 103.526 67.4183 103.448 67.4903L91.1098 78.7258L76.3349 83.0633C76.2139 83.0989 76.1031 83.1628 76.0117 83.2495C75.9202 83.3363 75.8506 83.4436 75.8086 83.5625L67.4731 107.365C67.4434 107.449 67.4282 107.537 67.4282 107.626V122.744C67.4284 122.832 67.4432 122.919 67.4719 123.002L73.2799 139.826C73.3295 139.972 73.4205 140.099 73.5418 140.193L90.9788 153.803C91.1135 153.909 91.2793 153.968 91.4508 153.97L108.915 154.406L129.251 163.81C129.355 163.858 129.468 163.883 129.583 163.883ZM143.515 157.814L129.636 162.245L109.431 152.901C109.333 152.855 109.226 152.83 109.118 152.828L91.7481 152.395L74.703 139.094L69.0188 122.615V107.761L77.1751 84.471L91.7364 80.1961C91.8518 80.1623 91.9579 80.1026 92.0467 80.0214L104.27 68.8885L121.802 69.9847C121.919 69.9927 122.037 69.9737 122.146 69.9293L134.152 65.1021L154.985 69.0349L166.071 75.1553C166.102 75.1722 166.134 75.1868 166.166 75.1989L180.299 80.72L186.53 92.6776C186.55 92.7192 186.573 92.7587 186.601 92.7956L194.181 102.769L193.756 113.658C193.754 113.715 193.758 113.772 193.768 113.828L196.62 129.876L191.748 140.559L176.693 149.599L162.137 148.301C162.058 148.294 161.978 148.3 161.901 148.316L150.614 150.769C150.463 150.802 150.325 150.879 150.216 150.99L143.515 157.814Z" fill="white"/>
<path d="M167.175 176.223C167.209 176.223 167.243 176.22 167.276 176.214L180.6 173.955C180.694 173.94 180.783 173.901 180.859 173.844L189.053 167.7C189.117 167.652 189.171 167.592 189.211 167.523C189.252 167.454 189.278 167.377 189.289 167.298L190.44 158.085L195.501 151.097C195.554 151.025 195.589 150.942 195.605 150.854C195.621 150.767 195.616 150.677 195.592 150.591L192.943 140.948L191.795 141.264L194.37 150.631L189.387 157.51C189.328 157.591 189.292 157.686 189.279 157.785L188.139 166.899L180.263 172.806L167.246 175.012L154.101 169.606C154.069 169.593 154.036 169.583 154.003 169.575L140.621 166.611L136.41 160.636L135.438 161.321L139.78 167.484C139.866 167.603 139.992 167.687 140.134 167.72L153.696 170.726L166.954 176.178C167.024 176.207 167.099 176.223 167.175 176.223Z" fill="white"/>
<path d="M121.68 145.207H144.863L146.473 130.135H177.302L169.573 112.336L173.817 98.3721L195.031 102.97L195.2 102.195L173.271 97.4423L168.729 112.384L176.094 129.341H145.76L144.151 144.414H122.269L116.025 123.742L98.6697 132.247L87.9021 119.127L74.5161 120.844L68.7282 107.84L98.77 95.1213L113.467 109.088L132.032 109.992L133.203 89.6864L155.108 83.2545L156.994 69.0726L156.208 68.9688L154.391 82.6385L132.443 89.0835L131.285 109.162L113.8 108.311L98.9399 94.1879L67.6744 107.425L74.0311 121.706L87.567 119.971L98.4549 133.236L115.536 124.866L121.68 145.207Z" fill="white"/>
<path d="M124.66 161.883L144.484 144.892L150.754 151.806L150.901 151.688L176.706 129.946L176.726 129.96L176.802 130.078L176.852 130.047L192.25 141.256L192.486 140.935L177.222 129.818L186.403 124.218L186.993 114.266L186.975 114.222L180.436 99.317L182.718 82.0897L173.424 97.7123L150.11 99.6486L168.824 87.7582L154.887 82.7847L145.491 66.1567L129.308 74.3527L132.574 89.1824L113.792 88.8957L109.149 68.3538L98.7489 94.3801L76.2875 83.4749L79.8157 102.718L87.5199 119.524L76.8421 142.134L98.2073 142.547L124.66 161.883ZM144.525 144.342L124.641 161.377L98.3371 142.153L77.4592 141.749L87.9542 119.531L87.9153 119.447L80.1827 102.574L76.8149 84.1723L98.9601 94.9217L109.044 69.6872L113.474 89.2874L133.071 89.5859L129.767 74.5675L145.343 66.683L154.625 83.108L167.936 87.8597L148.541 100.18L173.663 98.0922L182.073 83.9552L180.03 99.3819L180.051 99.4327L186.593 114.345L186.016 123.995L176.871 129.571L176.688 129.439L150.798 151.255L144.525 144.342Z" fill="white"/>
<path opacity="0.68" d="M143.943 158.658C143.982 158.659 144.019 158.644 144.046 158.617C144.074 158.591 144.09 158.554 144.092 158.516L144.656 144.624C144.657 144.585 144.644 144.548 144.618 144.519L128.369 126.411L131.736 109.939L145.995 129.781C146.01 129.801 146.03 129.818 146.053 129.828C146.076 129.839 146.101 129.844 146.126 129.843C146.151 129.84 146.174 129.832 146.195 129.818C146.215 129.805 146.232 129.786 146.244 129.765L153.383 116.431L168.888 112.552L161.336 129.63C161.325 129.655 161.321 129.682 161.325 129.709L162.813 141.273C162.816 141.299 162.826 141.323 162.842 141.344C162.858 141.365 162.879 141.381 162.903 141.391L180.33 148.44C180.349 148.448 180.37 148.451 180.391 148.451C180.413 148.45 180.433 148.444 180.452 148.435C180.471 148.425 180.488 148.412 180.501 148.396C180.514 148.379 180.524 148.36 180.529 148.34L184.005 135.03L197.509 128.439C197.534 128.427 197.554 128.409 197.569 128.386C197.584 128.363 197.592 128.337 197.593 128.31C197.594 128.283 197.587 128.256 197.574 128.232C197.56 128.209 197.541 128.189 197.518 128.175L169.382 112.298L180.246 99.5685L194.524 112.043C194.539 112.056 194.556 112.066 194.574 112.072C194.593 112.078 194.612 112.081 194.632 112.079C194.651 112.078 194.671 112.073 194.688 112.064C194.706 112.056 194.721 112.044 194.734 112.029C194.747 112.014 194.757 111.997 194.763 111.979C194.769 111.96 194.772 111.94 194.77 111.921C194.769 111.901 194.764 111.882 194.755 111.865C194.747 111.847 194.735 111.832 194.72 111.819L180.336 99.2452C180.305 99.2199 180.267 99.2069 180.227 99.2087C180.187 99.2119 180.151 99.2305 180.124 99.2606L169.074 112.205L153.254 116.162C153.234 116.167 153.216 116.177 153.199 116.189C153.183 116.202 153.17 116.218 153.16 116.237L146.102 129.413L131.78 109.49C131.763 109.466 131.739 109.448 131.712 109.437C131.685 109.427 131.656 109.425 131.628 109.431C131.599 109.437 131.573 109.451 131.553 109.471C131.533 109.492 131.519 109.518 131.513 109.546L128.064 126.426C128.059 126.448 128.06 126.472 128.066 126.494C128.072 126.516 128.083 126.537 128.098 126.554L144.356 144.672L143.803 158.317L132.146 155.143L122.082 144.515C122.07 144.503 122.056 144.493 122.041 144.486L98.6295 132.561C98.6073 132.55 98.5825 132.544 98.5575 132.545C98.5325 132.546 98.5082 132.553 98.4866 132.566C98.4651 132.578 98.4471 132.596 98.4344 132.618C98.4216 132.639 98.4145 132.664 98.4136 132.689L98.121 142.345C98.1203 142.365 98.1236 142.384 98.1305 142.403C98.1374 142.421 98.1478 142.438 98.1612 142.452C98.1745 142.466 98.1906 142.478 98.2084 142.486C98.2262 142.494 98.2454 142.498 98.2649 142.499C98.2845 142.5 98.3041 142.497 98.3225 142.49C98.341 142.483 98.3578 142.473 98.3722 142.459C98.3865 142.446 98.3979 142.43 98.4059 142.412C98.4138 142.394 98.418 142.375 98.4183 142.355L98.7039 132.933L121.884 144.738L131.959 155.378C131.977 155.398 132.001 155.412 132.027 155.419L143.902 158.652C143.915 158.656 143.929 158.658 143.943 158.658ZM197.12 128.295L183.81 134.791C183.79 134.801 183.773 134.814 183.759 134.83C183.746 134.847 183.736 134.866 183.731 134.887L180.279 148.102L163.099 141.161L161.629 129.715L169.216 112.547L197.12 128.295Z" fill="white"/>
<path opacity="0.68" d="M89.7396 151.973C89.7478 151.974 89.7562 151.974 89.7644 151.973L107.221 149.023L122.013 144.761C122.036 144.754 122.058 144.742 122.075 144.724C122.093 144.707 122.106 144.686 122.113 144.663C122.121 144.639 122.122 144.615 122.117 144.591C122.113 144.567 122.103 144.544 122.087 144.525L109.21 128.839C109.195 128.821 109.176 128.807 109.154 128.797L87.9283 119.45L98.8257 95.0707L104.707 113.729C104.714 113.753 104.727 113.775 104.746 113.792L115.671 124.315C115.694 124.336 115.722 124.35 115.752 124.355C115.783 124.359 115.814 124.354 115.841 124.341C115.869 124.326 115.891 124.304 115.906 124.277C115.92 124.249 115.926 124.218 115.922 124.187L113.794 108.322L132.424 97.702C132.448 97.6884 132.467 97.6686 132.481 97.6446C132.494 97.6206 132.5 97.5935 132.499 97.5662C132.498 97.5389 132.489 97.5124 132.474 97.4897C132.458 97.4671 132.437 97.449 132.412 97.4376L113.694 88.9561C113.668 88.9453 113.639 88.9412 113.611 88.9443L100.351 90.909L91.6796 79.3454C91.6622 79.3229 91.6388 79.3057 91.612 79.2959C91.5853 79.2861 91.5564 79.284 91.5285 79.2899C91.4993 79.2955 91.4724 79.3098 91.4514 79.3308C91.4304 79.3518 91.4161 79.3787 91.4105 79.4079L89.0658 89.86L78.3809 94.0264C78.3556 94.0369 78.3336 94.054 78.3171 94.076L68.077 107.542C68.0568 107.573 68.0493 107.611 68.0558 107.648C68.0623 107.685 68.0824 107.718 68.1122 107.74C68.142 107.763 68.1792 107.773 68.2164 107.77C68.2536 107.766 68.2881 107.749 68.313 107.721L78.5296 94.2801L89.2499 90.1007C89.2727 90.0919 89.2929 90.0776 89.3087 90.059C89.3246 90.0405 89.3356 90.0183 89.3408 89.9945L91.6312 79.7784L100.163 91.1556C100.179 91.1769 100.201 91.1936 100.226 91.2037C100.25 91.2139 100.278 91.2172 100.304 91.2134L113.608 89.2417L132.016 97.5804L113.552 108.113C113.526 108.127 113.505 108.15 113.492 108.176C113.479 108.203 113.474 108.233 113.478 108.263L115.568 123.8L104.977 113.601L98.9885 94.6034C98.9793 94.5747 98.9617 94.5494 98.9379 94.5309C98.9141 94.5124 98.8853 94.5014 98.8552 94.4996C98.825 94.4976 98.7949 94.5051 98.7691 94.5209C98.7433 94.5368 98.7231 94.5602 98.7112 94.5881L87.5908 119.462C87.5752 119.498 87.5744 119.539 87.5885 119.575C87.6026 119.612 87.6305 119.642 87.6663 119.659L108.997 129.052L121.718 144.538L107.16 148.733L89.7196 151.683C89.6831 151.689 89.6505 151.709 89.6279 151.738C89.6054 151.768 89.5946 151.804 89.5977 151.841C89.6008 151.878 89.6176 151.913 89.6447 151.938C89.6718 151.963 89.7073 151.977 89.7443 151.978L89.7396 151.973Z" fill="white"/>
<path d="M96.1117 150.898C96.1405 150.898 96.169 150.891 96.1936 150.876C96.2182 150.86 96.238 150.839 96.2504 150.813C96.2629 150.786 96.2676 150.757 96.2639 150.729C96.2602 150.7 96.2483 150.673 96.2297 150.651L88.8381 142.173L98.6711 132.801C98.6909 132.782 98.7051 132.758 98.7122 132.732C98.7193 132.705 98.719 132.677 98.7113 132.651C98.7036 132.625 98.6889 132.601 98.6687 132.583C98.6485 132.565 98.6236 132.552 98.5968 132.547L83.0041 129.561L74.3771 121.16C74.3586 121.143 74.3357 121.13 74.3107 121.123C74.2857 121.117 74.2595 121.117 74.2346 121.124C74.2098 121.131 74.1871 121.144 74.1688 121.162C74.1506 121.18 74.1374 121.203 74.1305 121.228L71.4967 130.61C71.4914 130.628 71.4899 130.648 71.4923 130.667C71.4946 130.687 71.5007 130.706 71.5103 130.723C71.5199 130.74 71.5328 130.755 71.5481 130.767C71.5635 130.779 71.5811 130.788 71.5999 130.793C71.6188 130.798 71.6385 130.8 71.6579 130.797C71.6773 130.795 71.696 130.789 71.7131 130.779C71.7301 130.77 71.7451 130.757 71.7572 130.742C71.7693 130.726 71.7782 130.709 71.7835 130.69L74.3488 121.549L82.8283 129.808C82.8492 129.829 82.876 129.843 82.905 129.848L98.251 132.798L88.5242 142.069C88.4962 142.096 88.4796 142.132 88.4778 142.17C88.4761 142.208 88.4893 142.246 88.5148 142.275L95.9937 150.846C96.0081 150.863 96.0262 150.876 96.0467 150.885C96.0671 150.894 96.0893 150.898 96.1117 150.898Z" fill="white"/>
<path d="M173.728 98.2447H173.768C173.81 98.2361 173.848 98.214 173.876 98.1819C173.905 98.1497 173.922 98.1092 173.925 98.0665L175.505 78.1382C175.507 78.1123 175.504 78.0861 175.497 78.0612C175.489 78.0364 175.476 78.0134 175.459 77.9935C175.442 77.9736 175.421 77.9573 175.398 77.9455C175.375 77.9337 175.349 77.9266 175.323 77.9247C175.272 77.9223 175.221 77.9397 175.181 77.9735C175.142 78.0072 175.117 78.0548 175.111 78.1064L173.585 97.3479L168.115 86.8876L163.659 72.7553C163.653 72.7289 163.641 72.7041 163.625 72.6824C163.608 72.6608 163.588 72.6427 163.564 72.6293C163.54 72.6159 163.514 72.6075 163.487 72.6046C163.46 72.6018 163.433 72.6044 163.407 72.6125C163.381 72.6206 163.357 72.634 163.337 72.6517C163.316 72.6694 163.3 72.6912 163.288 72.7156C163.276 72.7401 163.269 72.7667 163.268 72.7938C163.267 72.8209 163.272 72.848 163.281 72.8733L167.75 87.0328L173.552 98.1361C173.569 98.1686 173.594 98.1958 173.625 98.215C173.656 98.2341 173.692 98.2444 173.728 98.2447Z" fill="white"/>
<path opacity="0.68" d="M146.117 129.843C146.149 129.843 146.181 129.832 146.207 129.813L169.242 112.451C169.269 112.431 169.288 112.401 169.296 112.368C169.304 112.334 169.3 112.299 169.285 112.269L162.795 98.817L169.244 87.4069C169.258 87.382 169.264 87.3537 169.263 87.3252C169.261 87.2968 169.251 87.2694 169.234 87.2464C169.218 87.2232 169.195 87.2053 169.168 87.1951C169.142 87.1848 169.112 87.1825 169.085 87.1886L140.821 92.9503L147.967 85.0764C147.982 85.0599 147.993 85.0404 147.999 85.0191C148.005 84.9979 148.007 84.9755 148.004 84.9536C148 84.9317 147.992 84.9109 147.98 84.8925C147.967 84.8742 147.951 84.8588 147.932 84.8475L129.607 74.3377L121.947 69.0762C121.914 69.0556 121.875 69.0485 121.837 69.0563C121.799 69.0641 121.766 69.0862 121.744 69.118C121.723 69.1499 121.714 69.1889 121.721 69.2269C121.727 69.2649 121.748 69.2989 121.779 69.3217L129.449 74.589L147.621 85.0139L140.375 93.0105L132.888 89.257L109.194 68.9111C109.164 68.8874 109.126 68.8764 109.088 68.8801C109.05 68.8839 109.015 68.9022 108.99 68.9312C108.965 68.9603 108.952 68.9978 108.954 69.036C108.956 69.0743 108.973 69.1102 109.001 69.1364L132.726 89.4977L140.331 93.3161L149.194 100.005L153.08 116.087L131.703 109.434C131.678 109.426 131.652 109.425 131.626 109.431C131.601 109.436 131.577 109.449 131.558 109.466L115.68 124.098C115.66 124.116 115.645 124.14 115.637 124.167C115.63 124.194 115.63 124.222 115.637 124.249C115.645 124.276 115.66 124.3 115.681 124.318C115.702 124.337 115.728 124.349 115.755 124.354L146.092 129.84C146.1 129.842 146.109 129.843 146.117 129.843ZM168.964 112.292L146.079 129.536L116.107 124.108L131.696 109.743L153.242 116.448C153.267 116.456 153.294 116.457 153.319 116.452C153.345 116.446 153.369 116.434 153.388 116.416C153.407 116.398 153.421 116.375 153.429 116.35C153.436 116.324 153.437 116.298 153.431 116.272L149.47 99.8849C149.463 99.8509 149.443 99.8209 149.415 99.7999L140.763 93.2689L168.829 87.5473L162.502 98.7403C162.491 98.7617 162.486 98.7853 162.486 98.8094C162.486 98.8334 162.491 98.8571 162.502 98.8784L168.964 112.292Z" fill="white"/>
<path d="M131.658 109.725C131.683 109.725 131.708 109.718 131.73 109.707L149.397 100.05C149.425 100.035 149.447 100.012 149.461 99.9833C149.474 99.9549 149.478 99.9229 149.473 99.892C149.466 99.8618 149.451 99.8342 149.428 99.8131C149.405 99.792 149.377 99.7784 149.346 99.774L132.371 97.4247L98.868 94.5067C98.8298 94.5027 98.7917 94.5138 98.7617 94.5376C98.7317 94.5614 98.7122 94.5961 98.7075 94.6341C98.7057 94.6536 98.7078 94.6733 98.7137 94.6921C98.7195 94.7108 98.729 94.7281 98.7417 94.7432C98.7543 94.7582 98.7697 94.7706 98.7872 94.7796C98.8046 94.7886 98.8236 94.7941 98.8432 94.7958L132.338 97.7173L148.858 100.005L131.586 109.445C131.557 109.461 131.534 109.486 131.52 109.516C131.507 109.546 131.504 109.58 131.512 109.612C131.52 109.645 131.539 109.673 131.565 109.693C131.591 109.714 131.624 109.725 131.657 109.725H131.658Z" fill="white"/>
<path d="M155.69 170.423L161.309 161.806L175.478 158.675L177.022 150.716L189.768 158.032L189.966 157.687L176.738 150.095L175.138 158.343L161.065 161.453L155.565 169.889L143.836 162.981L144.131 158.675L155.131 156.561L163.599 149.358L163.341 149.056L154.954 156.191L143.756 158.343L143.423 163.199L155.69 170.423Z" fill="white"/>
<path opacity="0.68" d="M172.844 174.853C172.872 174.853 172.901 174.847 172.927 174.835C172.952 174.823 172.975 174.805 172.994 174.784L180.809 165.642L184.558 170.281C184.574 170.302 184.594 170.321 184.617 170.334C184.64 170.348 184.666 170.357 184.692 170.36C184.719 170.364 184.746 170.362 184.772 170.354C184.797 170.347 184.821 170.335 184.842 170.318C184.863 170.301 184.88 170.28 184.893 170.256C184.906 170.233 184.913 170.207 184.915 170.18C184.917 170.153 184.914 170.126 184.906 170.101C184.897 170.075 184.884 170.052 184.866 170.032L181.072 165.337L181.1 165.304C181.117 165.284 181.13 165.261 181.138 165.237L184.442 154.995C184.449 154.975 184.452 154.954 184.452 154.933V146.181L194.8 150.928C194.824 150.945 194.851 150.956 194.88 150.961C194.908 150.966 194.937 150.965 194.965 150.957C194.993 150.95 195.019 150.936 195.041 150.918C195.063 150.899 195.081 150.876 195.093 150.85C195.105 150.823 195.112 150.795 195.112 150.766C195.112 150.737 195.106 150.708 195.093 150.682C195.081 150.656 195.063 150.633 195.041 150.614C195.019 150.596 194.993 150.582 194.965 150.574L184.336 145.698C184.306 145.684 184.273 145.678 184.24 145.681C184.207 145.683 184.175 145.694 184.147 145.712C184.119 145.729 184.096 145.754 184.08 145.783C184.064 145.812 184.055 145.845 184.055 145.878V154.908L180.803 165.003L175.459 158.395C175.434 158.363 175.399 158.341 175.36 158.33L158.388 153.387C158.353 153.379 158.317 153.38 158.283 153.39C158.248 153.4 158.218 153.419 158.194 153.445C158.169 153.472 158.153 153.504 158.145 153.539C158.138 153.573 158.14 153.61 158.152 153.643L163.26 168.147C163.274 168.187 163.299 168.22 163.333 168.244L172.741 174.828C172.773 174.846 172.808 174.854 172.844 174.853ZM180.555 165.33L172.81 174.389L163.606 167.946L158.65 153.865L175.184 158.682L180.555 165.33Z" fill="white"/>
<path d="M173.728 100.138C172.572 100.138 171.636 99.2016 171.636 98.0462C171.636 96.8907 172.572 95.9541 173.728 95.9541C174.883 95.9541 175.82 96.8907 175.82 98.0462C175.82 99.2016 174.883 100.138 173.728 100.138Z" fill="white"/>
<path d="M152.282 83.5686C152.017 82.4441 152.713 81.3173 153.838 81.0519C154.962 80.7865 156.089 81.4829 156.354 82.6074C156.62 83.732 155.923 84.8587 154.799 85.1241C153.674 85.3895 152.547 84.6931 152.282 83.5686Z" fill="white"/>
<path d="M121.857 146.93C120.702 146.93 119.765 145.993 119.765 144.838C119.765 143.682 120.702 142.746 121.857 142.746C123.013 142.746 123.949 143.682 123.949 144.838C123.949 145.993 123.013 146.93 121.857 146.93Z" fill="white"/>
<path d="M98.0542 97.3155C96.9867 96.8734 96.4798 95.6496 96.922 94.5821C97.3641 93.5146 98.588 93.0077 99.6555 93.4499C100.723 93.892 101.23 95.1158 100.788 96.1833C100.346 97.2508 99.1217 97.7577 98.0542 97.3155Z" fill="white"/>
<path d="M128.812 75.3781C128.547 74.2536 129.243 73.1269 130.368 72.8614C131.492 72.596 132.619 73.2925 132.885 74.417C133.15 75.5415 132.454 76.6683 131.329 76.9337C130.204 77.1991 129.078 76.5027 128.812 75.3781Z" fill="white"/>
<path d="M130.857 111.508C129.79 111.066 129.283 109.842 129.725 108.774C130.167 107.707 131.391 107.2 132.459 107.642C133.526 108.084 134.033 109.308 133.591 110.376C133.149 111.443 131.925 111.95 130.857 111.508Z" fill="white"/>
<path d="M145.49 131.627C144.422 131.184 143.915 129.961 144.358 128.893C144.8 127.826 146.024 127.319 147.091 127.761C148.159 128.203 148.665 129.427 148.223 130.494C147.781 131.562 146.557 132.069 145.49 131.627Z" fill="white"/>
<path d="M175.219 131.392C174.402 130.575 174.402 129.251 175.219 128.434C176.036 127.617 177.36 127.617 178.177 128.434C178.994 129.251 178.994 130.575 178.177 131.392C177.36 132.209 176.036 132.209 175.219 131.392Z" fill="white"/>
<path d="M172.574 158.982C172.309 157.858 173.005 156.731 174.13 156.465C175.255 156.2 176.381 156.896 176.647 158.021C176.912 159.146 176.216 160.272 175.091 160.538C173.967 160.803 172.84 160.107 172.574 158.982Z" fill="white"/>
<path d="M87.193 121.91C86.0375 121.91 85.1008 120.973 85.1008 119.818C85.1008 118.662 86.0375 117.726 87.193 117.726C88.3485 117.726 89.2852 118.662 89.2852 119.818C89.2852 120.973 88.3485 121.91 87.193 121.91Z" fill="white"/>
<path d="M78.0993 103.758C77.8339 102.633 78.5304 101.506 79.655 101.241C80.7795 100.975 81.9063 101.672 82.1718 102.796C82.4372 103.921 81.7407 105.048 80.6161 105.313C79.4916 105.578 78.3648 104.882 78.0993 103.758Z" fill="white"/>
<path d="M166.904 88.5605C166.389 88.0463 166.389 87.2125 166.904 86.6983C167.418 86.184 168.252 86.184 168.766 86.6983C169.28 87.2125 169.28 88.0463 168.766 88.5605C168.252 89.0748 167.418 89.0748 166.904 88.5605Z" fill="white"/>
<path d="M89.2852 90.9593C88.5579 90.9593 87.9683 90.3698 87.9683 89.6425C87.9683 88.9153 88.5579 88.3257 89.2852 88.3257C90.0125 88.3257 90.6021 88.9153 90.6021 89.6425C90.6021 90.3698 90.0125 90.9593 89.2852 90.9593Z" fill="white"/>
<path d="M98.2695 134.42C97.5423 134.42 96.9527 133.83 96.9527 133.103C96.9527 132.376 97.5423 131.786 98.2695 131.786C98.9968 131.786 99.5864 132.376 99.5864 133.103C99.5864 133.83 98.9968 134.42 98.2695 134.42Z" fill="white"/>
<path d="M81.2865 130.625C80.7723 130.111 80.7723 129.277 81.2865 128.763C81.8008 128.248 82.6346 128.248 83.1489 128.763C83.6632 129.277 83.6632 130.111 83.1489 130.625C82.6346 131.139 81.8008 131.139 81.2865 130.625Z" fill="white"/>
<path d="M160.333 162.847C159.661 162.568 159.342 161.798 159.62 161.126C159.898 160.454 160.669 160.135 161.34 160.414C162.012 160.692 162.332 161.462 162.053 162.134C161.775 162.806 161.005 163.125 160.333 162.847Z" fill="white"/>
<path d="M180.736 167.223C180.009 167.223 179.419 166.634 179.419 165.907C179.419 165.179 180.009 164.59 180.736 164.59C181.463 164.59 182.053 165.179 182.053 165.907C182.053 166.634 181.463 167.223 180.736 167.223Z" fill="white"/>
<path d="M184.388 156.493C183.716 156.215 183.397 155.445 183.675 154.773C183.953 154.101 184.724 153.782 185.396 154.06C186.068 154.338 186.387 155.109 186.108 155.781C185.83 156.452 185.06 156.772 184.388 156.493Z" fill="white"/>
<path d="M149.326 101.236C148.599 101.236 148.009 100.646 148.009 99.9189C148.009 99.1916 148.599 98.6021 149.326 98.6021C150.053 98.6021 150.643 99.1916 150.643 99.9189C150.643 100.646 150.053 101.236 149.326 101.236Z" fill="white"/>
<path d="M128.209 127.602C127.482 127.602 126.892 127.012 126.892 126.285C126.892 125.558 127.482 124.968 128.209 124.968C128.936 124.968 129.526 125.558 129.526 126.285C129.526 127.012 128.936 127.602 128.209 127.602Z" fill="white"/>
<path d="M113.633 90.2386C112.906 90.2386 112.316 89.6491 112.316 88.9218C112.316 88.1945 112.906 87.605 113.633 87.605C114.361 87.605 114.95 88.1945 114.95 88.9218C114.95 89.6491 114.361 90.2386 113.633 90.2386Z" fill="white"/>
<path d="M162.538 142.359C162.024 141.845 162.024 141.011 162.539 140.497C163.053 139.983 163.887 139.983 164.401 140.497C164.915 141.011 164.915 141.845 164.401 142.359C163.887 142.874 163.053 142.874 162.538 142.359Z" fill="white"/>
<path d="M151.687 115.847C151.57 115.129 152.058 114.452 152.776 114.336C153.494 114.219 154.17 114.707 154.287 115.425C154.403 116.143 153.916 116.819 153.198 116.936C152.48 117.052 151.803 116.565 151.687 115.847Z" fill="white"/>
<path d="M168.221 113.298C167.706 112.784 167.706 111.95 168.221 111.436C168.735 110.922 169.569 110.922 170.083 111.436C170.597 111.95 170.597 112.784 170.083 113.298C169.569 113.813 168.735 113.813 168.221 113.298Z" fill="white"/>
<path d="M113.633 109.563C112.906 109.563 112.316 108.973 112.316 108.246C112.316 107.519 112.906 106.929 113.633 106.929C114.361 106.929 114.95 107.519 114.95 108.246C114.95 108.973 114.361 109.563 113.633 109.563Z" fill="white"/>
<path d="M237.389 137.024C237.389 137.024 217.495 162.493 240.19 188.396L248.723 187.601C248.723 187.601 232.297 161.228 239.613 140.205L251.7 141.087L258.385 136.731L237.389 137.024Z" fill="url(#paint0_linear_216_1668)"/>
<path d="M248.284 261.715C248.284 261.715 264.402 296.843 272.859 311.392C272.859 311.392 274.538 320.546 272.859 323.427L271.428 324.063L278.108 323.865C278.108 323.865 278.698 311.55 278.238 310.863C277.777 310.176 276.847 310.22 276.847 310.22C276.847 310.22 273.982 287.527 265.687 282.684L257.648 254.996L248.284 261.715Z" fill="url(#paint1_linear_216_1668)"/>
<path d="M268.575 325.787C268.564 325.948 273.79 325.875 276.629 325.823C277.138 325.813 277.629 325.632 278.022 325.309C278.415 324.986 278.687 324.539 278.795 324.042L280.939 312.779C281.037 312.265 280.932 311.732 280.646 311.294C280.36 310.855 279.915 310.544 279.405 310.427L278.208 310.153C278.208 310.153 276.501 312.495 277.038 314.699C277.574 316.903 278.054 322.616 276.695 323.281C275.337 323.947 271.431 324.062 271.431 324.062C271.431 324.062 268.664 324.341 268.575 325.787Z" fill="#4F95FF"/>
<path d="M233.008 325.995C232.895 326.06 232.806 326.16 232.756 326.281C232.706 326.401 232.697 326.535 232.731 326.661C232.765 326.787 232.84 326.898 232.944 326.977C233.048 327.056 233.175 327.098 233.305 327.097C238.056 327.05 248.702 326.899 249.648 326.507C250.87 325.998 249.203 321.61 247.449 320.125L237.766 323.286L233.008 325.995Z" fill="#4F95FF"/>
<path d="M230.001 259.474C230.001 259.474 240.417 309.858 243.364 319.688L236.393 324.061C236.393 324.061 239.886 323.471 242.476 323.28C245.066 323.089 247.449 320.123 247.449 320.123L246.614 318.792C246.614 318.792 244.002 268.677 244.638 262.991L230.001 259.474Z" fill="url(#paint2_linear_216_1668)"/>
<path d="M204.146 141.95C204.146 141.95 202.71 168.159 226.573 181.553L220.828 194.65C220.828 194.65 199.223 181.584 200.022 145.943C200.04 144.919 199.678 143.925 199.007 143.152L194.416 137.826C193.553 136.826 192.944 135.633 192.639 134.348C192.334 133.064 192.342 131.724 192.662 130.443L193.268 128.028C193.315 127.839 193.405 127.664 193.531 127.517C193.657 127.369 193.816 127.253 193.995 127.178C194.174 127.102 194.368 127.069 194.562 127.082C194.756 127.094 194.944 127.151 195.112 127.249L195.592 127.527C197.121 128.415 198.331 129.761 199.053 131.375L201.308 136.415C201.719 137.333 202.406 138.101 203.273 138.611C204.14 139.121 205.144 139.349 206.146 139.263L207.54 139.145L204.146 141.95Z" fill="url(#paint3_linear_216_1668)"/>
<path d="M225.742 179.591C229.734 180.697 243.26 184.255 251.703 184.11L246.519 213.365L246.931 218.135L230.028 218.06C230.028 218.06 225.27 207.009 221.516 201.5C220.431 199.91 221.238 198.011 221.853 196.19L221.008 195.629C220.59 195.35 220.275 194.943 220.11 194.468C219.946 193.994 219.941 193.478 220.097 193.001L224.213 180.407C224.314 180.101 224.53 179.845 224.814 179.693C225.099 179.541 225.431 179.504 225.742 179.591Z" fill="#4F95FF"/>
<path d="M228.675 215.566L229.007 218.457C229.007 218.457 224.231 232.762 231.396 266.172C231.396 266.172 246.914 270.567 259.667 260.048C259.667 260.048 256.07 228.515 255.088 227.046C250.193 219.73 246.932 218.139 246.932 218.139L246.785 214.981C246.785 214.981 233.143 217.447 228.675 215.566Z" fill="#00255D"/>
<path d="M235.291 181.95C235.232 181.871 238.821 171.117 238.821 171.117L243.961 171.589L245.967 183.79C245.967 183.79 237.913 185.411 235.291 181.95Z" fill="url(#paint4_linear_216_1668)"/>
<path d="M242.73 154.159C242.386 154.373 231.746 158.769 234.033 169.816C234.098 170.138 234.239 170.44 234.445 170.697C234.65 170.954 234.913 171.158 235.213 171.293C236.774 171.99 240.136 173.181 244.156 172.773C249.731 172.207 253.383 162.48 253.228 159.651C253.074 156.821 246.126 152.045 242.73 154.159Z" fill="url(#paint5_linear_216_1668)"/>
<path d="M245.973 149.865C245.693 149.902 239.824 151.946 242.735 156.198C245.646 160.451 246.737 162.955 245.36 164.821C244.106 166.523 241.328 165.554 241.57 169.093C241.599 169.44 241.536 169.788 241.387 170.103C241.239 170.419 241.01 170.689 240.724 170.887C238.105 172.657 231.718 178.115 238.046 185.893C238.302 186.197 238.46 186.572 238.5 186.967C238.54 187.362 238.46 187.761 238.271 188.11C236.417 191.435 232.524 201.173 246.619 206.575C260.543 211.914 265.576 202.81 266.981 199.171C267.131 198.789 267.398 198.465 267.743 198.244C268.088 198.023 268.494 197.917 268.904 197.941C270.438 198.013 272.603 197.759 272.503 195.714C272.442 194.471 271.667 193.354 270.751 192.465C269.836 191.577 270.023 190.036 271.124 189.41C271.95 188.938 272.691 188.201 273.002 187.05C273.845 183.924 272.16 174.571 263.196 172.987C262.449 172.854 261.662 172.152 261.557 171.402C261.557 171.39 261.557 171.38 261.557 171.368C261.439 170.641 261.683 169.897 262.277 169.462C263.708 168.412 265.544 166.299 264.047 162.909C262.725 159.901 260.188 158.887 258.305 158.564C258.043 158.523 257.792 158.428 257.567 158.287C257.343 158.145 257.15 157.96 257 157.741C256.85 157.522 256.745 157.275 256.694 157.015C256.642 156.755 256.644 156.487 256.7 156.228C257.335 153.238 256.781 148.447 245.973 149.865Z" fill="#00255D"/>
<path d="M180.263 47.377H276.063C277.362 47.377 278.415 48.4298 278.415 49.7286V135.272C278.415 136.571 277.362 137.623 276.063 137.623H180.263C178.964 137.623 177.911 136.571 177.911 135.272V49.7286C177.911 48.4298 178.964 47.377 180.263 47.377Z" fill="#006BFF"/>
<path d="M185.512 51.6221H270.807C272.106 51.6221 273.159 52.6749 273.159 53.9737V130.084C273.159 131.383 272.106 132.436 270.807 132.436H185.512C184.214 132.436 183.161 131.383 183.161 130.084V53.9737C183.161 52.6749 184.214 51.6221 185.512 51.6221Z" fill="#84C4FF"/>
<path opacity="0.7" d="M271.573 86.5251C271.678 86.5248 271.778 86.4829 271.853 86.4086C271.927 86.3343 271.969 86.2337 271.969 86.1286V61.4333C271.967 59.2333 271.092 57.1241 269.537 55.5681C267.981 54.012 265.873 53.1361 263.673 53.1323H235.291C235.189 53.1379 235.094 53.1821 235.024 53.256C234.954 53.3298 234.915 53.4277 234.915 53.5294C234.915 53.6311 234.954 53.7289 235.024 53.8028C235.094 53.8766 235.189 53.9209 235.291 53.9264H263.673C265.663 53.9286 267.571 54.7202 268.979 56.1276C270.386 57.5349 271.178 59.443 271.18 61.4333V86.1286C271.18 86.233 271.222 86.3332 271.295 86.4074C271.369 86.4815 271.468 86.5238 271.573 86.5251Z" fill="white"/>
<path opacity="0.7" d="M271.573 105.843C271.678 105.843 271.779 105.802 271.853 105.727C271.927 105.653 271.969 105.552 271.969 105.447V89.1812C271.964 89.0796 271.919 88.984 271.846 88.9141C271.772 88.8442 271.674 88.8052 271.572 88.8052C271.47 88.8052 271.373 88.8442 271.299 88.9141C271.225 88.984 271.181 89.0796 271.175 89.1812V105.452C271.176 105.556 271.219 105.656 271.293 105.729C271.368 105.803 271.468 105.844 271.573 105.843Z" fill="white"/>
<path d="M214.915 119.234H222.083C222.887 119.234 223.548 119.033 224.065 118.631C224.57 118.245 224.958 117.725 225.184 117.131L228.906 106.966H249.548L253.27 117.131C253.454 117.661 253.816 118.144 254.355 118.579C254.918 119.023 255.62 119.255 256.337 119.234H263.535L243.967 69.4053H234.49L214.915 119.234ZM247.17 100.416H231.284L237.349 83.8409C237.625 83.1061 237.93 82.2408 238.262 81.2449C238.595 80.2491 238.923 79.1627 239.247 77.9859C239.569 79.158 239.884 80.2491 240.191 81.2591C240.497 82.2691 240.802 83.1537 241.104 83.9128L247.17 100.416Z" fill="white"/>
<path d="M199.34 119.234H208.644V69.4053H199.34V119.234Z" fill="white"/>
<path d="M0.989944 295.219H143.753C144.3 295.219 144.743 295.662 144.743 296.209V323.564C144.743 324.111 144.3 324.554 143.753 324.554H0.989944C0.443161 324.554 -7.62939e-05 324.111 -7.62939e-05 323.564V296.209C-7.62939e-05 295.662 0.443161 295.219 0.989944 295.219Z" fill="#006BFF"/>
<path d="M4.09474 297.044H141.076C141.623 297.044 142.066 297.488 142.066 298.034V321.15C142.066 321.696 141.623 322.14 141.076 322.14H4.09474C3.54796 322.14 3.10472 321.696 3.10472 321.15V298.034C3.10472 297.488 3.54796 297.044 4.09474 297.044Z" fill="#84C4FF"/>
<path d="M130.386 309.709C130.371 310.611 130.482 311.511 130.716 312.382C130.897 313.06 131.207 313.697 131.627 314.259C131.99 314.732 132.462 315.11 133.003 315.361C133.541 315.604 134.126 315.728 134.717 315.723C135.305 315.729 135.887 315.605 136.423 315.361C136.959 315.109 137.427 314.731 137.786 314.259C138.204 313.697 138.511 313.059 138.69 312.382C139.122 310.624 139.122 308.788 138.69 307.03C138.51 306.354 138.203 305.719 137.786 305.158C137.427 304.686 136.959 304.308 136.423 304.056C135.887 303.812 135.305 303.688 134.717 303.694C134.126 303.689 133.541 303.812 133.003 304.056C132.462 304.307 131.99 304.685 131.627 305.158C131.207 305.718 130.898 306.354 130.716 307.03C130.481 307.903 130.37 308.805 130.386 309.709ZM132.463 309.709C132.449 308.999 132.512 308.289 132.649 307.592C132.74 307.122 132.909 306.671 133.15 306.258C133.32 305.963 133.57 305.722 133.871 305.561C134.133 305.43 134.423 305.362 134.717 305.362C135.006 305.362 135.292 305.431 135.551 305.561C135.847 305.723 136.092 305.964 136.259 306.258C136.497 306.671 136.663 307.123 136.751 307.592C136.996 308.992 136.996 310.424 136.751 311.825C136.663 312.294 136.497 312.745 136.259 313.159C136.093 313.453 135.847 313.694 135.551 313.855C135.292 313.986 135.006 314.055 134.717 314.055C134.423 314.055 134.133 313.986 133.871 313.855C133.57 313.695 133.32 313.454 133.15 313.159C132.909 312.746 132.74 312.294 132.649 311.825C132.512 311.128 132.449 310.419 132.463 309.709Z" fill="white"/>
<path d="M120.945 309.709C120.929 310.611 121.04 311.51 121.274 312.382C121.455 313.06 121.765 313.697 122.186 314.259C122.549 314.732 123.021 315.11 123.562 315.361C124.1 315.605 124.685 315.728 125.276 315.723C125.864 315.729 126.446 315.605 126.981 315.361C127.517 315.109 127.985 314.731 128.344 314.259C128.762 313.697 129.069 313.059 129.248 312.382C129.682 310.624 129.682 308.788 129.248 307.03C129.069 306.354 128.762 305.719 128.344 305.158C127.985 304.686 127.517 304.308 126.981 304.056C126.446 303.812 125.864 303.688 125.276 303.694C124.685 303.688 124.1 303.812 123.562 304.056C123.021 304.306 122.549 304.684 122.186 305.158C121.765 305.718 121.456 306.354 121.274 307.03C121.04 307.903 120.929 308.805 120.945 309.709ZM123.021 309.709C123.008 308.999 123.07 308.289 123.207 307.592C123.298 307.122 123.467 306.671 123.709 306.258C123.879 305.963 124.128 305.722 124.428 305.561C124.692 305.43 124.982 305.362 125.276 305.362C125.565 305.362 125.851 305.431 126.11 305.561C126.406 305.723 126.651 305.964 126.818 306.258C127.056 306.671 127.222 307.123 127.31 307.592C127.555 308.992 127.555 310.424 127.31 311.825C127.222 312.294 127.056 312.745 126.818 313.159C126.652 313.453 126.406 313.694 126.11 313.855C125.851 313.986 125.565 314.054 125.276 314.055C124.982 314.055 124.692 313.987 124.428 313.855C124.128 313.695 123.879 313.454 123.709 313.159C123.467 312.746 123.298 312.295 123.207 311.825C123.069 311.128 123.004 310.419 123.016 309.709H123.021Z" fill="white"/>
<path d="M118.349 314.088H115.963V307.225C115.963 306.96 115.955 306.681 115.939 306.388L117.632 307.803C117.695 307.857 117.768 307.898 117.847 307.921C117.917 307.942 117.99 307.953 118.063 307.953C118.166 307.955 118.268 307.931 118.361 307.885C118.439 307.848 118.507 307.794 118.56 307.726L119.195 306.855L115.605 303.802H113.953V314.083H111.837V315.589H118.35L118.349 314.088Z" fill="white"/>
<path d="M108.906 314.088H106.522V307.225C106.522 306.96 106.513 306.681 106.497 306.388L108.19 307.803C108.253 307.857 108.326 307.897 108.405 307.921C108.475 307.942 108.548 307.953 108.621 307.953C108.724 307.955 108.826 307.931 108.918 307.885C108.996 307.848 109.065 307.794 109.118 307.726L109.752 306.855L106.163 303.802H104.511V314.083H102.394V315.589H108.906V314.088Z" fill="white"/>
<path d="M92.6188 309.709C92.6031 310.611 92.7139 311.51 92.9481 312.382C93.1289 313.06 93.4386 313.697 93.8602 314.259C94.2228 314.732 94.6949 315.11 95.2361 315.361C95.7741 315.605 96.3588 315.728 96.9495 315.723C97.5375 315.729 98.1196 315.605 98.6546 315.361C99.1913 315.109 99.6589 314.731 100.017 314.259C100.436 313.697 100.743 313.059 100.921 312.382C101.356 310.624 101.356 308.788 100.921 307.03C100.742 306.354 100.436 305.719 100.017 305.158C99.6589 304.686 99.1913 304.308 98.6546 304.056C98.1196 303.812 97.5375 303.688 96.9495 303.694C96.3588 303.688 95.7741 303.812 95.2361 304.056C94.6949 304.306 94.2228 304.684 93.8602 305.158C93.4393 305.718 93.1296 306.354 92.9481 307.03C92.7134 307.903 92.6026 308.805 92.6188 309.709ZM94.6945 309.709C94.6815 308.999 94.744 308.289 94.8809 307.592C94.9717 307.122 95.1413 306.671 95.3824 306.258C95.5527 305.963 95.802 305.722 96.1022 305.561C96.3654 305.43 96.6554 305.362 96.9495 305.362C97.2393 305.362 97.525 305.431 97.7837 305.561C98.0799 305.723 98.3251 305.964 98.4917 306.258C98.7299 306.671 98.8962 307.123 98.9838 307.592C99.2292 308.992 99.2292 310.424 98.9838 311.825C98.8962 312.294 98.7299 312.745 98.4917 313.159C98.3254 313.453 98.0801 313.694 97.7837 313.855C97.525 313.986 97.2393 314.054 96.9495 314.055C96.6554 314.055 96.3654 313.987 96.1022 313.855C95.8018 313.695 95.5524 313.454 95.3824 313.159C95.1413 312.746 94.9717 312.295 94.8809 311.825C94.7443 311.128 94.6822 310.419 94.6957 309.709H94.6945Z" fill="white"/>
<path d="M90.0214 314.088H87.6366V307.225C87.6366 306.96 87.6287 306.681 87.613 306.388L89.3051 307.803C89.3684 307.857 89.4418 307.897 89.5211 307.921C89.5912 307.942 89.6639 307.953 89.737 307.953C89.8402 307.955 89.9422 307.931 90.0344 307.885C90.1124 307.848 90.1807 307.794 90.2338 307.726L90.8687 306.855L87.2791 303.802H85.6271V314.083H83.5113V315.589H90.0226L90.0214 314.088Z" fill="white"/>
<path d="M80.5802 314.088H78.1954V307.225C78.1954 306.96 78.1871 306.681 78.1706 306.388L79.8639 307.803C79.9267 307.857 79.9998 307.897 80.0787 307.921C80.1488 307.942 80.2215 307.953 80.2946 307.953C80.3978 307.955 80.4998 307.931 80.592 307.885C80.67 307.848 80.7384 307.794 80.7914 307.726L81.4263 306.855L77.8367 303.802H76.1847V314.083H74.0677V315.589H80.5802V314.088Z" fill="white"/>
<path d="M64.2927 309.709C64.2769 310.611 64.3877 311.51 64.6219 312.382C64.8027 313.06 65.1124 313.697 65.5341 314.259C65.8964 314.732 66.3681 315.11 66.9088 315.361C67.4473 315.605 68.0323 315.728 68.6233 315.723C69.2113 315.729 69.7934 315.605 70.3284 315.361C70.8651 315.109 71.3328 314.731 71.6913 314.259C72.1102 313.697 72.417 313.059 72.5952 312.382C73.0295 310.624 73.0295 308.788 72.5952 307.03C72.4163 306.354 72.1095 305.719 71.6913 305.158C71.3328 304.686 70.8651 304.308 70.3284 304.056C69.7934 303.812 69.2113 303.688 68.6233 303.694C68.0323 303.689 67.4473 303.812 66.9088 304.056C66.3681 304.307 65.8964 304.685 65.5341 305.158C65.1131 305.718 64.8035 306.354 64.6219 307.03C64.3872 307.903 64.2764 308.805 64.2927 309.709ZM66.3683 309.709C66.3553 308.999 66.4178 308.289 66.5548 307.592C66.6455 307.122 66.8151 306.671 67.0563 306.258C67.2266 305.963 67.4759 305.722 67.7761 305.561C68.0392 305.43 68.3292 305.362 68.6233 305.362C68.9131 305.362 69.1989 305.431 69.4576 305.561C69.7537 305.723 69.9989 305.964 70.1656 306.258C70.4037 306.671 70.5701 307.123 70.6576 307.592C70.9031 308.992 70.9031 310.424 70.6576 311.825C70.5701 312.294 70.4037 312.745 70.1656 313.159C69.9992 313.453 69.754 313.694 69.4576 313.855C69.1989 313.986 68.9131 314.054 68.6233 314.055C68.3292 314.055 68.0392 313.987 67.7761 313.855C67.4756 313.695 67.2262 313.454 67.0563 313.159C66.8151 312.746 66.6455 312.295 66.5548 311.825C66.4178 311.128 66.3553 310.419 66.3683 309.709Z" fill="white"/>
<path d="M61.6957 314.088H59.3109V307.225C59.3109 306.96 59.3031 306.681 59.2873 306.388L60.9795 307.803C61.0427 307.857 61.1162 307.897 61.1954 307.921C61.2655 307.942 61.3382 307.953 61.4113 307.953C61.5145 307.955 61.6165 307.931 61.7087 307.885C61.7867 307.848 61.8551 307.794 61.9081 307.726L62.543 306.855L58.9534 303.802H57.3014V314.083H55.1856V315.589H61.6969L61.6957 314.088Z" fill="white"/>
<path d="M45.4079 309.709C45.3919 310.611 45.5032 311.511 45.7383 312.382C45.9193 313.06 46.2285 313.697 46.6493 314.259C47.0121 314.732 47.4842 315.11 48.0252 315.361C48.5633 315.605 49.1479 315.728 49.7386 315.723C50.3266 315.729 50.9087 315.605 51.4437 315.361C51.9807 315.109 52.4488 314.731 52.8078 314.259C53.2262 313.697 53.533 313.059 53.7116 312.382C54.1443 310.624 54.1443 308.788 53.7116 307.03C53.5322 306.354 53.2255 305.719 52.8078 305.158C52.4488 304.686 51.9807 304.308 51.4437 304.056C50.9087 303.812 50.3266 303.688 49.7386 303.694C49.1479 303.689 48.5633 303.812 48.0252 304.056C47.4842 304.307 47.0121 304.685 46.6493 305.158C46.2292 305.718 45.92 306.354 45.7383 307.03C45.5027 307.903 45.3914 308.805 45.4079 309.709ZM47.4836 309.709C47.4703 308.999 47.5332 308.289 47.6712 307.592C47.7616 307.122 47.9308 306.671 48.1715 306.258C48.3422 305.963 48.592 305.722 48.8925 305.561C49.1553 305.43 49.4449 305.362 49.7386 305.362C50.0284 305.362 50.3142 305.431 50.5728 305.561C50.8691 305.723 51.1143 305.964 51.2808 306.258C51.519 306.671 51.6853 307.123 51.7729 307.592C52.0168 308.992 52.0168 310.424 51.7729 311.825C51.6853 312.294 51.519 312.745 51.2808 313.159C51.1147 313.453 50.8694 313.694 50.5728 313.855C50.3142 313.986 50.0284 314.055 49.7386 314.055C49.4449 314.055 49.1553 313.986 48.8925 313.855C48.5917 313.695 48.3419 313.454 48.1715 313.159C47.9308 312.746 47.7616 312.294 47.6712 311.825C47.5332 311.128 47.4703 310.419 47.4836 309.709Z" fill="white"/>
<path d="M42.8121 314.088H40.4274V307.225C40.4274 306.96 40.4191 306.681 40.4026 306.388L42.0959 307.803C42.1591 307.857 42.2326 307.897 42.3118 307.921C42.3819 307.942 42.4546 307.953 42.5277 307.953C42.6306 307.955 42.7322 307.931 42.8239 307.885C42.9022 307.848 42.9706 307.794 43.0234 307.726L43.6582 306.855L40.0686 303.802H38.4166V314.083H36.3008V315.589H42.8121V314.088Z" fill="white"/>
<path d="M33.3696 314.088H30.9848V307.225C30.9848 306.96 30.9765 306.681 30.96 306.388L32.6533 307.803C32.7165 307.857 32.79 307.897 32.8692 307.921C32.9393 307.942 33.012 307.953 33.0852 307.953C33.1883 307.955 33.2904 307.931 33.3825 307.885C33.4604 307.848 33.5286 307.793 33.582 307.726L34.2168 306.855L30.626 303.802H28.974V314.083H26.8583V315.589H33.3696V314.088Z" fill="white"/>
<path d="M23.9284 314.088H21.5436V307.225C21.5436 306.96 21.5353 306.681 21.5188 306.388L23.2121 307.803C23.2749 307.857 23.348 307.897 23.4269 307.921C23.497 307.942 23.5697 307.953 23.6428 307.953C23.746 307.955 23.848 307.931 23.9401 307.885C24.0182 307.848 24.0865 307.794 24.1396 307.726L24.7744 306.855L21.1848 303.802H19.5328V314.083H17.4159V315.589H23.9284V314.088Z" fill="white"/>
<path d="M14.486 314.088H12.0953V307.225C12.0953 306.96 12.0871 306.681 12.0705 306.388L13.7638 307.804C13.8271 307.857 13.9005 307.897 13.9798 307.922C14.0499 307.942 14.1226 307.953 14.1957 307.953C14.2986 307.955 14.4002 307.931 14.4919 307.885C14.5691 307.851 14.6374 307.799 14.6913 307.734L15.3262 306.863L11.7366 303.811H10.0846V314.091H7.96766V315.597H14.4801L14.486 314.088Z" fill="white"/>
<g opacity="0.3">
<path d="M66.8616 24.3533C66.9968 24.1451 67.0503 23.8942 67.0117 23.649C66.9732 23.4037 66.8453 23.1814 66.6528 23.0247C65.7701 22.3084 64.845 21.6205 63.901 20.9798C63.6803 20.8301 63.4092 20.7741 63.1473 20.8241C62.8853 20.8741 62.6539 21.026 62.5039 21.2465L62.4933 21.263C62.3498 21.4837 62.2984 21.7518 62.3503 22.0098C62.4021 22.2679 62.553 22.4954 62.7705 22.6435C63.6685 23.2524 64.5477 23.9061 65.3855 24.5857C65.488 24.6693 65.606 24.7319 65.7328 24.7697C65.8595 24.8076 65.9925 24.82 66.1241 24.8063C66.2557 24.7926 66.3833 24.753 66.4995 24.6898C66.6157 24.6267 66.7184 24.5412 66.8015 24.4382C66.8229 24.4109 66.843 24.3826 66.8616 24.3533ZM59.4889 19.6264C59.5107 19.593 59.5304 19.5583 59.5479 19.5226C59.6661 19.2837 59.6846 19.0078 59.5994 18.7554C59.5142 18.5029 59.3323 18.2946 59.0936 18.1762C58.0718 17.67 57.018 17.2028 55.9619 16.7874C55.8383 16.735 55.7055 16.7078 55.5712 16.7075C55.437 16.7072 55.304 16.7338 55.1802 16.7858C55.0564 16.8377 54.9443 16.9139 54.8504 17.0099C54.7565 17.1058 54.6828 17.2196 54.6336 17.3446C54.5844 17.4695 54.5608 17.603 54.564 17.7372C54.5673 17.8714 54.5974 18.0036 54.6525 18.126C54.7077 18.2484 54.7869 18.3585 54.8853 18.4498C54.9837 18.5411 55.0994 18.6118 55.2256 18.6576C56.2286 19.0529 57.2316 19.4966 58.2016 19.978C58.422 20.087 58.6748 20.1114 58.912 20.0466C59.1492 19.9818 59.3545 19.8323 59.4889 19.6264ZM51.2584 16.6411C51.3216 16.5448 51.3675 16.4381 51.3941 16.3261C51.4559 16.0668 51.4123 15.7936 51.2729 15.5665C51.1336 15.3393 50.9098 15.1767 50.6507 15.1142C49.5438 14.8487 48.4087 14.6281 47.2865 14.4594C47.0228 14.4196 46.7542 14.4862 46.5396 14.6446C46.3251 14.8029 46.1822 15.04 46.1425 15.3036C46.1027 15.5673 46.1693 15.8359 46.3277 16.0505C46.486 16.265 46.7231 16.4078 46.9868 16.4476C48.0559 16.6081 49.1308 16.8169 50.1822 17.0694C50.3841 17.1175 50.5959 17.1019 50.7886 17.0248C50.9813 16.9477 51.1454 16.8128 51.2584 16.6387V16.6411ZM42.5665 15.5697C42.6641 15.4186 42.7195 15.2441 42.7269 15.0643C42.7342 14.8845 42.6932 14.706 42.6081 14.5475C42.5231 14.3889 42.397 14.2561 42.2432 14.1628C42.0894 14.0694 41.9133 14.0191 41.7334 14.0169C40.5947 14.0063 39.4418 14.044 38.3113 14.1349C38.0453 14.1551 37.7982 14.2801 37.6244 14.4825C37.4506 14.6848 37.3643 14.9479 37.3845 15.2139C37.4046 15.4799 37.5297 15.727 37.7321 15.9009C37.9344 16.0747 38.1976 16.161 38.4636 16.1408C39.5409 16.0594 40.636 16.0228 41.718 16.0334C41.887 16.0337 42.0534 15.9913 42.2017 15.9102C42.3499 15.8292 42.4754 15.7121 42.5665 15.5697ZM33.8533 16.4653C33.9624 16.2981 34.0194 16.1023 34.017 15.9027C34.0146 15.703 33.9528 15.5087 33.8396 15.3442C33.7263 15.1798 33.5668 15.0527 33.3812 14.9792C33.1956 14.9057 32.9923 14.889 32.7972 14.9313C31.688 15.1673 30.5717 15.4647 29.4826 15.7998C29.3563 15.8385 29.239 15.9017 29.1372 15.9858C29.0354 16.0699 28.9512 16.1732 28.8893 16.2899C28.8275 16.4065 28.7892 16.5342 28.7767 16.6656C28.7642 16.797 28.7777 16.9296 28.8164 17.0559C28.8552 17.1821 28.9184 17.2994 29.0025 17.4012C29.0866 17.503 29.1899 17.5872 29.3065 17.649C29.4232 17.7109 29.5508 17.7492 29.6823 17.7617C29.8137 17.7742 29.9463 17.7607 30.0726 17.7219C31.1086 17.4034 32.1682 17.1249 33.2232 16.896C33.4817 16.8409 33.7081 16.6862 33.8533 16.4653ZM25.5555 19.2641C25.6751 19.0811 25.7318 18.8641 25.717 18.6459C25.7022 18.4278 25.6167 18.2204 25.4734 18.0553C25.3301 17.8901 25.1369 17.7762 24.923 17.7307C24.7091 17.6852 24.4862 17.7107 24.2882 17.8034C23.258 18.2848 22.2338 18.8169 21.2473 19.3845C21.0162 19.5175 20.8473 19.7369 20.778 19.9943C20.7086 20.2518 20.7443 20.5263 20.8773 20.7574C21.0103 20.9885 21.2297 21.1573 21.4872 21.2267C21.7447 21.296 22.0192 21.2603 22.2503 21.1273C23.1872 20.588 24.1595 20.083 25.1389 19.6252C25.309 19.5464 25.4533 19.4212 25.5555 19.2641ZM3.43977 48.8185C3.51814 48.6988 3.56967 48.5635 3.59081 48.422C3.75365 47.3542 3.96488 46.2792 4.21976 45.2267C4.27613 44.9698 4.2296 44.7011 4.09015 44.4782C3.95071 44.2552 3.72945 44.0958 3.47382 44.034C3.21819 43.9723 2.94854 44.0131 2.72269 44.1479C2.49684 44.2826 2.33276 44.5004 2.26566 44.7547C1.9978 45.8627 1.7748 46.9966 1.6037 48.1188C1.56934 48.3457 1.61369 48.5776 1.72939 48.7759C1.84509 48.9742 2.02519 49.1269 2.23971 49.2086C2.45423 49.2904 2.69027 49.2963 2.90859 49.2253C3.12691 49.1543 3.31434 49.0107 3.43977 48.8185ZM18.0896 23.8294C18.2189 23.6301 18.2735 23.3915 18.2437 23.1558C18.2139 22.9201 18.1016 22.7026 17.9267 22.5418C17.7518 22.381 17.5256 22.2874 17.2882 22.2775C17.0508 22.2676 16.8176 22.3421 16.6299 22.4878C15.7319 23.1863 14.8528 23.932 14.0186 24.7061C13.9206 24.7955 13.8413 24.9035 13.7853 25.0237C13.7292 25.1439 13.6975 25.274 13.6919 25.4065C13.6864 25.539 13.7071 25.6713 13.753 25.7958C13.7988 25.9203 13.8688 26.0344 13.9589 26.1317C14.0491 26.229 14.1576 26.3075 14.2782 26.3627C14.3988 26.4179 14.5291 26.4486 14.6617 26.4532C14.7942 26.4578 14.9264 26.4361 15.0505 26.3894C15.1747 26.3427 15.2883 26.2719 15.385 26.181C16.1768 25.4459 17.011 24.738 17.863 24.0736C17.9522 24.006 18.0289 23.9234 18.0896 23.8294ZM5.72309 40.3653C5.75951 40.3084 5.79071 40.2484 5.81632 40.1859C6.21398 39.1806 6.66002 38.18 7.14265 37.2101C7.20316 37.0917 7.23957 36.9624 7.24979 36.8298C7.26 36.6972 7.2438 36.5639 7.20214 36.4376C7.16047 36.3114 7.09415 36.1946 7.00704 36.0941C6.91993 35.9936 6.81374 35.9114 6.69464 35.8523C6.57553 35.7931 6.44589 35.7582 6.31318 35.7495C6.18048 35.7408 6.04734 35.7585 5.92153 35.8016C5.79572 35.8447 5.67972 35.9123 5.58023 36.0006C5.48074 36.0888 5.39976 36.1959 5.34195 36.3157C4.83455 37.3352 4.3649 38.3889 3.946 39.4461C3.85405 39.6778 3.85149 39.9355 3.93882 40.169C4.02615 40.4025 4.19715 40.5952 4.4186 40.7098C4.64006 40.8243 4.89615 40.8525 5.13721 40.7888C5.37827 40.7252 5.58708 40.5742 5.72309 40.3653ZM11.8284 29.9486C11.9643 29.7329 12.0131 29.4735 11.9649 29.2231C11.9167 28.9727 11.7752 28.75 11.569 28.6C11.3627 28.45 11.1072 28.384 10.8542 28.4153C10.6011 28.4467 10.3694 28.573 10.2059 28.7687C9.48732 29.6489 8.79821 30.5728 8.15628 31.5144L8.14447 31.5321C7.9966 31.754 7.94293 32.0255 7.99527 32.287C8.04761 32.5484 8.20166 32.7784 8.42354 32.9263C8.64543 33.0741 8.91696 33.1278 9.17842 33.0755C9.43988 33.0231 9.66984 32.8691 9.81771 32.6472C10.4266 31.7528 11.0827 30.8773 11.7647 30.0383C11.7895 30.0076 11.8108 29.9781 11.8308 29.9486H11.8284Z" fill="#91B3FA"/>
<path d="M3.00905 55.8644C3.12141 55.6929 3.17825 55.4911 3.17188 55.2862C3.15536 54.7682 3.15065 54.2419 3.15655 53.7204C3.142 53.466 3.03137 53.2265 2.847 53.0506C2.66264 52.8746 2.41831 52.7752 2.16346 52.7725C1.90861 52.7698 1.66225 52.864 1.47421 53.036C1.28616 53.2081 1.17048 53.4451 1.15054 53.6991C1.14464 54.2478 1.15053 54.8024 1.16705 55.3511C1.17322 55.5652 1.2477 55.7717 1.3796 55.9405C1.5115 56.1093 1.6939 56.2314 1.90018 56.2892C2.10645 56.3469 2.32581 56.3372 2.52616 56.2614C2.72651 56.1856 2.89736 56.0477 3.01378 55.8679L3.00905 55.8644Z" fill="#91B3FA"/>
</g>
<g opacity="0.3">
<path d="M15.8275 83.704C15.9592 83.5033 16.0146 83.2621 15.9839 83.024C15.9532 82.786 15.8383 82.5668 15.66 82.406C15.2753 82.0579 14.893 81.6981 14.5213 81.3299C14.3313 81.1421 14.0745 81.0375 13.8074 81.0391C13.5403 81.0406 13.2848 81.1482 13.097 81.3382C12.9092 81.5281 12.8046 81.7849 12.8062 82.052C12.8077 82.3191 12.9153 82.5746 13.1053 82.7624C13.497 83.1482 13.9006 83.5293 14.3042 83.8951C14.5015 84.0729 14.7612 84.1654 15.0265 84.1524C15.2919 84.1393 15.5412 84.0218 15.7202 83.8255C15.7595 83.7883 15.7954 83.7476 15.8275 83.704Z" fill="#91B3FA"/>
<path d="M74.9243 76.1238C75.1768 75.736 75.4238 75.3427 75.6653 74.9439C75.7337 74.8309 75.7791 74.7056 75.799 74.5751C75.8189 74.4446 75.8129 74.3114 75.7813 74.1832C75.7498 74.055 75.6933 73.9343 75.6151 73.8279C75.5368 73.7216 75.4385 73.6317 75.3255 73.5633C75.2125 73.495 75.0872 73.4496 74.9567 73.4297C74.8262 73.4098 74.693 73.4158 74.5648 73.4473C74.4366 73.4789 74.3159 73.5354 74.2095 73.6136C74.1031 73.6918 74.0132 73.7902 73.9449 73.9032C73.3879 74.8235 72.7955 75.7203 72.1749 76.5758C72.0974 76.6827 72.0417 76.8038 72.011 76.9322C71.9804 77.0607 71.9753 77.1939 71.9962 77.3243C72.017 77.4547 72.0633 77.5797 72.1324 77.6922C72.2015 77.8046 72.2921 77.9024 72.3991 77.9799C72.506 78.0574 72.6271 78.113 72.7556 78.1437C72.884 78.1744 73.0172 78.1794 73.1476 78.1586C73.278 78.1378 73.403 78.0915 73.5155 78.0224C73.628 77.9532 73.7258 77.8626 73.8033 77.7557C74.188 77.2259 74.5644 76.6761 74.9243 76.1238ZM78.095 70.2241C78.1263 70.1763 78.1532 70.1257 78.1752 70.073C78.6212 69.0441 79.0272 67.9845 79.3835 66.9237C79.4256 66.7987 79.4426 66.6666 79.4337 66.5349C79.4247 66.4033 79.3898 66.2747 79.3312 66.1566C79.2725 66.0384 79.1911 65.9329 79.0917 65.8462C78.9922 65.7595 78.8767 65.6932 78.7516 65.6511C78.6266 65.6091 78.4945 65.592 78.3628 65.601C78.2312 65.61 78.1026 65.6448 77.9845 65.7035C77.8663 65.7622 77.7608 65.8436 77.6741 65.943C77.5873 66.0424 77.5211 66.158 77.479 66.283C77.1403 67.2907 76.7533 68.2972 76.3309 69.2754C76.2267 69.5078 76.2146 69.7711 76.297 70.0121C76.3795 70.2531 76.5504 70.4538 76.7752 70.5737C76.9999 70.6935 77.2618 70.7236 77.5078 70.6578C77.7539 70.5921 77.9659 70.4353 78.1009 70.2193L78.095 70.2241ZM70.4131 81.8136C70.5492 81.6036 70.6021 81.3505 70.5615 81.1036C70.5209 80.8568 70.3897 80.6339 70.1935 80.4786C69.9974 80.3233 69.7504 80.2467 69.5007 80.2638C69.2511 80.2809 69.0168 80.3905 68.8437 80.5711C68.1097 81.3381 67.3321 82.0838 66.5333 82.7882C66.433 82.8752 66.3509 82.9811 66.2918 83.1C66.2326 83.2188 66.1976 83.3481 66.1888 83.4806C66.1799 83.613 66.1973 83.7459 66.2401 83.8715C66.2828 83.9972 66.35 84.1131 66.4378 84.2127C66.5256 84.3122 66.6322 84.3934 66.7516 84.4516C66.8709 84.5097 67.0006 84.5436 67.1331 84.5514C67.2656 84.5591 67.3983 84.5406 67.5236 84.4968C67.6489 84.453 67.7643 84.3848 67.8631 84.2962C68.7045 83.554 69.5222 82.7682 70.2963 81.9611C70.3394 81.9158 70.3785 81.8668 70.4131 81.8148V81.8136ZM80.6249 61.9844C80.6961 61.8741 80.7454 61.7511 80.77 61.6222C80.9777 60.5213 81.1406 59.398 81.255 58.2841C81.2793 58.0204 81.1986 57.7578 81.0304 57.5532C80.8621 57.3487 80.62 57.2188 80.3566 57.1918C80.0931 57.1647 79.8297 57.2427 79.6234 57.4088C79.4171 57.5749 79.2847 57.8156 79.2549 58.0788C79.1463 59.1407 78.9918 60.2027 78.7935 61.2493C78.7513 61.4779 78.7894 61.714 78.9015 61.9176C79.0135 62.1212 79.1926 62.2798 79.4083 62.3664C79.624 62.453 79.8631 62.4622 80.0848 62.3926C80.3066 62.323 80.4974 62.1788 80.6249 61.9844ZM63.8039 87.3369C63.9303 87.1432 63.9861 86.9119 63.9618 86.6818C63.9376 86.4518 63.8346 86.2371 63.6705 86.0741C63.5064 85.9111 63.2911 85.8097 63.0609 85.787C62.8306 85.7642 62.5996 85.8216 62.4068 85.9493C61.5218 86.5393 60.6002 87.0927 59.6656 87.6013C59.5458 87.6624 59.4395 87.7469 59.353 87.8499C59.2664 87.9528 59.2014 88.0721 59.1618 88.2006C59.1222 88.3291 59.1088 88.4643 59.1223 88.5981C59.1359 88.7319 59.1762 88.8616 59.2408 88.9795C59.3053 89.0975 59.3929 89.2013 59.4984 89.2848C59.6038 89.3683 59.7249 89.4298 59.8545 89.4656C59.9841 89.5015 60.1196 89.511 60.253 89.4936C60.3863 89.4761 60.5148 89.4321 60.6309 89.3641C61.615 88.8261 62.5861 88.2396 63.5172 87.6225C63.6311 87.5482 63.7287 87.4515 63.8039 87.3381V87.3369ZM56.1445 91.2768C56.2576 91.0989 56.312 90.89 56.2998 90.6795C56.2877 90.4691 56.2097 90.2677 56.0769 90.104C55.9441 89.9403 55.7632 89.8225 55.5597 89.7672C55.3563 89.7119 55.1406 89.722 54.9432 89.796C53.9485 90.1759 52.9266 90.5181 51.9047 90.8131C51.6486 90.8873 51.4323 91.0601 51.3036 91.2937C51.175 91.5273 51.1443 91.8024 51.2185 92.0585C51.2927 92.3147 51.4656 92.5309 51.6992 92.6595C51.9327 92.7882 52.2079 92.8188 52.464 92.7447C53.539 92.4344 54.614 92.0733 55.6607 91.6733C55.86 91.5966 56.0296 91.4581 56.1445 91.278V91.2768ZM47.8065 93.4538C47.9411 93.2493 47.9954 93.0022 47.9587 92.76C47.9398 92.6294 47.8953 92.5037 47.8278 92.3903C47.7602 92.2769 47.6709 92.178 47.565 92.0992C47.4591 92.0204 47.3386 91.9632 47.2106 91.931C47.0826 91.8988 46.9495 91.8923 46.8189 91.9116C45.7639 92.0662 44.6949 92.1783 43.6328 92.2432C43.4979 92.2464 43.3649 92.2767 43.2419 92.3324C43.1189 92.388 43.0084 92.4679 42.9169 92.5672C42.8255 92.6665 42.7549 92.7832 42.7096 92.9104C42.6642 93.0375 42.6449 93.1725 42.6528 93.3073C42.6607 93.4421 42.6957 93.5739 42.7557 93.6948C42.8157 93.8158 42.8994 93.9234 43.0019 94.0113C43.1044 94.0992 43.2235 94.1656 43.3522 94.2064C43.4808 94.2473 43.6164 94.2618 43.7509 94.2491C44.8671 94.1795 45.9929 94.0615 47.1056 93.8951C47.2472 93.8759 47.383 93.8265 47.5039 93.7504C47.6248 93.6743 47.728 93.5732 47.8065 93.4538ZM39.1925 93.7606C39.288 93.6144 39.3437 93.4457 39.3541 93.2714C39.3645 93.097 39.3292 92.9229 39.2518 92.7664C39.1743 92.6098 39.0574 92.4761 38.9124 92.3786C38.7675 92.2811 38.5997 92.223 38.4255 92.2102C37.3635 92.1299 36.2932 92.0048 35.2394 91.8361C35.1077 91.8118 34.9724 91.814 34.8415 91.8428C34.7106 91.8715 34.5867 91.9261 34.4772 92.0033C34.3678 92.0806 34.2748 92.179 34.2039 92.2927C34.133 92.4064 34.0855 92.5331 34.0642 92.6654C34.043 92.7977 34.0484 92.9329 34.0802 93.0631C34.112 93.1933 34.1695 93.3158 34.2493 93.4234C34.3291 93.5311 34.4296 93.6217 34.5449 93.6899C34.6603 93.7582 34.7881 93.8027 34.9208 93.8208C36.0253 93.9978 37.1534 94.1311 38.2709 94.2149C38.4514 94.2294 38.6324 94.1948 38.7948 94.1149C38.9573 94.0349 39.0951 93.9125 39.1936 93.7606H39.1925ZM30.72 92.1677C30.7708 92.0885 30.8105 92.0028 30.838 91.9128C30.9157 91.6578 30.889 91.3823 30.7638 91.1469C30.6385 90.9116 30.425 90.7355 30.1701 90.6573C29.1553 90.3458 28.1394 89.9883 27.1505 89.5954C27.0272 89.5421 26.8945 89.514 26.7602 89.5128C26.6259 89.5116 26.4928 89.5373 26.3686 89.5885C26.2444 89.6396 26.1317 89.7151 26.0372 89.8105C25.9427 89.9059 25.8682 90.0192 25.8182 90.1439C25.7682 90.2685 25.7437 90.4019 25.7461 90.5362C25.7486 90.6705 25.7779 90.8029 25.8323 90.9257C25.8868 91.0484 25.9653 91.159 26.0632 91.251C26.1611 91.3429 26.2764 91.4143 26.4024 91.4609C27.4431 91.8786 28.5122 92.2562 29.5813 92.583C29.7906 92.6472 30.0152 92.6413 30.2209 92.5664C30.4266 92.4914 30.6022 92.3515 30.7212 92.1677H30.72ZM22.814 88.7553L22.8458 88.7022C22.9774 88.4702 23.0115 88.1956 22.9407 87.9385C22.8699 87.6814 22.6999 87.463 22.4682 87.331C21.7874 86.944 21.1101 86.5322 20.454 86.1051C20.218 85.9477 19.982 85.7904 19.746 85.6331C19.525 85.4836 19.2537 85.428 18.9917 85.4785C18.7297 85.5289 18.4985 85.6813 18.3488 85.9021C18.2728 86.0106 18.2193 86.1332 18.1914 86.2627C18.1634 86.3921 18.1617 86.5259 18.1862 86.6561C18.2107 86.7862 18.261 86.9102 18.3341 87.0206C18.4072 87.1311 18.5017 87.2258 18.612 87.2992C18.8562 87.4667 19.1029 87.6308 19.353 87.7936C20.0421 88.2432 20.7549 88.6774 21.477 89.0845C21.6997 89.2086 21.9611 89.2437 22.2086 89.1826C22.4561 89.1215 22.6712 88.9688 22.8104 88.7553H22.814Z" fill="#91B3FA"/>
<path d="M81.2766 53.3661C81.3896 53.1933 81.446 52.9896 81.4383 52.7832C81.4194 52.2393 81.3887 51.6859 81.3462 51.1372C81.3259 50.8712 81.2007 50.6242 80.9982 50.4505C80.7957 50.2768 80.5325 50.1906 80.2665 50.2109C80.0005 50.2313 79.7535 50.3565 79.5797 50.5589C79.406 50.7614 79.3199 51.0246 79.3402 51.2906C79.3803 51.811 79.4098 52.3372 79.4287 52.854C79.4366 53.0673 79.5122 53.2726 79.6445 53.4401C79.7768 53.6076 79.959 53.7286 80.1647 53.7856C80.3704 53.8427 80.5889 53.8327 80.7886 53.7573C80.9883 53.6819 81.1588 53.5449 81.2754 53.3661H81.2766Z" fill="#91B3FA"/>
</g>
<path d="M70.7674 48.1437C70.7967 48.2369 70.7963 48.3369 70.7663 48.4299C70.7362 48.5229 70.6781 48.6043 70.5999 48.6629L66.0167 52.0847C66.231 54.7839 66.0038 57.5 65.3441 60.1261L69.29 64.256C69.3572 64.327 69.4007 64.4172 69.4144 64.514C69.4282 64.6108 69.4115 64.7095 69.3668 64.7964L66.2208 70.8909C66.1757 70.9774 66.1048 71.0478 66.0179 71.0924C65.9311 71.137 65.8325 71.1536 65.7359 71.1398L60.0813 70.3139C58.322 72.3721 56.2391 74.1301 53.9145 75.5186L53.7812 81.2355C53.7786 81.3332 53.7458 81.4276 53.6872 81.5058C53.6287 81.584 53.5473 81.6421 53.4543 81.6721L46.9206 83.7571C46.8275 83.7865 46.7276 83.7862 46.6346 83.7564C46.5416 83.7266 46.4601 83.6687 46.4014 83.5907L42.9794 79.0066C40.2801 79.2215 37.5638 78.9943 34.9377 78.334L30.8077 82.2798C30.7368 82.3469 30.647 82.3904 30.5504 82.4044C30.4538 82.4183 30.3553 82.402 30.2684 82.3577L24.1737 79.2107C24.0869 79.1657 24.0162 79.0949 23.9714 79.0081C23.9265 78.9212 23.9098 78.8225 23.9235 78.7258L24.7495 73.0714C22.6882 71.3132 20.9277 69.2303 19.5374 66.905L13.8214 66.7728C13.7238 66.7702 13.6293 66.7374 13.5511 66.6788C13.4729 66.6203 13.4148 66.5389 13.3848 66.446L11.2998 59.9114C11.2704 59.8182 11.2706 59.7183 11.3004 59.6253C11.3302 59.5323 11.3881 59.4509 11.4661 59.3922L16.0493 55.9703C15.8354 53.271 16.063 50.555 16.7231 47.9289L12.7771 43.7991C12.7098 43.7282 12.6661 43.6381 12.6521 43.5413C12.6382 43.4445 12.6546 43.3457 12.6993 43.2587L15.8452 37.1642C15.8903 37.0776 15.9612 37.0072 16.0481 36.9626C16.1349 36.918 16.2335 36.9015 16.3301 36.9152L21.9859 37.7412C23.7446 35.6819 25.8275 33.9235 28.1526 32.5352L28.2848 26.8183C28.2874 26.7207 28.3202 26.6263 28.3788 26.5481C28.4373 26.4699 28.5187 26.4118 28.6116 26.3818L35.1465 24.2968C35.2397 24.2674 35.3396 24.2676 35.4326 24.2974C35.5256 24.3272 35.607 24.3851 35.6657 24.4631L39.0878 29.0473C41.7875 28.833 44.504 29.0602 47.1307 29.7198L51.2607 25.7741C51.3315 25.707 51.4214 25.6634 51.518 25.6495C51.6145 25.6355 51.7131 25.6519 51.8 25.6962L57.8959 28.8431C57.9824 28.8883 58.0529 28.9592 58.0975 29.046C58.1421 29.1329 58.1586 29.2314 58.1449 29.3281L57.3189 34.9824C59.3776 36.7416 61.1361 38.8244 62.5251 41.1489L68.2422 41.2811C68.3399 41.2837 68.4343 41.3165 68.5125 41.375C68.5907 41.4336 68.6488 41.5149 68.6788 41.6079L70.7674 48.1437Z" fill="#006BFF"/>
<path d="M46.8118 57.7851C47.7838 56.2894 48.138 54.4751 47.7998 52.7237C47.4616 50.9723 46.4575 49.4203 44.9985 48.394C43.5395 47.3677 41.7393 46.9471 39.9766 47.2207C38.2139 47.4943 36.6259 48.4407 35.5467 49.8609C34.4674 51.2812 33.981 53.0646 34.1896 54.8361C34.3982 56.6076 35.2857 58.2292 36.6654 59.3598C38.045 60.4905 39.8094 61.0421 41.5875 60.8988C43.3655 60.7554 45.0187 59.9281 46.1994 58.591C46.4226 58.3374 46.6272 58.0681 46.8118 57.7851ZM36.5965 51.1478C36.739 50.929 36.8967 50.7204 37.0685 50.5237C37.9687 49.501 39.2304 48.8671 40.5883 48.7552C41.9463 48.6434 43.2947 49.0623 44.3502 49.9239C45.4057 50.7854 46.086 52.0226 46.2483 53.3754C46.4106 54.7281 46.0421 56.0911 45.2203 57.1779C44.3986 58.2646 43.1875 58.9905 41.8416 59.203C40.4958 59.4154 39.12 59.0979 38.0034 58.3172C36.8868 57.5364 36.1163 56.3532 35.8539 55.0162C35.5916 53.6793 35.8577 52.2927 36.5965 51.1478Z" fill="#CCE2FF"/>
<path d="M55.0792 63.3393C55.3965 62.8527 55.6887 62.3501 55.9548 61.8337C56.0397 61.6697 56.1212 61.5057 56.2002 61.3393C56.5902 60.5208 56.9142 59.6725 57.169 58.8024L57.1796 58.767C57.1903 58.734 57.1997 58.6998 57.2091 58.6667C57.2268 58.6006 57.2457 58.5357 57.2634 58.4697C57.2856 58.3877 57.2812 58.3008 57.2509 58.2215C57.2206 58.1422 57.1659 58.0746 57.0947 58.0284C57.0582 58.0051 57.0184 57.9876 56.9767 57.9764C56.8737 57.9486 56.7639 57.9629 56.6714 58.016C56.5789 58.0691 56.5113 58.1567 56.4834 58.2596C55.6201 61.4493 53.8 64.2977 51.2682 66.4214C48.7365 68.545 45.6146 69.8418 42.3233 70.1371C39.2685 70.4184 36.197 69.8176 33.4733 68.4061C32.9803 68.1522 32.5006 67.8734 32.036 67.5707C28.6934 65.3818 26.2807 62.0318 25.264 58.1679C24.2473 54.304 24.6988 50.2005 26.5313 46.6501C30.6177 38.7349 40.3763 35.6245 48.2883 39.7084C50.8862 41.048 53.0731 43.0659 54.6167 45.548C54.6728 45.6387 54.7628 45.7034 54.8667 45.7279C54.9706 45.7524 55.0799 45.7345 55.1707 45.6784C55.2614 45.6222 55.3261 45.5323 55.3506 45.4284C55.375 45.3245 55.3572 45.2151 55.301 45.1244C53.9932 43.0141 52.2367 41.2178 50.1562 39.8629C49.6756 39.5483 49.1796 39.2596 48.6682 38.9969C40.361 34.7089 30.1138 37.9797 25.8268 46.2843C23.9033 50.0117 23.4297 54.3197 24.4976 58.3759C25.5656 62.4321 28.0992 65.9485 31.6089 68.2456C32.0963 68.5636 32.5997 68.8566 33.1169 69.1235C36.8448 71.0474 41.1535 71.5211 45.2103 70.4532C49.2672 69.3853 52.7842 66.8516 55.0816 63.3417L55.0792 63.3393Z" fill="#CCE2FF"/>
<g opacity="0.3">
<path d="M107.784 10.0746C107.858 9.96241 107.893 9.82932 107.884 9.69543C107.875 9.56155 107.823 9.43414 107.736 9.33243C107.393 8.93124 107.028 8.53596 106.667 8.15247C106.61 8.09382 106.542 8.0469 106.468 8.01439C106.393 7.98188 106.312 7.96441 106.231 7.96299C106.149 7.96156 106.068 7.97621 105.992 8.00609C105.917 8.03597 105.847 8.0805 105.789 8.13713C105.73 8.19377 105.683 8.2614 105.651 8.33617C105.618 8.41094 105.601 8.49138 105.599 8.5729C105.598 8.65442 105.612 8.73542 105.642 8.81128C105.672 8.88714 105.717 8.95637 105.773 9.01502C106.127 9.37726 106.465 9.75367 106.793 10.136C106.9 10.261 107.052 10.3383 107.216 10.3512C107.381 10.364 107.543 10.3112 107.668 10.2044C107.713 10.1665 107.752 10.1229 107.784 10.0746Z" fill="#91B3FA"/>
<path d="M104.36 6.74608C104.444 6.61676 104.478 6.46051 104.454 6.30779C104.43 6.15508 104.349 6.01686 104.229 5.92011C103.519 5.34792 102.782 4.81193 102.019 4.31419C101.861 4.21036 101.7 4.1077 101.534 4.00622C101.392 3.92468 101.225 3.89979 101.067 3.93659C100.908 3.97339 100.769 4.06914 100.678 4.20446C100.592 4.34448 100.564 4.51303 100.601 4.67331C100.639 4.8336 100.738 4.97258 100.877 5.05992C101.033 5.15668 101.188 5.2558 101.341 5.35491C102.069 5.83027 102.773 6.34224 103.449 6.88886C103.577 6.99205 103.741 7.04019 103.905 7.02271C104.068 7.00524 104.218 6.92358 104.322 6.79564C104.335 6.7803 104.348 6.76378 104.36 6.74608ZM98.8844 3.34191C98.9008 3.31702 98.9154 3.29099 98.9281 3.26403C98.9626 3.18999 98.9822 3.10985 98.9858 3.02822C98.9893 2.94658 98.9766 2.86505 98.9486 2.78831C98.9205 2.71157 98.8776 2.64113 98.8222 2.58102C98.7669 2.52092 98.7002 2.47234 98.626 2.43806C97.6261 1.9731 96.5983 1.57075 95.5485 1.23333C95.4698 1.20336 95.3858 1.18972 95.3016 1.19326C95.2175 1.1968 95.1349 1.21743 95.059 1.2539C94.983 1.29036 94.9153 1.34191 94.8599 1.40539C94.8046 1.46887 94.7627 1.54296 94.7369 1.62314C94.711 1.70332 94.7018 1.78792 94.7098 1.87178C94.7177 1.95564 94.7426 2.03701 94.783 2.11094C94.8234 2.18486 94.8784 2.24979 94.9447 2.30177C95.011 2.35375 95.0871 2.39169 95.1686 2.41329C96.1693 2.73623 97.1493 3.12004 98.1032 3.56256C98.2382 3.62594 98.3915 3.63853 98.535 3.59799C98.6785 3.55746 98.8026 3.46654 98.8844 3.34191ZM92.7484 1.36666C92.7918 1.29853 92.8223 1.22291 92.8381 1.14365C92.8533 1.06354 92.8525 0.981211 92.8359 0.901374C92.8193 0.821538 92.7871 0.745758 92.7412 0.678366C92.6953 0.610973 92.6366 0.55329 92.5683 0.508611C92.5001 0.463933 92.4238 0.433136 92.3436 0.41798C91.2594 0.211368 90.1635 0.0722592 89.062 0.00145581C88.9807 -0.00365767 88.8991 0.00730215 88.822 0.0337095C88.7449 0.0601169 88.6737 0.101455 88.6126 0.155363C88.5514 0.209271 88.5015 0.274693 88.4656 0.347894C88.4298 0.421096 88.4087 0.500643 88.4036 0.581994C88.3985 0.663345 88.4094 0.744906 88.4358 0.822021C88.4622 0.899137 88.5036 0.970295 88.5575 1.03143C88.6114 1.09257 88.6768 1.1425 88.75 1.17835C88.8232 1.21421 88.9028 1.2353 88.9841 1.24041C90.034 1.30686 91.0787 1.43808 92.1123 1.63333C92.2328 1.6566 92.3575 1.6437 92.4707 1.59624C92.5839 1.54879 92.6805 1.46891 92.7484 1.36666ZM86.3173 0.96076C86.3806 0.864124 86.4157 0.751739 86.4186 0.636252C86.4215 0.520765 86.3921 0.40676 86.3337 0.307066C86.2754 0.207373 86.1903 0.125948 86.0882 0.0719566C85.9861 0.0179648 85.8709 -0.0064514 85.7556 0.00145581C84.6545 0.0683725 83.5586 0.203143 82.474 0.405001C82.3928 0.41878 82.3152 0.448585 82.2456 0.492677C82.176 0.536769 82.1159 0.594267 82.0688 0.66182C82.0217 0.729373 81.9885 0.805629 81.9711 0.886145C81.9538 0.96666 81.9526 1.04982 81.9678 1.13079C81.9829 1.21176 82.0139 1.2889 82.0592 1.35774C82.1044 1.42657 82.1629 1.48572 82.2312 1.53172C82.2995 1.57773 82.3763 1.60967 82.4571 1.6257C82.5379 1.64173 82.6211 1.64152 82.7018 1.62507C83.7361 1.43299 84.7811 1.30453 85.8312 1.24041C85.9285 1.23551 86.0234 1.20761 86.1079 1.159C86.1924 1.11039 86.2641 1.04246 86.3173 0.96076ZM79.9783 2.14072C80.0485 2.03344 80.0837 1.90709 80.0791 1.77901C80.0746 1.65093 80.0305 1.5274 79.9529 1.42538C79.8753 1.32336 79.768 1.24786 79.6458 1.20925C79.5236 1.17064 79.3924 1.17081 79.2703 1.20973C78.2195 1.54279 77.1898 1.93919 76.187 2.39677C76.1128 2.43062 76.0461 2.47875 75.9905 2.53841C75.935 2.59806 75.8917 2.66807 75.8632 2.74444C75.8347 2.82081 75.8216 2.90204 75.8245 2.9835C75.8274 3.06496 75.8463 3.14505 75.8802 3.21919C75.914 3.29334 75.9622 3.36009 76.0218 3.41564C76.0815 3.47118 76.1515 3.51443 76.2279 3.54292C76.3042 3.57141 76.3855 3.58457 76.4669 3.58167C76.5484 3.57876 76.6285 3.55984 76.7026 3.52598C77.6597 3.08995 78.642 2.71169 79.6444 2.39323C79.781 2.34965 79.898 2.25944 79.9748 2.13836L79.9783 2.14072ZM74.1184 4.82039C74.1951 4.7023 74.2294 4.56163 74.2156 4.42149C74.2018 4.28134 74.1408 4.15005 74.0425 4.04918C73.9442 3.94831 73.8146 3.88385 73.6749 3.8664C73.5351 3.84894 73.3936 3.87953 73.2735 3.95313C72.335 4.531 71.4333 5.16664 70.5737 5.85639C70.4452 5.95935 70.3629 6.10913 70.3449 6.27277C70.3268 6.43641 70.3745 6.60051 70.4775 6.72897C70.5805 6.85743 70.7302 6.93974 70.8939 6.95777C71.0575 6.97581 71.2216 6.9281 71.3501 6.82514C72.1703 6.16793 73.0302 5.56186 73.9249 5.01037C74.0019 4.96133 74.0668 4.8956 74.1149 4.81803L74.1184 4.82039ZM69.0892 8.85112C69.174 8.72179 69.2074 8.56547 69.183 8.41278C69.1585 8.26009 69.078 8.12202 68.957 8.02562C68.8361 7.92922 68.6836 7.88142 68.5293 7.8916C68.375 7.90177 68.23 7.96917 68.1228 8.08061C67.3548 8.87177 66.6364 9.70956 65.9717 10.5892C65.8806 10.7211 65.8441 10.883 65.8696 11.0413C65.8951 11.1995 65.9807 11.3417 66.1085 11.4384C66.2364 11.535 66.3966 11.5786 66.5557 11.5599C66.7149 11.5413 66.8608 11.462 66.9628 11.3385C67.5961 10.499 68.2811 9.69979 69.0137 8.94552C69.0415 8.91624 69.0668 8.88466 69.0892 8.85112ZM63.7603 16.8843C63.7804 16.8536 63.7978 16.8212 63.8122 16.7875C64.17 15.9457 64.5726 15.1237 65.0182 14.3249C65.0855 14.2069 65.1527 14.0889 65.2212 13.9709C65.262 13.9004 65.2886 13.8224 65.2993 13.7416C65.31 13.6608 65.3047 13.5786 65.2837 13.4998C65.2627 13.421 65.2263 13.3471 65.1767 13.2824C65.1271 13.2177 65.0652 13.1634 64.9946 13.1226C64.9243 13.0807 64.8464 13.0533 64.7654 13.042C64.6844 13.0306 64.602 13.0356 64.5229 13.0566C64.4439 13.0776 64.3698 13.1142 64.3051 13.1642C64.2404 13.2143 64.1864 13.2767 64.1462 13.3479C64.0742 13.473 64.0022 13.5993 63.9314 13.7267C63.4653 14.5636 63.0439 15.4246 62.6688 16.3061C62.6076 16.449 62.6023 16.6097 62.6539 16.7563C62.7055 16.9029 62.8103 17.0249 62.9475 17.098C63.0847 17.1711 63.2443 17.1901 63.3948 17.1512C63.5453 17.1122 63.6758 17.0183 63.7603 16.8878V16.8843Z" fill="#91B3FA"/>
</g>
<g opacity="0.3">
<path d="M109.624 41.7165C109.715 41.5791 109.747 41.4113 109.714 41.25C109.681 41.0887 109.585 40.9471 109.448 40.8563C109.311 40.7656 109.143 40.7331 108.981 40.7661C108.82 40.799 108.678 40.8947 108.588 41.0321C108.012 41.8906 107.385 42.7138 106.71 43.497C106.657 43.559 106.616 43.6309 106.591 43.7086C106.565 43.7862 106.555 43.8682 106.562 43.9497C106.568 44.0312 106.59 44.1107 106.627 44.1837C106.664 44.2566 106.714 44.3216 106.776 44.3749C106.838 44.4282 106.91 44.4688 106.988 44.4943C107.066 44.5199 107.148 44.5298 107.229 44.5237C107.311 44.5176 107.39 44.4954 107.463 44.4586C107.536 44.4217 107.601 44.3708 107.654 44.3089C108.361 43.487 109.019 42.6237 109.623 41.7236L109.624 41.7165ZM111.231 38.9766C111.243 38.9576 111.254 38.9379 111.264 38.9176C111.756 37.9512 112.19 36.9559 112.562 35.9371C112.59 35.8605 112.603 35.7792 112.599 35.6978C112.596 35.6163 112.577 35.5363 112.542 35.4623C112.508 35.3884 112.459 35.3219 112.399 35.2667C112.339 35.2115 112.269 35.1686 112.193 35.1406C112.116 35.1126 112.035 35.0999 111.953 35.1032C111.872 35.1066 111.792 35.126 111.718 35.1603C111.644 35.1946 111.577 35.2431 111.522 35.3031C111.467 35.3631 111.424 35.4334 111.396 35.5099C111.039 36.4805 110.624 37.4289 110.154 38.3501C110.081 38.4917 110.065 38.6559 110.11 38.8088C110.154 38.9617 110.256 39.0916 110.394 39.1715C110.532 39.2514 110.695 39.2752 110.85 39.2381C111.005 39.2009 111.14 39.1056 111.226 38.9719L111.231 38.9766ZM105.483 46.5166C105.566 46.3902 105.599 46.2381 105.578 46.0887C105.556 45.9393 105.481 45.8029 105.366 45.705C105.251 45.6071 105.105 45.5543 104.954 45.5567C104.803 45.559 104.658 45.6163 104.546 45.7177C103.78 46.4116 102.973 47.059 102.13 47.6564C102.059 47.702 101.999 47.7613 101.953 47.8308C101.906 47.9003 101.874 47.9784 101.858 48.0606C101.842 48.1428 101.843 48.2273 101.861 48.3091C101.879 48.3909 101.913 48.4683 101.961 48.5366C102.009 48.6049 102.071 48.6628 102.142 48.7067C102.213 48.7507 102.293 48.7798 102.375 48.7924C102.458 48.805 102.542 48.8007 102.624 48.7799C102.705 48.759 102.781 48.7221 102.847 48.6712C103.732 48.0446 104.579 47.3653 105.383 46.6369C105.421 46.6014 105.455 46.561 105.483 46.5166ZM113.405 33.0167C113.444 32.9561 113.473 32.889 113.489 32.8185C113.734 31.761 113.915 30.6896 114.029 29.6102C114.043 29.4479 113.994 29.2863 113.89 29.1604C113.787 29.0345 113.638 28.9543 113.476 28.9371C113.314 28.9199 113.152 28.9671 113.024 29.0685C112.897 29.1699 112.814 29.3174 112.794 29.4792C112.685 30.5081 112.513 31.5295 112.28 32.5376C112.247 32.6797 112.265 32.8288 112.331 32.9588C112.397 33.0888 112.507 33.1914 112.641 33.2486C112.776 33.3057 112.926 33.3138 113.065 33.2714C113.205 33.229 113.325 33.1388 113.405 33.0167ZM100.306 50.1721C100.382 50.0565 100.417 49.919 100.406 49.7814C100.395 49.6437 100.338 49.5138 100.244 49.4121C100.151 49.3104 100.026 49.2427 99.8899 49.2199C99.7537 49.197 99.6137 49.2203 99.4922 49.2859C98.5814 49.7754 97.6415 50.2089 96.6779 50.5839C96.5987 50.6111 96.5257 50.6541 96.4635 50.7103C96.4013 50.7664 96.3511 50.8345 96.3158 50.9106C96.2806 50.9866 96.2611 51.069 96.2586 51.1528C96.256 51.2366 96.2704 51.32 96.3009 51.398C96.3313 51.4761 96.3773 51.5472 96.4359 51.6071C96.4946 51.6669 96.5647 51.7143 96.6422 51.7464C96.7196 51.7785 96.8027 51.7946 96.8865 51.7937C96.9703 51.7928 97.0531 51.775 97.1298 51.7414C98.1395 51.346 99.1246 50.8905 100.08 50.3774C100.171 50.3289 100.248 50.2583 100.305 50.1721H100.306ZM94.4064 52.48C94.4761 52.3752 94.5124 52.2517 94.5102 52.1258C94.5081 51.9999 94.4678 51.8777 94.3945 51.7753C94.3213 51.6728 94.2187 51.5951 94.1002 51.5524C93.9818 51.5097 93.8532 51.504 93.7314 51.5361C92.7294 51.7936 91.7127 51.9906 90.687 52.1261C90.6056 52.136 90.5271 52.162 90.4558 52.2025C90.3845 52.243 90.322 52.2972 90.2718 52.362C90.2216 52.4268 90.1847 52.5009 90.1633 52.58C90.1419 52.6591 90.1363 52.7417 90.147 52.823C90.1577 52.9042 90.1844 52.9826 90.2255 53.0535C90.2666 53.1244 90.3214 53.1864 90.3866 53.2361C90.4518 53.2857 90.5262 53.3219 90.6056 53.3426C90.6849 53.3633 90.7675 53.3681 90.8487 53.3568C91.922 53.217 92.9859 53.0129 94.0347 52.7455C94.1858 52.7064 94.3164 52.6115 94.4005 52.48H94.4064ZM88.1181 53.306C88.1855 53.2039 88.2205 53.0838 88.2184 52.9615C88.2178 52.8799 88.2011 52.7992 88.1693 52.724C88.1374 52.6489 88.0911 52.5808 88.0329 52.5236C87.9747 52.4663 87.9058 52.4212 87.8301 52.3906C87.7544 52.3601 87.6735 52.3448 87.5919 52.3455C86.5571 52.3571 85.5226 52.3047 84.4943 52.1886C84.3307 52.1703 84.1664 52.2178 84.0377 52.3205C83.909 52.4233 83.8265 52.573 83.8082 52.7367C83.7899 52.9004 83.8373 53.0646 83.9401 53.1933C84.0429 53.322 84.1926 53.4045 84.3563 53.4228C85.4348 53.5435 86.5196 53.5986 87.6048 53.588C87.7059 53.5863 87.805 53.5597 87.8935 53.5108C87.982 53.4618 88.0571 53.3919 88.1122 53.3072L88.1181 53.306Z" fill="#91B3FA"/>
<path d="M114.074 26.6813C114.142 26.5762 114.177 26.4527 114.174 26.3273C114.165 25.7952 114.14 25.2654 114.1 24.7415C114.094 24.6602 114.071 24.5809 114.035 24.5082C113.998 24.4355 113.947 24.3707 113.885 24.3177C113.823 24.2646 113.752 24.2242 113.674 24.1988C113.597 24.1734 113.515 24.1636 113.434 24.1698C113.352 24.176 113.273 24.1981 113.2 24.2349C113.128 24.2718 113.063 24.3226 113.01 24.3844C112.957 24.4463 112.916 24.518 112.891 24.5954C112.866 24.6729 112.856 24.7546 112.862 24.8359C112.9 25.3326 112.923 25.8412 112.933 26.3486C112.935 26.4815 112.98 26.6102 113.061 26.7158C113.141 26.8214 113.254 26.8982 113.382 26.9349C113.51 26.9717 113.646 26.9664 113.77 26.9199C113.895 26.8734 114.001 26.7881 114.074 26.6766V26.6813Z" fill="#91B3FA"/>
</g>
<path d="M107.072 22.7342C107.093 22.7973 107.094 22.8657 107.074 22.9293C107.054 22.993 107.014 23.0486 106.961 23.0882L103.893 25.3761C104.036 27.1822 103.884 28.9995 103.443 30.7567L106.083 33.5119C106.128 33.5592 106.157 33.6194 106.167 33.6841C106.176 33.7489 106.165 33.8149 106.135 33.873L104.03 37.9521C104 38.0103 103.952 38.0576 103.894 38.0875C103.836 38.1173 103.77 38.1282 103.705 38.1185L99.9207 37.5686C98.7427 38.9466 97.3477 40.1231 95.7907 41.0518L95.7022 44.8772C95.7007 44.9426 95.6789 45.006 95.6398 45.0584C95.6007 45.1108 95.5462 45.1498 95.4839 45.1699L91.1108 46.5646C91.0479 46.5839 90.9805 46.5829 90.9182 46.5617C90.856 46.5405 90.802 46.5002 90.7639 46.4466L88.4759 43.3787C86.6693 43.5224 84.8513 43.3701 83.0938 42.928L80.3279 45.5687C80.2807 45.614 80.2205 45.6435 80.1557 45.6528C80.0909 45.6621 80.0249 45.6508 79.9668 45.6206L75.8887 43.5156C75.8306 43.4856 75.7831 43.4382 75.7531 43.3801C75.7231 43.3219 75.7119 43.2559 75.7211 43.1911L76.2722 39.407C74.8935 38.2293 73.7165 36.8343 72.7877 35.2771L68.9621 35.1886C68.8968 35.1871 68.8337 35.1652 68.7815 35.1261C68.7292 35.0869 68.6905 35.0325 68.6706 34.9703L67.2747 30.5974C67.2551 30.5351 67.2553 30.4683 67.2754 30.4061C67.2955 30.344 67.3344 30.2896 67.3868 30.2505L70.4548 27.9626C70.3117 26.1561 70.464 24.3383 70.9055 22.5808L68.2635 19.8303C68.2185 19.783 68.1893 19.7228 68.18 19.6581C68.1707 19.5934 68.1817 19.5274 68.2116 19.4693L70.3167 15.3902C70.3471 15.3321 70.3947 15.2849 70.4531 15.2551C70.5114 15.2253 70.5776 15.2144 70.6424 15.2238L74.4255 15.7748C75.6032 14.3962 76.9982 13.2192 78.5555 12.2904L78.6476 8.465C78.6492 8.39961 78.6712 8.33637 78.7106 8.28411C78.75 8.23186 78.8047 8.1932 78.8671 8.17355L83.239 6.77766C83.302 6.75861 83.3695 6.75974 83.4319 6.7809C83.4943 6.80205 83.5486 6.84218 83.5871 6.89566L85.8751 9.96354C87.6813 9.82053 89.4987 9.97278 91.2559 10.4143L94.0219 7.77355C94.0695 7.72856 94.1299 7.69942 94.1948 7.69013C94.2596 7.68083 94.3258 7.69184 94.3841 7.72163L98.4623 9.82667C98.5194 9.85695 98.5657 9.90418 98.5948 9.96187C98.624 10.0196 98.6346 10.0849 98.6251 10.1488L98.0752 13.9329C99.4532 15.1109 100.63 16.5059 101.559 18.0628L105.384 18.1513C105.45 18.1528 105.513 18.1748 105.566 18.2142C105.618 18.2535 105.657 18.3082 105.677 18.3707L107.072 22.7342Z" fill="#006BFF"/>
<path d="M91.1155 29.2298C91.7795 28.2089 92.0219 26.9703 91.7915 25.7743C91.5612 24.5784 90.8762 23.5184 89.8805 22.817C88.8847 22.1157 87.6558 21.8277 86.4522 22.0137C85.2485 22.1996 84.1638 22.8449 83.4261 23.814C82.6884 24.7831 82.3552 26.0004 82.4965 27.2101C82.6378 28.4198 83.2426 29.5276 84.1838 30.3005C85.125 31.0735 86.3292 31.4515 87.5434 31.3551C88.7575 31.2586 89.8869 30.6952 90.6942 29.7832C90.8477 29.6091 90.9885 29.4242 91.1155 29.2298ZM84.2797 24.7897C84.3721 24.6476 84.4747 24.5123 84.5865 24.3849C84.8866 24.0434 85.2511 23.7645 85.6592 23.5642C86.0673 23.3638 86.5109 23.246 86.9646 23.2174C87.4183 23.1888 87.8732 23.2501 88.3032 23.3976C88.7333 23.5452 89.1299 23.7761 89.4705 24.0772C89.8111 24.3784 90.0889 24.7437 90.288 25.1524C90.4871 25.5611 90.6036 26.0051 90.6308 26.4589C90.6579 26.9127 90.5953 27.3674 90.4464 27.7969C90.2975 28.2264 90.0654 28.6224 89.7632 28.962C89.1848 29.6136 88.3816 30.0226 87.5145 30.1072C86.6473 30.1917 85.7803 29.9456 85.0869 29.418C84.3936 28.8905 83.9251 28.1204 83.7754 27.2622C83.6257 26.4039 83.8058 25.5208 84.2797 24.7897Z" fill="#CCE2FF"/>
<path d="M96.8752 33.0888C97.0884 32.7592 97.2879 32.4166 97.4735 32.061C97.8384 31.3532 98.1309 30.6104 98.3467 29.8439L98.375 29.74C98.4092 29.6135 98.4024 29.4794 98.3558 29.357C98.3092 29.2345 98.2251 29.1299 98.1154 29.058C98.0604 29.0227 98.0003 28.9961 97.9373 28.979C97.7783 28.9364 97.6089 28.9585 97.4662 29.0406C97.3236 29.1226 97.2193 29.2579 97.1762 29.4167C96.9813 30.1346 96.7111 30.83 96.3702 31.4911C96.3525 31.5277 96.3324 31.5631 96.3136 31.5997C95.5057 33.1333 94.3258 34.4397 92.8821 35.3991C92.0963 35.9197 91.2442 36.3324 90.3486 36.6263L90.3274 36.6333L90.259 36.6546C88.9516 37.0757 87.5738 37.2333 86.2051 37.1183C84.8365 37.0032 83.5043 36.6178 82.2856 35.9844C81.9667 35.8202 81.6563 35.6399 81.3558 35.4439C79.1146 33.9762 77.5223 31.7041 76.9077 29.0965C76.2931 26.489 76.7031 23.745 78.0529 21.4309C79.4027 19.1168 81.5895 17.4092 84.1618 16.6604C86.7341 15.9117 89.4958 16.179 91.8767 17.4072C92.1915 17.5694 92.4979 17.7474 92.7948 17.9405C94.0776 18.776 95.1606 19.8839 95.9666 21.1854C96.0534 21.3255 96.1922 21.4255 96.3526 21.4633C96.5131 21.5011 96.6819 21.4737 96.8222 21.3871C96.9618 21.3 97.0614 21.1611 97.0989 21.0008C97.1365 20.8405 97.1091 20.6718 97.0227 20.5317C96.1204 19.0757 94.9085 17.8361 93.4733 16.901C90.8757 15.204 87.7105 14.6084 84.6738 15.2452C83.1701 15.5604 81.7433 16.1688 80.4748 17.0355C79.2063 17.9021 78.1209 19.0102 77.2806 20.2963C76.4404 21.5824 75.8616 23.0214 75.5775 24.5312C75.2934 26.0409 75.3095 27.5919 75.6248 29.0954C75.9401 30.599 76.5484 32.0257 77.4151 33.2942C78.2819 34.5626 79.3899 35.648 80.6761 36.4882C81.0104 36.7053 81.357 36.9071 81.7157 37.0935C84.2907 38.4176 87.2649 38.741 90.0644 38.0015C92.8638 37.2619 95.2902 35.5118 96.8752 33.0888Z" fill="#CCE2FF"/>
<defs>
<linearGradient id="paint0_linear_216_1668" x1="251.311" y1="133.782" x2="237.012" y2="177.612" gradientUnits="userSpaceOnUse">
<stop stop-color="#FEBBBA"/>
<stop offset="1" stop-color="#FF928E"/>
</linearGradient>
<linearGradient id="paint1_linear_216_1668" x1="248.284" y1="289.532" x2="278.415" y2="289.532" gradientUnits="userSpaceOnUse">
<stop stop-color="#FEBBBA"/>
<stop offset="1" stop-color="#FF928E"/>
</linearGradient>
<linearGradient id="paint2_linear_216_1668" x1="230.001" y1="291.773" x2="247.449" y2="291.773" gradientUnits="userSpaceOnUse">
<stop stop-color="#FEBBBA"/>
<stop offset="1" stop-color="#FF928E"/>
</linearGradient>
<linearGradient id="paint3_linear_216_1668" x1="192.416" y1="160.874" x2="226.573" y2="160.874" gradientUnits="userSpaceOnUse">
<stop stop-color="#FEBBBA"/>
<stop offset="1" stop-color="#FF928E"/>
</linearGradient>
<linearGradient id="paint4_linear_216_1668" x1="235.291" y1="177.642" x2="245.968" y2="177.642" gradientUnits="userSpaceOnUse">
<stop stop-color="#FEBBBA"/>
<stop offset="1" stop-color="#FF928E"/>
</linearGradient>
<linearGradient id="paint5_linear_216_1668" x1="252.259" y1="163.845" x2="329.975" y2="169.131" gradientUnits="userSpaceOnUse">
<stop stop-color="#FEBBBA"/>
<stop offset="1" stop-color="#FF928E"/>
</linearGradient>
</defs>
</svg>
