<svg width="24" height="24" viewBox="0 0 24 24" fill="none" xmlns="http://www.w3.org/2000/svg">
<path d="M22.9911 3.95C22.9911 3.7735 22.9443 3.60015 22.8556 3.44756C22.7669 3.29497 22.6394 3.16858 22.486 3.08123C22.3326 2.99388 22.1589 2.94867 21.9824 2.95022C21.8059 2.95176 21.6329 2.99999 21.4811 3.09C20.8955 3.43881 20.265 3.70595 19.6071 3.884C18.6681 3.07828 17.4704 2.63741 16.2331 2.642C14.8758 2.64363 13.5723 3.17264 12.5978 4.11732C11.6232 5.06201 11.054 6.34845 11.0101 7.705C8.33391 7.27833 5.90839 5.88153 4.19611 3.781C4.09294 3.65597 3.96124 3.55756 3.8121 3.49404C3.66297 3.43052 3.50075 3.40376 3.33911 3.416C3.17751 3.42938 3.02159 3.48189 2.88483 3.569C2.74806 3.65611 2.63455 3.77521 2.55411 3.916C2.14163 4.6359 1.90475 5.44293 1.8627 6.27156C1.82066 7.10019 1.97463 7.92705 2.31211 8.685L2.31011 8.686C2.1581 8.77941 2.03264 8.91032 1.94579 9.06617C1.85893 9.22202 1.81359 9.39758 1.81411 9.576C1.81251 9.7228 1.82153 9.86951 1.84111 10.015C1.94324 11.2731 2.50075 12.4507 3.40911 13.327C3.34747 13.4445 3.30989 13.5731 3.29855 13.7054C3.28722 13.8376 3.30237 13.9707 3.34311 14.097C3.73909 15.3312 4.58137 16.3731 5.70511 17.019C4.56328 17.4604 3.33041 17.6143 2.11511 17.467C1.89028 17.439 1.66262 17.4883 1.46942 17.6066C1.27622 17.7249 1.12892 17.9053 1.05165 18.1183C0.974385 18.3313 0.971729 18.5642 1.04412 18.7789C1.11651 18.9936 1.25966 19.1773 1.45011 19.3C3.54032 20.646 5.97399 21.3616 8.46011 21.361C11.2794 21.3927 14.0301 20.4919 16.2844 18.7986C18.5387 17.1053 20.1702 14.7145 20.9251 11.998C21.2781 10.8148 21.4583 9.58676 21.4601 8.352L21.4591 8.152C21.9813 7.58881 22.3857 6.92703 22.6488 6.20548C22.9119 5.48393 23.0283 4.71712 22.9911 3.95ZM19.6851 7.162C19.5198 7.35722 19.436 7.60862 19.4511 7.864C19.4611 8.029 19.4601 8.195 19.4601 8.352C19.458 9.39518 19.3051 10.4326 19.0061 11.432C18.3898 13.7436 17.0155 15.7815 15.1034 17.2193C13.1913 18.6571 10.852 19.4116 8.46011 19.362C7.60124 19.3621 6.74535 19.2611 5.91011 19.061C6.97542 18.7174 7.97147 18.1879 8.85211 17.497C9.0145 17.3693 9.13337 17.1945 9.19238 16.9965C9.25139 16.7986 9.24765 16.5872 9.18167 16.3915C9.11569 16.1957 8.99071 16.0252 8.8239 15.9034C8.6571 15.7815 8.45665 15.7143 8.25011 15.711C7.41884 15.698 6.62507 15.3628 6.03611 14.776C6.18545 14.748 6.33378 14.713 6.48111 14.671C6.69714 14.6096 6.8862 14.4773 7.01785 14.2953C7.1495 14.1133 7.21606 13.8924 7.20682 13.668C7.19758 13.4436 7.11308 13.2288 6.96692 13.0583C6.82076 12.8878 6.62145 12.7714 6.40111 12.728C5.9186 12.6327 5.46458 12.4274 5.07434 12.128C4.68411 11.8287 4.36817 11.4433 4.15111 11.002C4.33187 11.0267 4.51377 11.0421 4.69611 11.048C4.91279 11.0516 5.12498 10.986 5.30191 10.8609C5.47883 10.7357 5.6113 10.5575 5.68011 10.352C5.74616 10.1448 5.74285 9.92165 5.67066 9.71647C5.59848 9.51129 5.46137 9.33524 5.28011 9.215C4.84005 8.92207 4.47952 8.52455 4.23082 8.05805C3.98213 7.59155 3.85304 7.07065 3.85511 6.542C3.85511 6.476 3.85711 6.409 3.86111 6.344C6.10258 8.43463 9.01003 9.66703 12.0711 9.824C12.2257 9.82987 12.3795 9.80051 12.5211 9.73814C12.6626 9.67577 12.7881 9.58203 12.8881 9.464C12.9871 9.34525 13.0573 9.20515 13.093 9.05472C13.1288 8.90428 13.1291 8.74761 13.0941 8.597C13.0369 8.35821 13.0077 8.11356 13.0071 7.868C13.0082 7.01274 13.3484 6.19281 13.9532 5.58805C14.5579 4.98328 15.3778 4.64306 16.2331 4.642C16.6733 4.6407 17.1089 4.73067 17.5125 4.90624C17.9161 5.0818 18.279 5.33914 18.5781 5.662C18.6935 5.78613 18.8386 5.87867 18.9998 5.93083C19.1611 5.98299 19.3329 5.99303 19.4991 5.96C19.9099 5.88015 20.3148 5.77257 20.7111 5.638C20.4409 6.19083 20.0957 6.70367 19.6851 7.162Z" fill="#006BFF"/>
</svg>
