<svg width="20" height="20" viewBox="0 0 20 20" fill="none" xmlns="http://www.w3.org/2000/svg">
<path d="M12.478 12.8829C11.7262 12.9563 10.9688 12.8184 10.291 12.4849C10.1374 12.3622 10.0106 12.2092 9.91843 12.0355C9.82624 11.8618 9.77063 11.671 9.75505 11.4749C9.75479 11.4456 9.74872 11.4166 9.7372 11.3897C9.72567 11.3627 9.70892 11.3383 9.68791 11.3178C9.6669 11.2974 9.64204 11.2813 9.61477 11.2705C9.5875 11.2597 9.55837 11.2544 9.52905 11.2549C9.21239 11.2517 8.89571 11.2517 8.57905 11.2549C8.52382 11.2493 8.4686 11.2657 8.42536 11.3005C8.38212 11.3353 8.35434 11.3858 8.34805 11.4409C8.3301 11.7848 8.38829 12.1283 8.51845 12.4471C8.64862 12.7659 8.84755 13.0519 9.10105 13.2849C9.74106 13.7848 10.5183 14.0775 11.329 14.1239C12.1738 14.2218 13.0287 14.1853 13.862 14.0159C14.5019 13.8966 15.0885 13.5806 15.54 13.1119C15.7898 12.8041 15.9571 12.4379 16.0264 12.0476C16.0956 11.6574 16.0646 11.2559 15.936 10.8809C15.8283 10.6166 15.6614 10.3805 15.4481 10.1907C15.2349 10.0009 14.9811 9.86241 14.706 9.78594C13.426 9.33595 12.042 9.37094 10.736 9.02894C10.509 8.95895 10.232 8.88094 10.131 8.64094C10.0726 8.47205 10.0686 8.2891 10.1196 8.1178C10.1705 7.94651 10.2738 7.79548 10.415 7.68594C10.8254 7.45138 11.2926 7.33508 11.765 7.34994C12.4052 7.28994 13.0505 7.38247 13.648 7.61994C13.8277 7.72555 13.9822 7.86898 14.1008 8.04028C14.2194 8.21159 14.2994 8.40665 14.335 8.61195C14.3367 8.67266 14.361 8.73056 14.4032 8.77424C14.4454 8.81792 14.5024 8.84422 14.563 8.84794C14.877 8.85394 15.191 8.84894 15.506 8.84995C15.5605 8.85635 15.6155 8.84289 15.6609 8.81203C15.7063 8.78117 15.739 8.73498 15.753 8.68194C15.7558 8.25793 15.6477 7.84055 15.4395 7.47116C15.2313 7.10177 14.9302 6.79317 14.566 6.57594C13.5612 6.11202 12.4457 5.94114 11.348 6.08294C10.5438 6.11608 9.77538 6.42506 9.17205 6.95794C8.89522 7.25656 8.70778 7.62689 8.63105 8.02678C8.55433 8.42668 8.5914 8.84008 8.73805 9.21994C8.85225 9.47447 9.02028 9.70122 9.23055 9.88456C9.44082 10.0679 9.68834 10.2035 9.95605 10.2819C11.233 10.7429 12.632 10.5949 13.92 11.0029C14.172 11.0879 14.464 11.2189 14.541 11.4979C14.5824 11.6655 14.5792 11.8409 14.5319 12.0069C14.4845 12.1728 14.3946 12.3235 14.271 12.4439C13.7352 12.777 13.1072 12.9308 12.478 12.8829ZM18.2971 4.43794C15.805 3.02861 13.312 1.62028 10.818 0.212944C10.5679 0.0730733 10.2861 -0.000366211 9.99955 -0.000366211C9.71297 -0.000366211 9.43117 0.0730733 9.18105 0.212944L1.73005 4.42094C1.48833 4.55246 1.28621 4.74626 1.14466 4.98224C1.0031 5.21822 0.927279 5.48777 0.925049 5.76294V14.2379C0.92914 14.5182 1.00901 14.7922 1.1562 15.0307C1.30338 15.2693 1.51239 15.4636 1.76105 15.5929C2.47405 15.9809 3.16705 16.4089 3.89405 16.7719C4.31333 16.996 4.77899 17.1194 5.2542 17.1324C5.72941 17.1454 6.20113 17.0477 6.63205 16.8469C6.95457 16.645 7.21701 16.3603 7.39202 16.0224C7.56703 15.6845 7.64819 15.3059 7.62705 14.9259C7.63205 12.1289 7.62705 9.33194 7.62905 6.53594C7.63402 6.50533 7.63245 6.47401 7.62446 6.44404C7.61648 6.41407 7.60224 6.38613 7.5827 6.36205C7.56315 6.33797 7.53873 6.3183 7.51104 6.30432C7.48336 6.29034 7.45303 6.28238 7.42205 6.28094C7.10439 6.2773 6.7867 6.2773 6.46905 6.28094C6.43974 6.27842 6.41023 6.28208 6.38243 6.29168C6.35463 6.30129 6.32915 6.31663 6.30766 6.33671C6.28616 6.3568 6.26912 6.38117 6.25765 6.40825C6.24618 6.43534 6.24052 6.46453 6.24105 6.49394C6.23705 9.27294 6.24205 12.0519 6.23905 14.8319C6.23963 15.0238 6.18149 15.2112 6.07245 15.3691C5.96341 15.5269 5.80868 15.6476 5.62905 15.7149C5.42232 15.7761 5.20501 15.7929 4.99133 15.7643C4.77766 15.7357 4.57242 15.6623 4.38905 15.5489L2.40705 14.4289C2.36322 14.4083 2.32678 14.3747 2.30264 14.3326C2.27851 14.2906 2.26783 14.2422 2.27205 14.1939V5.80694C2.26751 5.7526 2.28025 5.6982 2.30844 5.65152C2.33663 5.60483 2.37884 5.56823 2.42905 5.54694C4.90438 4.15228 7.37938 2.75661 9.85405 1.35994C9.89702 1.33045 9.94792 1.31466 10 1.31466C10.0522 1.31466 10.1031 1.33045 10.146 1.35994L17.5721 5.54594C17.6218 5.56776 17.6635 5.6045 17.6915 5.65108C17.7194 5.69767 17.7322 5.75178 17.7281 5.80594V14.1939C17.7323 14.2425 17.7217 14.2912 17.6978 14.3337C17.6739 14.3761 17.6378 14.4104 17.594 14.4319C15.1567 15.8106 12.7177 17.1873 10.277 18.5619C10.161 18.6259 10.023 18.7309 9.88705 18.6519C9.24705 18.2899 8.61705 17.9139 7.97905 17.5489C7.94647 17.524 7.90717 17.5093 7.86619 17.5068C7.82521 17.5043 7.78442 17.5141 7.74905 17.5349C7.46853 17.6995 7.17324 17.8374 6.86705 17.9469C6.72905 18.0029 6.55905 18.0189 6.46405 18.1469C6.58546 18.2786 6.73246 18.3841 6.89605 18.4569L9.13205 19.7499C9.37866 19.9047 9.66223 19.9906 9.95327 19.9987C10.2443 20.0068 10.5322 19.9368 10.787 19.7959C13.271 18.3959 15.755 16.9946 18.239 15.5919C18.4874 15.4624 18.6961 15.2682 18.8432 15.0299C18.9904 14.7916 19.0705 14.518 19.0751 14.2379V5.76294C19.0727 5.49331 18.9996 5.22901 18.8631 4.99648C18.7266 4.76396 18.5314 4.57136 18.2971 4.43794Z" fill="#006BFF"/>
</svg>
