<svg width="24" height="24" viewBox="0 0 24 24" fill="none" xmlns="http://www.w3.org/2000/svg">
<path d="M9.5998 4.00005H11.1998M7.1998 6.40005V2.40005C7.1998 1.9757 7.36838 1.56874 7.66843 1.26868C7.96849 0.96862 8.37546 0.800049 8.7998 0.800049H15.1998C15.6242 0.800049 16.0311 0.96862 16.3312 1.26868C16.6312 1.56874 16.7998 1.9757 16.7998 2.40005V10.4C16.7998 10.8244 16.6312 11.2314 16.3312 11.5314C16.0311 11.8315 15.6242 12 15.1998 12H8.7998C8.37546 12 7.96849 12.1686 7.66843 12.4687C7.36838 12.7687 7.1998 13.1757 7.1998 13.6V21.6C7.1998 22.0244 7.36838 22.4314 7.66843 22.7314C7.96849 23.0315 8.37546 23.2 8.7998 23.2H15.1998C15.6242 23.2 16.0311 23.0315 16.3312 22.7314C16.6312 22.4314 16.7998 22.0244 16.7998 21.6V17.6M12.7998 7.20005H2.3998C1.97546 7.20005 1.56849 7.36862 1.26843 7.66868C0.968376 7.96874 0.799805 8.3757 0.799805 8.80005V16.8C0.799805 17.2244 0.968376 17.6314 1.26843 17.9314C1.56849 18.2315 1.97546 18.4 2.3998 18.4H7.1998M11.1998 16.8H21.5998C22.0242 16.8 22.4311 16.6315 22.7312 16.3314C23.0312 16.0314 23.1998 15.6244 23.1998 15.2V7.20005C23.1998 6.7757 23.0312 6.36874 22.7312 6.06868C22.4311 5.76862 22.0242 5.60005 21.5998 5.60005H16.7998M12.7998 20H14.3998" stroke="#006BFF" stroke-width="1.6"/>
</svg>
