<svg width="20" height="20" viewBox="0 0 20 20" fill="none" xmlns="http://www.w3.org/2000/svg">
<path d="M19.65 0.240028C19.541 0.146484 19.4131 0.0775211 19.2751 0.0378322C19.137 -0.00185671 18.992 -0.0113399 18.85 0.0100283L5.85 2.01003C5.61326 2.04595 5.39727 2.16562 5.24129 2.34729C5.0853 2.52897 4.99969 2.76058 5 3.00003V13.35C4.53277 13.1218 4.01999 13.0022 3.5 13C2.80777 13 2.13108 13.2053 1.55551 13.5899C0.979934 13.9745 0.53133 14.5211 0.266423 15.1606C0.00151649 15.8002 -0.0677952 16.5039 0.0672531 17.1828C0.202301 17.8618 0.535644 18.4854 1.02513 18.9749C1.51461 19.4644 2.13825 19.7977 2.81719 19.9328C3.49612 20.0678 4.19985 19.9985 4.83939 19.7336C5.47894 19.4687 6.02556 19.0201 6.41015 18.4445C6.79473 17.869 7 17.1923 7 16.5V8.86003L18 7.17003V11.35C17.5328 11.1218 17.02 11.0022 16.5 11C15.8078 11 15.1311 11.2053 14.5555 11.5899C13.9799 11.9745 13.5313 12.5211 13.2664 13.1606C13.0015 13.8002 12.9322 14.5039 13.0673 15.1828C13.2023 15.8618 13.5356 16.4854 14.0251 16.9749C14.5146 17.4644 15.1383 17.7977 15.8172 17.9328C16.4961 18.0678 17.1999 17.9985 17.8394 17.7336C18.4789 17.4687 19.0256 17.0201 19.4101 16.4445C19.7947 15.869 20 15.1923 20 14.5V1.00003C20 0.855588 19.9687 0.712859 19.9083 0.581662C19.8479 0.450466 19.7598 0.333915 19.65 0.240028ZM3.5 18C3.20333 18 2.91332 17.9121 2.66665 17.7472C2.41997 17.5824 2.22771 17.3481 2.11418 17.0741C2.00065 16.8 1.97095 16.4984 2.02882 16.2074C2.0867 15.9164 2.22956 15.6491 2.43934 15.4394C2.64912 15.2296 2.91639 15.0867 3.20737 15.0289C3.49834 14.971 3.79994 15.0007 4.07403 15.1142C4.34812 15.2277 4.58238 15.42 4.74721 15.6667C4.91203 15.9133 5 16.2034 5 16.5C5 16.8979 4.84197 17.2794 4.56066 17.5607C4.27936 17.842 3.89783 18 3.5 18ZM16.5 16C16.2033 16 15.9133 15.9121 15.6666 15.7472C15.42 15.5824 15.2277 15.3481 15.1142 15.0741C15.0007 14.8 14.9709 14.4984 15.0288 14.2074C15.0867 13.9164 15.2296 13.6491 15.4393 13.4394C15.6491 13.2296 15.9164 13.0867 16.2074 13.0289C16.4983 12.971 16.7999 13.0007 17.074 13.1142C17.3481 13.2277 17.5824 13.42 17.7472 13.6667C17.912 13.9133 18 14.2034 18 14.5C18 14.8979 17.842 15.2794 17.5607 15.5607C17.2794 15.842 16.8978 16 16.5 16ZM18 5.14003L7 6.83003V3.83003L18 2.17003V5.14003Z" fill="#006BFF"/>
</svg>
