<svg width="20" height="10" viewBox="0 0 20 10" fill="none" xmlns="http://www.w3.org/2000/svg">
<path d="M7.5 0H1.5C1.23478 0 0.98043 0.105357 0.792893 0.292893C0.605357 0.48043 0.5 0.734784 0.5 1C0.5 1.26522 0.605357 1.51957 0.792893 1.70711C0.98043 1.89464 1.23478 2 1.5 2H3.5V9C3.5 9.26522 3.60536 9.51957 3.79289 9.70711C3.98043 9.89464 4.23478 10 4.5 10C4.76522 10 5.01957 9.89464 5.20711 9.70711C5.39464 9.51957 5.5 9.26522 5.5 9V2H7.5C7.76522 2 8.01957 1.89464 8.20711 1.70711C8.39464 1.51957 8.5 1.26522 8.5 1C8.5 0.734784 8.39464 0.48043 8.20711 0.292893C8.01957 0.105357 7.76522 0 7.5 0ZM19.42 0.62C19.3185 0.375651 19.1243 0.181475 18.88 0.0799999C18.6365 -0.0200181 18.3635 -0.0200181 18.12 0.0799999C17.9972 0.127594 17.8851 0.198959 17.79 0.29L15 3.09L12.21 0.29C12.1149 0.198959 12.0028 0.127594 11.88 0.0799999C11.6365 -0.0200181 11.3635 -0.0200181 11.12 0.0799999C10.8757 0.181475 10.6815 0.375651 10.58 0.62C10.5288 0.740222 10.5016 0.869323 10.5 1V9C10.5 9.26522 10.6054 9.51957 10.7929 9.70711C10.9804 9.89464 11.2348 10 11.5 10C11.7652 10 12.0196 9.89464 12.2071 9.70711C12.3946 9.51957 12.5 9.26522 12.5 9V3.41L14.29 5.21C14.383 5.30373 14.4936 5.37812 14.6154 5.42889C14.7373 5.47966 14.868 5.5058 15 5.5058C15.132 5.5058 15.2627 5.47966 15.3846 5.42889C15.5064 5.37812 15.617 5.30373 15.71 5.21L17.5 3.41V9C17.5 9.26522 17.6054 9.51957 17.7929 9.70711C17.9804 9.89464 18.2348 10 18.5 10C18.7652 10 19.0196 9.89464 19.2071 9.70711C19.3946 9.51957 19.5 9.26522 19.5 9V1C19.4984 0.869323 19.4712 0.740222 19.42 0.62Z" fill="#006BFF"/>
</svg>
