<svg width="24" height="24" viewBox="0 0 24 24" fill="none" xmlns="http://www.w3.org/2000/svg">
<path d="M17.5001 8.99899C16.6049 8.99884 15.7237 9.22044 14.9351 9.644C14.863 9.45433 14.735 9.29106 14.568 9.17585C14.401 9.06065 14.2029 8.99897 14.0001 8.99899H10.0001C9.73485 8.99899 9.48049 9.10435 9.29296 9.29189C9.10542 9.47942 9.00006 9.73378 9.00006 9.99899V21.999C9.00006 22.2642 9.10542 22.5186 9.29296 22.7061C9.48049 22.8936 9.73485 22.999 10.0001 22.999H14.0001C14.2653 22.999 14.5196 22.8936 14.7072 22.7061C14.8947 22.5186 15.0001 22.2642 15.0001 21.999V16.499C15.0001 16.2338 15.1054 15.9794 15.293 15.7919C15.4805 15.6044 15.7348 15.499 16.0001 15.499C16.2653 15.499 16.5196 15.6044 16.7072 15.7919C16.8947 15.9794 17.0001 16.2338 17.0001 16.499V21.999C17.0001 22.2642 17.1054 22.5186 17.293 22.7061C17.4805 22.8936 17.7348 22.999 18.0001 22.999H22.0001C22.2653 22.999 22.5196 22.8936 22.7072 22.7061C22.8947 22.5186 23.0001 22.2642 23.0001 21.999V14.499C22.9982 13.0409 22.4182 11.643 21.3871 10.612C20.3561 9.5809 18.9582 9.00085 17.5001 8.99899ZM21.0001 20.999H19.0001V16.499C19.0001 15.7033 18.684 14.9403 18.1214 14.3777C17.5588 13.8151 16.7957 13.499 16.0001 13.499C15.2044 13.499 14.4414 13.8151 13.8787 14.3777C13.3161 14.9403 13.0001 15.7033 13.0001 16.499V20.999H11.0001V10.999H13.0001V11.702C13 11.9093 13.0643 12.1115 13.1841 12.2806C13.3039 12.4497 13.4734 12.5774 13.6689 12.646C13.8645 12.7147 14.0766 12.7208 14.2758 12.6637C14.4751 12.6065 14.6516 12.4889 14.7811 12.327C15.23 11.7571 15.8457 11.3416 16.5421 11.1385C17.2386 10.9355 17.9811 10.9549 18.666 11.1942C19.3509 11.4335 19.9439 11.8807 20.3624 12.4734C20.7808 13.066 21.0037 13.7745 21.0001 14.5V20.999ZM7.00006 8.99899H3.00006C2.73485 8.99899 2.48049 9.10435 2.29296 9.29189C2.10542 9.47942 2.00006 9.73378 2.00006 9.99899V21.999C2.00006 22.2642 2.10542 22.5186 2.29296 22.7061C2.48049 22.8936 2.73485 22.999 3.00006 22.999H7.00006C7.26528 22.999 7.51963 22.8936 7.70717 22.7061C7.89471 22.5186 8.00006 22.2642 8.00006 21.999V9.99899C8.00006 9.73378 7.89471 9.47942 7.70717 9.29189C7.51963 9.10435 7.26528 8.99899 7.00006 8.99899ZM6.00006 20.999H4.00006V10.999H6.00006V20.999ZM5.01506 1.542C4.57715 1.51531 4.1384 1.57804 3.72551 1.72635C3.31262 1.87467 2.93423 2.10546 2.61339 2.40469C2.29255 2.70392 2.03597 3.06532 1.85927 3.46688C1.68257 3.86844 1.58945 4.30177 1.58558 4.74047C1.5817 5.17918 1.66716 5.61408 1.83674 6.0187C2.00633 6.42332 2.25649 6.78919 2.57199 7.09403C2.8875 7.39888 3.26175 7.63632 3.67196 7.7919C4.08217 7.94748 4.51975 8.01794 4.95806 7.99899H4.98606C5.42422 8.02403 5.86288 7.95959 6.27533 7.80961C6.68778 7.65962 7.06537 7.42724 7.3851 7.1266C7.70483 6.82597 7.96001 6.46339 8.13508 6.06095C8.31016 5.65851 8.40146 5.22464 8.40343 4.78578C8.4054 4.34691 8.318 3.91224 8.14655 3.50824C7.9751 3.10425 7.72319 2.73939 7.40617 2.4359C7.08915 2.13241 6.71366 1.89664 6.30258 1.74296C5.8915 1.58928 5.45343 1.5209 5.01506 1.542ZM4.98606 5.99899H4.95806C4.78511 6.02011 4.60963 6.004 4.44342 5.95173C4.2772 5.89946 4.12408 5.81226 3.99433 5.69596C3.86458 5.57966 3.76121 5.43696 3.69114 5.27743C3.62107 5.11789 3.58592 4.94522 3.58806 4.77099C3.58806 4.02399 4.14806 3.542 5.01506 3.542C5.18967 3.51902 5.36718 3.53368 5.53566 3.585C5.70413 3.63632 5.85967 3.7231 5.99181 3.83953C6.12396 3.95595 6.22966 4.09931 6.3018 4.25997C6.37394 4.42064 6.41085 4.59488 6.41006 4.77099C6.41006 5.51699 5.85106 5.99899 4.98606 5.99899Z" fill="#006BFF"/>
</svg>
