<svg width="19" height="18" viewBox="0 0 19 18" fill="none" xmlns="http://www.w3.org/2000/svg">
<path d="M18.772 0.364C18.6781 0.250126 18.5602 0.158433 18.4268 0.0955003C18.2933 0.0325675 18.1476 -4.58303e-05 18 4.83374e-08H3.99999C3.73477 4.83374e-08 3.48042 0.105357 3.29288 0.292893C3.10534 0.48043 2.99999 0.734784 2.99999 1C2.99999 1.26522 3.10534 1.51957 3.29288 1.70711C3.48042 1.89464 3.73477 2 3.99999 2H16.786L16.006 6H2.99999C2.73477 6 2.48042 6.10536 2.29288 6.29289C2.10534 6.48043 1.99999 6.73478 1.99999 7C1.99999 7.26522 2.10534 7.51957 2.29288 7.70711C2.48042 7.89464 2.73477 8 2.99999 8H15.615L14.452 13.955L8.12899 15.952L2.71899 14.252L2.92199 13.188C2.96512 12.9303 2.9057 12.666 2.75643 12.4516C2.60716 12.2371 2.37989 12.0896 2.12326 12.0406C1.86663 11.9916 1.60101 12.045 1.38323 12.1894C1.16546 12.3337 1.01282 12.5576 0.957986 12.813L0.587986 14.753C0.542123 14.9937 0.586239 15.2429 0.71196 15.4532C0.837681 15.6636 1.03626 15.8204 1.26999 15.894L7.82999 17.954C8.0256 18.0155 8.23537 18.0155 8.43099 17.954L15.621 15.684C15.7925 15.6297 15.9462 15.5302 16.0658 15.3959C16.1855 15.2617 16.2667 15.0976 16.301 14.921L18.981 1.191C19.0093 1.04627 19.0052 0.897073 18.9691 0.754098C18.933 0.611123 18.8656 0.477909 18.772 0.364Z" fill="#006BFF"/>
</svg>
