<svg width="16" height="21" viewBox="0 0 16 21" fill="none" xmlns="http://www.w3.org/2000/svg">
<path d="M15.8699 6.59998C15.7954 6.42869 15.6744 6.2817 15.5206 6.17566C15.3668 6.06961 15.1865 6.00875 14.9999 5.99998H10.4199L11.6899 1.25998C11.7303 1.11165 11.736 0.955997 11.7065 0.80511C11.6771 0.654223 11.6132 0.512165 11.5199 0.389976C11.4267 0.268961 11.3071 0.170891 11.1701 0.103287C11.0332 0.0356838 10.8826 0.000343209 10.7299 -2.38712e-05H3.72988C3.50411 -0.00775711 3.28238 0.0611759 3.1008 0.195548C2.91922 0.32992 2.78848 0.521814 2.72988 0.739976L0.0498774 10.74C0.00942959 10.8883 0.00372584 11.044 0.0332096 11.1948C0.0626933 11.3457 0.12657 11.4878 0.219877 11.61C0.314062 11.7323 0.435303 11.8312 0.574098 11.8989C0.712893 11.9665 0.865472 12.0011 1.01988 12H4.88988L3.07988 18.74C3.02057 18.9573 3.0364 19.1883 3.12478 19.3955C3.21316 19.6028 3.36893 19.7741 3.56684 19.8817C3.76474 19.9893 3.9932 20.027 4.21518 19.9886C4.43716 19.9501 4.63967 19.8379 4.78988 19.67L15.6899 7.66998C15.8197 7.52786 15.9057 7.35131 15.9376 7.16151C15.9695 6.97171 15.946 6.77674 15.8699 6.59998ZM6.07988 15.28L7.14988 11.28C7.19032 11.1317 7.19603 10.976 7.16655 10.8251C7.13706 10.6742 7.07318 10.5322 6.97988 10.41C6.88672 10.289 6.76708 10.1909 6.63014 10.1233C6.4932 10.0557 6.3426 10.0203 6.18988 10.02H2.34988L4.48988 1.99998H9.41988L8.14988 6.73998C8.1091 6.89103 8.10434 7.04955 8.13598 7.20278C8.16762 7.35601 8.23477 7.49968 8.33204 7.62223C8.4293 7.74479 8.55397 7.84281 8.69601 7.90841C8.83805 7.97402 8.99351 8.00538 9.14988 7.99998H12.7199L6.07988 15.28Z" fill="#006BFF"/>
</svg>
