<svg width="22" height="22" viewBox="0 0 22 22" fill="none" xmlns="http://www.w3.org/2000/svg">
<path d="M16.5001 7.99899C15.6049 7.99884 14.7237 8.22044 13.9351 8.644C13.863 8.45433 13.735 8.29106 13.568 8.17585C13.401 8.06065 13.2029 7.99897 13.0001 7.99899H9.00006C8.73485 7.99899 8.48049 8.10435 8.29296 8.29189C8.10542 8.47942 8.00006 8.73378 8.00006 8.99899V20.999C8.00006 21.2642 8.10542 21.5186 8.29296 21.7061C8.48049 21.8936 8.73485 21.999 9.00006 21.999H13.0001C13.2653 21.999 13.5196 21.8936 13.7072 21.7061C13.8947 21.5186 14.0001 21.2642 14.0001 20.999V15.499C14.0001 15.2338 14.1054 14.9794 14.293 14.7919C14.4805 14.6044 14.7348 14.499 15.0001 14.499C15.2653 14.499 15.5196 14.6044 15.7072 14.7919C15.8947 14.9794 16.0001 15.2338 16.0001 15.499V20.999C16.0001 21.2642 16.1054 21.5186 16.293 21.7061C16.4805 21.8936 16.7348 21.999 17.0001 21.999H21.0001C21.2653 21.999 21.5196 21.8936 21.7072 21.7061C21.8947 21.5186 22.0001 21.2642 22.0001 20.999V13.499C21.9982 12.0409 21.4182 10.643 20.3871 9.61195C19.3561 8.5809 17.9582 8.00085 16.5001 7.99899ZM20.0001 19.999H18.0001V15.499C18.0001 14.7033 17.684 13.9403 17.1214 13.3777C16.5588 12.8151 15.7957 12.499 15.0001 12.499C14.2044 12.499 13.4414 12.8151 12.8787 13.3777C12.3161 13.9403 12.0001 14.7033 12.0001 15.499V19.999H10.0001V9.99899H12.0001V10.702C12 10.9093 12.0643 11.1115 12.1841 11.2806C12.3039 11.4497 12.4734 11.5774 12.6689 11.646C12.8645 11.7147 13.0766 11.7208 13.2758 11.6637C13.4751 11.6065 13.6516 11.4889 13.7811 11.327C14.23 10.7571 14.8457 10.3416 15.5421 10.1385C16.2386 9.93546 16.9811 9.95494 17.666 10.1942C18.3509 10.4335 18.9439 10.8807 19.3624 11.4734C19.7808 12.066 20.0037 12.7745 20.0001 13.5V19.999ZM6.00006 7.99899H2.00006C1.73485 7.99899 1.48049 8.10435 1.29296 8.29189C1.10542 8.47942 1.00006 8.73378 1.00006 8.99899V20.999C1.00006 21.2642 1.10542 21.5186 1.29296 21.7061C1.48049 21.8936 1.73485 21.999 2.00006 21.999H6.00006C6.26528 21.999 6.51963 21.8936 6.70717 21.7061C6.89471 21.5186 7.00006 21.2642 7.00006 20.999V8.99899C7.00006 8.73378 6.89471 8.47942 6.70717 8.29189C6.51963 8.10435 6.26528 7.99899 6.00006 7.99899ZM5.00006 19.999H3.00006V9.99899H5.00006V19.999ZM4.01506 0.541995C3.57715 0.515314 3.1384 0.57804 2.72551 0.726353C2.31262 0.874667 1.93423 1.10546 1.61339 1.40469C1.29255 1.70392 1.03597 2.06532 0.859269 2.46688C0.682569 2.86844 0.589448 3.30177 0.585575 3.74047C0.581702 4.17918 0.667159 4.61408 0.836743 5.0187C1.00633 5.42332 1.25649 5.78919 1.57199 6.09403C1.8875 6.39888 2.26175 6.63632 2.67196 6.7919C3.08217 6.94748 3.51975 7.01794 3.95806 6.99899H3.98606C4.42422 7.02403 4.86288 6.95959 5.27533 6.80961C5.68778 6.65962 6.06537 6.42724 6.3851 6.1266C6.70483 5.82597 6.96001 5.46339 7.13508 5.06095C7.31016 4.65851 7.40146 4.22464 7.40343 3.78578C7.4054 3.34691 7.318 2.91224 7.14655 2.50824C6.9751 2.10425 6.72319 1.73939 6.40617 1.4359C6.08915 1.13241 5.71366 0.896639 5.30258 0.742958C4.8915 0.589276 4.45343 0.5209 4.01506 0.541995ZM3.98606 4.99899H3.95806C3.78511 5.02011 3.60963 5.004 3.44342 4.95173C3.2772 4.89946 3.12408 4.81226 2.99433 4.69596C2.86458 4.57966 2.76121 4.43696 2.69114 4.27743C2.62107 4.11789 2.58592 3.94522 2.58806 3.77099C2.58806 3.02399 3.14806 2.542 4.01506 2.542C4.18967 2.51902 4.36718 2.53368 4.53566 2.585C4.70413 2.63632 4.85967 2.7231 4.99181 2.83953C5.12396 2.95595 5.22966 3.09931 5.3018 3.25997C5.37394 3.42064 5.41085 3.59488 5.41006 3.77099C5.41006 4.51699 4.85106 4.99899 3.98606 4.99899Z" fill="#006BFF"/>
</svg>
