<svg width="22" height="23" viewBox="0 0 22 23" fill="none" xmlns="http://www.w3.org/2000/svg">
<path d="M21.6022 9.00405C21.5605 8.77346 21.4391 8.56483 21.2593 8.4146C21.0794 8.26436 20.8526 8.18206 20.6182 8.18205H11.2002C10.935 8.18205 10.6806 8.28741 10.4931 8.47495C10.3056 8.66248 10.2002 8.91683 10.2002 9.18205V13.0501C10.2002 13.3153 10.3056 13.5696 10.4931 13.7572C10.6806 13.9447 10.935 14.0501 11.2002 14.0501H15.1622C14.8801 14.5263 14.4933 14.9322 14.0312 15.2371C13.1859 15.7729 12.2007 16.0461 11.2002 16.0221C10.1628 16.0102 9.15554 15.6718 8.32149 15.0548C7.48745 14.4377 6.86907 13.5736 6.55421 12.5851V12.5831C6.20396 11.5564 6.20396 10.4427 6.55421 9.41605V9.41405C6.86937 8.42579 7.48786 7.56192 8.32186 6.94513C9.15586 6.32834 10.163 5.98996 11.2002 5.97805C11.7765 5.96478 12.3498 6.06546 12.8871 6.27431C13.4244 6.48315 13.9152 6.79605 14.3312 7.19505C14.5201 7.37599 14.7723 7.47575 15.0338 7.47294C15.2953 7.47014 15.5453 7.365 15.7302 7.18005L18.5982 4.31205C18.6932 4.21711 18.7682 4.10401 18.8185 3.97948C18.8689 3.85495 18.8936 3.72155 18.8913 3.58724C18.889 3.45294 18.8596 3.32048 18.8049 3.19777C18.7503 3.07507 18.6715 2.96463 18.5732 2.87305C16.5772 1.00162 13.9362 -0.027521 11.2002 5.17879e-05C9.16007 -0.00602719 7.1588 0.558024 5.42211 1.62859C3.68541 2.69916 2.28237 4.23367 1.37122 6.05905L1.37021 6.06105C0.597775 7.59266 0.196953 9.28468 0.200215 11.0001C0.202602 12.7151 0.603115 14.4061 1.37021 15.9401L1.37122 15.9411C2.28237 17.7664 3.68541 19.3009 5.42211 20.3715C7.1588 21.4421 9.16007 22.0061 11.2002 22.0001C13.8857 22.0682 16.4956 21.1069 18.4952 19.3131L18.4962 19.3121C19.5801 18.2694 20.434 17.0116 21.003 15.6194C21.572 14.2272 21.8435 12.7314 21.8002 11.2281C21.8006 10.4823 21.7343 9.738 21.6022 9.00405ZM11.2002 2.00005C13.0711 1.98198 14.8978 2.56878 16.4082 3.67305L14.9552 5.12605C13.8529 4.36322 12.5406 3.96203 11.2002 3.97805C9.97639 3.9841 8.77628 4.3162 7.72345 4.94016C6.67062 5.56413 5.8031 6.45741 5.21022 7.52805L4.14222 6.70005L3.55722 6.24605C4.36196 4.94398 5.4871 3.86998 6.82516 3.12663C8.16323 2.38328 9.66954 1.99541 11.2002 2.00005ZM2.68022 13.9031C2.04107 12.0205 2.04107 9.97962 2.68022 8.09705L4.46221 9.47905C4.23435 10.4803 4.23435 11.5199 4.46221 12.5211L2.68022 13.9031ZM11.2002 20.0001C9.66937 20.0049 8.16286 19.6171 6.8246 18.8737C5.48634 18.1304 4.36105 17.0563 3.55622 15.7541L3.93521 15.4601L5.21122 14.4701C5.80368 15.541 6.67091 16.4346 7.72359 17.059C8.77626 17.6833 9.97634 18.0157 11.2002 18.0221C12.3459 18.0358 13.4786 17.7788 14.5062 17.2721L16.1972 18.5851C14.7095 19.5436 12.9696 20.0363 11.2002 20.0001ZM17.7262 17.2401L17.5432 17.0971L16.1662 16.0281C16.8886 15.2477 17.3742 14.278 17.5662 13.2321C17.5929 13.0877 17.5875 12.9392 17.5504 12.7972C17.5133 12.6552 17.4454 12.5231 17.3515 12.4103C17.2575 12.2974 17.1399 12.2067 17.007 12.1444C16.874 12.0822 16.729 12.0499 16.5822 12.0501H12.2002V10.1821H19.7492C19.7832 10.5271 19.8002 10.8771 19.8002 11.2281C19.8585 13.4166 19.1217 15.5531 17.7262 17.2401Z" fill="#006BFF"/>
</svg>
