<svg width="20" height="20" viewBox="0 0 20 20" fill="none" xmlns="http://www.w3.org/2000/svg">
<path d="M19.2099 8.29L17.4799 6.57C17.899 5.89021 18.1238 5.10857 18.1299 4.31C18.1279 3.45842 17.8737 2.62651 17.3994 1.91926C16.925 1.21202 16.2518 0.661151 15.4646 0.336178C14.6775 0.0112045 13.8117 -0.0733048 12.9766 0.0933161C12.1415 0.259937 11.3744 0.67022 10.7723 1.27238C10.1701 1.87454 9.75982 2.64159 9.5932 3.47672C9.42658 4.31184 9.51109 5.17761 9.83606 5.96475C10.161 6.75189 10.7119 7.42512 11.4191 7.89947C12.1264 8.37382 12.9583 8.62802 13.8099 8.63C14.6067 8.63095 15.3885 8.41303 16.0699 8L17.7899 9.73C17.8828 9.82373 17.9935 9.89812 18.1153 9.94889C18.2372 9.99966 18.3679 10.0258 18.4999 10.0258C18.6319 10.0258 18.7626 9.99966 18.8845 9.94889C19.0063 9.89812 19.1169 9.82373 19.2099 9.73C19.3067 9.63672 19.3836 9.52488 19.4362 9.40117C19.4888 9.27746 19.5159 9.14442 19.5159 9.01C19.5159 8.87558 19.4888 8.74254 19.4362 8.61883C19.3836 8.49512 19.3067 8.38328 19.2099 8.29ZM15.4499 6C15.1219 6.32395 14.7049 6.54285 14.2519 6.62877C13.799 6.71469 13.3308 6.66373 12.907 6.4824C12.4831 6.30106 12.1229 5.99757 11.8723 5.61065C11.6217 5.22373 11.4921 4.77092 11.4999 4.31C11.4997 4.00682 11.5597 3.70662 11.6764 3.42681C11.7932 3.147 11.9643 2.89315 12.1799 2.68C12.6145 2.24826 13.2023 2.00596 13.8149 2.00596C14.4275 2.00596 15.0153 2.24826 15.4499 2.68C15.6649 2.89456 15.8354 3.14941 15.9518 3.42997C16.0682 3.71052 16.1281 4.01127 16.1281 4.315C16.1281 4.61873 16.0682 4.91948 15.9518 5.20003C15.8354 5.48059 15.6649 5.73544 15.4499 5.95V6ZM17.4999 12C17.3725 11.9669 17.2398 11.9593 17.1095 11.9777C16.9792 11.996 16.8538 12.0398 16.7404 12.1067C16.6271 12.1736 16.528 12.2622 16.449 12.3675C16.37 12.4727 16.3125 12.5925 16.2799 12.72C15.8975 14.2285 15.0233 15.5666 13.7955 16.5228C12.5676 17.479 11.0561 17.9988 9.49989 18H3.90989L4.54989 17.37C4.73614 17.1826 4.84068 16.9292 4.84068 16.665C4.84068 16.4008 4.73614 16.1474 4.54989 15.96C3.90293 15.2999 3.3931 14.5182 3.04983 13.66C2.70656 12.8018 2.53664 11.8842 2.54989 10.96C2.55514 9.5803 2.96801 8.23292 3.73662 7.08712C4.50522 5.94133 5.59529 5.04822 6.86989 4.52C7.11654 4.42187 7.3141 4.22978 7.41912 3.98598C7.52415 3.74218 7.52802 3.46665 7.42989 3.22C7.33176 2.97335 7.13966 2.77578 6.89587 2.67076C6.65207 2.56574 6.37654 2.56187 6.12989 2.66C4.82374 3.18357 3.65856 4.00611 2.72791 5.06159C1.79726 6.11707 1.12706 7.37607 0.77115 8.73749C0.415236 10.0989 0.383515 11.5248 0.678534 12.9007C0.973553 14.2766 1.58709 15.5642 2.46989 16.66L0.789885 18.29C0.651128 18.4306 0.557131 18.6092 0.519757 18.8032C0.482383 18.9972 0.503306 19.1979 0.579885 19.38C0.654905 19.5626 0.782303 19.7189 0.946024 19.8293C1.10974 19.9396 1.30246 19.999 1.49989 20H9.49989C11.4961 20.0013 13.4362 19.3388 15.0147 18.1169C16.5933 16.895 17.7208 15.1829 18.2199 13.25C18.2575 13.1206 18.2686 12.985 18.2525 12.8512C18.2364 12.7175 18.1935 12.5883 18.1262 12.4716C18.059 12.3549 17.9688 12.2529 17.8612 12.1719C17.7536 12.0908 17.6307 12.0324 17.4999 12Z" fill="#006BFF"/>
</svg>
