<svg width="18" height="20" viewBox="0 0 18 20" fill="none" xmlns="http://www.w3.org/2000/svg">
<path d="M4.95198 6H11.938L11.761 8H6.99098C6.72576 8 6.47141 8.10536 6.28387 8.29289C6.09633 8.48043 5.99098 8.73478 5.99098 9C5.99098 9.26522 6.09633 9.51957 6.28387 9.70711C6.47141 9.89464 6.72576 10 6.99098 10H11.584L11.32 12.977L8.99098 13.505L6.66298 12.976L6.56698 11.912C6.55689 11.78 6.5207 11.6514 6.46051 11.5335C6.40032 11.4156 6.31733 11.3108 6.21635 11.2253C6.11536 11.1397 5.9984 11.0751 5.87224 11.035C5.74607 10.995 5.61322 10.9804 5.48138 10.9922C5.34954 11.0039 5.22134 11.0416 5.10421 11.1033C4.98708 11.1649 4.88335 11.2492 4.79903 11.3512C4.71472 11.4532 4.6515 11.571 4.61304 11.6976C4.57458 11.8243 4.56164 11.9573 4.57498 12.089L4.73498 13.879C4.75381 14.0898 4.83896 14.2892 4.9782 14.4486C5.11745 14.6079 5.30362 14.7191 5.50998 14.766L8.76998 15.506C8.91586 15.5385 9.0671 15.5385 9.21298 15.506L12.473 14.766C12.6795 14.719 12.8658 14.6077 13.005 14.4482C13.1443 14.2886 13.2293 14.089 13.248 13.878L13.68 9.01L13.682 9L13.681 8.996L14.027 5.088C14.039 4.94984 14.0222 4.81068 13.9777 4.67935C13.9331 4.54802 13.8617 4.42739 13.7681 4.32509C13.6745 4.2228 13.5606 4.14108 13.4337 4.08511C13.3068 4.02915 13.1697 4.00017 13.031 4H4.95198C4.68676 4 4.43241 4.10536 4.24487 4.29289C4.05733 4.48043 3.95198 4.73478 3.95198 5C3.95198 5.26522 4.05733 5.51957 4.24487 5.70711C4.43241 5.89464 4.68676 6 4.95198 6ZM17.654 0.326C17.5603 0.22348 17.4463 0.141561 17.3192 0.0854399C17.1922 0.0293193 17.0549 0.000223805 16.916 1.69585e-09H1.06598C0.927062 -8.08794e-06 0.78967 0.0289262 0.662558 0.0849586C0.535446 0.140991 0.421402 0.222892 0.327697 0.325442C0.233991 0.427991 0.162679 0.548939 0.118306 0.680575C0.0739338 0.812212 0.057474 0.95165 0.0699763 1.09L1.51398 17.284C1.53194 17.4863 1.61115 17.6783 1.74103 17.8345C1.87092 17.9906 2.04532 18.1035 2.24098 18.158L8.71398 19.963C8.88956 20.0125 9.0754 20.0125 9.25098 19.963L15.741 18.151C15.9368 18.0967 16.1114 17.9839 16.2415 17.8277C16.3716 17.6716 16.4509 17.4794 16.469 17.277L17.912 1.089C17.9241 0.950891 17.9074 0.81177 17.863 0.680435C17.8186 0.549101 17.7474 0.428411 17.654 0.326ZM14.538 16.41L8.98198 17.961L3.44398 16.416L2.15998 2H15.824L14.538 16.41Z" fill="#006BFF"/>
</svg>
