<svg width="24" height="13" viewBox="0 0 24 13" fill="none" xmlns="http://www.w3.org/2000/svg">
<path d="M12 0.375977C5.37375 0.375977 0 3.19898 0 6.68648C0 10.174 5.37375 12.9985 12 12.9985C18.6262 12.9985 24 10.174 24 6.68648C24 3.19898 18.6262 0.375977 12 0.375977ZM12 1.00598C18.4275 1.00598 23.37 3.71273 23.37 6.68648C23.37 9.66023 18.4237 12.3685 12 12.3685C5.5725 12.3685 0.63 9.66023 0.63 6.68648C0.63 3.71273 5.57625 1.00598 12 1.00598ZM10.5428 2.25698L9.32925 8.51198H10.683L11.382 4.92698C12.4837 4.92698 12.9398 4.88348 13.14 5.09873C13.3478 5.32148 13.2413 5.56598 12.6698 8.51123H14.0422C14.6362 5.46623 14.8987 4.81973 14.3497 4.31498C13.827 3.83273 12.744 3.91748 11.5747 3.91748L11.8973 2.25698H10.5428ZM4.866 3.92198L3.6525 10.1815H5.01525L5.33775 8.51873C6.86175 8.51873 7.809 8.62973 8.68425 7.80998C9.6525 6.91973 9.90525 5.33498 9.2145 4.54223C8.8545 4.12673 8.27475 3.92198 7.4895 3.92198H4.866ZM15.51 3.92198L14.2943 10.1815H15.6593L15.9818 8.51873C17.5845 8.51873 18.4718 8.61173 19.3283 7.80998C20.2965 6.91973 20.55 5.33498 19.8592 4.54223C19.4993 4.12673 18.9195 3.92198 18.1335 3.92198H15.51ZM7.002 4.90823C7.85325 4.93223 8.34 5.11223 8.1345 6.18098C7.84125 7.68398 6.807 7.52873 5.53425 7.52873L6.04275 4.90973C6.39525 4.90973 6.71775 4.89998 7.002 4.90823ZM17.6467 4.90823C18.4995 4.93223 18.981 5.11223 18.7747 6.18098C18.4778 7.70573 17.4135 7.52873 16.1745 7.52873L16.683 4.90973C17.0378 4.90973 17.3632 4.89998 17.6467 4.90823Z" fill="#006BFF"/>
</svg>
