<svg width="111" height="185" viewBox="0 0 111 185" fill="none" xmlns="http://www.w3.org/2000/svg">
<rect x="3.5" y="2.5" width="105" height="180" rx="19.5" fill="white" stroke="black" stroke-width="5"/>
<rect x="36.0442" y="11" width="40.885" height="4" rx="2" fill="black"/>
<ellipse cx="55.5133" cy="168" rx="5.84071" ry="6" fill="#4B5320"/>
<path d="M12.3262 133.886L11.0664 133.827V146H7.14062V120.219H13.6299C14.9775 120.219 15.9834 120.492 16.6475 121.039C17.3115 121.576 17.7461 122.333 17.9512 123.31C18.166 124.276 18.2734 125.546 18.2734 127.118C18.2734 128.681 18.1074 129.872 17.7754 130.692C17.4434 131.513 16.8281 132.064 15.9297 132.348C16.8184 132.504 17.4385 133.104 17.79 134.149C18.1416 135.194 18.3174 137.372 18.3174 140.683C18.3174 143.983 18.3662 145.756 18.4639 146H14.5381C14.4404 145.805 14.3916 142.724 14.3916 136.757C14.3916 135.614 14.2549 134.857 13.9814 134.486C13.708 134.105 13.1562 133.905 12.3262 133.886ZM11.0811 130.78H12.6484C13.1465 130.78 13.5127 130.668 13.7471 130.443C13.9912 130.219 14.1572 129.833 14.2451 129.286C14.3428 128.739 14.3916 127.904 14.3916 126.781V126.62C14.3916 125.224 14.2744 124.311 14.04 123.881C13.8057 123.451 13.2637 123.236 12.4141 123.236H11.0811V130.78ZM21.9355 146V120.219H30.5781V123.603H25.8613V131.103H30.3438V134.413H25.8613V142.616H30.7539V146H21.9355ZM33.8887 146V120.219H39.8066C41.8086 120.219 43.1758 120.829 43.9082 122.05C44.6504 123.261 45.041 125.072 45.0801 127.484V128.026C45.0801 130.585 44.7139 132.528 43.9814 133.856C43.2588 135.175 41.9111 135.834 39.9385 135.834H37.8145V146H33.8887ZM37.8145 132.597H39.1621C39.9922 132.597 40.5293 132.279 40.7734 131.645C41.0273 131 41.1543 129.779 41.1543 127.982V127.484C41.1445 125.961 41.0078 124.872 40.7441 124.218C40.4902 123.563 39.9727 123.236 39.1914 123.236H37.8145V132.597ZM54.1914 138.251L52.4629 125.302H52.4043L50.8223 138.251H54.1914ZM46.1055 146L49.7822 120.219H54.9678L58.8789 146H55.2168L54.6016 141.4H50.4414L49.8848 146H46.1055ZM61.7207 146V120.219H65.6465V146H61.7207ZM74.8457 133.886L73.5859 133.827V146H69.6602V120.219H76.1494C77.4971 120.219 78.5029 120.492 79.167 121.039C79.8311 121.576 80.2656 122.333 80.4707 123.31C80.6855 124.276 80.793 125.546 80.793 127.118C80.793 128.681 80.627 129.872 80.2949 130.692C79.9629 131.513 79.3477 132.064 78.4492 132.348C79.3379 132.504 79.958 133.104 80.3096 134.149C80.6611 135.194 80.8369 137.372 80.8369 140.683C80.8369 143.983 80.8857 145.756 80.9834 146H77.0576C76.96 145.805 76.9111 142.724 76.9111 136.757C76.9111 135.614 76.7744 134.857 76.501 134.486C76.2275 134.105 75.6758 133.905 74.8457 133.886ZM73.6006 130.78H75.168C75.666 130.78 76.0322 130.668 76.2666 130.443C76.5107 130.219 76.6768 129.833 76.7646 129.286C76.8623 128.739 76.9111 127.904 76.9111 126.781V126.62C76.9111 125.224 76.7939 124.311 76.5596 123.881C76.3252 123.451 75.7832 123.236 74.9336 123.236H73.6006V130.78ZM83.9424 138.749V136.449H87.6631V139.042C87.6631 140.478 87.7852 141.488 88.0293 142.074C88.2734 142.65 88.7324 142.938 89.4062 142.938C90.0801 142.938 90.5244 142.699 90.7393 142.221C90.9639 141.742 91.0762 140.961 91.0762 139.877C91.0762 138.793 90.8809 137.851 90.4902 137.05C90.0996 136.239 89.4795 135.395 88.6299 134.516L86.7256 132.553C85.8369 131.625 85.1436 130.663 84.6455 129.667C84.1572 128.671 83.9131 127.519 83.9131 126.21C83.9131 124.081 84.3232 122.499 85.1436 121.464C85.9639 120.429 87.375 119.911 89.377 119.911C91.3789 119.911 92.7314 120.517 93.4346 121.728C94.1475 122.929 94.5039 124.687 94.5039 127.001V128.598H90.8857V126.752C90.8857 125.502 90.7783 124.608 90.5635 124.071C90.3486 123.524 89.9336 123.251 89.3184 123.251C88.7129 123.251 88.2734 123.456 88 123.866C87.7363 124.276 87.6045 124.892 87.6045 125.712C87.6045 126.532 87.7412 127.187 88.0146 127.675C88.2881 128.163 88.7812 128.788 89.4941 129.55L91.6182 131.85C92.6826 133.002 93.4834 134.169 94.0205 135.351C94.5674 136.532 94.8408 137.821 94.8408 139.218C94.8408 141.63 94.4355 143.412 93.625 144.564C92.8145 145.717 91.3936 146.293 89.3623 146.293C87.3408 146.293 85.9297 145.653 85.1289 144.374C84.3379 143.085 83.9424 141.21 83.9424 138.749Z" fill="black"/>
<path d="M6.97051 112V75.9062H15.2557C18.0584 75.9062 19.9725 76.7607 20.9979 78.4697C22.0369 80.165 22.5838 82.7012 22.6385 86.0781V86.8369C22.6385 90.4189 22.1258 93.1396 21.1004 94.999C20.0887 96.8447 18.202 97.7676 15.4402 97.7676H12.4666V112H6.97051ZM12.4666 93.2354H14.3533C15.5154 93.2354 16.2674 92.791 16.6092 91.9023C16.9646 91 17.1424 89.291 17.1424 86.7754V86.0781C17.1287 83.9453 16.9373 82.4209 16.5682 81.5049C16.2127 80.5889 15.4881 80.1309 14.3943 80.1309H12.4666V93.2354ZM24.2299 112V75.9062H29.726V90.5078H34.6479V75.9062H40.1439V112H34.6479V95.2246H29.726V112H24.2299ZM48.5439 101.972C48.5439 104.091 48.7012 105.567 49.0156 106.401C49.3438 107.235 50.0068 107.652 51.0049 107.652C52.0029 107.652 52.6592 107.229 52.9736 106.381C53.2881 105.52 53.4453 104.05 53.4453 101.972V85.1553C53.4453 83.4463 53.2812 82.2021 52.9531 81.4229C52.6387 80.6299 52.0098 80.2334 51.0664 80.2334C50.1367 80.2334 49.4805 80.6299 49.0977 81.4229C48.7285 82.2021 48.5439 83.4395 48.5439 85.1348V101.972ZM58.9619 101.91C58.9619 105.438 58.333 108.069 57.0752 109.806C55.8174 111.542 53.8008 112.41 51.0254 112.41C48.2637 112.41 46.2334 111.542 44.9346 109.806C43.6494 108.056 43.0068 105.424 43.0068 101.91V85.4014C43.0068 78.7842 45.707 75.4756 51.1074 75.4756C53.8965 75.4756 55.8994 76.3164 57.1162 77.998C58.3467 79.6797 58.9619 82.1475 58.9619 85.4014V101.91ZM61.8658 112V75.9062H66.1725L73.8219 97.5625L73.4322 87.7188V75.9062H78.3746V112H74.4781L66.6236 89.585L66.9313 99.0596V112H61.8658ZM81.7092 112V75.9062H93.8088V80.6436H87.2053V91.1436H93.4807V95.7783H87.2053V107.263H94.0549V112H81.7092Z" fill="#4B5320"/>
<path d="M7.0625 71V36.625H18.8594V41.1758H12.2969V50.3164H18.3906V54.8867H12.2969V71H7.0625ZM22.707 71V41.7031H27.8828V71H22.707ZM22.6484 39.0078V34.5156H27.8633V39.0078H22.6484ZM41.3789 71L38.3125 62.2305L35.5977 71H30.8125L36.0273 55.707L31.1445 41.7031H35.7344L38.7422 50.1602L41.3203 41.7031H45.8906L40.9297 56.2539L46.1836 71H41.3789Z" fill="black"/>
</svg>
