<svg width="110" height="185" viewBox="0 0 110 185" fill="none" xmlns="http://www.w3.org/2000/svg">
<rect x="2.5" y="2.5" width="105" height="180" rx="19.5" fill="white" stroke="black" stroke-width="5"/>
<rect x="35.0442" y="11" width="40.885" height="4" rx="2" fill="black"/>
<ellipse cx="54.5133" cy="168" rx="5.84071" ry="6" fill="#4B5320"/>
<path d="M11.3262 133.886L10.0664 133.827V146H6.14062V120.219H12.6299C13.9775 120.219 14.9834 120.492 15.6475 121.039C16.3115 121.576 16.7461 122.333 16.9512 123.31C17.166 124.276 17.2734 125.546 17.2734 127.118C17.2734 128.681 17.1074 129.872 16.7754 130.692C16.4434 131.513 15.8281 132.064 14.9297 132.348C15.8184 132.504 16.4385 133.104 16.79 134.149C17.1416 135.194 17.3174 137.372 17.3174 140.683C17.3174 143.983 17.3662 145.756 17.4639 146H13.5381C13.4404 145.805 13.3916 142.724 13.3916 136.757C13.3916 135.614 13.2549 134.857 12.9814 134.486C12.708 134.105 12.1562 133.905 11.3262 133.886ZM10.0811 130.78H11.6484C12.1465 130.78 12.5127 130.668 12.7471 130.443C12.9912 130.219 13.1572 129.833 13.2451 129.286C13.3428 128.739 13.3916 127.904 13.3916 126.781V126.62C13.3916 125.224 13.2744 124.311 13.04 123.881C12.8057 123.451 12.2637 123.236 11.4141 123.236H10.0811V130.78ZM20.9355 146V120.219H29.5781V123.603H24.8613V131.103H29.3438V134.413H24.8613V142.616H29.7539V146H20.9355ZM32.8887 146V120.219H38.8066C40.8086 120.219 42.1758 120.829 42.9082 122.05C43.6504 123.261 44.041 125.072 44.0801 127.484V128.026C44.0801 130.585 43.7139 132.528 42.9814 133.856C42.2588 135.175 40.9111 135.834 38.9385 135.834H36.8145V146H32.8887ZM36.8145 132.597H38.1621C38.9922 132.597 39.5293 132.279 39.7734 131.645C40.0273 131 40.1543 129.779 40.1543 127.982V127.484C40.1445 125.961 40.0078 124.872 39.7441 124.218C39.4902 123.563 38.9727 123.236 38.1914 123.236H36.8145V132.597ZM53.1914 138.251L51.4629 125.302H51.4043L49.8223 138.251H53.1914ZM45.1055 146L48.7822 120.219H53.9678L57.8789 146H54.2168L53.6016 141.4H49.4414L48.8848 146H45.1055ZM60.7207 146V120.219H64.6465V146H60.7207ZM73.8457 133.886L72.5859 133.827V146H68.6602V120.219H75.1494C76.4971 120.219 77.5029 120.492 78.167 121.039C78.8311 121.576 79.2656 122.333 79.4707 123.31C79.6855 124.276 79.793 125.546 79.793 127.118C79.793 128.681 79.627 129.872 79.2949 130.692C78.9629 131.513 78.3477 132.064 77.4492 132.348C78.3379 132.504 78.958 133.104 79.3096 134.149C79.6611 135.194 79.8369 137.372 79.8369 140.683C79.8369 143.983 79.8857 145.756 79.9834 146H76.0576C75.96 145.805 75.9111 142.724 75.9111 136.757C75.9111 135.614 75.7744 134.857 75.501 134.486C75.2275 134.105 74.6758 133.905 73.8457 133.886ZM72.6006 130.78H74.168C74.666 130.78 75.0322 130.668 75.2666 130.443C75.5107 130.219 75.6768 129.833 75.7646 129.286C75.8623 128.739 75.9111 127.904 75.9111 126.781V126.62C75.9111 125.224 75.7939 124.311 75.5596 123.881C75.3252 123.451 74.7832 123.236 73.9336 123.236H72.6006V130.78ZM82.9424 138.749V136.449H86.6631V139.042C86.6631 140.478 86.7852 141.488 87.0293 142.074C87.2734 142.65 87.7324 142.938 88.4062 142.938C89.0801 142.938 89.5244 142.699 89.7393 142.221C89.9639 141.742 90.0762 140.961 90.0762 139.877C90.0762 138.793 89.8809 137.851 89.4902 137.05C89.0996 136.239 88.4795 135.395 87.6299 134.516L85.7256 132.553C84.8369 131.625 84.1436 130.663 83.6455 129.667C83.1572 128.671 82.9131 127.519 82.9131 126.21C82.9131 124.081 83.3232 122.499 84.1436 121.464C84.9639 120.429 86.375 119.911 88.377 119.911C90.3789 119.911 91.7314 120.517 92.4346 121.728C93.1475 122.929 93.5039 124.687 93.5039 127.001V128.598H89.8857V126.752C89.8857 125.502 89.7783 124.608 89.5635 124.071C89.3486 123.524 88.9336 123.251 88.3184 123.251C87.7129 123.251 87.2734 123.456 87 123.866C86.7363 124.276 86.6045 124.892 86.6045 125.712C86.6045 126.532 86.7412 127.187 87.0146 127.675C87.2881 128.163 87.7812 128.788 88.4941 129.55L90.6182 131.85C91.6826 133.002 92.4834 134.169 93.0205 135.351C93.5674 136.532 93.8408 137.821 93.8408 139.218C93.8408 141.63 93.4355 143.412 92.625 144.564C91.8145 145.717 90.3936 146.293 88.3623 146.293C86.3408 146.293 84.9297 145.653 84.1289 144.374C83.3379 143.085 82.9424 141.21 82.9424 138.749Z" fill="black"/>
<path d="M6.97051 112V75.9062H15.2557C18.0584 75.9062 19.9725 76.7607 20.9979 78.4697C22.0369 80.165 22.5838 82.7012 22.6385 86.0781V86.8369C22.6385 90.4189 22.1258 93.1396 21.1004 94.999C20.0887 96.8447 18.202 97.7676 15.4402 97.7676H12.4666V112H6.97051ZM12.4666 93.2354H14.3533C15.5154 93.2354 16.2674 92.791 16.6092 91.9023C16.9646 91 17.1424 89.291 17.1424 86.7754V86.0781C17.1287 83.9453 16.9373 82.4209 16.5682 81.5049C16.2127 80.5889 15.4881 80.1309 14.3943 80.1309H12.4666V93.2354ZM24.2299 112V75.9062H29.726V90.5078H34.6479V75.9062H40.1439V112H34.6479V95.2246H29.726V112H24.2299ZM48.5439 101.972C48.5439 104.091 48.7012 105.567 49.0156 106.401C49.3438 107.235 50.0068 107.652 51.0049 107.652C52.0029 107.652 52.6592 107.229 52.9736 106.381C53.2881 105.52 53.4453 104.05 53.4453 101.972V85.1553C53.4453 83.4463 53.2812 82.2021 52.9531 81.4229C52.6387 80.6299 52.0098 80.2334 51.0664 80.2334C50.1367 80.2334 49.4805 80.6299 49.0977 81.4229C48.7285 82.2021 48.5439 83.4395 48.5439 85.1348V101.972ZM58.9619 101.91C58.9619 105.438 58.333 108.069 57.0752 109.806C55.8174 111.542 53.8008 112.41 51.0254 112.41C48.2637 112.41 46.2334 111.542 44.9346 109.806C43.6494 108.056 43.0068 105.424 43.0068 101.91V85.4014C43.0068 78.7842 45.707 75.4756 51.1074 75.4756C53.8965 75.4756 55.8994 76.3164 57.1162 77.998C58.3467 79.6797 58.9619 82.1475 58.9619 85.4014V101.91ZM61.8658 112V75.9062H66.1725L73.8219 97.5625L73.4322 87.7188V75.9062H78.3746V112H74.4781L66.6236 89.585L66.9313 99.0596V112H61.8658ZM81.7092 112V75.9062H93.8088V80.6436H87.2053V91.1436H93.4807V95.7783H87.2053V107.263H94.0549V112H81.7092Z" fill="#4B5320"/>
<path d="M6.0625 71V36.625H17.8594V41.1758H11.2969V50.3164H17.3906V54.8867H11.2969V71H6.0625ZM21.707 71V41.7031H26.8828V71H21.707ZM21.6484 39.0078V34.5156H26.8633V39.0078H21.6484ZM40.3789 71L37.3125 62.2305L34.5977 71H29.8125L35.0273 55.707L30.1445 41.7031H34.7344L37.7422 50.1602L40.3203 41.7031H44.8906L39.9297 56.2539L45.1836 71H40.3789Z" fill="black"/>
</svg>
