<svg width="95" height="96" viewBox="0 0 95 96" fill="none" xmlns="http://www.w3.org/2000/svg">
<path d="M46.5 23L49 69.5" stroke="#959DAE" stroke-width="3"/>
<path d="M46.9999 23C51.8228 23.1649 61.572 27.9472 61.9854 45.7579C62.3988 63.5686 53.8898 69.3404 49.5836 70L48.9999 69" stroke="#959DAE" stroke-width="2"/>
<path d="M47.3636 23C39 23.5 33 33.5 34 47.5C35.1044 62.9606 45 71.1667 49.5 70" stroke="#959DAE" stroke-width="2"/>
<path d="M28.9998 33.5005C34.6664 36.8338 49.8997 41.1003 65.4998 31.5005" stroke="#959DAE" stroke-width="2"/>
<path d="M24.9999 48.5L70.9999 46" stroke="#959DAE" stroke-width="2"/>
<path d="M30.9998 61.5002C35.9998 57.3335 50.1998 51.1001 66.9998 59.5002" stroke="#959DAE" stroke-width="2"/>
<path d="M32 62C41.2068 72.25 60.0771 77.3334 68 74.5M68 74.5L65.5126 76.25M68 74.5L62.4724 72.3462M65.5126 76.25L61.5 79L61 71.5L62.4724 72.3462M65.5126 76.25L62.4724 72.3462M64.6128 73.5L63.0252 78.5" stroke="#959DAE" stroke-width="4"/>
<path d="M70 46.5C70 59.5184 59.8875 70 47.5 70C35.1125 70 25 59.5184 25 46.5C25 33.4816 35.1125 23 47.5 23C59.8875 23 70 33.4816 70 46.5Z" stroke="#959DAE" stroke-width="2"/>
</svg>
