<svg width="77" height="77" viewBox="0 0 77 77" fill="none" xmlns="http://www.w3.org/2000/svg">
<g clip-path="url(#clip0)">
<path d="M75.4196 26.4183L73.1453 22.8533L71.4522 26.7284C70.2495 29.4805 68.5134 30.6355 67.1184 31.5634C65.5373 32.6153 65.5902 32.6368 63.8078 34.7964C62.7799 36.0416 61.8091 37.218 60.9098 38.1203C60.2595 38.7729 59.8261 39.0947 59.5687 39.252C59.4424 39.0179 59.2648 38.6066 59.08 37.9173C58.8994 37.2434 58.3503 35.1927 56.4722 34.5844C54.5322 33.9556 52.8509 35.3216 51.3684 36.5264C50.9775 36.844 50.762 36.687 50.6913 36.6352C50.4514 36.4599 50.2916 36.0261 50.5624 35.334C50.5694 35.3163 52.3426 31.8636 52.3507 31.8481C50.3408 30.9841 50.132 30.7318 48.1616 30.1741C52.2321 24.101 54.2766 20.9522 54.2766 15.7846C54.2769 7.08086 47.1961 0 38.4927 0C29.7892 0 22.7084 7.08086 22.7084 15.7843C22.7084 19.6741 23.8679 22.4173 26.1774 26.1274C21.5099 25.4039 16.7446 24.6924 12.4055 24.0447C5.5793 23.0256 5.38229 22.9895 3.41021 22.6923C3.04131 24.8035 2.99453 25.5383 1.63936 32.6025C-0.00862248 41.1928 -1.0973 46.868 1.97248 52.019C4.76599 56.7064 10.7039 60.5817 24.6639 66.8282C30.0464 69.2367 31.2937 70.7075 32.5 72.1299C33.3409 73.1213 34.2939 74.2451 36.2491 75.443L38.7367 76.9671C39.4779 74.3646 39.6884 74.1862 40.2158 71.5676C40.3202 71.0501 40.4629 70.3413 40.5664 70.1944C40.5763 70.1855 40.8257 69.9757 42.0138 69.7901C45.8005 69.1989 48.6093 68.4795 50.6603 67.954C53.585 67.2049 54.8102 66.9198 55.7714 67.3887C57.071 68.0224 58.7921 70.2231 61.5136 74.0621L63.5964 77.0003L65.3298 73.8435C66.7523 71.2527 66.8928 68.9237 65.7855 66.2922C64.2396 62.619 65.101 61.1605 66.5282 58.7441C67.7681 56.6449 69.3111 54.0325 69.2762 49.7683C69.2464 46.1396 70.5231 43.1822 73.0716 40.9778C74.1475 40.0469 74.7274 38.4652 75.4893 36.1588C75.7458 35.3819 76.0113 34.5785 76.216 34.1703C77.4445 31.7199 77.1842 29.1844 75.4196 26.4183ZM38.4925 4.50992C44.7092 4.50992 49.767 9.56772 49.767 15.7844C49.767 19.6817 48.2443 21.9526 44.175 28.022C42.6019 30.3681 40.727 33.1645 38.4927 36.7367C36.2496 33.1496 34.3709 30.3466 32.7946 27.995C28.7365 21.9401 27.218 19.6746 27.218 15.7844C27.218 9.56772 32.2756 4.50992 38.4925 4.50992ZM71.2069 34.7439C70.9242 35.6002 70.4017 37.1816 70.0763 37.6054C66.5616 40.6675 64.7258 44.8845 64.7663 49.805C64.7909 52.8168 63.7484 54.5817 62.6448 56.4504C61.2516 58.8093 59.6978 61.4398 60.8618 65.8255C59.7694 64.6331 58.7966 63.8467 57.748 63.3352C55.2579 62.1208 52.9837 62.7035 49.541 63.5853C47.4692 64.116 44.8907 64.7764 41.3176 65.3343C38.5892 65.7604 36.8147 66.707 36.0847 69.3845C36.0368 69.3281 35.9882 69.2708 35.939 69.2128C34.4783 67.4905 32.8229 65.5386 26.5054 62.7117C13.6712 56.9688 8.07188 53.445 5.84595 49.7102C3.6543 46.0329 4.51168 41.5643 6.06777 33.4522C6.39608 31.7408 6.75686 29.8597 7.1187 27.8139C8.58817 28.0345 10.1364 28.2658 11.7392 28.5049C17.3372 29.3408 23.6456 30.2827 29.5253 31.2177C31.4231 34.052 33.739 37.5425 36.5633 42.2069L38.4921 45.3923L40.421 42.2069C42.3439 39.0311 44.0329 36.3984 45.5149 34.1458C45.7451 34.2015 45.9588 34.2545 46.1558 34.3051C45.5039 36.6122 46.2178 38.9526 48.0318 40.2771C49.8818 41.6279 52.3656 41.5268 54.2126 40.0259C54.3834 39.887 54.6122 39.7013 54.8447 39.52C55.2184 40.8012 56.1483 43.2968 58.53 43.8149C61.8655 44.5404 64.7858 40.6955 67.2856 37.6672C68.9053 35.7051 68.6065 35.9898 69.6158 35.3184C70.1373 34.9715 70.7745 34.5475 71.4565 33.9936C71.3741 34.2379 71.2911 34.489 71.2069 34.7439Z" fill="white" fill-opacity="0.53"/>
<path d="M38.4921 9.01953C34.7621 9.01953 31.7274 12.0541 31.7274 15.7843C31.7274 19.5143 34.7619 22.549 38.4921 22.549C42.2221 22.549 45.2568 19.5144 45.2568 15.7843C45.2567 12.0543 42.2221 9.01953 38.4921 9.01953ZM38.4921 18.0391C37.2488 18.0391 36.2371 17.0275 36.2371 15.7841C36.2371 14.5407 37.2487 13.5292 38.4921 13.5292C39.7355 13.5292 40.747 14.5407 40.747 15.7841C40.747 17.0275 39.7354 18.0391 38.4921 18.0391Z" fill="white" fill-opacity="0.53"/>
</g>
<defs>
<clipPath id="clip0">
<rect width="77" height="77" fill="white"/>
</clipPath>
</defs>
</svg>
