<svg width="90" height="89" viewBox="0 0 90 89" fill="none" xmlns="http://www.w3.org/2000/svg">
<path d="M82.5 45.5781H43.5V7.44699C43.5 6.63707 42.8284 5.98041 42 5.98041C18.804 5.98041 0 24.3655 0 47.0447C0 69.7239 18.804 88.1089 42 88.1089C65.196 88.1089 84 69.7239 84 47.0447C84 46.2348 83.3284 45.5781 82.5 45.5781ZM42 85.1758C20.4609 85.1807 2.99587 68.113 2.99062 47.0538C2.98575 26.5582 19.5527 9.72477 40.5 8.94144V47.0447C40.5 47.8546 41.1716 48.5113 42 48.5113H80.9715C80.1403 68.9737 62.9453 85.151 42 85.1758Z" fill="#4B5320"/>
<path d="M48 0.114197C47.1716 0.114197 46.5 0.770856 46.5 1.58077V41.1783C46.5 41.9882 47.1716 42.6449 48 42.6449H88.5C89.3284 42.6449 90 41.9882 90 41.1783C89.9736 18.51 71.1849 0.140045 48 0.114197ZM49.5 39.7117V3.07521C69.8501 3.86698 86.1617 19.8151 86.9715 39.7117H49.5Z" fill="#4B5320"/>
</svg>
