<svg width="90" height="89" viewBox="0 0 90 89" fill="none" xmlns="http://www.w3.org/2000/svg">
<path d="M47.7131 5.70517L47.7139 5.70592L84.4302 41.5992L84.4305 41.5995L84.4332 41.6021C85.8557 42.9957 85.8555 45.2286 84.4332 46.6217C83.7175 47.3212 82.7695 47.7134 81.7186 47.7134H80.3616H75.8616V52.2134V78.6289C75.8616 81.2748 73.623 83.6089 70.6631 83.6089H58.1614V64.8213C58.1614 59.8552 54.0655 55.9958 49.2369 55.9958H40.7642C35.9356 55.9958 31.8397 59.8552 31.8397 64.8213V83.6089H19.338C16.3782 83.6089 14.1395 81.2748 14.1395 78.6289V52.2134V47.7134H9.63952H8.26149L8.22885 47.7103L8.10931 47.7053C7.12334 47.6639 6.23606 47.2746 5.56866 46.6218L5.56791 46.621C4.14728 45.2322 4.14353 43.0043 5.55969 41.6101C5.57392 41.5962 5.58583 41.5843 5.5943 41.5759L5.60376 41.5664L42.2866 5.70522L42.2866 5.70519C43.0011 5.00666 43.9485 4.6142 45.0006 4.6142C46.0518 4.6142 46.9991 5.00677 47.7131 5.70517ZM5.61429 41.5558C5.61828 41.5518 5.61601 41.5541 5.61283 41.5573L5.61429 41.5558Z" stroke="#4B5320" stroke-width="9"/>
</svg>
