<svg width="90" height="89" viewBox="0 0 90 89" fill="none" xmlns="http://www.w3.org/2000/svg">
<path d="M46.8977 34.2772C45.3504 34.2772 43.9192 34.7054 42.605 35.5646C41.2883 36.4211 40.1542 37.5274 39.2005 38.8905C38.2432 40.2536 37.5099 41.7791 36.9943 43.4663C36.4762 45.1589 36.2207 46.8068 36.2207 48.4224C36.2207 50.0854 36.569 51.4478 37.2659 52.5073C37.9619 53.5642 39.1583 54.0952 40.8624 54.0952C41.5823 54.0952 42.3608 53.8822 43.1852 53.4516C44.0101 53.0232 44.8061 52.457 45.5823 51.7484C46.3566 51.0445 47.1014 50.2355 47.8264 49.3288C48.5463 48.4222 49.1918 47.4629 49.7605 46.4562L51.6957 36.0171C51.0209 35.4605 50.3253 35.0322 49.6054 34.7298C48.8817 34.427 47.9787 34.2772 46.8977 34.2772Z" fill="#4B5320"/>
<path d="M45.0015 0.114197C20.1487 0.114197 0 19.8122 0 44.1103C0 68.4091 20.1468 88.1089 45.0013 88.1089C69.8565 88.1089 90 68.4105 90 44.1103C90.0002 19.8122 69.8592 0.114197 45.0015 0.114197ZM73.7825 55.2299C71.7433 57.2987 69.3725 58.9379 66.6661 60.1464C63.9597 61.3562 61.0548 61.9622 57.9604 61.9622C56.668 61.9622 55.4718 61.8256 54.3627 61.5479C53.2522 61.2684 52.3224 60.804 51.578 60.1464C50.83 59.4903 50.2743 58.6336 49.9117 57.5742C49.5506 56.5148 49.4482 55.2049 49.6056 53.6433H49.2957C48.5246 54.6989 47.6829 55.7344 46.78 56.7437C45.8803 57.7531 44.8876 58.6459 43.8015 59.4288C42.7211 60.2127 41.5326 60.83 40.2459 61.2822C38.9529 61.7355 37.5364 61.9622 35.9884 61.9622C34.7517 61.9622 33.5651 61.6968 32.4278 61.1681C31.2954 60.6384 30.315 59.8947 29.4896 58.9379C28.6647 57.9811 28.0065 56.819 27.5197 55.4566C27.0255 54.0954 26.7815 52.584 26.7815 50.9184C26.7815 47.7914 27.2996 44.7539 28.3292 41.8042C29.3616 38.8539 30.7675 36.2439 32.5458 33.9755C34.3255 31.7057 36.3914 29.8811 38.7379 28.4911C41.0842 27.1059 43.5724 26.4123 46.202 26.4123C48.0086 26.4123 49.5303 26.6778 50.7662 27.2063C52.0023 27.7372 53.1396 28.4283 54.172 29.2874L56.5682 26.8649H61.985L58.2733 47.3655C57.8608 49.7349 57.848 51.4506 58.2324 52.51C58.6216 53.5667 59.4823 54.0979 60.8246 54.0979C62.1644 54.0979 63.4836 53.7949 64.7722 53.1888C66.0582 52.584 67.2188 51.6535 68.2535 50.3897C69.2805 49.1313 70.1235 47.5409 70.7664 45.626C71.4118 43.7076 71.732 41.4378 71.732 38.8155C71.732 35.0337 71.0866 31.8047 69.798 29.1322C68.5069 26.4599 66.742 24.2532 64.5007 22.5152C62.2563 20.775 59.6111 19.5023 56.568 18.6958C53.5261 17.8887 50.2498 17.4837 46.7422 17.4837C42.7211 17.4837 38.9804 18.1901 35.5241 19.5995C32.0684 21.0153 29.0636 22.9556 26.5095 25.4253C23.9587 27.8978 21.96 30.8358 20.5132 34.2389C19.073 37.6426 18.3493 41.3368 18.3493 45.3199C18.3493 49.2546 18.9563 52.7834 20.1655 55.9091C21.3805 59.0399 23.1468 61.6972 25.4682 63.8911C27.787 66.0852 30.6632 67.7732 34.0958 68.9578C37.5225 70.1427 41.4547 70.7373 45.8922 70.7373C47.3883 70.7373 49.0892 70.5607 51.0002 70.2089C52.9062 69.8558 54.6353 69.3261 56.1825 68.6185L58.5801 75.8818C56.4669 76.8912 54.3123 77.595 52.1196 77.9969C49.9268 78.4002 47.4137 78.6069 44.5749 78.6069C39.5725 78.6069 34.9431 77.8982 30.6907 76.4893C26.4338 75.0755 22.7443 72.983 19.6235 70.2105C16.5036 67.4354 14.0653 63.9939 12.3133 59.8866C10.5584 55.7765 9.68495 51.0229 9.68495 45.6279C9.68495 40.1304 10.6892 35.1613 12.7 30.7232C14.711 26.2876 17.4244 22.5058 20.8251 19.3769C24.2302 16.2493 28.175 13.845 32.6592 12.1505C37.1505 10.4655 41.8939 9.61836 46.8962 9.61836C51.6405 9.61836 56.0516 10.2865 60.1248 11.6227C64.2003 12.9601 67.7328 14.8754 70.7248 17.3701C73.7168 19.8666 76.0633 22.9202 77.7644 26.5245C79.4678 30.1324 80.3208 34.2291 80.3208 38.8176C80.3208 42.0465 79.7391 45.0721 78.5788 47.8961C77.4161 50.7169 75.8201 53.1636 73.7825 55.2299Z" fill="#4B5320"/>
</svg>
