<svg width="90" height="89" viewBox="0 0 90 89" fill="none" xmlns="http://www.w3.org/2000/svg">
<path d="M85.5449 66.8407L85.545 66.8407C87.3937 68.6444 87.6015 72.0174 85.4667 74.4637L77.0043 82.7203L79.0993 84.8675L77.0043 82.7203C75.4754 84.212 73.1465 85.103 69.8439 85.1089C66.5231 85.1149 62.435 84.2145 57.7953 82.3567C48.5262 78.6451 37.6104 71.3352 27.2535 61.2304C16.9047 51.1335 9.53302 40.4959 5.79142 31.4738C3.91848 26.9577 3.01224 22.9837 3.00012 19.7631C2.98815 16.5799 3.83925 14.3396 5.25776 12.8674L13.7683 4.56397C15.661 2.71733 19.2413 2.52 21.7928 4.63995L34.3011 16.8439C37.2166 19.6884 35.9657 24.3446 32.387 25.4189L32.3543 25.4287L32.3219 25.4393C27.0556 27.1518 23.0816 32.9787 24.9721 38.7772C26.3192 44.1296 30.337 49.7081 34.9329 54.1355C39.573 58.6054 45.3096 62.3902 50.519 63.6608L50.5564 63.67L50.5941 63.6781C55.9367 64.8367 62.0563 62.0196 63.9579 56.4533L63.9694 56.4197L63.9801 56.3858C65.0463 53.005 69.9197 51.5957 72.9587 54.5608L85.5449 66.8407Z" stroke="#4B5320" stroke-width="6"/>
</svg>
