<svg width="51" height="53" viewBox="0 0 51 53" fill="none" xmlns="http://www.w3.org/2000/svg">
<path d="M7.00501 42.9278L1 50V44.9485M7.00501 42.9278L13.01 50L19.015 42.9278M7.00501 42.9278V10.0928M19.015 42.9278L25.02 50L31.0251 42.9278M19.015 42.9278V10.0928M31.0251 42.9278L37.0301 50L43.0351 42.9278L49.0401 50V44.9485M31.0251 42.9278V10.0928M1 44.9485L7.00501 37.8763L13.01 44.9485M1 44.9485V37.1186M13.01 44.9485L19.015 37.8763L25.02 44.9485M13.01 44.9485V23.6057M25.02 44.9485L31.0251 37.8763L37.0301 44.9485M25.02 44.9485V23.6057M37.0301 44.9485L43.0351 37.8763M37.0301 44.9485V23.6057M43.0351 37.8763L49.0401 44.9485M43.0351 37.8763V30.0464M49.0401 44.9485V37.1186M43.0351 22.2165V22.7216M43.0351 30.0464L37.0301 37.1186L31.0251 30.0464L25.02 37.1186L19.015 30.0464L13.01 37.1186L7.00501 30.0464L1 37.1186M43.0351 30.0464L49.0401 37.1186M43.0351 30.0464V22.7216M1 37.1186V23.6057M49.0401 37.1186V23.6057M13.01 10.0928V23.6057M13.01 10.0928H7.00501M13.01 10.0928H19.015M25.02 10.0928V23.6057M25.02 10.0928H19.015M25.02 10.0928H31.0251M1 23.6057V10.0928H7.00501M1 23.6057L7.00501 16.5335L13.01 23.6057M13.01 23.6057L19.015 16.5335L25.02 23.6057M25.02 23.6057L31.0251 16.5335L37.0301 23.6057M37.0301 23.6057L43.0351 16.5335M43.0351 16.5335L49.0401 23.6057M43.0351 16.5335V10.0928M49.0401 23.6057V10.0928H43.0351M31.0251 10.0928V5.54639M43.0351 22.7216V17.1649M43.0351 10.0928V1H31.0251V5.54639M31.0251 5.54639H42.6061" stroke="#90D31C" stroke-width="2"/>
</svg>
