<svg width="221" height="43" viewBox="0 0 221 43" fill="none" xmlns="http://www.w3.org/2000/svg">
<path d="M5.9 26.1C5.9 29.86 6.64 32.76 8.12 34.8C9.64 36.8 11.96 37.8 15.08 37.8C16.44 37.8 17.78 37.64 19.1 37.32C20.42 37 22 36.44 23.84 35.64L25.58 40.08C23.62 40.96 21.76 41.6 20 42C18.24 42.4 16.54 42.6 14.9 42.6C10.18 42.6 6.6 41.12 4.16 38.16C1.72 35.2 0.5 31.18 0.5 26.1V17.1C0.5 12.02 1.72 8 4.16 5.04C6.6 2.08 10.18 0.599997 14.9 0.599997C16.54 0.599997 18.24 0.799998 20 1.2C21.8 1.6 23.62 2.24 25.46 3.12L23.78 7.62C20.54 6.18 17.64 5.46 15.08 5.46C11.96 5.46 9.64 6.46 8.12 8.46C6.64 10.46 5.9 13.34 5.9 17.1V26.1ZM55.7178 42L52.6578 32.52H37.1778L34.1178 42H29.0178L42.5778 1.2H47.4978L61.1178 42H55.7178ZM40.9578 20.76L38.6778 27.78H51.0978L48.8178 20.76L44.9178 8.16L40.9578 20.76ZM59.2409 6.12V1.2H88.2209V6.12H76.3409V42H71.1209V6.12H59.2409ZM113.023 42L109.963 32.52H94.4825L91.4225 42H86.3225L99.8825 1.2H104.803L118.423 42H113.023ZM98.2625 20.76L95.9825 27.78H108.403L106.123 20.76L102.223 8.16L98.2625 20.76ZM148.371 37.14V42H126.051V1.2H131.271V37.14H148.371ZM183.187 17.1V26.04C183.187 31.12 181.907 35.16 179.347 38.16C176.827 41.12 173.187 42.6 168.427 42.6C163.667 42.6 160.007 41.12 157.447 38.16C154.927 35.16 153.667 31.12 153.667 26.04V17.1C153.667 12.06 154.927 8.06 157.447 5.1C160.007 2.1 163.667 0.599997 168.427 0.599997C173.187 0.599997 176.827 2.1 179.347 5.1C181.907 8.06 183.187 12.06 183.187 17.1ZM177.787 17.1C177.787 13.38 176.987 10.52 175.387 8.52C173.827 6.48 171.507 5.46 168.427 5.46C165.387 5.46 163.067 6.48 161.467 8.52C159.867 10.52 159.067 13.38 159.067 17.1V26.04C159.067 29.8 159.867 32.7 161.467 34.74C163.067 36.78 165.387 37.8 168.427 37.8C171.507 37.8 173.827 36.78 175.387 34.74C176.987 32.7 177.787 29.8 177.787 26.04V17.1ZM220.055 39.18C218.895 39.94 217.235 40.7 215.075 41.46C212.955 42.22 210.395 42.6 207.395 42.6C204.155 42.6 201.415 41.92 199.175 40.56C196.975 39.16 195.295 37.22 194.135 34.74C193.015 32.22 192.455 29.32 192.455 26.04V17.1C192.455 11.98 193.735 7.96 196.295 5.04C198.895 2.08 202.655 0.599997 207.575 0.599997C209.375 0.599997 211.255 0.799998 213.215 1.2C215.215 1.6 217.195 2.26 219.155 3.18L217.475 7.68C213.875 6.2 210.595 5.46 207.635 5.46C204.355 5.46 201.895 6.46 200.255 8.46C198.655 10.42 197.855 13.3 197.855 17.1V26.04C197.855 29.64 198.675 32.5 200.315 34.62C201.955 36.74 204.435 37.8 207.755 37.8C209.035 37.8 210.335 37.66 211.655 37.38C213.015 37.1 214.215 36.72 215.255 36.24V25.26H207.635V20.64H220.055V39.18Z" fill="white"/>
<path d="M8.12 34.8L7.31058 35.3872L7.31711 35.3962L7.32384 35.4051L8.12 34.8ZM23.84 35.64L24.7711 35.2751L24.3926 34.3093L23.4413 34.7229L23.84 35.64ZM25.58 40.08L25.9896 40.9923L26.8586 40.6021L26.5111 39.7151L25.58 40.08ZM20 42L19.7784 41.0249L19.7784 41.0249L20 42ZM4.16 38.16L3.38837 38.7961L3.38837 38.7961L4.16 38.16ZM20 1.2L19.7784 2.17514L19.7831 2.17619L20 1.2ZM25.46 3.12L26.3968 3.46975L26.7168 2.61262L25.8915 2.21787L25.46 3.12ZM23.78 7.62L23.3739 8.53381L24.3451 8.96547L24.7168 7.96975L23.78 7.62ZM8.12 8.46L7.32377 7.85487L7.31616 7.86516L8.12 8.46ZM4.9 26.1C4.9 29.9725 5.65927 33.1111 7.31058 35.3872L8.92942 34.2128C7.62073 32.4089 6.9 29.7475 6.9 26.1H4.9ZM7.32384 35.4051C9.07849 37.7138 11.7314 38.8 15.08 38.8V36.8C12.1886 36.8 10.2015 35.8862 8.91616 34.1949L7.32384 35.4051ZM15.08 38.8C16.5193 38.8 17.9384 38.6306 19.3356 38.2918L18.8644 36.3481C17.6216 36.6494 16.3607 36.8 15.08 36.8V38.8ZM19.3356 38.2918C20.731 37.9536 22.3684 37.3703 24.2387 36.5571L23.4413 34.7229C21.6316 35.5097 20.109 36.0464 18.8644 36.3481L19.3356 38.2918ZM22.9089 36.0049L24.6489 40.4449L26.5111 39.7151L24.7711 35.2751L22.9089 36.0049ZM25.1704 39.1677C23.2598 40.0256 21.463 40.642 19.7784 41.0249L20.2216 42.9751C22.057 42.558 23.9802 41.8944 25.9896 40.9923L25.1704 39.1677ZM19.7784 41.0249C18.0839 41.41 16.4584 41.6 14.9 41.6V43.6C16.6216 43.6 18.3961 43.39 20.2216 42.9751L19.7784 41.0249ZM14.9 41.6C10.4032 41.6 7.13839 40.201 4.93163 37.5239L3.38837 38.7961C6.06161 42.039 9.9568 43.6 14.9 43.6V41.6ZM4.93163 37.5239C2.6812 34.7939 1.5 31.0237 1.5 26.1H-0.5C-0.5 31.3363 0.758799 35.6061 3.38837 38.7961L4.93163 37.5239ZM1.5 26.1V17.1H-0.5V26.1H1.5ZM1.5 17.1C1.5 12.1763 2.6812 8.4061 4.93163 5.67607L3.38837 4.40392C0.758799 7.5939 -0.5 11.8637 -0.5 17.1H1.5ZM4.93163 5.67607C7.13839 2.99902 10.4032 1.6 14.9 1.6V-0.400003C9.9568 -0.400003 6.06161 1.16097 3.38837 4.40392L4.93163 5.67607ZM14.9 1.6C16.4584 1.6 18.0839 1.79002 19.7784 2.17513L20.2216 0.224867C18.3961 -0.190026 16.6216 -0.400003 14.9 -0.400003V1.6ZM19.7831 2.17619C21.5016 2.55809 23.2499 3.17146 25.0285 4.02213L25.8915 2.21787C23.9901 1.30854 22.0984 0.641909 20.2169 0.223812L19.7831 2.17619ZM24.5232 2.77025L22.8432 7.27024L24.7168 7.96975L26.3968 3.46975L24.5232 2.77025ZM24.1861 6.70619C20.8644 5.22984 17.8228 4.46 15.08 4.46V6.46C17.4572 6.46 20.2156 7.13015 23.3739 8.53381L24.1861 6.70619ZM15.08 4.46C11.7314 4.46 9.07849 5.54616 7.32384 7.85492L8.91616 9.06508C10.2015 7.37384 12.1886 6.46 15.08 6.46V4.46ZM7.31616 7.86516C5.65851 10.1052 4.9 13.2294 4.9 17.1H6.9C6.9 13.4506 7.62149 10.8148 8.92384 9.05484L7.31616 7.86516ZM4.9 17.1V26.1H6.9V17.1H4.9ZM55.7178 42L54.7662 42.3072L54.9898 43H55.7178V42ZM52.6578 32.52L53.6095 32.2128L53.3858 31.52H52.6578V32.52ZM37.1778 32.52V31.52H36.4498L36.2262 32.2128L37.1778 32.52ZM34.1178 42V43H34.8458L35.0695 42.3072L34.1178 42ZM29.0178 42L28.0689 41.6846L27.6317 43H29.0178V42ZM42.5778 1.2V0.2H41.8564L41.6289 0.884609L42.5778 1.2ZM47.4978 1.2L48.4464 0.883353L48.2182 0.2H47.4978V1.2ZM61.1178 42V43H62.5059L62.0664 41.6834L61.1178 42ZM40.9578 20.76L41.909 21.0689L41.9118 21.0598L40.9578 20.76ZM38.6778 27.78L37.7267 27.4711L37.3016 28.78H38.6778V27.78ZM51.0978 27.78V28.78H52.474L52.0489 27.4711L51.0978 27.78ZM48.8178 20.76L47.8624 21.0557L47.8667 21.0689L48.8178 20.76ZM44.9178 8.16L45.8731 7.86432L44.9251 4.80155L43.9638 7.86017L44.9178 8.16ZM56.6695 41.6928L53.6095 32.2128L51.7062 32.8272L54.7662 42.3072L56.6695 41.6928ZM52.6578 31.52H37.1778V33.52H52.6578V31.52ZM36.2262 32.2128L33.1662 41.6928L35.0695 42.3072L38.1295 32.8272L36.2262 32.2128ZM34.1178 41H29.0178V43H34.1178V41ZM29.9668 42.3154L43.5268 1.51539L41.6289 0.884609L28.0689 41.6846L29.9668 42.3154ZM42.5778 2.2H47.4978V0.2H42.5778V2.2ZM46.5493 1.51665L60.1693 42.3166L62.0664 41.6834L48.4464 0.883353L46.5493 1.51665ZM61.1178 41H55.7178V43H61.1178V41ZM40.0067 20.4511L37.7267 27.4711L39.6289 28.0889L41.9089 21.0689L40.0067 20.4511ZM38.6778 28.78H51.0978V26.78H38.6778V28.78ZM52.0489 27.4711L49.7689 20.4511L47.8667 21.0689L50.1467 28.0889L52.0489 27.4711ZM49.7731 20.4643L45.8731 7.86432L43.9625 8.45568L47.8625 21.0557L49.7731 20.4643ZM43.9638 7.86017L40.0038 20.4602L41.9118 21.0598L45.8718 8.45983L43.9638 7.86017ZM59.2409 6.12H58.2409V7.12H59.2409V6.12ZM59.2409 1.2V0.2H58.2409V1.2H59.2409ZM88.2209 1.2H89.2209V0.2H88.2209V1.2ZM88.2209 6.12V7.12H89.2209V6.12H88.2209ZM76.3409 6.12V5.12H75.3409V6.12H76.3409ZM76.3409 42V43H77.3409V42H76.3409ZM71.1209 42H70.1209V43H71.1209V42ZM71.1209 6.12H72.1209V5.12H71.1209V6.12ZM60.2409 6.12V1.2H58.2409V6.12H60.2409ZM59.2409 2.2H88.2209V0.2H59.2409V2.2ZM87.2209 1.2V6.12H89.2209V1.2H87.2209ZM88.2209 5.12H76.3409V7.12H88.2209V5.12ZM75.3409 6.12V42H77.3409V6.12H75.3409ZM76.3409 41H71.1209V43H76.3409V41ZM72.1209 42V6.12H70.1209V42H72.1209ZM71.1209 5.12H59.2409V7.12H71.1209V5.12ZM113.023 42L112.071 42.3072L112.294 43H113.023V42ZM109.963 32.52L110.914 32.2128L110.691 31.52H109.963V32.52ZM94.4825 32.52V31.52H93.7545L93.5308 32.2128L94.4825 32.52ZM91.4225 42V43H92.1505L92.3742 42.3072L91.4225 42ZM86.3225 42L85.3735 41.6846L84.9364 43H86.3225V42ZM99.8825 1.2V0.2H99.1611L98.9335 0.884609L99.8825 1.2ZM104.803 1.2L105.751 0.883353L105.523 0.2H104.803V1.2ZM118.423 42V43H119.811L119.371 41.6834L118.423 42ZM98.2625 20.76L99.2136 21.0689L99.2165 21.0598L98.2625 20.76ZM95.9825 27.78L95.0314 27.4711L94.6063 28.78H95.9825V27.78ZM108.403 27.78V28.78H109.779L109.354 27.4711L108.403 27.78ZM106.123 20.76L105.167 21.0557L105.171 21.0689L106.123 20.76ZM102.223 8.16L103.178 7.86432L102.23 4.80155L101.269 7.86017L102.223 8.16ZM113.974 41.6928L110.914 32.2128L109.011 32.8272L112.071 42.3072L113.974 41.6928ZM109.963 31.52H94.4825V33.52H109.963V31.52ZM93.5308 32.2128L90.4708 41.6928L92.3742 42.3072L95.4342 32.8272L93.5308 32.2128ZM91.4225 41H86.3225V43H91.4225V41ZM87.2715 42.3154L100.831 1.51539L98.9335 0.884609L85.3735 41.6846L87.2715 42.3154ZM99.8825 2.2H104.803V0.2H99.8825V2.2ZM103.854 1.51665L117.474 42.3166L119.371 41.6834L105.751 0.883353L103.854 1.51665ZM118.423 41H113.023V43H118.423V41ZM97.3114 20.4511L95.0314 27.4711L96.9336 28.0889L99.2136 21.0689L97.3114 20.4511ZM95.9825 28.78H108.403V26.78H95.9825V28.78ZM109.354 27.4711L107.074 20.4511L105.171 21.0689L107.451 28.0889L109.354 27.4711ZM107.078 20.4643L103.178 7.86432L101.267 8.45568L105.167 21.0557L107.078 20.4643ZM101.269 7.86017L97.3085 20.4602L99.2165 21.0598L103.176 8.45983L101.269 7.86017ZM148.371 37.14H149.371V36.14H148.371V37.14ZM148.371 42V43H149.371V42H148.371ZM126.051 42H125.051V43H126.051V42ZM126.051 1.2V0.2H125.051V1.2H126.051ZM131.271 1.2H132.271V0.2H131.271V1.2ZM131.271 37.14H130.271V38.14H131.271V37.14ZM147.371 37.14V42H149.371V37.14H147.371ZM148.371 41H126.051V43H148.371V41ZM127.051 42V1.2H125.051V42H127.051ZM126.051 2.2H131.271V0.2H126.051V2.2ZM130.271 1.2V37.14H132.271V1.2H130.271ZM131.271 38.14H148.371V36.14H131.271V38.14ZM179.347 38.16L178.586 37.5109L178.585 37.5118L179.347 38.16ZM157.447 38.16L156.681 38.8032L156.686 38.8087L156.691 38.8142L157.447 38.16ZM157.447 5.1L156.686 4.45088L156.685 4.45175L157.447 5.1ZM179.347 5.1L178.581 5.74319L178.586 5.7487L178.591 5.75415L179.347 5.1ZM175.387 8.52L174.593 9.12745L174.599 9.13614L174.606 9.14469L175.387 8.52ZM161.467 8.52L162.248 9.14472L162.254 9.13714L161.467 8.52ZM161.467 34.74L162.254 34.1229L162.254 34.1229L161.467 34.74ZM175.387 34.74L174.6 34.1228L174.593 34.1325L175.387 34.74ZM182.187 17.1V26.04H184.187V17.1H182.187ZM182.187 26.04C182.187 30.9521 180.952 34.7389 178.586 37.5109L180.108 38.8091C182.862 35.5811 184.187 31.2879 184.187 26.04H182.187ZM178.585 37.5118C176.298 40.1991 172.966 41.6 168.427 41.6V43.6C173.408 43.6 177.356 42.0409 180.108 38.8082L178.585 37.5118ZM168.427 41.6C163.889 41.6 160.533 40.1992 158.203 37.5058L156.691 38.8142C159.481 42.0408 163.445 43.6 168.427 43.6V41.6ZM158.213 37.5168C155.884 34.7447 154.667 30.9557 154.667 26.04H152.667C152.667 31.2843 153.97 35.5753 156.681 38.8032L158.213 37.5168ZM154.667 26.04V17.1H152.667V26.04H154.667ZM154.667 17.1C154.667 12.2258 155.883 8.47933 158.208 5.74824L156.685 4.45175C153.971 7.64067 152.667 11.8942 152.667 17.1H154.667ZM158.208 5.74912C160.538 3.01777 163.893 1.6 168.427 1.6V-0.400003C163.441 -0.400003 159.475 1.18222 156.686 4.45088L158.208 5.74912ZM168.427 1.6C172.961 1.6 176.292 3.01779 178.581 5.74319L180.113 4.45681C177.362 1.1822 173.413 -0.400003 168.427 -0.400003V1.6ZM178.591 5.75415C180.953 8.48524 182.187 12.2294 182.187 17.1H184.187C184.187 11.8906 182.861 7.63476 180.103 4.44585L178.591 5.75415ZM178.787 17.1C178.787 13.2526 177.961 10.1373 176.168 7.8953L174.606 9.14469C176.012 10.9027 176.787 13.5074 176.787 17.1H178.787ZM176.181 7.91255C174.393 5.57466 171.749 4.46 168.427 4.46V6.46C171.265 6.46 173.26 7.38533 174.593 9.12745L176.181 7.91255ZM168.427 4.46C165.139 4.46 162.504 5.57789 160.68 7.90286L162.254 9.13714C163.63 7.3821 165.635 6.46 168.427 6.46V4.46ZM160.686 7.8953C158.892 10.1373 158.067 13.2526 158.067 17.1H160.067C160.067 13.5074 160.841 10.9027 162.248 9.14469L160.686 7.8953ZM158.067 17.1V26.04H160.067V17.1H158.067ZM158.067 26.04C158.067 29.9262 158.892 33.0772 160.68 35.3571L162.254 34.1229C160.842 32.3228 160.067 29.6738 160.067 26.04H158.067ZM160.68 35.3571C162.504 37.6821 165.139 38.8 168.427 38.8V36.8C165.635 36.8 163.63 35.8779 162.254 34.1229L160.68 35.3571ZM168.427 38.8C171.749 38.8 174.393 37.6853 176.181 35.3474L174.593 34.1325C173.26 35.8747 171.265 36.8 168.427 36.8V38.8ZM176.174 35.3571C177.962 33.0772 178.787 29.9262 178.787 26.04H176.787C176.787 29.6738 176.012 32.3228 174.6 34.1229L176.174 35.3571ZM178.787 26.04V17.1H176.787V26.04H178.787ZM220.055 39.18L220.603 40.0165L221.055 39.7203V39.18H220.055ZM215.075 41.46L214.743 40.5167L214.737 40.5187L215.075 41.46ZM199.175 40.56L198.638 41.4037L198.647 41.4093L198.656 41.4148L199.175 40.56ZM194.135 34.74L193.221 35.1461L193.225 35.1549L193.229 35.1637L194.135 34.74ZM196.295 5.04L195.543 4.38006L195.543 4.38076L196.295 5.04ZM213.215 1.2L213.015 2.17981L213.018 2.18058L213.215 1.2ZM219.155 3.18L220.091 3.52975L220.414 2.66636L219.579 2.27476L219.155 3.18ZM217.475 7.68L217.094 8.60489L218.05 8.99778L218.411 8.02975L217.475 7.68ZM200.255 8.46L199.481 7.82592L199.48 7.82762L200.255 8.46ZM200.315 34.62L201.105 34.0081L201.105 34.0081L200.315 34.62ZM211.655 37.38L211.453 36.4005L211.447 36.4018L211.655 37.38ZM215.255 36.24L215.674 37.148L216.255 36.8798V36.24H215.255ZM215.255 25.26H216.255V24.26H215.255V25.26ZM207.635 25.26H206.635V26.26H207.635V25.26ZM207.635 20.64V19.64H206.635V20.64H207.635ZM220.055 20.64H221.055V19.64H220.055V20.64ZM219.507 38.3435C218.443 39.0401 216.869 39.7685 214.743 40.5167L215.406 42.4033C217.6 41.6315 219.346 40.8399 220.603 40.0165L219.507 38.3435ZM214.737 40.5187C212.755 41.2293 210.315 41.6 207.395 41.6V43.6C210.474 43.6 213.154 43.2107 215.412 42.4013L214.737 40.5187ZM207.395 41.6C204.294 41.6 201.744 40.9501 199.694 39.7052L198.656 41.4148C201.085 42.8899 204.015 43.6 207.395 43.6V41.6ZM199.711 39.7163C197.68 38.4236 196.124 36.6331 195.04 34.3163L193.229 35.1637C194.465 37.8069 196.269 39.8964 198.638 41.4037L199.711 39.7163ZM195.048 34.3339C193.995 31.9636 193.455 29.2062 193.455 26.04H191.455C191.455 29.4338 192.034 32.4764 193.221 35.1461L195.048 34.3339ZM193.455 26.04V17.1H191.455V26.04H193.455ZM193.455 17.1C193.455 12.144 194.692 8.38534 197.046 5.69923L195.543 4.38076C192.778 7.53465 191.455 11.816 191.455 17.1H193.455ZM197.046 5.69994C199.41 3.00804 202.865 1.6 207.575 1.6V-0.400003C202.444 -0.400003 198.379 1.15195 195.543 4.38006L197.046 5.69994ZM207.575 1.6C209.3 1.6 211.113 1.79177 213.015 2.1798L213.414 0.220196C211.396 -0.191771 209.449 -0.400003 207.575 -0.400003V1.6ZM213.018 2.18058C214.935 2.56384 216.838 3.19738 218.73 4.08524L219.579 2.27476C217.551 1.32262 215.494 0.636163 213.411 0.219419L213.018 2.18058ZM218.218 2.83024L216.538 7.33024L218.411 8.02975L220.091 3.52975L218.218 2.83024ZM217.855 6.75511C214.17 5.24034 210.759 4.46 207.635 4.46V6.46C210.43 6.46 213.579 7.15965 217.094 8.60489L217.855 6.75511ZM207.635 4.46C204.142 4.46 201.36 5.53433 199.481 7.82592L201.028 9.09408C202.429 7.38566 204.567 6.46 207.635 6.46V4.46ZM199.48 7.82762C197.677 10.0365 196.855 13.1806 196.855 17.1H198.855C198.855 13.4194 199.632 10.8035 201.029 9.09238L199.48 7.82762ZM196.855 17.1V26.04H198.855V17.1H196.855ZM196.855 26.04C196.855 29.7859 197.708 32.8851 199.524 35.2319L201.105 34.0081C199.641 32.1149 198.855 29.4941 198.855 26.04H196.855ZM199.524 35.2319C201.398 37.6548 204.207 38.8 207.755 38.8V36.8C204.662 36.8 202.511 35.8252 201.105 34.0081L199.524 35.2319ZM207.755 38.8C209.108 38.8 210.477 38.6519 211.862 38.3582L211.447 36.4018C210.192 36.6681 208.961 36.8 207.755 36.8V38.8ZM211.856 38.3595C213.276 38.0672 214.551 37.6659 215.674 37.148L214.835 35.332C213.878 35.774 212.753 36.1328 211.453 36.4005L211.856 38.3595ZM216.255 36.24V25.26H214.255V36.24H216.255ZM215.255 24.26H207.635V26.26H215.255V24.26ZM208.635 25.26V20.64H206.635V25.26H208.635ZM207.635 21.64H220.055V19.64H207.635V21.64ZM219.055 20.64V39.18H221.055V20.64H219.055Z" fill="#689E2A"/>
</svg>
