<svg width="119" height="119" viewBox="0 0 119 119" fill="none" xmlns="http://www.w3.org/2000/svg">
<path d="M113.069 58.0404C110.295 57.7992 108.027 59.8017 107.786 62.5762C106.266 84.9655 89.6666 103.567 67.5427 107.596C48.3863 111.07 29.2541 103.084 18.3972 87.4988L28.7957 88.9946C31.3049 89.5013 33.8381 87.4747 34.0794 84.9655C34.3207 82.191 32.5594 79.6818 29.809 79.4406L9.18094 76.4006C6.4064 76.1594 4.13852 77.9206 3.65599 80.671L0.640192 101.299C0.398928 104.074 2.16016 106.583 4.91057 106.824C8.1435 107.089 10.1942 105.063 10.7009 102.554L11.7866 95.0021C34.6825 123.423 65.7815 117.898 69.3039 117.391C95.7224 112.614 115.844 90.2251 117.605 63.3241C117.846 60.5496 115.844 58.2817 113.069 58.0404Z" fill="#689E2A"/>
<path d="M113.817 11.766C111.043 11.5248 108.775 13.286 108.292 16.0364L107.038 24.8908C93.9129 6.50647 71.1376 -3.16822 48.1692 0.933271C21.7749 5.7103 1.89477 27.8583 0.133544 55.0247C-0.10772 57.7992 1.89477 60.0671 4.91057 60.3084C7.41972 60.3084 9.44634 58.3059 9.6876 55.5313C11.2076 33.142 27.8065 14.5406 49.9304 10.5115C69.4005 7.01313 88.4844 15.3126 99.2448 30.9224L90.1733 29.6196C87.3987 29.3783 84.8896 31.1395 84.6483 33.8899C84.4071 36.3991 86.1683 38.9324 88.9187 39.1736L109.547 42.1894C112.949 42.3342 114.83 40.4282 115.072 37.9191L118.088 17.291C118.353 14.5164 116.592 12.0073 113.817 11.766Z" fill="#689E2A"/>
<path d="M54.804 74.8564H34.9962C33.6934 74.8564 32.5112 74.0603 32.0045 72.8539C31.4979 71.6476 31.7633 70.2483 32.6801 69.3074L47.5419 54.2042C48.1451 53.3357 48.4829 52.3224 48.4829 51.2608C48.4829 48.438 46.1909 46.146 43.3681 46.146C40.5453 46.146 38.2533 48.438 38.2533 51.2608C38.2533 53.0462 36.8057 54.5179 34.9962 54.5179C33.2108 54.5179 31.7391 53.0703 31.7391 51.2608C31.7391 44.8673 36.9504 39.656 43.3439 39.656C49.7374 39.656 54.9487 44.8673 54.9487 51.2608C54.9487 53.8182 54.1284 56.255 52.5843 58.3057C52.512 58.4263 52.4155 58.5229 52.319 58.6194L42.7408 68.3423H54.7799C56.5652 68.3423 58.0369 69.7899 58.0369 71.5994C58.0369 73.4089 56.6135 74.8564 54.804 74.8564Z" fill="#689E2A"/>
<path d="M77.7241 74.8566C75.9387 74.8566 74.467 73.409 74.467 71.5995V66.726H60.6426C59.388 66.726 58.2299 66.0022 57.6991 64.8441C57.1684 63.7102 57.3372 62.3591 58.1334 61.394L75.2149 40.8624C76.0835 39.8009 77.531 39.4149 78.8339 39.8733C80.1126 40.3317 80.9811 41.5621 80.9811 42.9373V60.2118H83.249C85.0344 60.2118 86.5061 61.6594 86.5061 63.4689C86.5061 65.2542 85.0585 66.726 83.249 66.726H80.9811V71.5995C80.9811 73.409 79.5094 74.8566 77.7241 74.8566ZM67.5668 60.2118H74.467V51.9365L67.5668 60.2118Z" fill="#689E2A"/>
</svg>
