<svg width="179" height="119" viewBox="0 0 179 119" fill="none" xmlns="http://www.w3.org/2000/svg">
<path d="M49.5642 94.4097C44.4003 95.8538 40.6 100.599 40.6 106.217C40.6 112.979 46.1006 118.479 52.8618 118.479C58.6629 118.479 63.5323 114.428 64.7993 109.008H126.258C127.525 114.429 132.394 118.479 138.195 118.479C144.957 118.479 150.457 112.979 150.457 106.217C150.457 99.4561 144.957 93.9556 138.195 93.9556C132.949 93.9556 128.464 97.2684 126.716 101.911H64.3412C63.0533 98.4893 60.2776 95.7931 56.8058 94.6102L58.4053 87.7918H147.667C149.082 87.7918 150.361 86.9517 150.923 85.6534L177.822 23.5216C178.297 22.4249 178.187 21.1632 177.532 20.1641C176.876 19.1653 175.761 18.5639 174.566 18.5639H73.0507L70.5088 3.12585C70.2285 1.42349 68.7639 0.169242 67.0388 0.15434L49.2328 0C49.2222 0 49.2115 0 49.2012 0C47.2562 0 45.6709 1.56825 45.6539 3.51756C45.6368 5.47681 47.2118 7.07912 49.1711 7.09615L63.9917 7.22459L66.4236 21.9949L49.5642 94.4097ZM138.195 101.052C141.044 101.052 143.361 103.369 143.361 106.218C143.361 109.066 141.044 111.383 138.195 111.383C135.347 111.383 133.03 109.066 133.03 106.218C133.03 103.369 135.347 101.052 138.195 101.052ZM52.8618 111.383C50.0137 111.383 47.6961 109.066 47.6961 106.217C47.6961 103.369 50.0134 101.052 52.8618 101.052C55.7102 101.052 58.0274 103.369 58.0274 106.217C58.0274 109.066 55.7102 111.383 52.8618 111.383ZM145.337 80.696H60.0725L62.1205 71.8805H138.953C140.913 71.8805 142.501 70.292 142.501 68.3324C142.501 66.3728 140.913 64.7843 138.953 64.7843H63.7689L65.6409 56.7263H115.464C117.424 56.7263 119.012 55.1378 119.012 53.1782C119.012 51.2186 117.424 49.6301 115.464 49.6301H67.2893L69.1613 41.5725H134.028C135.988 41.5725 137.576 39.984 137.576 38.0244C137.576 36.0648 135.988 34.4763 134.028 34.4763H70.8097L72.8577 25.6607H169.163L145.337 80.696Z" fill="#689E2A"/>
<path d="M147.667 41.572H153.35C155.309 41.572 156.898 39.9835 156.898 38.0239C156.898 36.0643 155.309 34.4758 153.35 34.4758H147.667C145.707 34.4758 144.119 36.0643 144.119 38.0239C144.119 39.9835 145.707 41.572 147.667 41.572Z" fill="#689E2A"/>
<path d="M52.8617 114.931C57.6741 114.931 61.5754 111.03 61.5754 106.217C61.5754 101.405 57.6741 97.5037 52.8617 97.5037C48.0492 97.5037 44.1479 101.405 44.1479 106.217C44.1479 111.03 48.0492 114.931 52.8617 114.931Z" fill="#689E2A"/>
<path d="M138.195 114.931C143.008 114.931 146.909 111.03 146.909 106.217C146.909 101.405 143.008 97.5037 138.195 97.5037C133.383 97.5037 129.482 101.405 129.482 106.217C129.482 111.03 133.383 114.931 138.195 114.931Z" fill="#689E2A"/>
<path d="M129.861 49.6299C127.901 49.6299 126.312 51.2184 126.312 53.178C126.312 55.1376 127.901 56.726 129.861 56.726H136.68C138.64 56.726 140.228 55.1376 140.228 53.178C140.228 51.2184 138.64 49.6299 136.68 49.6299H129.861Z" fill="#689E2A"/>
<path d="M47.6334 76.0522C47.6334 74.0926 46.0446 72.5042 44.0853 72.5042H15.2927C13.3335 72.5042 11.7446 74.0926 11.7446 76.0522C11.7446 78.0118 13.3335 79.6003 15.2927 79.6003H44.0853C46.0446 79.6003 47.6334 78.0118 47.6334 76.0522Z" fill="#689E2A"/>
<path d="M22.2368 46.2612H51.0294C52.9887 46.2612 54.5775 44.6727 54.5775 42.7131C54.5775 40.7535 52.9887 39.165 51.0294 39.165H22.2368C20.2775 39.165 18.6887 40.7535 18.6887 42.7131C18.6887 44.6727 20.2772 46.2612 22.2368 46.2612Z" fill="#689E2A"/>
<path d="M29.31 55.8347C27.3508 55.8347 25.762 57.4232 25.762 59.3828C25.762 61.3424 27.3508 62.9309 29.31 62.9309H32.3408C34.3001 62.9309 35.8889 61.3424 35.8889 59.3828C35.8889 57.4232 34.3001 55.8347 32.3408 55.8347H29.31Z" fill="#689E2A"/>
<path d="M18.4617 59.3828C18.4617 57.4232 16.8729 55.8347 14.9136 55.8347H3.54808C1.58883 55.8347 0 57.4232 0 59.3828C0 61.3424 1.58883 62.9309 3.54808 62.9309H14.9136C16.8732 62.9309 18.4617 61.3424 18.4617 59.3828Z" fill="#689E2A"/>
</svg>
