<svg width="637" height="534" viewBox="0 0 637 534" fill="none" xmlns="http://www.w3.org/2000/svg">
<path d="M292.694 1.43201C212.694 10.4987 142.294 61.032 107.094 134.632C100.561 148.365 92.4278 172.765 89.4945 187.299C76.9612 250.765 89.7612 313.965 126.161 367.432C136.694 382.899 141.894 387.965 147.094 387.965C150.028 387.965 178.294 360.365 311.628 226.899C451.895 86.7654 472.695 65.432 472.695 62.0987C472.695 57.032 465.495 50.0987 449.361 39.432C403.495 9.03201 346.961 -4.70132 292.694 1.43201ZM308.694 74.7654V128.365L291.761 127.432C272.694 126.365 246.828 124.232 242.428 123.299C239.494 122.632 239.494 122.632 244.028 111.832C255.628 84.8987 273.094 56.3654 292.028 33.5653C299.761 24.3654 303.094 21.2987 305.494 21.2987H308.694V74.7654ZM346.694 33.5653C361.361 51.2987 376.695 74.8987 386.961 95.6987L395.895 113.565L389.895 119.165C383.228 125.565 384.828 125.165 345.761 127.432L330.028 128.365V74.7654V21.2987H333.361C335.761 21.2987 338.961 24.232 346.694 33.5653ZM264.694 33.5653C249.228 54.0987 232.294 83.832 222.694 107.699L217.628 119.965L212.828 119.165C188.161 114.899 152.828 107.032 151.094 105.432C149.494 104.099 167.228 84.0987 178.828 74.0987C200.294 55.6987 224.828 41.5653 250.961 32.632C268.961 26.4987 270.028 26.4987 264.694 33.5653ZM386.161 32.0987C401.628 37.1653 422.028 46.8987 435.895 55.9654L446.428 62.7654L429.361 79.9654L412.161 97.1653L403.628 80.8987C395.495 65.2987 383.228 45.6987 374.028 33.5653C368.828 26.7654 369.628 26.632 386.161 32.0987ZM187.361 135.965C198.694 138.232 208.694 140.365 209.628 140.632C210.694 141.032 210.694 142.765 209.228 147.299C205.761 159.299 200.828 187.565 199.094 205.699L197.494 223.965H151.761H106.028L106.828 216.232C109.761 186.232 119.628 154.099 132.828 131.165L136.694 124.232L151.761 128.099C159.894 130.232 176.028 133.699 187.361 135.965ZM260.028 146.499C268.161 147.299 282.294 148.232 291.761 148.765L308.694 149.699V175.165V200.632L297.094 212.232L285.361 223.965H252.161H218.961L219.894 212.232C221.361 194.765 224.294 175.565 228.161 159.965C230.028 152.232 231.894 145.432 232.294 144.765C232.694 144.232 235.761 143.965 239.228 144.499C242.561 144.899 252.028 145.832 260.028 146.499ZM359.361 149.032C359.361 149.565 352.828 156.632 344.694 164.632L330.028 179.299V164.365V149.432L339.761 148.899C344.961 148.765 351.628 148.365 354.428 148.232C357.094 148.099 359.361 148.365 359.361 149.032ZM199.094 262.232C199.894 271.699 201.628 284.899 202.828 291.832L204.961 304.365L176.294 333.032L147.628 361.699L140.828 351.165C122.294 322.499 110.294 287.965 106.828 252.899L106.028 245.299H151.761H197.494L199.094 262.232ZM244.028 265.299C228.028 281.299 223.894 284.765 223.228 282.899C222.161 280.232 219.361 255.165 219.361 249.299V245.299H241.628H264.028L244.028 265.299Z" fill="#689E2A"/>
<path d="M79.7611 31.0323C38.8278 74.3656 12.6945 128.499 2.4278 191.299C-1.03887 213.166 -0.772201 258.766 3.09447 281.299C10.2945 323.566 24.8278 361.699 45.8945 394.366L53.8945 406.632L46.6945 405.832C40.2945 405.032 39.2278 405.299 36.1611 408.366C31.7611 412.766 31.6278 418.899 35.7611 423.032C38.1611 425.566 42.1611 426.632 60.2945 429.299C89.8945 433.566 88.4278 434.632 92.0278 405.966C94.5611 385.566 94.5611 385.699 90.6945 381.966C84.1611 375.299 72.6945 379.966 72.6945 389.299C72.6945 391.432 72.1611 393.299 71.4945 393.299C69.4945 393.299 55.6278 370.099 47.7611 353.699C16.9611 288.899 12.4278 214.899 35.2278 146.632C47.8945 108.766 66.5611 77.4323 96.4278 44.0989C106.828 32.3656 107.894 29.2989 103.228 23.4323C101.094 20.7656 99.3611 19.9656 95.3611 19.9656C90.6945 19.9656 89.3611 20.8989 79.7611 31.0323Z" fill="#689E2A"/>
<path d="M545.494 34.7653L542.028 37.4319V58.632V79.8319L545.494 82.4986C547.494 84.0986 550.428 85.2986 552.028 85.2986C555.894 85.2986 562.028 80.3653 562.028 77.2986C562.028 71.6986 564.828 73.8319 572.028 85.032C592.961 117.165 607.494 156.232 613.361 196.499C615.894 213.565 616.161 249.965 614.028 267.565C606.694 327.165 581.094 381.565 539.761 425.565C534.294 431.299 532.694 434.099 532.694 437.299C532.694 445.165 541.628 450.365 548.694 446.632C553.228 444.232 576.828 415.432 587.628 399.299C608.694 367.699 624.828 327.832 632.161 289.699C635.094 274.765 635.761 266.099 636.294 243.032C636.694 226.099 636.428 209.699 635.494 201.699C630.161 154.899 613.361 108.632 587.628 69.9653L576.961 53.9653L582.828 53.2986C590.428 52.2319 594.028 48.8986 594.028 42.4986C594.028 38.632 593.228 36.8986 590.561 34.7653C587.361 32.2319 585.228 31.9653 568.028 31.9653C550.828 31.9653 548.694 32.2319 545.494 34.7653Z" fill="#689E2A"/>
<path d="M327.094 242.365C186.828 382.499 166.028 403.832 166.028 407.165C166.028 412.232 173.228 419.165 189.361 429.832C229.628 456.632 278.828 470.765 325.894 469.032L340.694 468.632V497.699V526.765L344.028 529.965C348.961 535.032 354.561 534.365 360.561 528.365C363.228 525.565 385.361 501.699 409.761 475.165C437.094 445.565 458.028 423.965 464.428 418.899C470.161 414.365 480.961 404.499 488.161 397.032C564.561 318.232 575.494 196.499 514.428 104.232C503.894 88.4987 496.828 81.2987 491.894 81.2987C488.561 81.2987 467.228 102.099 327.094 242.365ZM502.694 126.099C515.628 147.832 523.761 169.165 528.961 195.165C533.094 215.699 533.094 254.232 529.094 273.965C517.761 328.632 489.361 373.832 446.028 406.232C442.694 408.632 422.694 429.565 401.361 452.632L362.694 494.632L362.028 473.165L361.361 451.699L357.628 448.499C354.161 445.565 353.094 445.432 346.294 446.232C330.294 448.365 295.628 447.299 279.628 444.099C252.028 438.765 224.961 427.832 202.828 413.165L192.428 406.232L341.494 257.165L490.694 107.965L493.094 111.032C494.428 112.632 498.694 119.432 502.694 126.099Z" fill="#689E2A"/>
<path d="M310.694 321.832C297.228 327.699 294.028 345.565 304.561 356.099C313.228 364.765 325.494 364.765 334.161 356.099C350.694 339.565 332.161 312.499 310.694 321.832Z" fill="#689E2A"/>
<path d="M374.694 321.832C361.228 327.699 358.028 345.565 368.561 356.099C377.228 364.765 389.494 364.765 398.161 356.099C414.694 339.565 396.161 312.499 374.694 321.832Z" fill="#689E2A"/>
<path d="M438.694 321.832C425.228 327.699 422.028 345.565 432.561 356.099C441.228 364.765 453.494 364.765 462.161 356.099C478.694 339.565 460.161 312.499 438.694 321.832Z" fill="#689E2A"/>
</svg>
