<svg width="468" height="743" viewBox="0 0 468 743" fill="none" xmlns="http://www.w3.org/2000/svg">
<path d="M149.521 262.987L149.519 262.985C103.598 216.997 73.8615 187.061 55.2817 167.962C46.0064 158.428 39.3988 151.479 34.912 146.534C32.6763 144.07 30.8478 141.973 29.4354 140.226C28.2785 138.795 26.6184 136.665 25.4827 134.359C1.3454 85.7155 26.3315 28.6295 79.3272 17.0662C97.7657 12.9935 113.563 14.957 131.181 22.8225L131.242 22.8497L131.303 22.8774C138.626 26.2253 143.509 29.9111 162.077 47.754C180.984 65.9233 215.515 100.288 282.578 167.085C320.373 204.68 355.393 239.433 381.391 265.115C394.394 277.959 405.124 288.518 412.811 296.025C416.659 299.783 419.718 302.75 421.909 304.847C423.158 306.043 423.951 306.785 424.394 307.201C424.877 307.653 424.948 307.719 424.746 307.564L424.859 307.651L424.97 307.74C429.622 311.461 435.975 318.501 439.731 324.275C451.012 341.209 454.64 362.314 452.307 381.528C449.986 400.645 441.477 419.973 425.881 432.251C425.99 432.168 425.88 432.271 425.461 432.666C425.014 433.087 424.216 433.84 422.956 435.051C420.787 437.136 417.749 440.088 413.925 443.826C406.283 451.294 395.592 461.815 382.625 474.624C356.695 500.238 321.712 534.954 283.925 572.608C237.649 618.75 202.74 653.326 178.819 676.712C166.867 688.398 157.608 697.338 151.027 703.547C147.745 706.643 145.058 709.128 143.001 710.959C141.489 712.304 139.054 714.471 136.939 715.715L136.889 715.745L136.838 715.774C82.4885 747.18 15 709.081 15 646.12C15 630.807 18.9712 616.794 26.899 603.689L26.9809 603.554L27.0657 603.42C28.1892 601.648 29.8413 599.69 31.237 598.087C32.8535 596.229 34.9667 593.906 37.56 591.124C42.7581 585.549 50.1641 577.836 59.9816 567.776C79.6322 547.641 109.186 517.854 150.593 476.446L150.599 476.44L256.787 370.374L149.521 262.987Z" fill="white" stroke="#689E2A" stroke-width="30"/>
</svg>
