<svg width="31" height="31" viewBox="0 0 31 31" fill="none" xmlns="http://www.w3.org/2000/svg">
<path d="M15.5509 30.3673C23.9366 30.3673 30.7345 23.5694 30.7345 15.1837C30.7345 6.79796 23.9366 0 15.5509 0C7.16515 0 0.367188 6.79796 0.367188 15.1837C0.367188 23.5694 7.16515 30.3673 15.5509 30.3673Z" fill="white"/>
<path d="M9.7667 21.0303V24.2713L12.7972 22.5484C13.6419 22.7919 14.5399 22.9233 15.4703 22.9233C20.4575 22.9233 24.4998 19.1511 24.4998 14.4984C24.4998 9.84543 20.4575 6.07349 15.4703 6.07349C10.4833 6.07349 6.44067 9.84543 6.44067 14.4984C6.44067 17.1331 7.7369 19.4856 9.7667 21.0303Z" fill="url(#paint0_linear_2_442)"/>
<path d="M14.5061 12.1909L9.63647 17.3467L14.0682 14.9152L16.3837 17.3467L21.2259 12.1909L16.8433 14.5798L14.5061 12.1909Z" fill="white"/>
<defs>
<linearGradient id="paint0_linear_2_442" x1="7.44838" y1="7.30366" x2="7.44838" y2="23.4706" gradientUnits="userSpaceOnUse">
<stop stop-color="#00C6FF"/>
<stop offset="1" stop-color="#0068FF"/>
</linearGradient>
</defs>
</svg>
