<svg width="683" height="683" viewBox="0 0 683 683" fill="none" xmlns="http://www.w3.org/2000/svg">
<g clip-path="url(#clip0_132_53)">
<path d="M258.667 5.46658C192.933 8.79992 129.2 37.7333 80.8 86.1333C41.4667 125.467 14.6667 176 4.80001 229.467C-17.6 350.8 41.7333 470.4 152 526.533C212.533 557.333 284.533 564.4 350.533 545.867C374.133 539.2 407.733 524.133 424.8 512.267L432.667 506.933L513.333 587.2C586.133 659.867 594.8 668 602.667 671.867C643.333 691.467 689.467 657.333 681.467 613.6C678.267 596.267 678.4 596.4 590.8 508.8L509.733 427.733L520.667 406.267C539.067 370 547.467 339.733 550.8 299.333C556.667 226 530.267 150.133 479.467 94.9333C453.733 66.7999 425.6 46.2666 391.333 30.3999C370.8 20.9333 363.2 18.1333 344.133 13.3332C315.6 6.13325 290.667 3.86658 258.667 5.46658ZM306 96.6666C380 108.8 440 164.933 457.067 238C471.467 299.467 453.733 363.733 410 409.2C374 446.533 327.067 466.667 275.733 466.667C226.267 466.667 179.6 447.2 144.133 411.867C118 385.6 101.067 354.133 93.0667 316.933C88.9333 297.467 88.9333 263.733 93.2 244.133C104.133 192.933 132.667 151.333 176 123.333C198.133 108.933 221.867 100.4 252 95.5999C260.8 94.1333 295.067 94.7999 306 96.6666Z" fill="#689E2A"/>
</g>
<defs>
<clipPath id="clip0_132_53">
<rect width="682.667" height="682.667" fill="white"/>
</clipPath>
</defs>
</svg>
