<svg width="105" height="103" viewBox="0 0 105 103" fill="none" xmlns="http://www.w3.org/2000/svg">
<path d="M33.71 43.0638C35.4035 43.0638 36.7764 41.691 36.7764 39.9974C36.7764 38.3039 35.4035 36.931 33.71 36.931C32.0164 36.931 30.6436 38.3039 30.6436 39.9974C30.6436 41.691 32.0164 43.0638 33.71 43.0638Z" fill="#689E2A"/>
<path d="M95.3571 18.7901C91.3889 18.7901 88.0474 21.4613 87.0258 25.103H83.1321C81.839 25.103 80.7908 26.1512 80.7908 27.4441C80.7908 28.7377 81.839 29.7856 83.1321 29.7856H87.0258C88.0474 33.4273 91.3889 36.0985 95.3571 36.0985C100.137 36.0985 104.012 32.2242 104.012 27.4441C104.012 22.6649 100.137 18.7901 95.3571 18.7901Z" fill="#689E2A"/>
<path d="M95.4837 38.9113C93.2296 38.9113 91.2273 39.9862 89.959 41.6504C89.2833 42.4381 86.915 44.9841 83.8061 45.9293C80.4134 46.9607 76.9624 45.1793 76.945 45.1702C75.4716 44.3712 73.6316 44.918 72.8329 46.3903C72.0347 47.8631 72.6499 49.5884 74.0534 50.5022C77.0016 52.4209 82.9295 52.5353 85.5707 51.7327C86.6344 51.4094 87.6276 50.9754 88.5408 50.4844V65.2859C88.5408 67.516 89.593 69.4986 91.2266 70.7688V97.921C91.2266 100.272 93.1326 102.178 95.4839 102.178C97.8352 102.178 99.7414 100.272 99.7414 97.921V70.769C101.375 69.4988 102.427 67.5158 102.427 65.2861V45.8544C102.427 42.0197 99.3185 38.9113 95.4837 38.9113Z" fill="#689E2A"/>
<path d="M75.35 42.7135C77.7376 42.7135 78.5979 44.0376 80.8845 44.0376C82.1768 44.0376 83.6803 43.574 83.6803 42.8818V37.9618C83.6803 36.2463 82.2844 34.8504 80.5688 34.8504H71.6365V38.9117C71.6365 39.2057 71.3984 39.4437 71.1044 39.4437H68.5544C68.2604 39.4437 68.022 39.2057 68.022 38.9117V34.8504H59.09C57.3744 34.8504 55.9785 36.2463 55.9785 37.9618V59.4409C55.9785 61.1565 57.3744 62.5524 59.09 62.5524H80.5688C82.2844 62.5524 83.6803 61.1565 83.6803 59.4409V55.162C83.6803 55.0077 83.6134 54.8614 83.4973 54.7602C83.3812 54.6593 83.2275 54.6226 83.0744 54.6349C72.966 55.4467 68.336 50.062 70.6567 45.5069C71.5465 43.7604 73.3897 42.7135 75.35 42.7135Z" fill="#689E2A"/>
<path d="M54.3581 73.2031H50.0473V3.59948C50.0473 1.83616 48.6177 0.406738 46.8541 0.406738H9.63213C7.86881 0.406738 6.43939 1.83616 6.43939 3.59948V73.2029H2.12842C0.952876 73.2031 0 74.1558 0 75.3316V82.8701C0 84.0458 0.952876 84.9985 2.12842 84.9985H54.3581C55.5336 84.9985 56.4867 84.0458 56.4867 82.8701V75.3316C56.4867 74.1558 55.5336 73.2031 54.3581 73.2031ZM12.8253 6.79264H43.6614V73.2021H12.8253V6.79264Z" fill="#689E2A"/>
</svg>
