<svg width="114" height="98" viewBox="0 0 114 98" fill="none" xmlns="http://www.w3.org/2000/svg">
<path d="M41.9037 61.3639H98.8258C102.066 61.3639 103.806 57.883 104.715 54.751L113.249 14.7698H27.4824L36.0148 54.751C36.6932 57.9205 38.665 61.3639 41.9037 61.3639ZM89.8355 51.1566L95.7246 23.4319C96.062 21.8421 97.6214 20.825 99.2158 21.1635C100.806 21.5009 101.822 23.0647 101.484 24.6547L95.5952 52.3794C95.3008 53.7637 94.0792 54.7124 92.7177 54.7124C92.5154 54.7124 92.3097 54.6908 92.1039 54.6476C90.5128 54.3102 89.499 52.7475 89.8355 51.1566ZM75.0572 51.5599L77.0211 23.8353C77.1346 22.2135 78.5381 20.993 80.1656 21.1066C81.7874 21.2213 83.0089 22.6294 82.8943 24.2523L80.9304 51.977C80.8213 53.5282 79.5292 54.7135 77.9973 54.7135C77.927 54.7135 77.8575 54.7113 77.786 54.7067C76.1641 54.5896 74.9423 53.1817 75.0572 51.5599ZM60.121 21.1057C61.7302 20.9886 63.1518 22.2126 63.2656 23.8343L65.2283 51.559C65.3443 53.1808 64.1203 54.5887 62.4996 54.7047C62.428 54.7093 62.3587 54.7115 62.2884 54.7115C60.7565 54.7115 59.4642 53.5261 59.3553 51.9749L57.3927 24.2516C57.2764 22.6296 58.4992 21.2204 60.121 21.1057ZM41.0708 21.1635C42.663 20.8261 44.2233 21.8419 44.562 23.4319L50.4511 51.1566C50.7887 52.7464 49.7738 54.3102 48.1816 54.6478C47.9758 54.6921 47.7703 54.7126 47.5679 54.7126C46.2076 54.7126 44.9848 53.7637 44.6904 52.3796L38.8013 24.6549C38.4638 23.0636 39.4798 21.5011 41.0708 21.1635Z" fill="#689E2A"/>
<path d="M45.6289 77.4071C40.0751 77.4071 35.5726 81.9097 35.5726 87.4634C35.5726 93.0171 40.0752 97.5197 45.6289 97.5197C51.1826 97.5197 55.6852 93.0171 55.6852 87.4634C55.6854 81.9096 51.1828 77.4071 45.6289 77.4071ZM45.6289 91.2341C43.5458 91.2341 41.8583 89.5466 41.8583 87.4634C41.8583 85.3814 43.5458 83.6928 45.6289 83.6928C47.7121 83.6928 49.3996 85.3816 49.3996 87.4634C49.4009 89.5466 47.7121 91.2341 45.6289 91.2341Z" fill="#689E2A"/>
<path d="M93.3972 77.4071C87.8422 77.4071 83.3396 81.9097 83.3396 87.4634C83.3396 93.0171 87.8422 97.5197 93.3972 97.5197C98.9511 97.5197 103.453 93.0171 103.453 87.4634C103.453 81.9096 98.9509 77.4071 93.3972 77.4071ZM93.3972 91.2341C91.314 91.2341 89.6265 89.5466 89.6265 87.4634C89.6265 85.3814 91.314 83.6928 93.3972 83.6928C95.4792 83.6928 97.1679 85.3816 97.1679 87.4634C97.169 89.5466 95.479 91.2341 93.3972 91.2341Z" fill="#689E2A"/>
<path d="M108.412 73.3058H32.2976C29.5588 73.3058 27.2144 71.442 26.5973 68.7747L12.3577 7.37406H3.40941C1.52629 7.37406 0 5.84777 0 3.96465C0 2.08153 1.52629 0.55542 3.40923 0.55542H13.127C15.8636 0.55542 18.208 2.41804 18.8273 5.08296L33.068 66.4871H108.413C110.296 66.4871 111.822 68.0134 111.822 69.8965C111.821 71.7806 110.296 73.3058 108.412 73.3058Z" fill="#689E2A"/>
</svg>
