<svg width="72" height="104" viewBox="0 0 72 104" fill="none" xmlns="http://www.w3.org/2000/svg">
<path d="M66.2143 17.6944C59.8174 6.61474 48.3604 0 35.5666 0C22.773 0 11.316 6.61474 4.91914 17.6944C-1.47777 28.774 -1.47777 42.0035 4.91914 53.0832L33.6079 102.774C34.012 103.473 34.7586 103.905 35.5666 103.905C36.3746 103.905 37.1212 103.473 37.5253 102.774L66.2141 53.0832C72.6112 42.0035 72.6112 28.774 66.2143 17.6944ZM62.2967 50.8214L35.5666 97.1194L8.83646 50.8214C3.25736 41.1579 3.25736 29.6194 8.83646 19.9561C14.4158 10.2926 24.4084 4.52347 35.5666 4.52347C46.7248 4.52347 56.7176 10.2926 62.2967 19.9561C67.8761 29.6194 67.8759 41.1579 62.2967 50.8214Z" fill="#689E2A"/>
<path d="M35.5666 9.80713C21.4336 9.80713 9.93542 21.3053 9.93542 35.4383C9.93542 49.5715 21.4336 61.0697 35.5666 61.0697C49.6998 61.0697 61.198 49.5715 61.198 35.4383C61.198 21.3051 49.6998 9.80713 35.5666 9.80713ZM25.699 54.0926V52.5804C25.699 47.1391 30.1258 42.712 35.5673 42.712C41.0088 42.712 45.4356 47.1389 45.4356 52.5804V54.0921C42.4887 55.6575 39.1299 56.5462 35.5668 56.5462C32.004 56.546 28.6455 55.6577 25.699 54.0926ZM35.5666 25.6071C39.0349 25.6071 41.8568 28.4291 41.8568 31.8974C41.8568 35.3657 39.0352 38.1876 35.5666 38.1876C32.0981 38.1876 29.2764 35.3657 29.2764 31.8974C29.2764 28.4291 32.0983 25.6071 35.5666 25.6071ZM49.8641 50.9514C49.3351 46.2792 46.5608 42.2802 42.6487 40.0589C44.9323 38.0748 46.3803 35.1529 46.3803 31.8974C46.3803 25.9347 41.5295 21.0837 35.5666 21.0837C29.6037 21.0837 24.7529 25.9347 24.7529 31.8974C24.7529 35.1531 26.2011 38.0752 28.485 40.0594C24.5729 42.2809 21.7986 46.2801 21.2701 50.9524C17.0849 47.0927 14.4589 41.5669 14.4589 35.4383C14.4589 23.7994 23.9277 14.3306 35.5666 14.3306C47.2055 14.3306 56.6745 23.7994 56.6745 35.4383C56.6745 41.5664 54.0485 47.092 49.8641 50.9514Z" fill="#689E2A"/>
</svg>
