<svg width="59" height="71" viewBox="0 0 59 71" fill="none" xmlns="http://www.w3.org/2000/svg">
<path d="M35.1965 33.6977C35.1965 33.6977 36.7997 30.8427 36.7997 28.2269C36.7997 25.6111 36.426 24.49 33.8101 22.9952C31.1943 21.5005 28.6682 24.5685 28.6682 24.5685C28.6682 24.5685 26.71 26.7321 27.8311 30.469C28.7327 33.7005 30.3266 36.697 32.5022 39.2508L34.7444 35.5139C34.7444 35.5139 31.7548 35.1402 31.7548 34.7665V33.6977H35.1965ZM30.0732 30.469C28.2048 30.469 28.5785 29.348 28.9933 28.9743C29.4081 28.6006 30.4469 28.9743 31.568 28.9743C32.6891 28.9743 32.6891 30.0954 32.435 30.469C32.1809 30.8427 30.0732 30.4803 30.0732 30.4803V30.469Z" fill="white" stroke="white" stroke-miterlimit="10"/>
<path d="M31.568 21.1378C33.0082 21.1772 34.4178 21.5617 35.6786 22.2589L36.426 15.9062C36.426 15.9062 34.9312 20.0168 34.1838 20.3904C33.4364 20.7641 33.997 14.9346 33.997 14.9346C33.997 14.9346 32.6891 18.522 31.568 21.1378Z" fill="white" stroke="white" stroke-miterlimit="10"/>
<path d="M50.372 9.52001C46.0073 7.62166 39.4154 33.0961 39.4154 33.0961L44.2734 31.6013C43.8582 31.1356 43.4831 30.6356 43.1523 30.1066C42.4049 28.9855 43.8997 28.6118 43.8997 28.6118C43.8997 28.6118 48.384 30.854 49.505 31.975C50.6261 33.0961 50.6261 35.7119 50.6261 35.7119C54.363 21.8854 54.7367 11.4221 50.372 9.52001ZM49.1313 27.4908L44.6471 24.5012C43.8997 22.6328 45.7681 23.0065 45.7681 23.0065L50.2524 25.6223C50.9998 27.1171 49.1313 27.4908 49.1313 27.4908ZM50.0469 21.8854L46.153 19.2696C45.5028 17.644 47.1246 17.9691 47.1246 17.9691L51.0222 20.2449C51.6724 21.5603 50.0469 21.8854 50.0469 21.8854Z" fill="white" stroke="white" stroke-miterlimit="10"/>
<path d="M45.7682 39.0749C43.8997 40.9434 42.7786 40.196 42.7786 40.196C42.7786 38.7013 41.6576 34.9644 41.6576 34.9644L40.1628 36.0854C41.6576 37.2065 42.0313 40.5697 42.0313 40.5697C40.7987 40.3381 39.5484 40.2131 38.2944 40.196C36.4259 40.196 34.9312 42.8118 34.9312 42.8118C45.0208 52.9015 49.8787 50.6593 49.8787 50.6593C55.4841 45.4277 47.6366 37.2065 45.7682 39.0749ZM49.1314 44.6803C49.1314 44.6803 44.9423 46.3881 46.4782 41.2386C46.4782 41.2386 50.2524 40.9434 49.1314 44.6803Z" fill="white" stroke="white" stroke-miterlimit="10"/>
<path d="M52.8683 37.2065C52.8683 37.2065 52.1209 33.8433 56.9789 34.217C56.9789 34.217 56.9789 38.7013 52.8683 37.2065Z" fill="white" stroke="white" stroke-miterlimit="10"/>
<path d="M58.0999 44.3067C58.0999 44.3067 58.0999 38.3277 52.4946 39.8224C52.4946 39.8224 50.6261 43.933 58.0999 44.3067Z" fill="white" stroke="white" stroke-miterlimit="10"/>
<path d="M44.0044 37.5129C44.0044 37.5129 42.0313 34.9942 47.4498 33.6714C47.4498 33.6714 48.2234 37.8081 44.0044 37.5129Z" fill="white" stroke="white" stroke-miterlimit="10"/>
<path d="M54.9012 45.5025C54.9012 45.5025 56.6053 48.791 54.3631 54.0226V63.5928C54.1061 64.4196 53.6176 65.1554 52.9553 65.7131C52.293 66.2707 51.4847 66.6269 50.6262 66.7393L18.1152 70.1025L2.42023 64.1235C2.42023 64.1235 -0.195601 63.7498 1.67285 58.5181L7.2782 28.6229C7.2782 28.6229 8.14516 27.5467 8.27221 28.8322C8.39927 30.1177 4.28868 57.397 4.28868 57.397C4.28868 57.397 5.03606 58.1444 6.15713 57.397C7.2782 56.6497 10.2677 54.7812 10.2677 54.7812C10.2677 54.7812 11.0151 54.7812 10.6414 55.5286C10.2677 56.276 5.40975 60.7603 5.40975 60.7603C5.40975 60.7603 4.66237 62.255 6.53082 62.6287L12.5099 64.8708L11.7625 19.6544C11.7625 19.6544 12.8835 17.4122 14.3783 17.4122H21.5046C21.5046 17.4122 20.731 2.61411 33.997 1.04088C33.997 1.04088 43.2384 -0.162403 45.9962 10.4878C45.9962 10.4878 42.0314 11.7957 40.5366 5.44295C40.5366 5.44295 32.6891 -3.8993 25.9627 9.92722C25.9627 9.92722 23.9747 19.3554 27.2108 21.5565C27.2108 21.5565 20.8581 24.7403 28.2609 37.513C35.6637 50.2857 45.4282 53.3313 48.5859 53.5032C51.7436 53.6751 54.3631 52.1654 53.9894 45.8127C54.0698 45.6512 54.2107 45.5279 54.3815 45.4698C54.5522 45.4117 54.7391 45.4235 54.9012 45.5025V45.5025Z" fill="white" stroke="white" stroke-miterlimit="10"/>
<path d="M28.7652 19.1238C28.7652 19.1238 27.2256 13.5185 32.5731 14.1538C32.5731 14.1538 34.5574 9.92732 37.5469 13.2905C37.5469 13.2905 37.2143 15.2225 37.9393 15.5663C37.9393 15.5663 42.7786 16.6537 39.0417 21.5117C39.0417 21.5117 42.4049 21.138 42.0312 18.1485C41.6575 15.159 40.5364 14.7853 39.0417 14.0379C39.0417 14.0379 37.1994 6.68743 32.1396 12.233L31.9416 12.5431C31.9416 12.5431 24.2809 12.7711 28.7652 19.1238Z" fill="white" stroke="white" stroke-miterlimit="10"/>
</svg>
