<svg width="59" height="71" viewBox="0 0 59 71" fill="none" xmlns="http://www.w3.org/2000/svg">
<path d="M35.2289 33.6977C35.2289 33.6977 36.832 30.8427 36.832 28.2269C36.832 25.6111 36.4583 24.49 33.8425 22.9952C31.2267 21.5005 28.7005 24.5685 28.7005 24.5685C28.7005 24.5685 26.7424 26.7321 27.8634 30.469C28.765 33.7005 30.3589 36.697 32.5346 39.2508L34.7767 35.5139C34.7767 35.5139 31.7872 35.1402 31.7872 34.7665V33.6977H35.2289ZM30.1056 30.469C28.2371 30.469 28.6108 29.348 29.0256 28.9743C29.4404 28.6006 30.4793 28.9743 31.6003 28.9743C32.7214 28.9743 32.7214 30.0954 32.4673 30.469C32.2132 30.8427 30.1056 30.4803 30.1056 30.4803V30.469Z" fill="#FF8612" stroke="#FF8612" stroke-miterlimit="10"/>
<path d="M31.6003 21.1378C33.0405 21.1772 34.4502 21.5617 35.7109 22.2589L36.4583 15.9062C36.4583 15.9062 34.9636 20.0168 34.2162 20.3904C33.4688 20.7641 34.0293 14.9346 34.0293 14.9346C34.0293 14.9346 32.7214 18.522 31.6003 21.1378Z" fill="#53AF1E" stroke="#53AF1E" stroke-miterlimit="10"/>
<path d="M50.4043 9.52001C46.0396 7.62166 39.4478 33.0961 39.4478 33.0961L44.3057 31.6013C43.8905 31.1356 43.5155 30.6356 43.1847 30.1066C42.4373 28.9855 43.932 28.6118 43.932 28.6118C43.932 28.6118 48.4163 30.854 49.5374 31.975C50.6585 33.0961 50.6585 35.7119 50.6585 35.7119C54.3953 21.8854 54.769 11.4221 50.4043 9.52001ZM49.1637 27.4908L44.6794 24.5012C43.932 22.6328 45.8005 23.0065 45.8005 23.0065L50.2848 25.6223C51.0321 27.1171 49.1637 27.4908 49.1637 27.4908ZM50.0792 21.8854L46.1854 19.2696C45.5352 17.644 47.157 17.9691 47.157 17.9691L51.0546 20.2449C51.7048 21.5603 50.0792 21.8854 50.0792 21.8854Z" fill="#EFAB48" stroke="#EFAB48" stroke-miterlimit="10"/>
<path d="M45.8005 39.0749C43.9321 40.9434 42.811 40.196 42.811 40.196C42.811 38.7013 41.6899 34.9644 41.6899 34.9644L40.1952 36.0854C41.6899 37.2065 42.0636 40.5697 42.0636 40.5697C40.831 40.3381 39.5808 40.2131 38.3267 40.196C36.4583 40.196 34.9635 42.8118 34.9635 42.8118C45.0531 52.9015 49.9111 50.6593 49.9111 50.6593C55.5164 45.4277 47.669 37.2065 45.8005 39.0749ZM49.1637 44.6803C49.1637 44.6803 44.9747 46.3881 46.5105 41.2386C46.5105 41.2386 50.2848 40.9434 49.1637 44.6803Z" fill="#53AF1E" stroke="#53AF1E" stroke-miterlimit="10"/>
<path d="M52.9006 37.2065C52.9006 37.2065 52.1533 33.8433 57.0112 34.217C57.0112 34.217 57.0112 38.7013 52.9006 37.2065Z" fill="#53AF1E" stroke="#53AF1E" stroke-miterlimit="10"/>
<path d="M58.1323 44.3067C58.1323 44.3067 58.1323 38.3277 52.5269 39.8224C52.5269 39.8224 50.6585 43.933 58.1323 44.3067Z" fill="#53AF1E" stroke="#53AF1E" stroke-miterlimit="10"/>
<path d="M44.0368 37.5129C44.0368 37.5129 42.0637 34.9942 47.4822 33.6714C47.4822 33.6714 48.2557 37.8081 44.0368 37.5129Z" fill="#53AF1E" stroke="#53AF1E" stroke-miterlimit="10"/>
<path d="M54.9336 45.5025C54.9336 45.5025 56.6376 48.791 54.3955 54.0226V63.5928C54.1385 64.4196 53.6499 65.1554 52.9876 65.7131C52.3253 66.2707 51.517 66.6269 50.6586 66.7393L18.1475 70.1025L2.45258 64.1235C2.45258 64.1235 -0.163252 63.7498 1.7052 58.5181L7.31055 28.6229C7.31055 28.6229 8.17751 27.5467 8.30456 28.8322C8.43161 30.1177 4.32103 57.397 4.32103 57.397C4.32103 57.397 5.06841 58.1444 6.18948 57.397C7.31055 56.6497 10.3001 54.7812 10.3001 54.7812C10.3001 54.7812 11.0474 54.7812 10.6738 55.5286C10.3001 56.276 5.4421 60.7603 5.4421 60.7603C5.4421 60.7603 4.69472 62.255 6.56317 62.6287L12.5422 64.8708L11.7948 19.6544C11.7948 19.6544 12.9159 17.4122 14.4107 17.4122H21.5369C21.5369 17.4122 20.7634 2.61411 34.0294 1.04088C34.0294 1.04088 43.2707 -0.162403 46.0286 10.4878C46.0286 10.4878 42.0637 11.7957 40.5689 5.44295C40.5689 5.44295 32.7215 -3.8993 25.995 9.92722C25.995 9.92722 24.007 19.3554 27.2432 21.5564C27.2432 21.5564 20.8904 24.7403 28.2932 37.513C35.696 50.2857 45.4605 53.3313 48.6182 53.5032C51.7759 53.6751 54.3955 52.1654 54.0218 45.8127C54.1021 45.6511 54.243 45.5279 54.4138 45.4698C54.5846 45.4117 54.7714 45.4235 54.9336 45.5025Z" fill="#53AF1E" stroke="#53AF1E" stroke-miterlimit="10"/>
<path d="M28.7975 19.1238C28.7975 19.1238 27.2579 13.5185 32.6054 14.1538C32.6054 14.1538 34.5897 9.92732 37.5793 13.2905C37.5793 13.2905 37.2467 15.2225 37.9716 15.5663C37.9716 15.5663 42.8109 16.6537 39.074 21.5117C39.074 21.5117 42.4372 21.138 42.0635 18.1485C41.6898 15.159 40.5688 14.7853 39.074 14.0379C39.074 14.0379 37.2317 6.68743 32.172 12.233L31.9739 12.5431C31.9739 12.5431 24.3133 12.7711 28.7975 19.1238Z" fill="#53AF1E" stroke="#53AF1E" stroke-miterlimit="10"/>
</svg>
