<svg width="31" height="31" viewBox="0 0 31 31" fill="none" xmlns="http://www.w3.org/2000/svg">
<path d="M15.1837 2.38419e-05C23.5694 2.38419e-05 30.3673 6.79799 30.3673 15.1837C30.3673 23.5694 23.5694 30.3674 15.1837 30.3674C6.79796 30.3674 0 23.5694 0 15.1837C0 6.79799 6.79796 2.38419e-05 15.1837 2.38419e-05Z" fill="#7F4DA0"/>
<path d="M19.2289 13.2594C19.155 12.6595 18.9706 12.1884 18.6431 11.7711C18.2179 11.2338 17.6745 10.9121 16.87 10.7212C16.3457 10.594 16.1338 10.6086 15.9442 10.7818C15.7676 10.9441 15.7331 11.2694 15.8681 11.4801C15.963 11.633 16.0725 11.6878 16.3771 11.7476C16.7827 11.8222 17.063 11.9191 17.318 12.0649C17.8591 12.3774 18.1112 12.8664 18.1382 13.658C18.1508 14.0297 18.1829 14.144 18.3127 14.2759C18.5533 14.5169 18.9816 14.47 19.1632 14.1816C19.2299 14.0729 19.2401 14.0256 19.2471 13.7732C19.2518 13.6169 19.245 13.3843 19.2289 13.2594V13.2594Z" fill="white"/>
<path d="M21.3486 13.9358C21.2417 12.0977 20.5228 10.6189 19.2361 9.57844C18.5112 8.9938 17.6349 8.59178 16.6744 8.39627C16.3225 8.32635 15.6747 8.26967 15.5636 8.30209C15.4587 8.33211 15.3103 8.44567 15.2442 8.54836C15.1743 8.65972 15.1586 8.90835 15.2182 9.05217C15.3145 9.2926 15.4936 9.37754 15.9951 9.42142C16.7682 9.48906 17.5657 9.7607 18.1683 10.1628C18.8562 10.6207 19.403 11.247 19.7568 11.9829C20.0624 12.6152 20.2504 13.5264 20.2452 14.3424C20.2434 14.6375 20.289 14.8042 20.4077 14.926C20.5868 15.1134 20.848 15.1543 21.0784 15.0299C21.3339 14.8956 21.3936 14.6598 21.3486 13.9358V13.9358Z" fill="white"/>
<path d="M23.6942 21.0144C23.6583 20.9094 23.5744 20.7473 23.5144 20.6543C23.1368 20.0841 21.1081 18.4964 20.0952 17.9772C19.5169 17.6801 19.0884 17.5811 18.7707 17.674C18.4291 17.7701 18.2493 17.9291 17.6769 18.6405C17.4462 18.9256 17.2094 19.1927 17.1465 19.2347C16.9907 19.3427 16.685 19.4298 16.4693 19.4298C15.9688 19.4268 15.0608 19.1026 14.3626 18.6765C13.8202 18.3464 13.125 17.7551 12.5915 17.1699C11.9622 16.4826 11.5337 15.8764 11.1951 15.1921C10.7576 14.3127 10.6467 13.7755 10.8295 13.3823C10.8744 13.2833 10.9344 13.1783 10.9613 13.1452C10.9883 13.1152 11.27 12.8841 11.5816 12.632C12.193 12.1458 12.2919 12.0348 12.4057 11.7017C12.5496 11.2785 12.5106 10.8463 12.2889 10.4111C12.1181 10.081 11.6716 9.36069 11.3479 8.89552C10.9194 8.28329 9.85258 6.97476 9.63978 6.79764C9.25621 6.48554 8.76481 6.43149 8.22235 6.64161C7.65004 6.86371 6.5772 7.72805 6.11869 8.3313C5.70515 8.87751 5.54638 9.26465 5.52238 9.77486C5.50142 10.195 5.53736 10.3691 5.75912 10.9063C7.4942 15.12 10.0833 18.4844 13.6404 21.1555C15.4983 22.551 17.4252 23.6135 19.424 24.3398C20.5897 24.763 21.0961 24.7839 21.6924 24.4358C21.9441 24.2858 22.5675 23.6465 22.9151 23.1813C23.4905 22.407 23.7032 22.0499 23.7631 21.7647C23.8051 21.5697 23.7721 21.2305 23.6942 21.0144V21.0144Z" fill="white"/>
<path d="M23.5066 14.358C23.4682 13.3183 23.2931 12.4654 22.9281 11.5146C22.5677 10.5793 22.203 9.96897 21.5142 9.14348C20.863 8.36947 20.3571 7.92753 19.5549 7.43559C18.4357 6.75018 17.0736 6.2966 15.5471 6.10584C15.0265 6.03918 14.9088 6.04394 14.7491 6.1505C14.4396 6.35237 14.4437 6.85588 14.7542 7.05473C14.8569 7.11798 14.9481 7.14103 15.3645 7.19553C16.0037 7.28159 16.4148 7.36269 16.9025 7.49576C18.815 8.01857 20.2858 9.08722 21.269 10.6736C22.0918 11.9958 22.4334 13.3181 22.3849 15.007C22.3681 15.5779 22.3803 15.6784 22.4676 15.8156C22.6347 16.0713 23.0755 16.1219 23.3016 15.9097C23.4423 15.7804 23.4688 15.6833 23.4965 15.1946C23.5098 14.9397 23.5127 14.5634 23.5066 14.358V14.358Z" fill="white"/>
</svg>
