<svg width="161" height="103" viewBox="0 0 161 103" fill="none" xmlns="http://www.w3.org/2000/svg">
<path d="M67.2289 33.6976C67.2289 33.6976 68.832 30.8426 68.832 28.2268C68.832 25.6109 68.4583 24.4899 65.8425 22.9951C63.2267 21.5004 60.7005 24.5684 60.7005 24.5684C60.7005 24.5684 58.7424 26.732 59.8634 30.4689C60.765 33.7003 62.3589 36.6969 64.5346 39.2506L66.7767 35.5137C66.7767 35.5137 63.7872 35.14 63.7872 34.7664V33.6976H67.2289ZM62.1056 30.4689C60.2371 30.4689 60.6108 29.3478 61.0256 28.9742C61.4404 28.6005 62.4793 28.9742 63.6003 28.9742C64.7214 28.9742 64.7214 30.0952 64.4673 30.4689C64.2132 30.8426 62.1056 30.4801 62.1056 30.4801V30.4689Z" fill="white" stroke="white" stroke-miterlimit="10"/>
<path d="M63.6003 21.1379C65.0405 21.1773 66.4502 21.5618 67.7109 22.259L68.4583 15.9063C68.4583 15.9063 66.9636 20.0169 66.2162 20.3906C65.4688 20.7643 66.0293 14.9347 66.0293 14.9347C66.0293 14.9347 64.7214 18.5221 63.6003 21.1379Z" fill="white" stroke="white" stroke-miterlimit="10"/>
<path d="M82.4043 9.51989C78.0396 7.62154 71.4478 33.096 71.4478 33.096L76.3057 31.6012C75.8905 31.1355 75.5155 30.6355 75.1847 30.1065C74.4373 28.9854 75.932 28.6117 75.932 28.6117C75.932 28.6117 80.4163 30.8538 81.5374 31.9749C82.6585 33.096 82.6585 35.7118 82.6585 35.7118C86.3953 21.8853 86.769 11.422 82.4043 9.51989ZM81.1637 27.4906L76.6794 24.5011C75.932 22.6327 77.8005 23.0064 77.8005 23.0064L82.2848 25.6222C83.0321 27.1169 81.1637 27.4906 81.1637 27.4906ZM82.0792 21.8853L78.1854 19.2695C77.5352 17.6439 79.157 17.969 79.157 17.969L83.0546 20.2448C83.7048 21.5602 82.0792 21.8853 82.0792 21.8853Z" fill="white" stroke="white" stroke-miterlimit="10"/>
<path d="M77.8005 39.0751C75.9321 40.9435 74.811 40.1961 74.811 40.1961C74.811 38.7014 73.6899 34.9645 73.6899 34.9645L72.1952 36.0855C73.6899 37.2066 74.0636 40.5698 74.0636 40.5698C72.831 40.3382 71.5808 40.2132 70.3267 40.1961C68.4583 40.1961 66.9635 42.812 66.9635 42.812C77.0531 52.9016 81.9111 50.6595 81.9111 50.6595C87.5164 45.4278 79.669 37.2066 77.8005 39.0751ZM81.1637 44.6804C81.1637 44.6804 76.9747 46.3882 78.5105 41.2387C78.5105 41.2387 82.2848 40.9435 81.1637 44.6804Z" fill="white" stroke="white" stroke-miterlimit="10"/>
<path d="M84.9006 37.2066C84.9006 37.2066 84.1533 33.8434 89.0112 34.2171C89.0112 34.2171 89.0112 38.7014 84.9006 37.2066Z" fill="white" stroke="white" stroke-miterlimit="10"/>
<path d="M90.1323 44.3067C90.1323 44.3067 90.1323 38.3277 84.5269 39.8224C84.5269 39.8224 82.6585 43.933 90.1323 44.3067Z" fill="white" stroke="white" stroke-miterlimit="10"/>
<path d="M76.0368 37.513C76.0368 37.513 74.0637 34.9944 79.4822 33.6715C79.4822 33.6715 80.2557 37.8083 76.0368 37.513Z" fill="white" stroke="white" stroke-miterlimit="10"/>
<path d="M86.9336 45.5025C86.9336 45.5025 88.6376 48.791 86.3955 54.0226V63.5928C86.1385 64.4196 85.6499 65.1554 84.9876 65.7131C84.3253 66.2707 83.517 66.6269 82.6586 66.7393L50.1475 70.1025L34.4526 64.1235C34.4526 64.1235 31.8367 63.7498 33.7052 58.5181L39.3105 28.6229C39.3105 28.6229 40.1775 27.5467 40.3046 28.8322C40.4316 30.1177 36.321 57.397 36.321 57.397C36.321 57.397 37.0684 58.1444 38.1895 57.397C39.3105 56.6497 42.3001 54.7812 42.3001 54.7812C42.3001 54.7812 43.0474 54.7812 42.6738 55.5286C42.3001 56.276 37.4421 60.7603 37.4421 60.7603C37.4421 60.7603 36.6947 62.255 38.5632 62.6287L44.5422 64.8708L43.7948 19.6544C43.7948 19.6544 44.9159 17.4122 46.4107 17.4122H53.5369C53.5369 17.4122 52.7634 2.61411 66.0294 1.04088C66.0294 1.04088 75.2707 -0.162403 78.0286 10.4878C78.0286 10.4878 74.0637 11.7957 72.5689 5.44295C72.5689 5.44295 64.7215 -3.8993 57.995 9.92722C57.995 9.92722 56.007 19.3554 59.2432 21.5564C59.2432 21.5564 52.8904 24.7403 60.2932 37.513C67.696 50.2857 77.4605 53.3313 80.6182 53.5032C83.7759 53.6751 86.3955 52.1654 86.0218 45.8127C86.1021 45.6511 86.243 45.5279 86.4138 45.4698C86.5846 45.4117 86.7714 45.4235 86.9336 45.5025Z" fill="white" stroke="white" stroke-miterlimit="10"/>
<path d="M60.7975 19.1237C60.7975 19.1237 59.2579 13.5184 64.6054 14.1536C64.6054 14.1536 66.5897 9.9272 69.5793 13.2904C69.5793 13.2904 69.2467 15.2224 69.9716 15.5662C69.9716 15.5662 74.8109 16.6536 71.074 21.5116C71.074 21.5116 74.4372 21.1379 74.0635 18.1484C73.6898 15.1589 72.5688 14.7852 71.074 14.0378C71.074 14.0378 69.2317 6.68731 64.172 12.2329L63.9739 12.543C63.9739 12.543 56.3133 12.771 60.7975 19.1237Z" fill="white" stroke="white" stroke-miterlimit="10"/>
<path d="M3.67383 79.1855H7.41797L11.127 84.4414L14.8359 79.1855H18.5801V100.824C18.5801 101.328 18.4395 101.732 18.1582 102.037C17.877 102.354 17.5137 102.512 17.0684 102.512C16.623 102.512 16.2598 102.354 15.9785 102.037C15.6973 101.721 15.5566 101.316 15.5566 100.824V83.4746L12.6387 87.5V88.1504C12.6387 88.6543 12.498 89.0645 12.2168 89.3809C11.9355 89.6855 11.5723 89.8379 11.127 89.8379C10.6816 89.8379 10.3184 89.6797 10.0371 89.3633C9.75586 89.0469 9.61523 88.6426 9.61523 88.1504V87.5L6.69727 83.4746V100.824C6.69727 101.328 6.55664 101.732 6.27539 102.037C5.99414 102.354 5.63086 102.512 5.18555 102.512C4.74023 102.512 4.37695 102.354 4.0957 102.037C3.81445 101.721 3.67383 101.316 3.67383 100.824V79.1855ZM32.9414 82.209H31.9395V99.4883H32.9414C33.2461 99.4883 33.5273 99.4062 33.7852 99.2422C34.043 99.0781 34.2422 98.8496 34.3828 98.5566L37.4766 92.2812C37.582 92.0703 37.6582 91.8477 37.7051 91.6133C37.752 91.3789 37.7754 91.1211 37.7754 90.8398C37.7754 90.5703 37.752 90.3184 37.7051 90.084C37.6582 89.8496 37.582 89.627 37.4766 89.416L34.3828 83.1758C34.2305 82.8828 34.0254 82.6484 33.7676 82.4727C33.5098 82.2969 33.2344 82.209 32.9414 82.209ZM32.9414 79.1855C33.8906 79.1855 34.7051 79.4141 35.3848 79.8711C36.0645 80.3281 36.6562 81.0488 37.1602 82.0332L40.2891 88.2559C40.4648 88.6191 40.5996 89.0176 40.6934 89.4512C40.7871 89.873 40.834 90.3359 40.834 90.8398C40.834 91.3438 40.7871 91.8125 40.6934 92.2461C40.5996 92.6797 40.4648 93.0781 40.2891 93.4414L37.1602 99.6641C36.6797 100.637 36.0938 101.352 35.4023 101.809C34.7227 102.277 33.9023 102.512 32.9414 102.512H27.6152C27.1113 102.512 26.7012 102.371 26.3848 102.09C26.0801 101.809 25.9277 101.445 25.9277 101C25.9277 100.555 26.0859 100.191 26.4023 99.9102C26.7188 99.6289 27.123 99.4883 27.6152 99.4883H28.916V82.209H27.6152C27.1113 82.209 26.7012 82.0684 26.3848 81.7871C26.0801 81.5059 25.9277 81.1426 25.9277 80.6973C25.9277 80.252 26.0859 79.8887 26.4023 79.6074C26.7188 79.3262 27.123 79.1855 27.6152 79.1855H32.9414ZM59.3262 79.1855H72.5449C73.0488 79.1855 73.4531 79.3262 73.7578 79.6074C74.0742 79.8887 74.2324 80.252 74.2324 80.6973C74.2324 81.1309 74.0742 81.4941 73.7578 81.7871C73.4414 82.0684 73.0371 82.209 72.5449 82.209H62.3496V86.8145H69.5918C70.084 86.8145 70.4824 86.9551 70.7871 87.2363C71.0918 87.5176 71.2441 87.8809 71.2441 88.3262C71.2441 88.7715 71.0859 89.1348 70.7695 89.416C70.4648 89.6973 70.0723 89.8379 69.5918 89.8379H62.3496V100.824C62.3496 101.328 62.209 101.732 61.9277 102.037C61.6465 102.354 61.2832 102.512 60.8379 102.512C60.3926 102.512 60.0293 102.354 59.748 102.037C59.4668 101.721 59.3262 101.316 59.3262 100.824V79.1855ZM89.8242 82.7891C89.6953 82.5664 89.5723 82.4141 89.4551 82.332C89.3496 82.25 89.209 82.209 89.0332 82.209C88.8691 82.209 88.7109 82.2617 88.5586 82.3672C88.4062 82.4727 88.2891 82.6074 88.207 82.7715L84.9551 89.1699C84.8496 89.3809 84.7617 89.6387 84.6914 89.9434C84.6328 90.248 84.6035 90.5469 84.6035 90.8398C84.6035 91.1445 84.6328 91.4492 84.6914 91.7539C84.7617 92.0586 84.8496 92.3164 84.9551 92.5273L88.2422 98.9082C88.3594 99.1309 88.4766 99.2832 88.5938 99.3652C88.7109 99.4473 88.8574 99.4883 89.0332 99.4883C89.1973 99.4883 89.3555 99.4414 89.5078 99.3477C89.6602 99.2422 89.7773 99.0957 89.8594 98.9082L93.0938 92.5449C93.1992 92.334 93.2871 92.0762 93.3574 91.7715C93.4277 91.4551 93.4629 91.1445 93.4629 90.8398C93.4629 90.5352 93.4277 90.2246 93.3574 89.9082C93.2871 89.5918 93.1992 89.3398 93.0938 89.1523L89.8242 82.7891ZM92.707 81.7344L95.8359 87.9043C96.0352 88.291 96.1934 88.7422 96.3105 89.2578C96.4277 89.7734 96.4863 90.3008 96.4863 90.8398C96.4863 91.3906 96.4277 91.9238 96.3105 92.4395C96.1934 92.9551 96.0352 93.4062 95.8359 93.793L92.707 99.9629C92.2148 100.889 91.6875 101.545 91.125 101.932C90.5625 102.318 89.8652 102.512 89.0332 102.512C88.1895 102.512 87.4863 102.318 86.9238 101.932C86.3613 101.545 85.8398 100.889 85.3594 99.9629L82.2305 93.793C82.0195 93.3828 81.8555 92.9258 81.7383 92.4219C81.6328 91.9062 81.5801 91.3789 81.5801 90.8398C81.5801 90.3008 81.6328 89.7734 81.7383 89.2578C81.8555 88.7422 82.0195 88.291 82.2305 87.9043L85.3594 81.7344C85.8398 80.8086 86.3613 80.1523 86.9238 79.7656C87.4863 79.3789 88.1895 79.1855 89.0332 79.1855C89.8652 79.1855 90.5625 79.3789 91.125 79.7656C91.6875 80.1523 92.2148 80.8086 92.707 81.7344ZM112.078 82.7891C111.949 82.5664 111.826 82.4141 111.709 82.332C111.604 82.25 111.463 82.209 111.287 82.209C111.123 82.209 110.965 82.2617 110.812 82.3672C110.66 82.4727 110.543 82.6074 110.461 82.7715L107.209 89.1699C107.104 89.3809 107.016 89.6387 106.945 89.9434C106.887 90.248 106.857 90.5469 106.857 90.8398C106.857 91.1445 106.887 91.4492 106.945 91.7539C107.016 92.0586 107.104 92.3164 107.209 92.5273L110.496 98.9082C110.613 99.1309 110.73 99.2832 110.848 99.3652C110.965 99.4473 111.111 99.4883 111.287 99.4883C111.451 99.4883 111.609 99.4414 111.762 99.3477C111.914 99.2422 112.031 99.0957 112.113 98.9082L115.348 92.5449C115.453 92.334 115.541 92.0762 115.611 91.7715C115.682 91.4551 115.717 91.1445 115.717 90.8398C115.717 90.5352 115.682 90.2246 115.611 89.9082C115.541 89.5918 115.453 89.3398 115.348 89.1523L112.078 82.7891ZM114.961 81.7344L118.09 87.9043C118.289 88.291 118.447 88.7422 118.564 89.2578C118.682 89.7734 118.74 90.3008 118.74 90.8398C118.74 91.3906 118.682 91.9238 118.564 92.4395C118.447 92.9551 118.289 93.4062 118.09 93.793L114.961 99.9629C114.469 100.889 113.941 101.545 113.379 101.932C112.816 102.318 112.119 102.512 111.287 102.512C110.443 102.512 109.74 102.318 109.178 101.932C108.615 101.545 108.094 100.889 107.613 99.9629L104.484 93.793C104.273 93.3828 104.109 92.9258 103.992 92.4219C103.887 91.9062 103.834 91.3789 103.834 90.8398C103.834 90.3008 103.887 89.7734 103.992 89.2578C104.109 88.7422 104.273 88.291 104.484 87.9043L107.613 81.7344C108.094 80.8086 108.615 80.1523 109.178 79.7656C109.74 79.3789 110.443 79.1855 111.287 79.1855C112.119 79.1855 112.816 79.3789 113.379 79.7656C113.941 80.1523 114.469 80.8086 114.961 81.7344ZM133.102 82.209H132.1V99.4883H133.102C133.406 99.4883 133.688 99.4062 133.945 99.2422C134.203 99.0781 134.402 98.8496 134.543 98.5566L137.637 92.2812C137.742 92.0703 137.818 91.8477 137.865 91.6133C137.912 91.3789 137.936 91.1211 137.936 90.8398C137.936 90.5703 137.912 90.3184 137.865 90.084C137.818 89.8496 137.742 89.627 137.637 89.416L134.543 83.1758C134.391 82.8828 134.186 82.6484 133.928 82.4727C133.67 82.2969 133.395 82.209 133.102 82.209ZM133.102 79.1855C134.051 79.1855 134.865 79.4141 135.545 79.8711C136.225 80.3281 136.816 81.0488 137.32 82.0332L140.449 88.2559C140.625 88.6191 140.76 89.0176 140.854 89.4512C140.947 89.873 140.994 90.3359 140.994 90.8398C140.994 91.3438 140.947 91.8125 140.854 92.2461C140.76 92.6797 140.625 93.0781 140.449 93.4414L137.32 99.6641C136.84 100.637 136.254 101.352 135.562 101.809C134.883 102.277 134.062 102.512 133.102 102.512H127.775C127.271 102.512 126.861 102.371 126.545 102.09C126.24 101.809 126.088 101.445 126.088 101C126.088 100.555 126.246 100.191 126.562 99.9102C126.879 99.6289 127.283 99.4883 127.775 99.4883H129.076V82.209H127.775C127.271 82.209 126.861 82.0684 126.545 81.7871C126.24 81.5059 126.088 81.1426 126.088 80.6973C126.088 80.252 126.246 79.8887 126.562 79.6074C126.879 79.3262 127.283 79.1855 127.775 79.1855H133.102Z" fill="white"/>
<path d="M3.67383 79.1855V78.6855H3.17383V79.1855H3.67383ZM7.41797 79.1855L7.82649 78.8973L7.67709 78.6855H7.41797V79.1855ZM11.127 84.4414L10.7184 84.7297L11.127 85.3086L11.5355 84.7297L11.127 84.4414ZM14.8359 79.1855V78.6855H14.5768L14.4274 78.8973L14.8359 79.1855ZM18.5801 79.1855H19.0801V78.6855H18.5801V79.1855ZM18.1582 102.037L17.7907 101.698L17.7845 101.705L18.1582 102.037ZM15.5566 83.4746H16.0566V81.9329L15.1518 83.1812L15.5566 83.4746ZM12.6387 87.5L12.2338 87.2065L12.1387 87.3378V87.5H12.6387ZM12.2168 89.3809L12.5843 89.7201L12.5905 89.713L12.2168 89.3809ZM9.61523 87.5H10.1152V87.3378L10.0201 87.2065L9.61523 87.5ZM6.69727 83.4746L7.10209 83.1812L6.19727 81.9329V83.4746H6.69727ZM6.27539 102.037L5.90792 101.698L5.90169 101.705L6.27539 102.037ZM3.67383 79.6855H7.41797V78.6855H3.67383V79.6855ZM7.00945 79.4738L10.7184 84.7297L11.5355 84.1531L7.82649 78.8973L7.00945 79.4738ZM11.5355 84.7297L15.2445 79.4738L14.4274 78.8973L10.7184 84.1531L11.5355 84.7297ZM14.8359 79.6855H18.5801V78.6855H14.8359V79.6855ZM18.0801 79.1855V100.824H19.0801V79.1855H18.0801ZM18.0801 100.824C18.0801 101.231 17.9693 101.505 17.7908 101.698L18.5256 102.376C18.9096 101.96 19.0801 101.425 19.0801 100.824H18.0801ZM17.7845 101.705C17.6036 101.908 17.3793 102.012 17.0684 102.012V103.012C17.6481 103.012 18.1503 102.799 18.5319 102.369L17.7845 101.705ZM17.0684 102.012C16.7575 102.012 16.5331 101.908 16.3522 101.705L15.6048 102.369C15.9864 102.799 16.4886 103.012 17.0684 103.012V102.012ZM16.3522 101.705C16.1654 101.495 16.0566 101.215 16.0566 100.824H15.0566C15.0566 101.418 15.2292 101.947 15.6048 102.369L16.3522 101.705ZM16.0566 100.824V83.4746H15.0566V100.824H16.0566ZM15.1518 83.1812L12.2338 87.2065L13.0435 87.7935L15.9615 83.7681L15.1518 83.1812ZM12.1387 87.5V88.1504H13.1387V87.5H12.1387ZM12.1387 88.1504C12.1387 88.5564 12.028 88.8406 11.8431 89.0487L12.5905 89.713C12.9681 89.2883 13.1387 88.7522 13.1387 88.1504H12.1387ZM11.8494 89.0417C11.6704 89.2357 11.4443 89.3379 11.127 89.3379V90.3379C11.7003 90.3379 12.2007 90.1354 12.5842 89.72L11.8494 89.0417ZM11.127 89.3379C10.8161 89.3379 10.5917 89.2346 10.4108 89.0311L9.6634 89.6955C10.045 90.1247 10.5472 90.3379 11.127 90.3379V89.3379ZM10.4108 89.0311C10.224 88.8209 10.1152 88.5413 10.1152 88.1504H9.11523C9.11523 88.7439 9.28777 89.2729 9.6634 89.6955L10.4108 89.0311ZM10.1152 88.1504V87.5H9.11523V88.1504H10.1152ZM10.0201 87.2065L7.10209 83.1812L6.29244 83.7681L9.21041 87.7935L10.0201 87.2065ZM6.19727 83.4746V100.824H7.19727V83.4746H6.19727ZM6.19727 100.824C6.19727 101.231 6.08645 101.505 5.90799 101.698L6.64279 102.376C7.02684 101.96 7.19727 101.425 7.19727 100.824H6.19727ZM5.90169 101.705C5.72077 101.908 5.49645 102.012 5.18555 102.012V103.012C5.76527 103.012 6.26752 102.799 6.6491 102.369L5.90169 101.705ZM5.18555 102.012C4.87465 102.012 4.65033 101.908 4.46941 101.705L3.722 102.369C4.10358 102.799 4.60582 103.012 5.18555 103.012V102.012ZM4.46941 101.705C4.28255 101.495 4.17383 101.215 4.17383 100.824H3.17383C3.17383 101.418 3.34636 101.947 3.722 102.369L4.46941 101.705ZM4.17383 100.824V79.1855H3.17383V100.824H4.17383ZM31.9395 82.209V81.709H31.4395V82.209H31.9395ZM31.9395 99.4883H31.4395V99.9883H31.9395V99.4883ZM34.3828 98.5566L33.9343 98.3355L33.9321 98.3403L34.3828 98.5566ZM37.4766 92.2812L37.0293 92.0576L37.0281 92.0602L37.4766 92.2812ZM37.4766 89.416L37.0286 89.6381L37.0294 89.6396L37.4766 89.416ZM34.3828 83.1758L34.8309 82.9536L34.8264 82.9451L34.3828 83.1758ZM37.1602 82.0332L37.6069 81.8086L37.6052 81.8054L37.1602 82.0332ZM40.2891 88.2559L40.7392 88.0381L40.7358 88.0312L40.2891 88.2559ZM40.6934 89.4512L40.2046 89.5568L40.2053 89.5596L40.6934 89.4512ZM40.2891 93.4414L40.7358 93.666L40.7391 93.6592L40.2891 93.4414ZM37.1602 99.6641L36.7134 99.4394L36.7119 99.4426L37.1602 99.6641ZM35.4023 101.809L35.1266 101.391L35.1185 101.397L35.4023 101.809ZM26.3848 102.09L26.0456 102.457L26.0526 102.464L26.3848 102.09ZM28.916 99.4883V99.9883H29.416V99.4883H28.916ZM28.916 82.209H29.416V81.709H28.916V82.209ZM26.3848 81.7871L26.0456 82.1546L26.0526 82.1608L26.3848 81.7871ZM32.9414 81.709H31.9395V82.709H32.9414V81.709ZM31.4395 82.209V99.4883H32.4395V82.209H31.4395ZM31.9395 99.9883H32.9414V98.9883H31.9395V99.9883ZM32.9414 99.9883C33.3415 99.9883 33.7158 99.879 34.0536 99.664L33.5167 98.8204C33.3389 98.9335 33.1507 98.9883 32.9414 98.9883V99.9883ZM34.0536 99.664C34.3952 99.4466 34.6552 99.1446 34.8336 98.773L33.9321 98.3403C33.8292 98.5546 33.6907 98.7096 33.5167 98.8204L34.0536 99.664ZM34.8313 98.7777L37.925 92.5023L37.0281 92.0602L33.9343 98.3356L34.8313 98.7777ZM37.9238 92.5049C38.0494 92.2536 38.1399 91.9887 38.1954 91.7113L37.2148 91.5152C37.1765 91.7066 37.1147 91.887 37.0294 92.0576L37.9238 92.5049ZM38.1954 91.7113C38.2497 91.4396 38.2754 91.1484 38.2754 90.8398H37.2754C37.2754 91.0938 37.2542 91.3182 37.2148 91.5152L38.1954 91.7113ZM38.2754 90.8398C38.2754 90.5415 38.2495 90.2564 38.1954 89.9859L37.2148 90.182C37.2544 90.3803 37.2754 90.5991 37.2754 90.8398H38.2754ZM38.1954 89.9859C38.1399 89.7086 38.0494 89.4436 37.9238 89.1924L37.0294 89.6396C37.1147 89.8103 37.1765 89.9907 37.2148 90.182L38.1954 89.9859ZM37.9245 89.1939L34.8308 82.9537L33.9348 83.3979L37.0286 89.6381L37.9245 89.1939ZM34.8264 82.9451C34.6383 82.5833 34.3793 82.2846 34.0492 82.0595L33.4859 82.8858C33.6715 83.0123 33.8227 83.1823 33.9392 83.4065L34.8264 82.9451ZM34.0492 82.0595C33.7141 81.831 33.3415 81.709 32.9414 81.709V82.709C33.1272 82.709 33.3054 82.7627 33.4859 82.8858L34.0492 82.0595ZM32.9414 79.6855C33.8075 79.6855 34.5211 79.8928 35.1058 80.286L35.6638 79.4562C34.8891 78.9353 33.9738 78.6855 32.9414 78.6855V79.6855ZM35.1058 80.286C35.6948 80.6821 36.2368 81.3268 36.7151 82.261L37.6052 81.8054C37.0757 80.7709 36.4341 79.9742 35.6638 79.4562L35.1058 80.286ZM36.7134 82.2578L39.8424 88.4805L40.7358 88.0312L37.6069 81.8086L36.7134 82.2578ZM39.839 88.4736C39.9959 88.7979 40.1185 89.1582 40.2047 89.5568L41.1821 89.3455C41.0808 88.8769 40.9338 88.4404 40.7391 88.0381L39.839 88.4736ZM40.2053 89.5596C40.2899 89.9406 40.334 90.3666 40.334 90.8398H41.334C41.334 90.3053 41.2843 89.8055 41.1815 89.3427L40.2053 89.5596ZM40.334 90.8398C40.334 91.3129 40.29 91.7459 40.2047 92.1404L41.1821 92.3518C41.2843 91.8791 41.334 91.3746 41.334 90.8398H40.334ZM40.2047 92.1404C40.1185 92.539 39.9959 92.8994 39.839 93.2236L40.7391 93.6592C40.9338 93.2569 41.0808 92.8203 41.1821 92.3518L40.2047 92.1404ZM39.8424 93.2168L36.7134 99.4394L37.6069 99.8887L40.7358 93.666L39.8424 93.2168ZM36.7119 99.4426C36.2588 100.36 35.7248 100.996 35.1266 101.391L35.6781 102.226C36.4627 101.707 37.1006 100.914 37.6084 99.8855L36.7119 99.4426ZM35.1185 101.397C34.5353 101.799 33.818 102.012 32.9414 102.012V103.012C33.9867 103.012 34.91 102.756 35.6862 102.22L35.1185 101.397ZM32.9414 102.012H27.6152V103.012H32.9414V102.012ZM27.6152 102.012C27.2092 102.012 26.925 101.901 26.7169 101.716L26.0526 102.464C26.4774 102.841 27.0134 103.012 27.6152 103.012V102.012ZM26.7239 101.722C26.53 101.543 26.4277 101.317 26.4277 101H25.4277C25.4277 101.573 25.6302 102.074 26.0456 102.457L26.7239 101.722ZM26.4277 101C26.4277 100.689 26.531 100.465 26.7345 100.284L26.0702 99.5365C25.6409 99.918 25.4277 100.42 25.4277 101H26.4277ZM26.7345 100.284C26.9447 100.097 27.2244 99.9883 27.6152 99.9883V98.9883C27.0217 98.9883 26.4928 99.1608 26.0702 99.5365L26.7345 100.284ZM27.6152 99.9883H28.916V98.9883H27.6152V99.9883ZM29.416 99.4883V82.209H28.416V99.4883H29.416ZM28.916 81.709H27.6152V82.709H28.916V81.709ZM27.6152 81.709C27.2092 81.709 26.925 81.5983 26.7169 81.4134L26.0526 82.1608C26.4774 82.5384 27.0134 82.709 27.6152 82.709V81.709ZM26.7239 81.4197C26.53 81.2407 26.4277 81.0146 26.4277 80.6973H25.4277C25.4277 81.2706 25.6302 81.771 26.0456 82.1545L26.7239 81.4197ZM26.4277 80.6973C26.4277 80.3864 26.531 80.162 26.7345 79.9811L26.0702 79.2337C25.6409 79.6153 25.4277 80.1175 25.4277 80.6973H26.4277ZM26.7345 79.9811C26.9447 79.7943 27.2244 79.6855 27.6152 79.6855V78.6855C27.0217 78.6855 26.4928 78.8581 26.0702 79.2337L26.7345 79.9811ZM27.6152 79.6855H32.9414V78.6855H27.6152V79.6855ZM59.3262 79.1855V78.6855H58.8262V79.1855H59.3262ZM73.7578 79.6074L73.4186 79.9749L73.4256 79.9811L73.7578 79.6074ZM73.7578 81.7871L74.0901 82.1609L74.0975 82.154L73.7578 81.7871ZM62.3496 82.209V81.709H61.8496V82.209H62.3496ZM62.3496 86.8145H61.8496V87.3145H62.3496V86.8145ZM70.7695 89.416L70.4373 89.0422L70.4304 89.0486L70.7695 89.416ZM62.3496 89.8379V89.3379H61.8496V89.8379H62.3496ZM61.9277 102.037L61.5603 101.698L61.554 101.705L61.9277 102.037ZM59.3262 79.6855H72.5449V78.6855H59.3262V79.6855ZM72.5449 79.6855C72.9516 79.6855 73.2253 79.7964 73.4187 79.9748L74.097 79.24C73.6809 78.856 73.146 78.6855 72.5449 78.6855V79.6855ZM73.4256 79.9811C73.6292 80.162 73.7324 80.3864 73.7324 80.6973H74.7324C74.7324 80.1175 74.5193 79.6153 74.09 79.2337L73.4256 79.9811ZM73.7324 80.6973C73.7324 80.9925 73.6317 81.2225 73.4181 81.4202L74.0975 82.154C74.5168 81.7658 74.7324 81.2693 74.7324 80.6973H73.7324ZM73.4256 81.4134C73.2154 81.6003 72.9358 81.709 72.5449 81.709V82.709C73.1384 82.709 73.6674 82.5365 74.09 82.1608L73.4256 81.4134ZM72.5449 81.709H62.3496V82.709H72.5449V81.709ZM61.8496 82.209V86.8145H62.8496V82.209H61.8496ZM62.3496 87.3145H69.5918V86.3145H62.3496V87.3145ZM69.5918 87.3145C69.9832 87.3145 70.2525 87.4233 70.448 87.6037L71.1263 86.8689C70.7124 86.4869 70.1847 86.3145 69.5918 86.3145V87.3145ZM70.448 87.6037C70.6419 87.7828 70.7441 88.0088 70.7441 88.3262H71.7441C71.7441 87.7529 71.5417 87.2524 71.1263 86.8689L70.448 87.6037ZM70.7441 88.3262C70.7441 88.6371 70.6409 88.8614 70.4373 89.0423L71.1017 89.7897C71.531 89.4081 71.7441 88.9059 71.7441 88.3262H70.7441ZM70.4304 89.0486C70.2326 89.2312 69.9679 89.3379 69.5918 89.3379V90.3379C70.1766 90.3379 70.6971 90.1634 71.1087 89.7834L70.4304 89.0486ZM69.5918 89.3379H62.3496V90.3379H69.5918V89.3379ZM61.8496 89.8379V100.824H62.8496V89.8379H61.8496ZM61.8496 100.824C61.8496 101.231 61.7388 101.505 61.5603 101.698L62.2951 102.376C62.6792 101.96 62.8496 101.425 62.8496 100.824H61.8496ZM61.554 101.705C61.3731 101.908 61.1488 102.012 60.8379 102.012V103.012C61.4176 103.012 61.9199 102.799 62.3014 102.369L61.554 101.705ZM60.8379 102.012C60.527 102.012 60.3027 101.908 60.1217 101.705L59.3743 102.369C59.7559 102.799 60.2582 103.012 60.8379 103.012V102.012ZM60.1217 101.705C59.9349 101.495 59.8262 101.215 59.8262 100.824H58.8262C58.8262 101.418 58.9987 101.947 59.3743 102.369L60.1217 101.705ZM59.8262 100.824V79.1855H58.8262V100.824H59.8262ZM89.8242 82.7891L90.269 82.5606L90.2632 82.5494L90.2569 82.5385L89.8242 82.7891ZM89.4551 82.332L89.1481 82.7267L89.158 82.7344L89.1684 82.7416L89.4551 82.332ZM88.207 82.7715L88.6528 82.998L88.6542 82.9951L88.207 82.7715ZM84.9551 89.1699L84.5093 88.9434L84.5079 88.9463L84.9551 89.1699ZM84.6914 89.9434L84.2042 89.8309L84.2021 89.8399L84.2004 89.8489L84.6914 89.9434ZM84.6914 91.7539L84.2004 91.8483L84.2021 91.8574L84.2042 91.8663L84.6914 91.7539ZM84.9551 92.5273L84.5078 92.751L84.5106 92.7563L84.9551 92.5273ZM88.2422 98.9082L87.7977 99.1372L87.7997 99.1411L88.2422 98.9082ZM89.5078 99.3477L89.7699 99.7735L89.7813 99.7664L89.7924 99.7588L89.5078 99.3477ZM89.8594 98.9082L89.4137 98.6816L89.4071 98.6945L89.4013 98.7078L89.8594 98.9082ZM93.0938 92.5449L93.5395 92.7715L93.541 92.7685L93.0938 92.5449ZM93.3574 91.7715L93.8446 91.8839L93.8455 91.8799L93.3574 91.7715ZM93.0938 89.1523L92.649 89.3809L92.6533 89.3892L92.658 89.3975L93.0938 89.1523ZM92.707 81.7344L93.1531 81.5082L93.1485 81.4997L92.707 81.7344ZM95.8359 87.9043L95.39 88.1304L95.3914 88.1333L95.8359 87.9043ZM95.8359 93.793L95.3914 93.564L95.39 93.5668L95.8359 93.793ZM92.707 99.9629L93.1486 100.198L93.153 100.189L92.707 99.9629ZM85.3594 99.9629L84.9134 100.189L84.9156 100.193L85.3594 99.9629ZM82.2305 93.793L82.6764 93.5668L82.6751 93.5643L82.2305 93.793ZM81.7383 92.4219L81.2482 92.5221L81.2513 92.5351L81.7383 92.4219ZM81.7383 89.2578L81.2506 89.147L81.2484 89.1576L81.7383 89.2578ZM82.2305 87.9043L82.6694 88.1437L82.673 88.1371L82.6764 88.1304L82.2305 87.9043ZM85.3594 81.7344L84.9156 81.504L84.9134 81.5082L85.3594 81.7344ZM90.2569 82.5385C90.1161 82.2954 89.9489 82.0674 89.7418 81.9224L89.1684 82.7416C89.1957 82.7608 89.2745 82.8374 89.3915 83.0396L90.2569 82.5385ZM89.762 81.9374C89.5446 81.7682 89.285 81.709 89.0332 81.709V82.709C89.133 82.709 89.1546 82.7318 89.1481 82.7267L89.762 81.9374ZM89.0332 81.709C88.7546 81.709 88.4987 81.8005 88.274 81.9561L88.8432 82.7783C88.9231 82.7229 88.9837 82.709 89.0332 82.709V81.709ZM88.274 81.9561C88.0533 82.1089 87.8798 82.3079 87.7598 82.5479L88.6542 82.9951C88.6983 82.907 88.7592 82.8364 88.8432 82.7783L88.274 81.9561ZM87.7613 82.5449L84.5093 88.9434L85.4008 89.3965L88.6528 82.998L87.7613 82.5449ZM84.5079 88.9463C84.3801 89.2019 84.2807 89.4994 84.2042 89.8309L85.1786 90.0558C85.2427 89.7779 85.3192 89.5598 85.4023 89.3935L84.5079 88.9463ZM84.2004 89.8489C84.1362 90.1829 84.1035 90.5134 84.1035 90.8398H85.1035C85.1035 90.5804 85.1294 90.3132 85.1824 90.0378L84.2004 89.8489ZM84.1035 90.8398C84.1035 91.1768 84.1359 91.5131 84.2004 91.8483L85.1824 91.6595C85.1297 91.3853 85.1035 91.1123 85.1035 90.8398H84.1035ZM84.2042 91.8663C84.2807 92.1979 84.3801 92.4954 84.5079 92.7509L85.4023 92.3037C85.3192 92.1375 85.2427 91.9193 85.1786 91.6415L84.2042 91.8663ZM84.5106 92.7563L87.7977 99.1372L88.6867 98.6792L85.3996 92.2984L84.5106 92.7563ZM87.7997 99.1411C87.9298 99.3883 88.0923 99.6246 88.307 99.7749L88.8805 98.9556C88.8608 98.9418 88.7889 98.8734 88.6846 98.6753L87.7997 99.1411ZM88.307 99.7749C88.5258 99.928 88.7786 99.9883 89.0332 99.9883V98.9883C88.9362 98.9883 88.8961 98.9665 88.8805 98.9556L88.307 99.7749ZM89.0332 99.9883C89.2981 99.9883 89.5461 99.9112 89.7699 99.7735L89.2458 98.9218C89.1649 98.9716 89.0964 98.9883 89.0332 98.9883V99.9883ZM89.7924 99.7588C90.0288 99.5951 90.2023 99.3719 90.3175 99.1086L89.4013 98.7078C89.3524 98.8195 89.2915 98.8893 89.2232 98.9366L89.7924 99.7588ZM90.3051 99.1348L93.5395 92.7715L92.648 92.3184L89.4137 98.6816L90.3051 99.1348ZM93.541 92.7685C93.6688 92.5129 93.7681 92.2154 93.8446 91.8839L92.8702 91.6591C92.8061 91.9369 92.7297 92.155 92.6465 92.3213L93.541 92.7685ZM93.8455 91.8799C93.9232 91.5302 93.9629 91.1833 93.9629 90.8398H92.9629C92.9629 91.1058 92.9322 91.38 92.8693 91.663L93.8455 91.8799ZM93.9629 90.8398C93.9629 90.4964 93.9232 90.1495 93.8455 89.7997L92.8693 90.0167C92.9322 90.2997 92.9629 90.5739 92.9629 90.8398H93.9629ZM93.8455 89.7997C93.7694 89.4571 93.6679 89.1532 93.5295 88.9072L92.658 89.3975C92.7305 89.5265 92.8048 89.7265 92.8693 90.0167L93.8455 89.7997ZM93.5385 88.9238L90.269 82.5606L89.3795 83.0176L92.649 89.3809L93.5385 88.9238ZM92.2611 81.9605L95.39 88.1304L96.2819 87.6782L93.153 81.5082L92.2611 81.9605ZM95.3914 88.1333C95.5678 88.4756 95.7132 88.8856 95.823 89.3686L96.7981 89.147C96.6735 88.5988 96.5025 88.1065 96.2804 87.6753L95.3914 88.1333ZM95.823 89.3686C95.9317 89.8472 95.9863 90.3373 95.9863 90.8398H96.9863C96.9863 90.2642 96.9237 89.6997 96.7981 89.147L95.823 89.3686ZM95.9863 90.8398C95.9863 91.3549 95.9316 91.8509 95.823 92.3286L96.7981 92.5503C96.9239 91.9968 96.9863 91.4264 96.9863 90.8398H95.9863ZM95.823 92.3286C95.7132 92.8117 95.5678 93.2217 95.3914 93.564L96.2804 94.0219C96.5025 93.5908 96.6735 93.0985 96.7981 92.5503L95.823 92.3286ZM95.39 93.5668L92.2611 99.7367L93.153 100.189L96.2819 94.0191L95.39 93.5668ZM92.2655 99.7282C91.7927 100.618 91.3119 101.196 90.8417 101.52L91.4083 102.344C92.0631 101.893 92.637 101.16 93.1485 100.198L92.2655 99.7282ZM90.8417 101.52C90.3793 101.838 89.7865 102.012 89.0332 102.012V103.012C89.9439 103.012 90.7457 102.799 91.4083 102.344L90.8417 101.52ZM89.0332 102.012C88.2665 102.012 87.6684 101.837 87.2071 101.52L86.6406 102.344C87.3043 102.8 88.1124 103.012 89.0332 103.012V102.012ZM87.2071 101.52C86.7386 101.198 86.2641 100.621 85.8032 99.7326L84.9156 100.193C85.4156 101.157 85.984 101.892 86.6406 102.344L87.2071 101.52ZM85.8053 99.7367L82.6764 93.5668L81.7845 94.0191L84.9134 100.189L85.8053 99.7367ZM82.6751 93.5643C82.4851 93.1948 82.3343 92.7772 82.2253 92.3086L81.2513 92.5351C81.3767 93.0743 81.554 93.5708 81.7858 94.0216L82.6751 93.5643ZM82.2281 92.3217C82.1296 91.8398 82.0801 91.3461 82.0801 90.8398H81.0801C81.0801 91.4117 81.136 91.9727 81.2484 92.5221L82.2281 92.3217ZM82.0801 90.8398C82.0801 90.3336 82.1296 89.8399 82.2281 89.358L81.2484 89.1576C81.136 89.707 81.0801 90.2679 81.0801 90.8398H82.0801ZM82.2258 89.3686C82.3348 88.8892 82.4844 88.4829 82.6694 88.1437L81.7915 87.6649C81.5546 88.0991 81.3761 88.5951 81.2507 89.147L82.2258 89.3686ZM82.6764 88.1304L85.8053 81.9605L84.9134 81.5082L81.7845 87.6782L82.6764 88.1304ZM85.8032 81.9647C86.2641 81.0766 86.7386 80.4997 87.2071 80.1776L86.6406 79.3536C85.984 79.805 85.4156 80.5406 84.9156 81.5041L85.8032 81.9647ZM87.2071 80.1776C87.6684 79.8605 88.2665 79.6855 89.0332 79.6855V78.6855C88.1124 78.6855 87.3043 78.8973 86.6406 79.3536L87.2071 80.1776ZM89.0332 79.6855C89.7865 79.6855 90.3793 79.8597 90.8417 80.1776L91.4083 79.3536C90.7457 78.8981 89.9439 78.6855 89.0332 78.6855V79.6855ZM90.8417 80.1776C91.3119 80.5009 91.7927 81.0797 92.2655 81.9691L93.1485 81.4997C92.637 80.5375 92.0631 79.8038 91.4083 79.3536L90.8417 80.1776ZM112.078 82.7891L112.523 82.5606L112.517 82.5494L112.511 82.5385L112.078 82.7891ZM111.709 82.332L111.402 82.7267L111.412 82.7344L111.422 82.7416L111.709 82.332ZM110.461 82.7715L110.907 82.998L110.908 82.9951L110.461 82.7715ZM107.209 89.1699L106.763 88.9434L106.762 88.9463L107.209 89.1699ZM106.945 89.9434L106.458 89.8309L106.456 89.8399L106.454 89.8489L106.945 89.9434ZM106.945 91.7539L106.454 91.8483L106.456 91.8574L106.458 91.8663L106.945 91.7539ZM107.209 92.5273L106.762 92.751L106.764 92.7563L107.209 92.5273ZM110.496 98.9082L110.052 99.1372L110.054 99.1411L110.496 98.9082ZM111.762 99.3477L112.024 99.7735L112.035 99.7664L112.046 99.7588L111.762 99.3477ZM112.113 98.9082L111.668 98.6816L111.661 98.6945L111.655 98.7078L112.113 98.9082ZM115.348 92.5449L115.793 92.7715L115.795 92.7685L115.348 92.5449ZM115.611 91.7715L116.099 91.8839L116.099 91.8799L115.611 91.7715ZM115.348 89.1523L114.903 89.3809L114.907 89.3892L114.912 89.3975L115.348 89.1523ZM114.961 81.7344L115.407 81.5082L115.402 81.4997L114.961 81.7344ZM118.09 87.9043L117.644 88.1304L117.645 88.1333L118.09 87.9043ZM118.09 93.793L117.645 93.564L117.644 93.5668L118.09 93.793ZM114.961 99.9629L115.403 100.198L115.407 100.189L114.961 99.9629ZM107.613 99.9629L107.167 100.189L107.169 100.193L107.613 99.9629ZM104.484 93.793L104.93 93.5668L104.929 93.5643L104.484 93.793ZM103.992 92.4219L103.502 92.5221L103.505 92.5351L103.992 92.4219ZM103.992 89.2578L103.505 89.147L103.502 89.1576L103.992 89.2578ZM104.484 87.9043L104.923 88.1437L104.927 88.1371L104.93 88.1304L104.484 87.9043ZM107.613 81.7344L107.169 81.504L107.167 81.5082L107.613 81.7344ZM112.511 82.5385C112.37 82.2954 112.203 82.0674 111.996 81.9224L111.422 82.7416C111.45 82.7608 111.528 82.8374 111.645 83.0396L112.511 82.5385ZM112.016 81.9374C111.799 81.7682 111.539 81.709 111.287 81.709V82.709C111.387 82.709 111.409 82.7318 111.402 82.7267L112.016 81.9374ZM111.287 81.709C111.008 81.709 110.753 81.8005 110.528 81.9561L111.097 82.7783C111.177 82.7229 111.238 82.709 111.287 82.709V81.709ZM110.528 81.9561C110.307 82.1089 110.134 82.3079 110.014 82.5479L110.908 82.9951C110.952 82.907 111.013 82.8364 111.097 82.7783L110.528 81.9561ZM110.015 82.5449L106.763 88.9434L107.655 89.3965L110.907 82.998L110.015 82.5449ZM106.762 88.9463C106.634 89.2019 106.535 89.4994 106.458 89.8309L107.433 90.0558C107.497 89.7779 107.573 89.5598 107.656 89.3935L106.762 88.9463ZM106.454 89.8489C106.39 90.1829 106.357 90.5134 106.357 90.8398H107.357C107.357 90.5804 107.383 90.3132 107.436 90.0378L106.454 89.8489ZM106.357 90.8398C106.357 91.1768 106.39 91.5131 106.454 91.8483L107.436 91.6595C107.384 91.3853 107.357 91.1123 107.357 90.8398H106.357ZM106.458 91.8663C106.535 92.1979 106.634 92.4954 106.762 92.7509L107.656 92.3037C107.573 92.1375 107.497 91.9193 107.433 91.6415L106.458 91.8663ZM106.764 92.7563L110.052 99.1372L110.941 98.6792L107.653 92.2984L106.764 92.7563ZM110.054 99.1411C110.184 99.3883 110.346 99.6246 110.561 99.7749L111.134 98.9556C111.115 98.9418 111.043 98.8734 110.939 98.6753L110.054 99.1411ZM110.561 99.7749C110.78 99.928 111.033 99.9883 111.287 99.9883V98.9883C111.19 98.9883 111.15 98.9665 111.134 98.9556L110.561 99.7749ZM111.287 99.9883C111.552 99.9883 111.8 99.9112 112.024 99.7735L111.5 98.9218C111.419 98.9716 111.35 98.9883 111.287 98.9883V99.9883ZM112.046 99.7588C112.283 99.5951 112.456 99.3719 112.571 99.1086L111.655 98.7078C111.606 98.8195 111.545 98.8893 111.477 98.9366L112.046 99.7588ZM112.559 99.1348L115.793 92.7715L114.902 92.3184L111.668 98.6816L112.559 99.1348ZM115.795 92.7685C115.923 92.5129 116.022 92.2154 116.099 91.8839L115.124 91.6591C115.06 91.9369 114.984 92.155 114.9 92.3213L115.795 92.7685ZM116.099 91.8799C116.177 91.5302 116.217 91.1833 116.217 90.8398H115.217C115.217 91.1058 115.186 91.38 115.123 91.663L116.099 91.8799ZM116.217 90.8398C116.217 90.4964 116.177 90.1495 116.099 89.7997L115.123 90.0167C115.186 90.2997 115.217 90.5739 115.217 90.8398H116.217ZM116.099 89.7997C116.023 89.4571 115.922 89.1532 115.783 88.9072L114.912 89.3975C114.984 89.5265 115.059 89.7265 115.123 90.0167L116.099 89.7997ZM115.792 88.9238L112.523 82.5606L111.633 83.0176L114.903 89.3809L115.792 88.9238ZM114.515 81.9605L117.644 88.1304L118.536 87.6782L115.407 81.5082L114.515 81.9605ZM117.645 88.1333C117.822 88.4756 117.967 88.8856 118.077 89.3686L119.052 89.147C118.927 88.5988 118.756 88.1065 118.534 87.6753L117.645 88.1333ZM118.077 89.3686C118.186 89.8472 118.24 90.3373 118.24 90.8398H119.24C119.24 90.2642 119.178 89.6997 119.052 89.147L118.077 89.3686ZM118.24 90.8398C118.24 91.3549 118.185 91.8509 118.077 92.3286L119.052 92.5503C119.178 91.9968 119.24 91.4264 119.24 90.8398H118.24ZM118.077 92.3286C117.967 92.8117 117.822 93.2217 117.645 93.564L118.534 94.0219C118.756 93.5908 118.927 93.0985 119.052 92.5503L118.077 92.3286ZM117.644 93.5668L114.515 99.7367L115.407 100.189L118.536 94.0191L117.644 93.5668ZM114.519 99.7282C114.047 100.618 113.566 101.196 113.096 101.52L113.662 102.344C114.317 101.893 114.891 101.16 115.402 100.198L114.519 99.7282ZM113.096 101.52C112.633 101.838 112.04 102.012 111.287 102.012V103.012C112.198 103.012 113 102.799 113.662 102.344L113.096 101.52ZM111.287 102.012C110.52 102.012 109.922 101.837 109.461 101.52L108.894 102.344C109.558 102.8 110.366 103.012 111.287 103.012V102.012ZM109.461 101.52C108.993 101.198 108.518 100.621 108.057 99.7326L107.169 100.193C107.67 101.157 108.238 101.892 108.894 102.344L109.461 101.52ZM108.059 99.7367L104.93 93.5668L104.038 94.0191L107.167 100.189L108.059 99.7367ZM104.929 93.5643C104.739 93.1948 104.588 92.7772 104.479 92.3086L103.505 92.5351C103.631 93.0743 103.808 93.5708 104.04 94.0216L104.929 93.5643ZM104.482 92.3217C104.383 91.8398 104.334 91.3461 104.334 90.8398H103.334C103.334 91.4117 103.39 91.9727 103.502 92.5221L104.482 92.3217ZM104.334 90.8398C104.334 90.3336 104.383 89.8399 104.482 89.358L103.502 89.1576C103.39 89.707 103.334 90.2679 103.334 90.8398H104.334ZM104.48 89.3686C104.589 88.8892 104.738 88.4829 104.923 88.1437L104.045 87.6649C103.809 88.0991 103.63 88.5951 103.505 89.147L104.48 89.3686ZM104.93 88.1304L108.059 81.9605L107.167 81.5082L104.038 87.6782L104.93 88.1304ZM108.057 81.9647C108.518 81.0766 108.993 80.4997 109.461 80.1776L108.894 79.3536C108.238 79.805 107.67 80.5406 107.169 81.5041L108.057 81.9647ZM109.461 80.1776C109.922 79.8605 110.52 79.6855 111.287 79.6855V78.6855C110.366 78.6855 109.558 78.8973 108.894 79.3536L109.461 80.1776ZM111.287 79.6855C112.04 79.6855 112.633 79.8597 113.096 80.1776L113.662 79.3536C113 78.8981 112.198 78.6855 111.287 78.6855V79.6855ZM113.096 80.1776C113.566 80.5009 114.047 81.0797 114.519 81.9691L115.402 81.4997C114.891 80.5375 114.317 79.8038 113.662 79.3536L113.096 80.1776ZM132.1 82.209V81.709H131.6V82.209H132.1ZM132.1 99.4883H131.6V99.9883H132.1V99.4883ZM134.543 98.5566L134.094 98.3355L134.092 98.3403L134.543 98.5566ZM137.637 92.2812L137.189 92.0576L137.188 92.0602L137.637 92.2812ZM137.637 89.416L137.189 89.6381L137.189 89.6396L137.637 89.416ZM134.543 83.1758L134.991 82.9536L134.987 82.9451L134.543 83.1758ZM137.32 82.0332L137.767 81.8086L137.765 81.8054L137.32 82.0332ZM140.449 88.2559L140.899 88.0381L140.896 88.0312L140.449 88.2559ZM140.854 89.4512L140.365 89.5568L140.365 89.5596L140.854 89.4512ZM140.449 93.4414L140.896 93.666L140.899 93.6592L140.449 93.4414ZM137.32 99.6641L136.874 99.4394L136.872 99.4426L137.32 99.6641ZM135.562 101.809L135.287 101.391L135.279 101.397L135.562 101.809ZM126.545 102.09L126.206 102.457L126.213 102.464L126.545 102.09ZM129.076 99.4883V99.9883H129.576V99.4883H129.076ZM129.076 82.209H129.576V81.709H129.076V82.209ZM126.545 81.7871L126.206 82.1546L126.213 82.1608L126.545 81.7871ZM133.102 81.709H132.1V82.709H133.102V81.709ZM131.6 82.209V99.4883H132.6V82.209H131.6ZM132.1 99.9883H133.102V98.9883H132.1V99.9883ZM133.102 99.9883C133.502 99.9883 133.876 99.879 134.214 99.664L133.677 98.8204C133.499 98.9335 133.311 98.9883 133.102 98.9883V99.9883ZM134.214 99.664C134.555 99.4466 134.815 99.1446 134.994 98.773L134.092 98.3403C133.989 98.5546 133.851 98.7096 133.677 98.8204L134.214 99.664ZM134.991 98.7777L138.085 92.5023L137.188 92.0602L134.095 98.3356L134.991 98.7777ZM138.084 92.5049C138.21 92.2536 138.3 91.9887 138.356 91.7113L137.375 91.5152C137.337 91.7066 137.275 91.887 137.189 92.0576L138.084 92.5049ZM138.356 91.7113C138.41 91.4396 138.436 91.1484 138.436 90.8398H137.436C137.436 91.0938 137.414 91.3182 137.375 91.5152L138.356 91.7113ZM138.436 90.8398C138.436 90.5415 138.41 90.2564 138.356 89.9859L137.375 90.182C137.415 90.3803 137.436 90.5991 137.436 90.8398H138.436ZM138.356 89.9859C138.3 89.7086 138.21 89.4436 138.084 89.1924L137.189 89.6396C137.275 89.8103 137.337 89.9907 137.375 90.182L138.356 89.9859ZM138.085 89.1939L134.991 82.9537L134.095 83.3979L137.189 89.6381L138.085 89.1939ZM134.987 82.9451C134.798 82.5833 134.539 82.2846 134.209 82.0595L133.646 82.8858C133.832 83.0123 133.983 83.1823 134.099 83.4065L134.987 82.9451ZM134.209 82.0595C133.874 81.831 133.502 81.709 133.102 81.709V82.709C133.287 82.709 133.466 82.7627 133.646 82.8858L134.209 82.0595ZM133.102 79.6855C133.968 79.6855 134.681 79.8928 135.266 80.286L135.824 79.4562C135.049 78.9353 134.134 78.6855 133.102 78.6855V79.6855ZM135.266 80.286C135.855 80.6821 136.397 81.3268 136.875 82.261L137.765 81.8054C137.236 80.7709 136.594 79.9742 135.824 79.4562L135.266 80.286ZM136.874 82.2578L140.003 88.4805L140.896 88.0312L137.767 81.8086L136.874 82.2578ZM139.999 88.4736C140.156 88.7979 140.279 89.1582 140.365 89.5568L141.342 89.3455C141.241 88.8769 141.094 88.4404 140.899 88.0381L139.999 88.4736ZM140.365 89.5596C140.45 89.9406 140.494 90.3666 140.494 90.8398H141.494C141.494 90.3053 141.444 89.8055 141.342 89.3427L140.365 89.5596ZM140.494 90.8398C140.494 91.3129 140.45 91.7459 140.365 92.1404L141.342 92.3518C141.444 91.8791 141.494 91.3746 141.494 90.8398H140.494ZM140.365 92.1404C140.279 92.539 140.156 92.8994 139.999 93.2236L140.899 93.6592C141.094 93.2569 141.241 92.8203 141.342 92.3518L140.365 92.1404ZM140.003 93.2168L136.874 99.4394L137.767 99.8887L140.896 93.666L140.003 93.2168ZM136.872 99.4426C136.419 100.36 135.885 100.996 135.287 101.391L135.838 102.226C136.623 101.707 137.261 100.914 137.769 99.8855L136.872 99.4426ZM135.279 101.397C134.695 101.799 133.978 102.012 133.102 102.012V103.012C134.147 103.012 135.07 102.756 135.846 102.22L135.279 101.397ZM133.102 102.012H127.775V103.012H133.102V102.012ZM127.775 102.012C127.369 102.012 127.085 101.901 126.877 101.716L126.213 102.464C126.638 102.841 127.174 103.012 127.775 103.012V102.012ZM126.884 101.722C126.69 101.543 126.588 101.317 126.588 101H125.588C125.588 101.573 125.79 102.074 126.206 102.457L126.884 101.722ZM126.588 101C126.588 100.689 126.691 100.465 126.895 100.284L126.23 99.5365C125.801 99.918 125.588 100.42 125.588 101H126.588ZM126.895 100.284C127.105 100.097 127.385 99.9883 127.775 99.9883V98.9883C127.182 98.9883 126.653 99.1608 126.23 99.5365L126.895 100.284ZM127.775 99.9883H129.076V98.9883H127.775V99.9883ZM129.576 99.4883V82.209H128.576V99.4883H129.576ZM129.076 81.709H127.775V82.709H129.076V81.709ZM127.775 81.709C127.369 81.709 127.085 81.5983 126.877 81.4134L126.213 82.1608C126.638 82.5384 127.174 82.709 127.775 82.709V81.709ZM126.884 81.4197C126.69 81.2407 126.588 81.0146 126.588 80.6973H125.588C125.588 81.2706 125.79 81.771 126.206 82.1545L126.884 81.4197ZM126.588 80.6973C126.588 80.3864 126.691 80.162 126.895 79.9811L126.23 79.2337C125.801 79.6153 125.588 80.1175 125.588 80.6973H126.588ZM126.895 79.9811C127.105 79.7943 127.385 79.6855 127.775 79.6855V78.6855C127.182 78.6855 126.653 78.8581 126.23 79.2337L126.895 79.9811ZM127.775 79.6855H133.102V78.6855H127.775V79.6855Z" fill="white"/>
</svg>
